%TF.GenerationSoftware,KiCad,Pcbnew,8.0.2*%
%TF.CreationDate,2024-10-21T09:55:00-04:00*%
%TF.ProjectId,Pi_Board,50695f42-6f61-4726-942e-6b696361645f,rev?*%
%TF.SameCoordinates,Original*%
%TF.FileFunction,Paste,Top*%
%TF.FilePolarity,Positive*%
%FSLAX46Y46*%
G04 Gerber Fmt 4.6, Leading zero omitted, Abs format (unit mm)*
G04 Created by KiCad (PCBNEW 8.0.2) date 2024-10-21 09:55:00*
%MOMM*%
%LPD*%
G01*
G04 APERTURE LIST*
%ADD10C,0.000000*%
%ADD11R,7.493000X1.790700*%
%ADD12R,0.508000X0.660400*%
%ADD13R,1.016000X1.193800*%
%ADD14R,1.778000X0.355600*%
%ADD15R,0.558800X1.447800*%
%ADD16R,0.553200X1.000000*%
%ADD17R,1.397000X0.914400*%
%ADD18R,0.914400X1.549400*%
%ADD19R,1.250000X0.650000*%
%ADD20R,2.720000X0.960000*%
%ADD21R,1.244600X1.219200*%
%ADD22R,1.380000X0.960000*%
%ADD23R,0.855600X1.600000*%
%ADD24R,0.298000X0.700000*%
%ADD25R,0.998000X0.700000*%
%ADD26R,1.000000X1.100000*%
%ADD27R,1.397000X1.066800*%
%ADD28R,0.200000X0.700000*%
%ADD29R,0.660400X0.508000*%
%ADD30R,0.660400X2.108200*%
%ADD31R,0.762000X4.292600*%
%ADD32R,0.700000X1.100000*%
%ADD33R,0.900000X0.930000*%
%ADD34R,1.050000X0.780000*%
%ADD35R,0.700000X3.330000*%
%ADD36R,1.140000X1.830000*%
%ADD37R,0.860000X2.800000*%
G04 APERTURE END LIST*
D10*
%TO.C,U5*%
G36*
X175213300Y-67154700D02*
G01*
X173736900Y-67154700D01*
X173736900Y-65995800D01*
X175213300Y-65995800D01*
X175213300Y-67154700D01*
G37*
G36*
X175213300Y-68513600D02*
G01*
X173736900Y-68513600D01*
X173736900Y-67354700D01*
X175213300Y-67354700D01*
X175213300Y-68513600D01*
G37*
G36*
X176889700Y-67154700D02*
G01*
X175413300Y-67154700D01*
X175413300Y-65995800D01*
X176889700Y-65995800D01*
X176889700Y-67154700D01*
G37*
G36*
X176889700Y-68513600D02*
G01*
X175413300Y-68513600D01*
X175413300Y-67354700D01*
X176889700Y-67354700D01*
X176889700Y-68513600D01*
G37*
%TD*%
D11*
%TO.C,L2*%
X182573300Y-76225350D03*
X182573300Y-70624650D03*
%TD*%
D12*
%TO.C,R15*%
X184898300Y-80891200D03*
X184898300Y-82008800D03*
%TD*%
D13*
%TO.C,C12*%
X195300900Y-70200000D03*
X193599100Y-70200000D03*
%TD*%
D12*
%TO.C,R21*%
X183723301Y-80882399D03*
X183723301Y-81999999D03*
%TD*%
D14*
%TO.C,U2*%
X189226500Y-72375000D03*
X189226500Y-73025001D03*
X189226500Y-73675000D03*
X189226500Y-74325001D03*
X189226500Y-74974999D03*
X189226500Y-75625001D03*
X189226500Y-76274999D03*
X189226500Y-76924998D03*
X189226500Y-77574999D03*
X189226500Y-78224998D03*
X189226500Y-78874999D03*
X189226500Y-79524998D03*
X189226500Y-80174999D03*
X189226500Y-80824998D03*
X195170100Y-80825000D03*
X195170100Y-80174999D03*
X195170100Y-79525000D03*
X195170100Y-78874999D03*
X195170100Y-78225001D03*
X195170100Y-77574999D03*
X195170100Y-76925001D03*
X195170100Y-76274999D03*
X195170100Y-75625001D03*
X195170100Y-74974999D03*
X195170100Y-74325001D03*
X195170100Y-73675000D03*
X195170100Y-73025001D03*
X195170100Y-72375000D03*
%TD*%
D12*
%TO.C,R13*%
X181373300Y-83316199D03*
X181373300Y-84433799D03*
%TD*%
D15*
%TO.C,U5*%
X177218300Y-64575000D03*
X175948300Y-64575000D03*
X174678300Y-64575000D03*
X173408300Y-64575000D03*
X173408300Y-69934400D03*
X174678300Y-69934400D03*
X175948300Y-69934400D03*
X177218300Y-69934400D03*
%TD*%
D16*
%TO.C,R6*%
X197900000Y-86650000D03*
X196246800Y-86650000D03*
%TD*%
D12*
%TO.C,R17*%
X182548301Y-83316199D03*
X182548301Y-84433799D03*
%TD*%
D17*
%TO.C,C5*%
X179070000Y-66425699D03*
X179070000Y-68016099D03*
%TD*%
D12*
%TO.C,R16*%
X181373301Y-80866199D03*
X181373301Y-81983799D03*
%TD*%
%TO.C,R18*%
X183723300Y-83316199D03*
X183723300Y-84433799D03*
%TD*%
D18*
%TO.C,R12*%
X171745000Y-68420900D03*
X169154200Y-68420900D03*
%TD*%
D16*
%TO.C,R2*%
X193853200Y-86600000D03*
X192200000Y-86600000D03*
%TD*%
D12*
%TO.C,R14*%
X180198300Y-83316199D03*
X180198300Y-84433799D03*
%TD*%
D19*
%TO.C,IC1*%
X172750000Y-81960000D03*
X172750000Y-82900000D03*
X172750000Y-83840000D03*
X175250000Y-83840000D03*
X175250000Y-81960000D03*
%TD*%
D20*
%TO.C,C11*%
X176545000Y-78445900D03*
X176545000Y-75195900D03*
%TD*%
D21*
%TO.C,R4*%
X171595000Y-72673401D03*
X171595000Y-70768401D03*
%TD*%
D22*
%TO.C,R3*%
X174520000Y-73698900D03*
X174520000Y-71742900D03*
%TD*%
D23*
%TO.C,C3*%
X175570001Y-62170900D03*
X172514399Y-62170900D03*
%TD*%
D24*
%TO.C,J7*%
X192125000Y-88860000D03*
X192625000Y-88860000D03*
X193125000Y-88860000D03*
X193625000Y-88860000D03*
X194125000Y-88860000D03*
X194625000Y-88860000D03*
X195625000Y-88860000D03*
X196125000Y-88860000D03*
X196625000Y-88860000D03*
X197125000Y-88860000D03*
X197625000Y-88860000D03*
X198125000Y-88860000D03*
D25*
X198225000Y-90160000D03*
D24*
X197375000Y-90160000D03*
X196875000Y-90160000D03*
X196375000Y-90160000D03*
X195875000Y-90160000D03*
X195375000Y-90160000D03*
X194875000Y-90160000D03*
X194375000Y-90160000D03*
X193875000Y-90160000D03*
X193375000Y-90160000D03*
X192875000Y-90160000D03*
D25*
X192025000Y-90160000D03*
%TD*%
D26*
%TO.C,C4*%
X171695000Y-64595899D03*
X171695000Y-66295899D03*
%TD*%
D12*
%TO.C,R22*%
X180198300Y-80866199D03*
X180198300Y-81983799D03*
%TD*%
%TO.C,R19*%
X184898300Y-83341199D03*
X184898300Y-84458799D03*
%TD*%
D27*
%TO.C,C21*%
X181450000Y-59353400D03*
X181450000Y-57550000D03*
%TD*%
D20*
%TO.C,C8*%
X169969999Y-78440899D03*
X169969999Y-75190899D03*
%TD*%
D28*
%TO.C,Module1*%
X147950000Y-55075000D03*
X147950000Y-58155000D03*
X147550000Y-55075000D03*
X147550000Y-58155000D03*
X147150000Y-55075000D03*
X147150000Y-58155000D03*
X146750000Y-55075000D03*
X146750000Y-58155000D03*
X146350000Y-55075000D03*
X146350000Y-58155000D03*
X145950000Y-55075000D03*
X145950000Y-58155000D03*
X145550000Y-55075000D03*
X145550000Y-58155000D03*
X145150000Y-55075000D03*
X145150000Y-58155000D03*
X144750000Y-55075000D03*
X144750000Y-58155000D03*
X144350000Y-55075000D03*
X144350000Y-58155000D03*
X143950000Y-55075000D03*
X143950000Y-58155000D03*
X143550000Y-55075000D03*
X143550000Y-58155000D03*
X143150000Y-55075000D03*
X143150000Y-58155000D03*
X142750000Y-55075000D03*
X142750000Y-58155000D03*
X142350000Y-55075000D03*
X142350000Y-58155000D03*
X141950000Y-55075000D03*
X141950000Y-58155000D03*
X141550000Y-55075000D03*
X141550000Y-58155000D03*
X141150000Y-55075000D03*
X141150000Y-58155000D03*
X140750000Y-55075000D03*
X140750000Y-58155000D03*
X140350000Y-55075000D03*
X140350000Y-58155000D03*
X139950000Y-55075000D03*
X139950000Y-58155000D03*
X139550000Y-55075000D03*
X139550000Y-58155000D03*
X139150000Y-55075000D03*
X139150000Y-58155000D03*
X138750000Y-55075000D03*
X138750000Y-58155000D03*
X138350000Y-55075000D03*
X138350000Y-58155000D03*
X137950000Y-55075000D03*
X137950000Y-58155000D03*
X137550000Y-55075000D03*
X137550000Y-58155000D03*
X137150000Y-55075000D03*
X137150000Y-58155000D03*
X136750000Y-55075000D03*
X136750000Y-58155000D03*
X136350000Y-55075000D03*
X136350000Y-58155000D03*
X135950000Y-55075000D03*
X135950000Y-58155000D03*
X135550000Y-55075000D03*
X135550000Y-58155000D03*
X135150000Y-55075000D03*
X135150000Y-58155000D03*
X134750000Y-55075000D03*
X134750000Y-58155000D03*
X134350000Y-55075000D03*
X134350000Y-58155000D03*
X133950000Y-55075000D03*
X133950000Y-58155000D03*
X133550000Y-55075000D03*
X133550000Y-58155000D03*
X133150000Y-55075000D03*
X133150000Y-58155000D03*
X132750000Y-55075000D03*
X132750000Y-58155000D03*
X132350000Y-55075000D03*
X132350000Y-58155000D03*
X131950000Y-55075000D03*
X131950000Y-58155000D03*
X131550000Y-55075000D03*
X131550000Y-58155000D03*
X131150000Y-55075000D03*
X131150000Y-58155000D03*
X130750000Y-55075000D03*
X130750000Y-58155000D03*
X130350000Y-55075000D03*
X130350000Y-58155000D03*
X129950000Y-55075000D03*
X129950000Y-58155000D03*
X129550000Y-55075000D03*
X129550000Y-58155000D03*
X129150000Y-55075000D03*
X129150000Y-58155000D03*
X128750000Y-55075000D03*
X128750000Y-58155000D03*
X128350000Y-55075000D03*
X128350000Y-58155000D03*
X147950000Y-88995000D03*
X147950000Y-92075000D03*
X147550000Y-88995000D03*
X147550000Y-92075000D03*
X147150000Y-88995000D03*
X147150000Y-92075000D03*
X146750000Y-88995000D03*
X146750000Y-92075000D03*
X146350000Y-88995000D03*
X146350000Y-92075000D03*
X145950000Y-88995000D03*
X145950000Y-92075000D03*
X145550000Y-88995000D03*
X145550000Y-92075000D03*
X145150000Y-88995000D03*
X145150000Y-92075000D03*
X144750000Y-88995000D03*
X144750000Y-92075000D03*
X144350000Y-88995000D03*
X144350000Y-92075000D03*
X143950000Y-88995000D03*
X143950000Y-92075000D03*
X143550000Y-88995000D03*
X143550000Y-92075000D03*
X143150000Y-88995000D03*
X143150000Y-92075000D03*
X142750000Y-88995000D03*
X142750000Y-92075000D03*
X142350000Y-88995000D03*
X142350000Y-92075000D03*
X141950000Y-88995000D03*
X141950000Y-92075000D03*
X141550000Y-88995000D03*
X141550000Y-92075000D03*
X141150000Y-88995000D03*
X141150000Y-92075000D03*
X140750000Y-88995000D03*
X140750000Y-92075000D03*
X140350000Y-88995000D03*
X140350000Y-92075000D03*
X139950000Y-88995000D03*
X139950000Y-92075000D03*
X139550000Y-88995000D03*
X139550000Y-92075000D03*
X139150000Y-88995000D03*
X139150000Y-92075000D03*
X138750000Y-88995000D03*
X138750000Y-92075000D03*
X138350000Y-88995000D03*
X138350000Y-92075000D03*
X137950000Y-88995000D03*
X137950000Y-92075000D03*
X137550000Y-88995000D03*
X137550000Y-92075000D03*
X137150000Y-88995000D03*
X137150000Y-92075000D03*
X136750000Y-88995000D03*
X136750000Y-92075000D03*
X136350000Y-88995000D03*
X136350000Y-92075000D03*
X135950000Y-88995000D03*
X135950000Y-92075000D03*
X135550000Y-88995000D03*
X135550000Y-92075000D03*
X135150000Y-88995000D03*
X135150000Y-92075000D03*
X134750000Y-88995000D03*
X134750000Y-92075000D03*
X134350000Y-88995000D03*
X134350000Y-92075000D03*
X133950000Y-88995000D03*
X133950000Y-92075000D03*
X133550000Y-88995000D03*
X133550000Y-92075000D03*
X133150000Y-88995000D03*
X133150000Y-92075000D03*
X132750000Y-88995000D03*
X132750000Y-92075000D03*
X132350000Y-88995000D03*
X132350000Y-92075000D03*
X131950000Y-88995000D03*
X131950000Y-92075000D03*
X131550000Y-88995000D03*
X131550000Y-92075000D03*
X131150000Y-88995000D03*
X131150000Y-92075000D03*
X130750000Y-88995000D03*
X130750000Y-92075000D03*
X130350000Y-88995000D03*
X130350000Y-92075000D03*
X129950000Y-88995000D03*
X129950000Y-92075000D03*
X129550000Y-88995000D03*
X129550000Y-92075000D03*
X129150000Y-88995000D03*
X129150000Y-92075000D03*
X128750000Y-88995000D03*
X128750000Y-92075000D03*
X128350000Y-88995000D03*
X128350000Y-92075000D03*
%TD*%
D29*
%TO.C,R1*%
X171491200Y-85550000D03*
X172608800Y-85550000D03*
%TD*%
D30*
%TO.C,J1*%
X172125001Y-88784076D03*
X173124999Y-88784076D03*
X174125000Y-88784076D03*
X175125000Y-88784076D03*
X176125001Y-88784076D03*
X177124999Y-88784076D03*
X178124999Y-88784076D03*
X179125000Y-88784076D03*
X180125001Y-88784076D03*
X181125001Y-88784076D03*
X182124999Y-88784076D03*
X183125000Y-88784076D03*
X184125000Y-88784076D03*
X185125001Y-88784076D03*
X186125001Y-88784076D03*
D31*
X171124998Y-90884148D03*
X187125002Y-90884148D03*
%TD*%
D32*
%TO.C,J6*%
X187145000Y-55400000D03*
X188245000Y-55400000D03*
X189345000Y-55400000D03*
X190445000Y-55400000D03*
X191545000Y-55400000D03*
X192645000Y-55400000D03*
X193745000Y-55400000D03*
X194845000Y-55400000D03*
D33*
X185355000Y-67865000D03*
D34*
X189620000Y-67940000D03*
D35*
X183045000Y-66665000D03*
D36*
X183265000Y-55415000D03*
D37*
X195925000Y-55900000D03*
D35*
X196005000Y-66665000D03*
%TD*%
D20*
%TO.C,C9*%
X173270000Y-78440899D03*
X173270000Y-75190899D03*
%TD*%
D12*
%TO.C,R23*%
X182548300Y-80866199D03*
X182548300Y-81983799D03*
%TD*%
D26*
%TO.C,C6*%
X176295001Y-73620900D03*
X176295001Y-71920900D03*
%TD*%
M02*
