%TF.GenerationSoftware,KiCad,Pcbnew,8.0.2*%
%TF.CreationDate,2024-10-21T09:55:00-04:00*%
%TF.ProjectId,Pi_Board,50695f42-6f61-4726-942e-6b696361645f,rev?*%
%TF.SameCoordinates,Original*%
%TF.FileFunction,Copper,L1,Top*%
%TF.FilePolarity,Positive*%
%FSLAX46Y46*%
G04 Gerber Fmt 4.6, Leading zero omitted, Abs format (unit mm)*
G04 Created by KiCad (PCBNEW 8.0.2) date 2024-10-21 09:55:00*
%MOMM*%
%LPD*%
G01*
G04 APERTURE LIST*
%TA.AperFunction,ComponentPad*%
%ADD10R,1.651000X1.651000*%
%TD*%
%TA.AperFunction,ComponentPad*%
%ADD11C,1.651000*%
%TD*%
%TA.AperFunction,SMDPad,CuDef*%
%ADD12R,7.493000X1.790700*%
%TD*%
%TA.AperFunction,SMDPad,CuDef*%
%ADD13R,0.508000X0.660400*%
%TD*%
%TA.AperFunction,SMDPad,CuDef*%
%ADD14R,1.016000X1.193800*%
%TD*%
%TA.AperFunction,SMDPad,CuDef*%
%ADD15R,1.778000X0.355600*%
%TD*%
%TA.AperFunction,SMDPad,CuDef*%
%ADD16R,0.558800X1.447800*%
%TD*%
%TA.AperFunction,SMDPad,CuDef*%
%ADD17R,3.352800X2.717800*%
%TD*%
%TA.AperFunction,SMDPad,CuDef*%
%ADD18R,0.553200X1.000000*%
%TD*%
%TA.AperFunction,SMDPad,CuDef*%
%ADD19R,1.397000X0.914400*%
%TD*%
%TA.AperFunction,SMDPad,CuDef*%
%ADD20R,0.914400X1.549400*%
%TD*%
%TA.AperFunction,SMDPad,CuDef*%
%ADD21R,1.250000X0.650000*%
%TD*%
%TA.AperFunction,SMDPad,CuDef*%
%ADD22R,2.720000X0.960000*%
%TD*%
%TA.AperFunction,SMDPad,CuDef*%
%ADD23R,1.244600X1.219200*%
%TD*%
%TA.AperFunction,SMDPad,CuDef*%
%ADD24R,1.380000X0.960000*%
%TD*%
%TA.AperFunction,SMDPad,CuDef*%
%ADD25R,0.855600X1.600000*%
%TD*%
%TA.AperFunction,SMDPad,CuDef*%
%ADD26R,0.298000X0.700000*%
%TD*%
%TA.AperFunction,SMDPad,CuDef*%
%ADD27R,0.998000X0.700000*%
%TD*%
%TA.AperFunction,ComponentPad*%
%ADD28O,1.036000X2.100000*%
%TD*%
%TA.AperFunction,ComponentPad*%
%ADD29O,1.100000X2.600000*%
%TD*%
%TA.AperFunction,SMDPad,CuDef*%
%ADD30R,1.000000X1.100000*%
%TD*%
%TA.AperFunction,SMDPad,CuDef*%
%ADD31R,1.397000X1.066800*%
%TD*%
%TA.AperFunction,SMDPad,CuDef*%
%ADD32R,0.200000X0.700000*%
%TD*%
%TA.AperFunction,ComponentPad*%
%ADD33R,1.508000X1.508000*%
%TD*%
%TA.AperFunction,ComponentPad*%
%ADD34C,1.508000*%
%TD*%
%TA.AperFunction,SMDPad,CuDef*%
%ADD35R,0.660400X0.508000*%
%TD*%
%TA.AperFunction,SMDPad,CuDef*%
%ADD36R,0.660400X2.108200*%
%TD*%
%TA.AperFunction,SMDPad,CuDef*%
%ADD37R,0.762000X4.292600*%
%TD*%
%TA.AperFunction,SMDPad,CuDef*%
%ADD38R,0.700000X1.100000*%
%TD*%
%TA.AperFunction,SMDPad,CuDef*%
%ADD39R,0.900000X0.930000*%
%TD*%
%TA.AperFunction,SMDPad,CuDef*%
%ADD40R,1.050000X0.780000*%
%TD*%
%TA.AperFunction,SMDPad,CuDef*%
%ADD41R,0.700000X3.330000*%
%TD*%
%TA.AperFunction,SMDPad,CuDef*%
%ADD42R,1.140000X1.830000*%
%TD*%
%TA.AperFunction,SMDPad,CuDef*%
%ADD43R,0.860000X2.800000*%
%TD*%
%TA.AperFunction,ViaPad*%
%ADD44C,0.300000*%
%TD*%
%TA.AperFunction,Conductor*%
%ADD45C,0.500000*%
%TD*%
%TA.AperFunction,Conductor*%
%ADD46C,1.000000*%
%TD*%
%TA.AperFunction,Conductor*%
%ADD47C,0.210000*%
%TD*%
%TA.AperFunction,Conductor*%
%ADD48C,0.180000*%
%TD*%
%TA.AperFunction,Conductor*%
%ADD49C,0.200000*%
%TD*%
G04 APERTURE END LIST*
D10*
%TO.P,J12,1,1*%
%TO.N,/S12*%
X202150000Y-62770000D03*
D11*
%TO.P,J12,2,2*%
%TO.N,/S13*%
X202150000Y-60230000D03*
%TO.P,J12,3,3*%
%TO.N,/S14*%
X202150000Y-57690000D03*
%TO.P,J12,4,4*%
%TO.N,/S15*%
X202150000Y-55150000D03*
%TD*%
D12*
%TO.P,L2,1,1*%
%TO.N,/5V*%
X182573300Y-76225350D03*
%TO.P,L2,2,2*%
%TO.N,Net-(U5-SW)*%
X182573300Y-70624650D03*
%TD*%
D13*
%TO.P,R15,1*%
%TO.N,/GND*%
X184898300Y-80891200D03*
%TO.P,R15,2*%
%TO.N,/A4*%
X184898300Y-82008800D03*
%TD*%
D14*
%TO.P,C12,1*%
%TO.N,/3.3V*%
X195300900Y-70200000D03*
%TO.P,C12,2*%
%TO.N,/GND*%
X193599100Y-70200000D03*
%TD*%
D13*
%TO.P,R21,1*%
%TO.N,/GND*%
X183723301Y-80882399D03*
%TO.P,R21,2*%
%TO.N,/A3*%
X183723301Y-81999999D03*
%TD*%
D15*
%TO.P,U2,1,A0*%
%TO.N,/A0*%
X189226500Y-72375000D03*
%TO.P,U2,2,A1*%
%TO.N,/A1*%
X189226500Y-73025001D03*
%TO.P,U2,3,A2*%
%TO.N,/A2*%
X189226500Y-73675000D03*
%TO.P,U2,4,A3*%
%TO.N,/A3*%
X189226500Y-74325001D03*
%TO.P,U2,5,A4*%
%TO.N,/A4*%
X189226500Y-74974999D03*
%TO.P,U2,6,LED0*%
%TO.N,/S0*%
X189226500Y-75625001D03*
%TO.P,U2,7,LED1*%
%TO.N,/S1*%
X189226500Y-76274999D03*
%TO.P,U2,8,LED2*%
%TO.N,/S2*%
X189226500Y-76924998D03*
%TO.P,U2,9,LED3*%
%TO.N,/S3*%
X189226500Y-77574999D03*
%TO.P,U2,10,LED4*%
%TO.N,/S4*%
X189226500Y-78224998D03*
%TO.P,U2,11,LED5*%
%TO.N,/S5*%
X189226500Y-78874999D03*
%TO.P,U2,12,LED6*%
%TO.N,/S6*%
X189226500Y-79524998D03*
%TO.P,U2,13,LED7*%
%TO.N,/S7*%
X189226500Y-80174999D03*
%TO.P,U2,14,VSS*%
%TO.N,/GND*%
X189226500Y-80824998D03*
%TO.P,U2,15,LED8*%
%TO.N,/S8*%
X195170100Y-80825000D03*
%TO.P,U2,16,LED9*%
%TO.N,/S9*%
X195170100Y-80174999D03*
%TO.P,U2,17,LED10*%
%TO.N,/S10*%
X195170100Y-79525000D03*
%TO.P,U2,18,LED11*%
%TO.N,/S11*%
X195170100Y-78874999D03*
%TO.P,U2,19,LED12*%
%TO.N,/S12*%
X195170100Y-78225001D03*
%TO.P,U2,20,LED13*%
%TO.N,/S13*%
X195170100Y-77574999D03*
%TO.P,U2,21,LED14*%
%TO.N,/S14*%
X195170100Y-76925001D03*
%TO.P,U2,22,LED15*%
%TO.N,/S15*%
X195170100Y-76274999D03*
%TO.P,U2,23,\u002AOE*%
%TO.N,/GND*%
X195170100Y-75625001D03*
%TO.P,U2,24,A5*%
X195170100Y-74974999D03*
%TO.P,U2,25,EXTCLK*%
X195170100Y-74325001D03*
%TO.P,U2,26,SCL*%
%TO.N,/PI_SCL*%
X195170100Y-73675000D03*
%TO.P,U2,27,SDA*%
%TO.N,/PI_SDA*%
X195170100Y-73025001D03*
%TO.P,U2,28,VDD*%
%TO.N,/3.3V*%
X195170100Y-72375000D03*
%TD*%
D13*
%TO.P,R13,1*%
%TO.N,/A1*%
X181373300Y-83316199D03*
%TO.P,R13,2*%
%TO.N,/3.3V*%
X181373300Y-84433799D03*
%TD*%
D16*
%TO.P,U5,1,BST*%
%TO.N,Net-(U5-BST)*%
X177218300Y-64575000D03*
%TO.P,U5,2,VIN*%
%TO.N,/12V*%
X175948300Y-64575000D03*
%TO.P,U5,3,EN*%
X174678300Y-64575000D03*
%TO.P,U5,4,SS*%
%TO.N,Net-(U5-SS)*%
X173408300Y-64575000D03*
%TO.P,U5,5,FB*%
%TO.N,/FB*%
X173408300Y-69934400D03*
%TO.P,U5,6,COMP*%
%TO.N,Net-(U5-COMP)*%
X174678300Y-69934400D03*
%TO.P,U5,7,GND*%
%TO.N,/GND*%
X175948300Y-69934400D03*
%TO.P,U5,8,SW*%
%TO.N,Net-(U5-SW)*%
X177218300Y-69934400D03*
D17*
%TO.P,U5,EPAD,GND*%
%TO.N,/GND*%
X175313300Y-67254700D03*
%TD*%
D18*
%TO.P,R6,1*%
%TO.N,/GND*%
X197900000Y-86650000D03*
%TO.P,R6,2*%
%TO.N,Net-(J7-CC2)*%
X196246800Y-86650000D03*
%TD*%
D13*
%TO.P,R17,1*%
%TO.N,/A2*%
X182548301Y-83316199D03*
%TO.P,R17,2*%
%TO.N,/3.3V*%
X182548301Y-84433799D03*
%TD*%
D19*
%TO.P,C5,1*%
%TO.N,Net-(U5-BST)*%
X179070000Y-66425699D03*
%TO.P,C5,2*%
%TO.N,Net-(U5-SW)*%
X179070000Y-68016099D03*
%TD*%
D10*
%TO.P,J8,1,1*%
%TO.N,/5V*%
X205385000Y-76995000D03*
D11*
%TO.P,J8,2,2*%
%TO.N,/GND*%
X207925000Y-76995000D03*
%TO.P,J8,3,3*%
%TO.N,/5V*%
X205385000Y-79535000D03*
%TO.P,J8,4,4*%
%TO.N,/GND*%
X207925000Y-79535000D03*
%TO.P,J8,5,5*%
%TO.N,/5V*%
X205385000Y-82075000D03*
%TO.P,J8,6,6*%
%TO.N,/GND*%
X207925000Y-82075000D03*
%TO.P,J8,7,7*%
%TO.N,/5V*%
X205385000Y-84615000D03*
%TO.P,J8,8,8*%
%TO.N,/GND*%
X207925000Y-84615000D03*
%TD*%
D13*
%TO.P,R16,1*%
%TO.N,/GND*%
X181373301Y-80866199D03*
%TO.P,R16,2*%
%TO.N,/A1*%
X181373301Y-81983799D03*
%TD*%
%TO.P,R18,1*%
%TO.N,/A3*%
X183723300Y-83316199D03*
%TO.P,R18,2*%
%TO.N,/3.3V*%
X183723300Y-84433799D03*
%TD*%
D20*
%TO.P,R12,1*%
%TO.N,/FB*%
X171745000Y-68420900D03*
%TO.P,R12,2*%
%TO.N,/GND*%
X169154200Y-68420900D03*
%TD*%
D18*
%TO.P,R2,1*%
%TO.N,Net-(J7-CC1)*%
X193853200Y-86600000D03*
%TO.P,R2,2*%
%TO.N,/GND*%
X192200000Y-86600000D03*
%TD*%
D10*
%TO.P,J10,1,1*%
%TO.N,/S4*%
X202125000Y-87850000D03*
D11*
%TO.P,J10,2,2*%
%TO.N,/S5*%
X202125000Y-90390000D03*
%TO.P,J10,3,3*%
%TO.N,/S6*%
X202125000Y-92930000D03*
%TO.P,J10,4,4*%
%TO.N,/S7*%
X202125000Y-95470000D03*
%TD*%
D13*
%TO.P,R14,1*%
%TO.N,/A0*%
X180198300Y-83316199D03*
%TO.P,R14,2*%
%TO.N,/3.3V*%
X180198300Y-84433799D03*
%TD*%
D21*
%TO.P,IC1,1,VOUT*%
%TO.N,/SD_PWR*%
X172750000Y-81960000D03*
%TO.P,IC1,2,GND*%
%TO.N,/GND*%
X172750000Y-82900000D03*
%TO.P,IC1,3,~{FLG}*%
%TO.N,unconnected-(IC1-~{FLG}-Pad3)*%
X172750000Y-83840000D03*
%TO.P,IC1,4,EN/~{EN}*%
%TO.N,/SD_PWR_ON*%
X175250000Y-83840000D03*
%TO.P,IC1,5,VIN*%
%TO.N,/3.3V*%
X175250000Y-81960000D03*
%TD*%
D22*
%TO.P,C11,1*%
%TO.N,/GND*%
X176545000Y-78445900D03*
%TO.P,C11,2*%
%TO.N,/5V*%
X176545000Y-75195900D03*
%TD*%
D23*
%TO.P,R4,1*%
%TO.N,/5V*%
X171595000Y-72673401D03*
%TO.P,R4,2*%
%TO.N,/FB*%
X171595000Y-70768401D03*
%TD*%
D10*
%TO.P,J3,1,1*%
%TO.N,/5V*%
X205385000Y-55150000D03*
D11*
%TO.P,J3,2,2*%
%TO.N,/GND*%
X207925000Y-55150000D03*
%TO.P,J3,3,3*%
%TO.N,/5V*%
X205385000Y-57690000D03*
%TO.P,J3,4,4*%
%TO.N,/GND*%
X207925000Y-57690000D03*
%TO.P,J3,5,5*%
%TO.N,/5V*%
X205385000Y-60230000D03*
%TO.P,J3,6,6*%
%TO.N,/GND*%
X207925000Y-60230000D03*
%TO.P,J3,7,7*%
%TO.N,/5V*%
X205385000Y-62770000D03*
%TO.P,J3,8,8*%
%TO.N,/GND*%
X207925000Y-62770000D03*
%TD*%
D24*
%TO.P,R3,1*%
%TO.N,Net-(C6-Pad1)*%
X174520000Y-73698900D03*
%TO.P,R3,2*%
%TO.N,Net-(U5-COMP)*%
X174520000Y-71742900D03*
%TD*%
D25*
%TO.P,C3,1*%
%TO.N,/12V*%
X175570001Y-62170900D03*
%TO.P,C3,2*%
%TO.N,/GND*%
X172514399Y-62170900D03*
%TD*%
D26*
%TO.P,J7,A1,GND_A1*%
%TO.N,/GND*%
X192125000Y-88860000D03*
%TO.P,J7,A2,TX1+*%
%TO.N,unconnected-(J7-TX1+-PadA2)*%
X192625000Y-88860000D03*
%TO.P,J7,A3,TX1-*%
%TO.N,unconnected-(J7-TX1--PadA3)*%
X193125000Y-88860000D03*
%TO.P,J7,A4,VBUS_A4*%
%TO.N,Net-(J7-VBUS_A4)*%
X193625000Y-88860000D03*
%TO.P,J7,A5,CC1*%
%TO.N,Net-(J7-CC1)*%
X194125000Y-88860000D03*
%TO.P,J7,A6,D1+*%
%TO.N,/USB_P*%
X194625000Y-88860000D03*
%TO.P,J7,A7,D1-*%
%TO.N,/USB_N*%
X195625000Y-88860000D03*
%TO.P,J7,A8,SBU1*%
%TO.N,unconnected-(J7-SBU1-PadA8)*%
X196125000Y-88860000D03*
%TO.P,J7,A9,VBUS_A9*%
%TO.N,Net-(J7-VBUS_A4)*%
X196625000Y-88860000D03*
%TO.P,J7,A10,RX2-*%
%TO.N,unconnected-(J7-RX2--PadA10)*%
X197125000Y-88860000D03*
%TO.P,J7,A11,RX2+*%
%TO.N,unconnected-(J7-RX2+-PadA11)*%
X197625000Y-88860000D03*
%TO.P,J7,A12,GND_A12*%
%TO.N,/GND*%
X198125000Y-88860000D03*
D27*
%TO.P,J7,B1,GND_B1*%
X198225000Y-90160000D03*
D26*
%TO.P,J7,B2,TX2+*%
%TO.N,unconnected-(J7-TX2+-PadB2)*%
X197375000Y-90160000D03*
%TO.P,J7,B3,TX2-*%
%TO.N,unconnected-(J7-TX2--PadB3)*%
X196875000Y-90160000D03*
%TO.P,J7,B4,VBUS_B4*%
%TO.N,Net-(J7-VBUS_A4)*%
X196375000Y-90160000D03*
%TO.P,J7,B5,CC2*%
%TO.N,Net-(J7-CC2)*%
X195875000Y-90160000D03*
%TO.P,J7,B6,D2+*%
%TO.N,/USB_P*%
X195375000Y-90160000D03*
%TO.P,J7,B7,D2-*%
%TO.N,/USB_N*%
X194875000Y-90160000D03*
%TO.P,J7,B8,SBU2*%
%TO.N,unconnected-(J7-SBU2-PadB8)*%
X194375000Y-90160000D03*
%TO.P,J7,B9,VBUS_B9*%
%TO.N,Net-(J7-VBUS_A4)*%
X193875000Y-90160000D03*
%TO.P,J7,B10,RX1-*%
%TO.N,unconnected-(J7-RX1--PadB10)*%
X193375000Y-90160000D03*
%TO.P,J7,B11,RX1+*%
%TO.N,unconnected-(J7-RX1+-PadB11)*%
X192875000Y-90160000D03*
D27*
%TO.P,J7,B12,GND_B12*%
%TO.N,/GND*%
X192025000Y-90160000D03*
D28*
%TO.P,J7,SH1,SHIELD3*%
X190805000Y-89270000D03*
%TO.P,J7,SH2,SHIELD4*%
X199445000Y-89270000D03*
D29*
%TO.P,J7,SH3,SHIELD1*%
X190805000Y-94630000D03*
%TO.P,J7,SH4,SHIELD2*%
X199445000Y-94630000D03*
%TD*%
D30*
%TO.P,C4,1*%
%TO.N,Net-(U5-SS)*%
X171695000Y-64595899D03*
%TO.P,C4,2*%
%TO.N,/GND*%
X171695000Y-66295899D03*
%TD*%
D13*
%TO.P,R22,1*%
%TO.N,/GND*%
X180198300Y-80866199D03*
%TO.P,R22,2*%
%TO.N,/A0*%
X180198300Y-81983799D03*
%TD*%
D10*
%TO.P,J5,1,1*%
%TO.N,/5V*%
X205385000Y-66120000D03*
D11*
%TO.P,J5,2,2*%
%TO.N,/GND*%
X207925000Y-66120000D03*
%TO.P,J5,3,3*%
%TO.N,/5V*%
X205385000Y-68660000D03*
%TO.P,J5,4,4*%
%TO.N,/GND*%
X207925000Y-68660000D03*
%TO.P,J5,5,5*%
%TO.N,/5V*%
X205385000Y-71200000D03*
%TO.P,J5,6,6*%
%TO.N,/GND*%
X207925000Y-71200000D03*
%TO.P,J5,7,7*%
%TO.N,/5V*%
X205385000Y-73740000D03*
%TO.P,J5,8,8*%
%TO.N,/GND*%
X207925000Y-73740000D03*
%TD*%
D13*
%TO.P,R19,1*%
%TO.N,/A4*%
X184898300Y-83341199D03*
%TO.P,R19,2*%
%TO.N,/3.3V*%
X184898300Y-84458799D03*
%TD*%
D10*
%TO.P,J11,1,1*%
%TO.N,/S0*%
X202125000Y-76950000D03*
D11*
%TO.P,J11,2,2*%
%TO.N,/S1*%
X202125000Y-79490000D03*
%TO.P,J11,3,3*%
%TO.N,/S2*%
X202125000Y-82030000D03*
%TO.P,J11,4,4*%
%TO.N,/S3*%
X202125000Y-84570000D03*
%TD*%
D31*
%TO.P,C21,1*%
%TO.N,/SD_PWR*%
X181450000Y-59353400D03*
%TO.P,C21,2*%
%TO.N,/GND*%
X181450000Y-57550000D03*
%TD*%
D22*
%TO.P,C8,1*%
%TO.N,/GND*%
X169969999Y-78440899D03*
%TO.P,C8,2*%
%TO.N,/5V*%
X169969999Y-75190899D03*
%TD*%
D10*
%TO.P,J4,1,1*%
%TO.N,/S8*%
X202150000Y-73670000D03*
D11*
%TO.P,J4,2,2*%
%TO.N,/S9*%
X202150000Y-71130000D03*
%TO.P,J4,3,3*%
%TO.N,/S10*%
X202150000Y-68590000D03*
%TO.P,J4,4,4*%
%TO.N,/S11*%
X202150000Y-66050000D03*
%TD*%
D32*
%TO.P,Module1,1,GND*%
%TO.N,/GND*%
X147950000Y-55075000D03*
%TO.P,Module1,2,GND*%
X147950000Y-58155000D03*
%TO.P,Module1,3,Ethernet_Pair3_P*%
%TO.N,unconnected-(Module1A-Ethernet_Pair3_P-Pad3)*%
X147550000Y-55075000D03*
%TO.P,Module1,4,Ethernet_Pair1_P*%
%TO.N,unconnected-(Module1A-Ethernet_Pair1_P-Pad4)*%
X147550000Y-58155000D03*
%TO.P,Module1,5,Ethernet_Pair3_N*%
%TO.N,unconnected-(Module1A-Ethernet_Pair3_N-Pad5)*%
X147150000Y-55075000D03*
%TO.P,Module1,6,Ethernet_Pair1_N*%
%TO.N,unconnected-(Module1A-Ethernet_Pair1_N-Pad6)*%
X147150000Y-58155000D03*
%TO.P,Module1,7,GND*%
%TO.N,/GND*%
X146750000Y-55075000D03*
%TO.P,Module1,8,GND*%
X146750000Y-58155000D03*
%TO.P,Module1,9,Ethernet_Pair2_N*%
%TO.N,unconnected-(Module1A-Ethernet_Pair2_N-Pad9)*%
X146350000Y-55075000D03*
%TO.P,Module1,10,Ethernet_Pair0_N*%
%TO.N,unconnected-(Module1A-Ethernet_Pair0_N-Pad10)*%
X146350000Y-58155000D03*
%TO.P,Module1,11,Ethernet_Pair2_P*%
%TO.N,unconnected-(Module1A-Ethernet_Pair2_P-Pad11)*%
X145950000Y-55075000D03*
%TO.P,Module1,12,Ethernet_Pair0_P*%
%TO.N,unconnected-(Module1A-Ethernet_Pair0_P-Pad12)*%
X145950000Y-58155000D03*
%TO.P,Module1,13,GND*%
%TO.N,/GND*%
X145550000Y-55075000D03*
%TO.P,Module1,14,GND*%
X145550000Y-58155000D03*
%TO.P,Module1,15,Ethernet_nLED3(3.3v)*%
%TO.N,unconnected-(Module1A-Ethernet_nLED3(3.3v)-Pad15)*%
X145150000Y-55075000D03*
%TO.P,Module1,16,Ethernet_SYNC_IN(1.8v)*%
%TO.N,unconnected-(Module1A-Ethernet_SYNC_IN(1.8v)-Pad16)*%
X145150000Y-58155000D03*
%TO.P,Module1,17,Ethernet_nLED2(3.3v)*%
%TO.N,unconnected-(Module1A-Ethernet_nLED2(3.3v)-Pad17)*%
X144750000Y-55075000D03*
%TO.P,Module1,18,Ethernet_SYNC_OUT(1.8v)*%
%TO.N,unconnected-(Module1A-Ethernet_SYNC_OUT(1.8v)-Pad18)*%
X144750000Y-58155000D03*
%TO.P,Module1,19,Ethernet_nLED1(3.3v)*%
%TO.N,unconnected-(Module1A-Ethernet_nLED1(3.3v)-Pad19)*%
X144350000Y-55075000D03*
%TO.P,Module1,20,EEPROM_nWP*%
%TO.N,unconnected-(Module1A-EEPROM_nWP-Pad20)*%
X144350000Y-58155000D03*
%TO.P,Module1,21,PI_nLED_Activity*%
%TO.N,unconnected-(Module1A-PI_nLED_Activity-Pad21)*%
X143950000Y-55075000D03*
%TO.P,Module1,22,GND*%
%TO.N,/GND*%
X143950000Y-58155000D03*
%TO.P,Module1,23,GND*%
X143550000Y-55075000D03*
%TO.P,Module1,24,GPIO26*%
%TO.N,unconnected-(Module1A-GPIO26-Pad24)*%
X143550000Y-58155000D03*
%TO.P,Module1,25,GPIO21*%
%TO.N,unconnected-(Module1A-GPIO21-Pad25)*%
X143150000Y-55075000D03*
%TO.P,Module1,26,GPIO19*%
%TO.N,unconnected-(Module1A-GPIO19-Pad26)*%
X143150000Y-58155000D03*
%TO.P,Module1,27,GPIO20*%
%TO.N,unconnected-(Module1A-GPIO20-Pad27)*%
X142750000Y-55075000D03*
%TO.P,Module1,28,GPIO13*%
%TO.N,unconnected-(Module1A-GPIO13-Pad28)*%
X142750000Y-58155000D03*
%TO.P,Module1,29,GPIO16*%
%TO.N,unconnected-(Module1A-GPIO16-Pad29)*%
X142350000Y-55075000D03*
%TO.P,Module1,30,GPIO6*%
%TO.N,unconnected-(Module1A-GPIO6-Pad30)*%
X142350000Y-58155000D03*
%TO.P,Module1,31,GPIO12*%
%TO.N,unconnected-(Module1A-GPIO12-Pad31)*%
X141950000Y-55075000D03*
%TO.P,Module1,32,GND*%
%TO.N,/GND*%
X141950000Y-58155000D03*
%TO.P,Module1,33,GND*%
X141550000Y-55075000D03*
%TO.P,Module1,34,GPIO5*%
%TO.N,unconnected-(Module1A-GPIO5-Pad34)*%
X141550000Y-58155000D03*
%TO.P,Module1,35,ID_SC*%
%TO.N,unconnected-(Module1A-ID_SC-Pad35)*%
X141150000Y-55075000D03*
%TO.P,Module1,36,ID_SD*%
%TO.N,unconnected-(Module1A-ID_SD-Pad36)*%
X141150000Y-58155000D03*
%TO.P,Module1,37,GPIO7*%
%TO.N,unconnected-(Module1A-GPIO7-Pad37)*%
X140750000Y-55075000D03*
%TO.P,Module1,38,GPIO11*%
%TO.N,unconnected-(Module1A-GPIO11-Pad38)*%
X140750000Y-58155000D03*
%TO.P,Module1,39,GPIO8*%
%TO.N,unconnected-(Module1A-GPIO8-Pad39)*%
X140350000Y-55075000D03*
%TO.P,Module1,40,GPIO9*%
%TO.N,unconnected-(Module1A-GPIO9-Pad40)*%
X140350000Y-58155000D03*
%TO.P,Module1,41,GPIO25*%
%TO.N,unconnected-(Module1A-GPIO25-Pad41)*%
X139950000Y-55075000D03*
%TO.P,Module1,42,GND*%
%TO.N,/GND*%
X139950000Y-58155000D03*
%TO.P,Module1,43,GND*%
X139550000Y-55075000D03*
%TO.P,Module1,44,GPIO10*%
%TO.N,unconnected-(Module1A-GPIO10-Pad44)*%
X139550000Y-58155000D03*
%TO.P,Module1,45,GPIO24*%
%TO.N,unconnected-(Module1A-GPIO24-Pad45)*%
X139150000Y-55075000D03*
%TO.P,Module1,46,GPIO22*%
%TO.N,unconnected-(Module1A-GPIO22-Pad46)*%
X139150000Y-58155000D03*
%TO.P,Module1,47,GPIO23*%
%TO.N,unconnected-(Module1A-GPIO23-Pad47)*%
X138750000Y-55075000D03*
%TO.P,Module1,48,GPIO27*%
%TO.N,unconnected-(Module1A-GPIO27-Pad48)*%
X138750000Y-58155000D03*
%TO.P,Module1,49,GPIO18*%
%TO.N,unconnected-(Module1A-GPIO18-Pad49)*%
X138350000Y-55075000D03*
%TO.P,Module1,50,GPIO17*%
%TO.N,unconnected-(Module1A-GPIO17-Pad50)*%
X138350000Y-58155000D03*
%TO.P,Module1,51,GPIO15*%
%TO.N,unconnected-(Module1A-GPIO15-Pad51)*%
X137950000Y-55075000D03*
%TO.P,Module1,52,GND*%
%TO.N,/GND*%
X137950000Y-58155000D03*
%TO.P,Module1,53,GND*%
X137550000Y-55075000D03*
%TO.P,Module1,54,GPIO4*%
%TO.N,unconnected-(Module1A-GPIO4-Pad54)*%
X137550000Y-58155000D03*
%TO.P,Module1,55,GPIO14*%
%TO.N,unconnected-(Module1A-GPIO14-Pad55)*%
X137150000Y-55075000D03*
%TO.P,Module1,56,GPIO3*%
%TO.N,/PI_SCL*%
X137150000Y-58155000D03*
%TO.P,Module1,57,SD_CLK*%
%TO.N,/SD_CLK*%
X136750000Y-55075000D03*
%TO.P,Module1,58,GPIO2*%
%TO.N,/PI_SDA*%
X136750000Y-58155000D03*
%TO.P,Module1,59,GND*%
%TO.N,/GND*%
X136350000Y-55075000D03*
%TO.P,Module1,60,GND*%
X136350000Y-58155000D03*
%TO.P,Module1,61,SD_DAT3*%
%TO.N,/SD_DAT3*%
X135950000Y-55075000D03*
%TO.P,Module1,62,SD_CMD*%
%TO.N,/SD_CMD*%
X135950000Y-58155000D03*
%TO.P,Module1,63,SD_DAT0*%
%TO.N,/SD_DAT0*%
X135550000Y-55075000D03*
%TO.P,Module1,64,SD_DAT5*%
%TO.N,unconnected-(Module1A-SD_DAT5-Pad64)*%
X135550000Y-58155000D03*
%TO.P,Module1,65,GND*%
%TO.N,unconnected-(Module1A-GND-Pad65)*%
X135150000Y-55075000D03*
%TO.P,Module1,66,GND*%
%TO.N,/GND*%
X135150000Y-58155000D03*
%TO.P,Module1,67,SD_DAT1*%
%TO.N,/SD_DAT1*%
X134750000Y-55075000D03*
%TO.P,Module1,68,SD_DAT4*%
%TO.N,unconnected-(Module1A-SD_DAT4-Pad68)*%
X134750000Y-58155000D03*
%TO.P,Module1,69,SD_DAT2*%
%TO.N,/SD_DAT2*%
X134350000Y-55075000D03*
%TO.P,Module1,70,SD_DAT7*%
%TO.N,unconnected-(Module1A-SD_DAT7-Pad70)*%
X134350000Y-58155000D03*
%TO.P,Module1,71,GND*%
%TO.N,/GND*%
X133950000Y-55075000D03*
%TO.P,Module1,72,SD_DAT6*%
%TO.N,unconnected-(Module1A-SD_DAT6-Pad72)*%
X133950000Y-58155000D03*
%TO.P,Module1,73,SD_VDD_Override*%
%TO.N,unconnected-(Module1A-SD_VDD_Override-Pad73)*%
X133550000Y-55075000D03*
%TO.P,Module1,74,GND*%
%TO.N,/GND*%
X133550000Y-58155000D03*
%TO.P,Module1,75,SD_PWR_ON*%
%TO.N,/SD_PWR_ON*%
X133150000Y-55075000D03*
%TO.P,Module1,76,Reserved*%
%TO.N,unconnected-(Module1A-Reserved-Pad76)*%
X133150000Y-58155000D03*
%TO.P,Module1,77,+5v_(Input)*%
%TO.N,/5V*%
X132750000Y-55075000D03*
%TO.P,Module1,78,GPIO_VREF(1.8v/3.3v_Input)*%
%TO.N,/3.3V*%
X132750000Y-58155000D03*
%TO.P,Module1,79,+5v_(Input)*%
%TO.N,/5V*%
X132350000Y-55075000D03*
%TO.P,Module1,80,SCL0*%
%TO.N,/SCL0*%
X132350000Y-58155000D03*
%TO.P,Module1,81,+5v_(Input)*%
%TO.N,/5V*%
X131950000Y-55075000D03*
%TO.P,Module1,82,SDA0*%
%TO.N,/SDA0*%
X131950000Y-58155000D03*
%TO.P,Module1,83,+5v_(Input)*%
%TO.N,/5V*%
X131550000Y-55075000D03*
%TO.P,Module1,84,+3.3v_(Output)*%
%TO.N,/3.3V*%
X131550000Y-58155000D03*
%TO.P,Module1,85,+5v_(Input)*%
%TO.N,/5V*%
X131150000Y-55075000D03*
%TO.P,Module1,86,+3.3v_(Output)*%
%TO.N,/3.3V*%
X131150000Y-58155000D03*
%TO.P,Module1,87,+5v_(Input)*%
%TO.N,/5V*%
X130750000Y-55075000D03*
%TO.P,Module1,88,+1.8v_(Output)*%
%TO.N,unconnected-(Module1A-+1.8v_(Output)-Pad88)*%
X130750000Y-58155000D03*
%TO.P,Module1,89,WiFi_nDisable*%
%TO.N,unconnected-(Module1A-WiFi_nDisable-Pad89)*%
X130350000Y-55075000D03*
%TO.P,Module1,90,+1.8v_(Output)*%
%TO.N,unconnected-(Module1A-+1.8v_(Output)-Pad90)*%
X130350000Y-58155000D03*
%TO.P,Module1,91,BT_nDisable*%
%TO.N,unconnected-(Module1A-BT_nDisable-Pad91)*%
X129950000Y-55075000D03*
%TO.P,Module1,92,RUN_PG*%
%TO.N,unconnected-(Module1A-RUN_PG-Pad92)*%
X129950000Y-58155000D03*
%TO.P,Module1,93,nRPIBOOT*%
%TO.N,unconnected-(Module1A-nRPIBOOT-Pad93)*%
X129550000Y-55075000D03*
%TO.P,Module1,94,AnalogIP1*%
%TO.N,unconnected-(Module1A-AnalogIP1-Pad94)*%
X129550000Y-58155000D03*
%TO.P,Module1,95,nPI_LED_PWR*%
%TO.N,unconnected-(Module1A-nPI_LED_PWR-Pad95)*%
X129150000Y-55075000D03*
%TO.P,Module1,96,AnalogIP0*%
%TO.N,unconnected-(Module1A-AnalogIP0-Pad96)*%
X129150000Y-58155000D03*
%TO.P,Module1,97,Camera_GPIO*%
%TO.N,/CAM_GPIO*%
X128750000Y-55075000D03*
%TO.P,Module1,98,GND*%
%TO.N,/GND*%
X128750000Y-58155000D03*
%TO.P,Module1,99,Global_EN*%
%TO.N,unconnected-(Module1A-Global_EN-Pad99)*%
X128350000Y-55075000D03*
%TO.P,Module1,100,nEXTRST*%
%TO.N,unconnected-(Module1A-nEXTRST-Pad100)*%
X128350000Y-58155000D03*
%TO.P,Module1,101,USB_OTG_ID*%
%TO.N,unconnected-(Module1B-USB_OTG_ID-Pad101)*%
X147950000Y-88995000D03*
%TO.P,Module1,102,PCIe_CLK_nREQ*%
%TO.N,unconnected-(Module1B-PCIe_CLK_nREQ-Pad102)*%
X147950000Y-92075000D03*
%TO.P,Module1,103,USB2_N*%
%TO.N,/USB_N*%
X147550000Y-88995000D03*
%TO.P,Module1,104,Reserved*%
%TO.N,unconnected-(Module1B-Reserved-Pad104)*%
X147550000Y-92075000D03*
%TO.P,Module1,105,USB2_P*%
%TO.N,/USB_P*%
X147150000Y-88995000D03*
%TO.P,Module1,106,Reserved*%
%TO.N,unconnected-(Module1B-Reserved-Pad106)*%
X147150000Y-92075000D03*
%TO.P,Module1,107,GND*%
%TO.N,/GND*%
X146750000Y-88995000D03*
%TO.P,Module1,108,GND*%
X146750000Y-92075000D03*
%TO.P,Module1,109,PCIe_nRST*%
%TO.N,unconnected-(Module1B-PCIe_nRST-Pad109)*%
X146350000Y-88995000D03*
%TO.P,Module1,110,PCIe_CLK_P*%
%TO.N,unconnected-(Module1B-PCIe_CLK_P-Pad110)*%
X146350000Y-92075000D03*
%TO.P,Module1,111,VDAC_COMP*%
%TO.N,unconnected-(Module1B-VDAC_COMP-Pad111)*%
X145950000Y-88995000D03*
%TO.P,Module1,112,PCIe_CLK_N*%
%TO.N,unconnected-(Module1B-PCIe_CLK_N-Pad112)*%
X145950000Y-92075000D03*
%TO.P,Module1,113,GND*%
%TO.N,/GND*%
X145550000Y-88995000D03*
%TO.P,Module1,114,GND*%
X145550000Y-92075000D03*
%TO.P,Module1,115,CAM1_D0_N*%
%TO.N,/CAM1_D0_N*%
X145150000Y-88995000D03*
%TO.P,Module1,116,PCIe_RX_P*%
%TO.N,unconnected-(Module1B-PCIe_RX_P-Pad116)*%
X145150000Y-92075000D03*
%TO.P,Module1,117,CAM1_D0_P*%
%TO.N,/CAM1_D0_P*%
X144750000Y-88995000D03*
%TO.P,Module1,118,PCIe_RX_N*%
%TO.N,unconnected-(Module1B-PCIe_RX_N-Pad118)*%
X144750000Y-92075000D03*
%TO.P,Module1,119,GND*%
%TO.N,/GND*%
X144350000Y-88995000D03*
%TO.P,Module1,120,GND*%
X144350000Y-92075000D03*
%TO.P,Module1,121,CAM1_D1_N*%
%TO.N,/CAM1_D1_N*%
X143950000Y-88995000D03*
%TO.P,Module1,122,PCIe_TX_P*%
%TO.N,unconnected-(Module1B-PCIe_TX_P-Pad122)*%
X143950000Y-92075000D03*
%TO.P,Module1,123,CAM1_D1_P*%
%TO.N,/CAM1_D1_P*%
X143550000Y-88995000D03*
%TO.P,Module1,124,PCIe_TX_N*%
%TO.N,unconnected-(Module1B-PCIe_TX_N-Pad124)*%
X143550000Y-92075000D03*
%TO.P,Module1,125,GND*%
%TO.N,/GND*%
X143150000Y-88995000D03*
%TO.P,Module1,126,GND*%
X143150000Y-92075000D03*
%TO.P,Module1,127,CAM1_C_N*%
%TO.N,/CAM1_C_N*%
X142750000Y-88995000D03*
%TO.P,Module1,128,CAM0_D0_N*%
%TO.N,unconnected-(Module1B-CAM0_D0_N-Pad128)*%
X142750000Y-92075000D03*
%TO.P,Module1,129,CAM1_C_P*%
%TO.N,/CAM1_C_P*%
X142350000Y-88995000D03*
%TO.P,Module1,130,CAM0_D0_P*%
%TO.N,unconnected-(Module1B-CAM0_D0_P-Pad130)*%
X142350000Y-92075000D03*
%TO.P,Module1,131,GND*%
%TO.N,/GND*%
X141950000Y-88995000D03*
%TO.P,Module1,132,GND*%
X141950000Y-92075000D03*
%TO.P,Module1,133,CAM1_D2_N*%
%TO.N,unconnected-(Module1B-CAM1_D2_N-Pad133)*%
X141550000Y-88995000D03*
%TO.P,Module1,134,CAM0_D1_N*%
%TO.N,unconnected-(Module1B-CAM0_D1_N-Pad134)*%
X141550000Y-92075000D03*
%TO.P,Module1,135,CAM1_D2_P*%
%TO.N,unconnected-(Module1B-CAM1_D2_P-Pad135)*%
X141150000Y-88995000D03*
%TO.P,Module1,136,CAM0_D1_P*%
%TO.N,unconnected-(Module1B-CAM0_D1_P-Pad136)*%
X141150000Y-92075000D03*
%TO.P,Module1,137,GND*%
%TO.N,/GND*%
X140750000Y-88995000D03*
%TO.P,Module1,138,GND*%
X140750000Y-92075000D03*
%TO.P,Module1,139,CAM1_D3_N*%
%TO.N,unconnected-(Module1B-CAM1_D3_N-Pad139)*%
X140350000Y-88995000D03*
%TO.P,Module1,140,CAM0_C_N*%
%TO.N,unconnected-(Module1B-CAM0_C_N-Pad140)*%
X140350000Y-92075000D03*
%TO.P,Module1,141,CAM1_D3_P*%
%TO.N,unconnected-(Module1B-CAM1_D3_P-Pad141)*%
X139950000Y-88995000D03*
%TO.P,Module1,142,CAM0_C_P*%
%TO.N,unconnected-(Module1B-CAM0_C_P-Pad142)*%
X139950000Y-92075000D03*
%TO.P,Module1,143,HDMI1_HOTPLUG*%
%TO.N,unconnected-(Module1B-HDMI1_HOTPLUG-Pad143)*%
X139550000Y-88995000D03*
%TO.P,Module1,144,GND*%
%TO.N,/GND*%
X139550000Y-92075000D03*
%TO.P,Module1,145,HDMI1_SDA*%
%TO.N,unconnected-(Module1B-HDMI1_SDA-Pad145)*%
X139150000Y-88995000D03*
%TO.P,Module1,146,HDMI1_TX2_P*%
%TO.N,unconnected-(Module1B-HDMI1_TX2_P-Pad146)*%
X139150000Y-92075000D03*
%TO.P,Module1,147,HDMI1_SCL*%
%TO.N,unconnected-(Module1B-HDMI1_SCL-Pad147)*%
X138750000Y-88995000D03*
%TO.P,Module1,148,HDMI1_TX2_N*%
%TO.N,unconnected-(Module1B-HDMI1_TX2_N-Pad148)*%
X138750000Y-92075000D03*
%TO.P,Module1,149,HDMI1_CEC*%
%TO.N,unconnected-(Module1B-HDMI1_CEC-Pad149)*%
X138350000Y-88995000D03*
%TO.P,Module1,150,GND*%
%TO.N,/GND*%
X138350000Y-92075000D03*
%TO.P,Module1,151,HDMI0_CEC*%
%TO.N,unconnected-(Module1B-HDMI0_CEC-Pad151)*%
X137950000Y-88995000D03*
%TO.P,Module1,152,HDMI1_TX1_P*%
%TO.N,unconnected-(Module1B-HDMI1_TX1_P-Pad152)*%
X137950000Y-92075000D03*
%TO.P,Module1,153,HDMI0_HOTPLUG*%
%TO.N,unconnected-(Module1B-HDMI0_HOTPLUG-Pad153)*%
X137550000Y-88995000D03*
%TO.P,Module1,154,HDMI1_TX1_N*%
%TO.N,unconnected-(Module1B-HDMI1_TX1_N-Pad154)*%
X137550000Y-92075000D03*
%TO.P,Module1,155,GND*%
%TO.N,/GND*%
X137150000Y-88995000D03*
%TO.P,Module1,156,GND*%
X137150000Y-92075000D03*
%TO.P,Module1,157,DSI0_D0_N*%
%TO.N,unconnected-(Module1B-DSI0_D0_N-Pad157)*%
X136750000Y-88995000D03*
%TO.P,Module1,158,HDMI1_TX0_P*%
%TO.N,unconnected-(Module1B-HDMI1_TX0_P-Pad158)*%
X136750000Y-92075000D03*
%TO.P,Module1,159,DSI0_D0_P*%
%TO.N,unconnected-(Module1B-DSI0_D0_P-Pad159)*%
X136350000Y-88995000D03*
%TO.P,Module1,160,HDMI1_TX0_N*%
%TO.N,unconnected-(Module1B-HDMI1_TX0_N-Pad160)*%
X136350000Y-92075000D03*
%TO.P,Module1,161,GND*%
%TO.N,/GND*%
X135950000Y-88995000D03*
%TO.P,Module1,162,GND*%
X135950000Y-92075000D03*
%TO.P,Module1,163,DSI0_D1_N*%
%TO.N,unconnected-(Module1B-DSI0_D1_N-Pad163)*%
X135550000Y-88995000D03*
%TO.P,Module1,164,HDMI1_CLK_P*%
%TO.N,unconnected-(Module1B-HDMI1_CLK_P-Pad164)*%
X135550000Y-92075000D03*
%TO.P,Module1,165,DSI0_D1_P*%
%TO.N,unconnected-(Module1B-DSI0_D1_P-Pad165)*%
X135150000Y-88995000D03*
%TO.P,Module1,166,HDMI1_CLK_N*%
%TO.N,unconnected-(Module1B-HDMI1_CLK_N-Pad166)*%
X135150000Y-92075000D03*
%TO.P,Module1,167,GND*%
%TO.N,/GND*%
X134750000Y-88995000D03*
%TO.P,Module1,168,GND*%
X134750000Y-92075000D03*
%TO.P,Module1,169,DSI0_C_N*%
%TO.N,unconnected-(Module1B-DSI0_C_N-Pad169)*%
X134350000Y-88995000D03*
%TO.P,Module1,170,HDMI0_TX2_P*%
%TO.N,unconnected-(Module1B-HDMI0_TX2_P-Pad170)*%
X134350000Y-92075000D03*
%TO.P,Module1,171,DSI0_C_P*%
%TO.N,unconnected-(Module1B-DSI0_C_P-Pad171)*%
X133950000Y-88995000D03*
%TO.P,Module1,172,HDMI0_TX2_N*%
%TO.N,unconnected-(Module1B-HDMI0_TX2_N-Pad172)*%
X133950000Y-92075000D03*
%TO.P,Module1,173,GND*%
%TO.N,/GND*%
X133550000Y-88995000D03*
%TO.P,Module1,174,GND*%
X133550000Y-92075000D03*
%TO.P,Module1,175,DSI1_D0_N*%
%TO.N,unconnected-(Module1B-DSI1_D0_N-Pad175)*%
X133150000Y-88995000D03*
%TO.P,Module1,176,HDMI0_TX1_P*%
%TO.N,unconnected-(Module1B-HDMI0_TX1_P-Pad176)*%
X133150000Y-92075000D03*
%TO.P,Module1,177,DSI1_D0_P*%
%TO.N,unconnected-(Module1B-DSI1_D0_P-Pad177)*%
X132750000Y-88995000D03*
%TO.P,Module1,178,HDMI0_TX1_N*%
%TO.N,unconnected-(Module1B-HDMI0_TX1_N-Pad178)*%
X132750000Y-92075000D03*
%TO.P,Module1,179,GND*%
%TO.N,/GND*%
X132350000Y-88995000D03*
%TO.P,Module1,180,GND*%
X132350000Y-92075000D03*
%TO.P,Module1,181,DSI1_D1_N*%
%TO.N,unconnected-(Module1B-DSI1_D1_N-Pad181)*%
X131950000Y-88995000D03*
%TO.P,Module1,182,HDMI0_TX0_P*%
%TO.N,unconnected-(Module1B-HDMI0_TX0_P-Pad182)*%
X131950000Y-92075000D03*
%TO.P,Module1,183,DSI1_D1_P*%
%TO.N,unconnected-(Module1B-DSI1_D1_P-Pad183)*%
X131550000Y-88995000D03*
%TO.P,Module1,184,HDMI0_TX0_N*%
%TO.N,unconnected-(Module1B-HDMI0_TX0_N-Pad184)*%
X131550000Y-92075000D03*
%TO.P,Module1,185,GND*%
%TO.N,/GND*%
X131150000Y-88995000D03*
%TO.P,Module1,186,GND*%
X131150000Y-92075000D03*
%TO.P,Module1,187,DSI1_C_N*%
%TO.N,unconnected-(Module1B-DSI1_C_N-Pad187)*%
X130750000Y-88995000D03*
%TO.P,Module1,188,HDMI0_CLK_P*%
%TO.N,unconnected-(Module1B-HDMI0_CLK_P-Pad188)*%
X130750000Y-92075000D03*
%TO.P,Module1,189,DSI1_C_P*%
%TO.N,unconnected-(Module1B-DSI1_C_P-Pad189)*%
X130350000Y-88995000D03*
%TO.P,Module1,190,HDMI0_CLK_N*%
%TO.N,unconnected-(Module1B-HDMI0_CLK_N-Pad190)*%
X130350000Y-92075000D03*
%TO.P,Module1,191,GND*%
%TO.N,unconnected-(Module1B-GND-Pad191)*%
X129950000Y-88995000D03*
%TO.P,Module1,192,GND*%
%TO.N,/GND*%
X129950000Y-92075000D03*
%TO.P,Module1,193,DSI1_D2_N*%
%TO.N,unconnected-(Module1B-DSI1_D2_N-Pad193)*%
X129550000Y-88995000D03*
%TO.P,Module1,194,DSI1_D3_N*%
%TO.N,unconnected-(Module1B-DSI1_D3_N-Pad194)*%
X129550000Y-92075000D03*
%TO.P,Module1,195,DSI1_D2_P*%
%TO.N,unconnected-(Module1B-DSI1_D2_P-Pad195)*%
X129150000Y-88995000D03*
%TO.P,Module1,196,DSI1_D3_P*%
%TO.N,unconnected-(Module1B-DSI1_D3_P-Pad196)*%
X129150000Y-92075000D03*
%TO.P,Module1,197,GND*%
%TO.N,/GND*%
X128750000Y-88995000D03*
%TO.P,Module1,198,GND*%
X128750000Y-92075000D03*
%TO.P,Module1,199,HDMI0_SDA*%
%TO.N,unconnected-(Module1B-HDMI0_SDA-Pad199)*%
X128350000Y-88995000D03*
%TO.P,Module1,200,HDMI0_SCL*%
%TO.N,unconnected-(Module1B-HDMI0_SCL-Pad200)*%
X128350000Y-92075000D03*
%TD*%
D33*
%TO.P,J2,1,1*%
%TO.N,/12V*%
X176550000Y-57325000D03*
D34*
%TO.P,J2,2,2*%
%TO.N,unconnected-(J2-Pad2)*%
X174050000Y-57325000D03*
%TO.P,J2,3,3*%
%TO.N,/GND*%
X171550000Y-57325000D03*
%TD*%
D35*
%TO.P,R1,1*%
%TO.N,/3.3V*%
X171491200Y-85550000D03*
%TO.P,R1,2*%
%TO.N,/SD_PWR_ON*%
X172608800Y-85550000D03*
%TD*%
D36*
%TO.P,J1,1*%
%TO.N,/GND*%
X172125001Y-88784076D03*
%TO.P,J1,2*%
%TO.N,/CAM1_D0_N*%
X173124999Y-88784076D03*
%TO.P,J1,3*%
%TO.N,/CAM1_D0_P*%
X174125000Y-88784076D03*
%TO.P,J1,4*%
%TO.N,/GND*%
X175125000Y-88784076D03*
%TO.P,J1,5*%
%TO.N,/CAM1_D1_N*%
X176125001Y-88784076D03*
%TO.P,J1,6*%
%TO.N,/CAM1_D1_P*%
X177124999Y-88784076D03*
%TO.P,J1,7*%
%TO.N,/GND*%
X178124999Y-88784076D03*
%TO.P,J1,8*%
%TO.N,/CAM1_C_N*%
X179125000Y-88784076D03*
%TO.P,J1,9*%
%TO.N,/CAM1_C_P*%
X180125001Y-88784076D03*
%TO.P,J1,10*%
%TO.N,/GND*%
X181125001Y-88784076D03*
%TO.P,J1,11*%
%TO.N,/CAM_GPIO*%
X182124999Y-88784076D03*
%TO.P,J1,12*%
%TO.N,unconnected-(J1-Pad12)*%
X183125000Y-88784076D03*
%TO.P,J1,13*%
%TO.N,/SCL0*%
X184125000Y-88784076D03*
%TO.P,J1,14*%
%TO.N,/SDA0*%
X185125001Y-88784076D03*
%TO.P,J1,15*%
%TO.N,/3.3V*%
X186125001Y-88784076D03*
D37*
%TO.P,J1,16*%
%TO.N,/GND*%
X171124998Y-90884148D03*
%TO.P,J1,17*%
X187125002Y-90884148D03*
%TD*%
D38*
%TO.P,J6,1,DAT2*%
%TO.N,/SD_DAT2*%
X187145000Y-55400000D03*
%TO.P,J6,2,DAT3/CD*%
%TO.N,/SD_DAT3*%
X188245000Y-55400000D03*
%TO.P,J6,3,CMD*%
%TO.N,/SD_CMD*%
X189345000Y-55400000D03*
%TO.P,J6,4,VDD*%
%TO.N,/SD_PWR*%
X190445000Y-55400000D03*
%TO.P,J6,5,CLK*%
%TO.N,/SD_CLK*%
X191545000Y-55400000D03*
%TO.P,J6,6,VSS*%
%TO.N,/GND*%
X192645000Y-55400000D03*
%TO.P,J6,7,DAT0*%
%TO.N,/SD_DAT0*%
X193745000Y-55400000D03*
%TO.P,J6,8,DAT1*%
%TO.N,/SD_DAT1*%
X194845000Y-55400000D03*
D39*
%TO.P,J6,9,DET*%
%TO.N,unconnected-(J6-DET-Pad9)*%
X185355000Y-67865000D03*
D40*
%TO.P,J6,10,SHIELD*%
%TO.N,/GND*%
X189620000Y-67940000D03*
D41*
%TO.P,J6,11*%
%TO.N,N/C*%
X183045000Y-66665000D03*
D42*
X183265000Y-55415000D03*
D43*
X195925000Y-55900000D03*
D41*
X196005000Y-66665000D03*
%TD*%
D22*
%TO.P,C9,1*%
%TO.N,/GND*%
X173270000Y-78440899D03*
%TO.P,C9,2*%
%TO.N,/5V*%
X173270000Y-75190899D03*
%TD*%
D13*
%TO.P,R23,1*%
%TO.N,/GND*%
X182548300Y-80866199D03*
%TO.P,R23,2*%
%TO.N,/A2*%
X182548300Y-81983799D03*
%TD*%
D10*
%TO.P,J9,1,1*%
%TO.N,/5V*%
X205385000Y-87880000D03*
D11*
%TO.P,J9,2,2*%
%TO.N,/GND*%
X207925000Y-87880000D03*
%TO.P,J9,3,3*%
%TO.N,/5V*%
X205385000Y-90420000D03*
%TO.P,J9,4,4*%
%TO.N,/GND*%
X207925000Y-90420000D03*
%TO.P,J9,5,5*%
%TO.N,/5V*%
X205385000Y-92960000D03*
%TO.P,J9,6,6*%
%TO.N,/GND*%
X207925000Y-92960000D03*
%TO.P,J9,7,7*%
%TO.N,/5V*%
X205385000Y-95500000D03*
%TO.P,J9,8,8*%
%TO.N,/GND*%
X207925000Y-95500000D03*
%TD*%
D30*
%TO.P,C6,1*%
%TO.N,Net-(C6-Pad1)*%
X176295001Y-73620900D03*
%TO.P,C6,2*%
%TO.N,/GND*%
X176295001Y-71920900D03*
%TD*%
D44*
%TO.N,/5V*%
X186200000Y-77000000D03*
X186200000Y-76550000D03*
X186200000Y-76100000D03*
%TO.N,/GND*%
X176550000Y-78450000D03*
X128750000Y-94200000D03*
X171350000Y-65900000D03*
X140750000Y-94200000D03*
X171700000Y-66275000D03*
X174500000Y-66850000D03*
X173950000Y-66900000D03*
X170700000Y-78450000D03*
X175000000Y-66850000D03*
X174500000Y-68150000D03*
X133950000Y-53900000D03*
X181000000Y-57550000D03*
X181150000Y-88800000D03*
X141550000Y-53950000D03*
X129950000Y-94200000D03*
X193600000Y-70200000D03*
X174100000Y-78450000D03*
X141950000Y-59800000D03*
X172450000Y-78450000D03*
X175550000Y-68150000D03*
X137150000Y-94250000D03*
X173950000Y-66300000D03*
X197900000Y-86700000D03*
X146750000Y-53950000D03*
X144350000Y-94200000D03*
X169150000Y-68850000D03*
X192650000Y-55400000D03*
X128750000Y-87000000D03*
X176600000Y-66300000D03*
X169150000Y-68050000D03*
X173300000Y-78450000D03*
X143550000Y-94550000D03*
X140750000Y-87100000D03*
X141950000Y-87100000D03*
X174550000Y-67500000D03*
X189600000Y-67950000D03*
X137950000Y-59800000D03*
X135950000Y-87050000D03*
X187100000Y-90900000D03*
X181850000Y-57550000D03*
X143150000Y-87100000D03*
X145550000Y-59800000D03*
X171325000Y-66700000D03*
X132350000Y-87050000D03*
X175150000Y-88750000D03*
X176550000Y-68150000D03*
X139550000Y-53950000D03*
X135150000Y-59800000D03*
X175550000Y-67450000D03*
X174500000Y-66300000D03*
X178150000Y-88800000D03*
X137550000Y-53900000D03*
X138350000Y-94250000D03*
X176050000Y-66850000D03*
X175550000Y-66850000D03*
X131150000Y-94250000D03*
X184900000Y-80900000D03*
X175550000Y-66300000D03*
X145550000Y-53950000D03*
X143950000Y-59800000D03*
X131150000Y-87050000D03*
X141600000Y-94550000D03*
X146750000Y-94200000D03*
X139950000Y-59800000D03*
X132350000Y-94250000D03*
X133550000Y-94250000D03*
X195200000Y-75000000D03*
X147950000Y-53950000D03*
X176050000Y-68150000D03*
X137150000Y-87050000D03*
X144350000Y-87100000D03*
X169900000Y-78450000D03*
X189200000Y-80850000D03*
X176550000Y-67450000D03*
X146750000Y-59800000D03*
X176550000Y-66850000D03*
X175000000Y-66300000D03*
X145550000Y-87050000D03*
X133550000Y-59800000D03*
X198200000Y-90150000D03*
X171100000Y-90925000D03*
X136350000Y-59800000D03*
X176050000Y-66300000D03*
X171600000Y-78450000D03*
X174950000Y-78450000D03*
X176050000Y-67450000D03*
X172150000Y-88900000D03*
X146750000Y-87100000D03*
X173950000Y-68150000D03*
X192200000Y-86600000D03*
X169400000Y-82900000D03*
X143550000Y-53950000D03*
X136350000Y-54000000D03*
X133550000Y-87050000D03*
X175800000Y-78450000D03*
X192050000Y-90200000D03*
X145550000Y-94200000D03*
X135950000Y-94250000D03*
X134750000Y-94250000D03*
X139550000Y-94250000D03*
X134750000Y-87050000D03*
X147950000Y-59800000D03*
X128750000Y-59800000D03*
X175000000Y-67450000D03*
X173950000Y-67500000D03*
X175050000Y-68150000D03*
%TO.N,/SD_DAT2*%
X187145000Y-60900000D03*
X170450000Y-62750000D03*
%TO.N,/SD_DAT3*%
X186175000Y-61025000D03*
X170525000Y-61025000D03*
%TO.N,/SD_CMD*%
X170450000Y-63350000D03*
X187275000Y-62050000D03*
%TO.N,/SD_CLK*%
X170525000Y-60400000D03*
X188525000Y-60900000D03*
%TO.N,/SD_DAT0*%
X170525000Y-61675000D03*
X193750000Y-59375000D03*
%TO.N,/USB_N*%
X194875000Y-90175000D03*
X148400000Y-85850000D03*
X147550000Y-82050000D03*
X195600000Y-88900000D03*
%TO.N,/USB_P*%
X148400000Y-82050000D03*
X147750000Y-84950000D03*
%TO.N,/SD_DAT1*%
X191000000Y-62175000D03*
X170500000Y-62200000D03*
%TO.N,/A1*%
X181400000Y-82650000D03*
X187300000Y-73000000D03*
%TO.N,/A2*%
X187250000Y-73650000D03*
X182550000Y-82700000D03*
%TO.N,/A0*%
X187350000Y-72350000D03*
X180200000Y-82700000D03*
%TO.N,/A3*%
X187250000Y-74300000D03*
X183750000Y-82700000D03*
%TO.N,/CAM1_C_N*%
X142900000Y-90400000D03*
X144350000Y-95400000D03*
%TO.N,/CAM1_C_P*%
X142150000Y-90400000D03*
X144350000Y-96200000D03*
%TO.N,/SCL0*%
X124900000Y-59950000D03*
X127550000Y-60400000D03*
%TO.N,/SDA0*%
X128250000Y-61000000D03*
X125300000Y-61050000D03*
%TO.N,/A4*%
X187250000Y-75000000D03*
X184900000Y-82700000D03*
%TO.N,/PI_SCL*%
X170400000Y-64950000D03*
X186600000Y-64700000D03*
%TO.N,/PI_SDA*%
X170350000Y-65600000D03*
X187700000Y-65300000D03*
%TO.N,/3.3V*%
X166800000Y-74150000D03*
X193100000Y-72350000D03*
X179100000Y-83850000D03*
X167850000Y-83600000D03*
%TO.N,Net-(J7-VBUS_A4)*%
X191000000Y-86400000D03*
X199150000Y-86000000D03*
%TO.N,Net-(J7-CC2)*%
X196400000Y-87925000D03*
X195875000Y-90175000D03*
%TO.N,/SD_PWR*%
X178675000Y-80725000D03*
X181450000Y-68600000D03*
%TO.N,/SD_PWR_ON*%
X127100000Y-55600000D03*
X132800000Y-54050000D03*
%TD*%
D45*
%TO.N,Net-(U5-SS)*%
X173408300Y-64575000D02*
X171715899Y-64575000D01*
X171715899Y-64575000D02*
X171695000Y-64595899D01*
D46*
%TO.N,/5V*%
X169969999Y-75190899D02*
X128540899Y-75190899D01*
X126450000Y-73100000D02*
X126450000Y-57400000D01*
D47*
X130750000Y-55075000D02*
X131150000Y-55075000D01*
D46*
X131950000Y-56250000D02*
X131950000Y-55075000D01*
X126450000Y-57400000D02*
X127150000Y-56700000D01*
X131500000Y-56700000D02*
X131950000Y-56250000D01*
D48*
X132750000Y-55075000D02*
X131950000Y-55075000D01*
D45*
X131150000Y-55075000D02*
X131550000Y-55075000D01*
D46*
X128540899Y-75190899D02*
X126450000Y-73100000D01*
X205385000Y-55150000D02*
X205385000Y-95500000D01*
X127150000Y-56700000D02*
X131500000Y-56700000D01*
D48*
%TO.N,/GND*%
X136350000Y-58155000D02*
X136350000Y-59800000D01*
X141950000Y-87100000D02*
X141975000Y-87075000D01*
X146750000Y-94200000D02*
X146750000Y-94175000D01*
X141950000Y-88995000D02*
X141950000Y-87100000D01*
D46*
X173290899Y-78440899D02*
X173300000Y-78450000D01*
X175809101Y-78440899D02*
X176539999Y-78440899D01*
X169969999Y-78440899D02*
X169960898Y-78440899D01*
D48*
X143150000Y-94150000D02*
X143550000Y-94550000D01*
X145550000Y-55075000D02*
X145550000Y-53950000D01*
X146750000Y-55075000D02*
X146750000Y-53950000D01*
X140750000Y-88995000D02*
X140750000Y-87100000D01*
X133950000Y-55075000D02*
X133950000Y-53900000D01*
X133550000Y-94250000D02*
X133550000Y-94200000D01*
D45*
X171700000Y-66275000D02*
X174354499Y-66295899D01*
D48*
X137150000Y-88995000D02*
X137150000Y-87050000D01*
X144350000Y-92075000D02*
X144350000Y-94200000D01*
D45*
X184873299Y-80866199D02*
X184900000Y-80892900D01*
X171550000Y-58975000D02*
X172514399Y-59939399D01*
D48*
X140750000Y-92075000D02*
X140750000Y-94200000D01*
D45*
X184907100Y-80900000D02*
X184898300Y-80891200D01*
D48*
X146750000Y-58155000D02*
X146750000Y-59800000D01*
D46*
X176550000Y-78450000D02*
X176550000Y-78450900D01*
X173309101Y-78440899D02*
X174090899Y-78440899D01*
X175790899Y-78440899D02*
X175800000Y-78450000D01*
D48*
X139950000Y-58155000D02*
X139950000Y-59800000D01*
X135950000Y-92075000D02*
X135950000Y-94250000D01*
X144350000Y-94200000D02*
X144350000Y-94175000D01*
X137950000Y-58155000D02*
X137950000Y-59800000D01*
X147950000Y-58155000D02*
X147950000Y-59800000D01*
D49*
X172740999Y-82890999D02*
X172750000Y-82900000D01*
D48*
X132350000Y-92075000D02*
X132350000Y-94250000D01*
X132350000Y-94250000D02*
X132350000Y-94200000D01*
X138350000Y-92075000D02*
X138350000Y-94250000D01*
X145550000Y-58155000D02*
X145550000Y-59800000D01*
X136350000Y-54000000D02*
X136350000Y-54025000D01*
D46*
X176539999Y-78440899D02*
X176549100Y-78450000D01*
D48*
X128750000Y-92075000D02*
X128750000Y-94200000D01*
D45*
X175948300Y-69934400D02*
X175948300Y-67889700D01*
D46*
X173300000Y-78450000D02*
X173309101Y-78440899D01*
X170709101Y-78440899D02*
X171590899Y-78440899D01*
X172440899Y-78440899D02*
X172450000Y-78450000D01*
X172450000Y-78450000D02*
X172459101Y-78440899D01*
D48*
X139550000Y-53950000D02*
X139550000Y-54000000D01*
D46*
X174109101Y-78440899D02*
X174940899Y-78440899D01*
D45*
X175948300Y-71574199D02*
X176295001Y-71920900D01*
D48*
X133550000Y-92075000D02*
X133550000Y-94250000D01*
X141600000Y-94550000D02*
X141950000Y-94200000D01*
X143150000Y-88995000D02*
X143150000Y-87100000D01*
D46*
X170690899Y-78440899D02*
X170700000Y-78450000D01*
D48*
X135950000Y-88995000D02*
X135950000Y-87050000D01*
X143150000Y-92075000D02*
X143150000Y-94150000D01*
X128750000Y-87000000D02*
X128750000Y-86975000D01*
D47*
X195170100Y-74970100D02*
X195200000Y-75000000D01*
D48*
X133550000Y-58155000D02*
X133550000Y-59800000D01*
D45*
X172514399Y-59939399D02*
X172514399Y-62170900D01*
D47*
X198125000Y-90060000D02*
X198225000Y-90160000D01*
D48*
X145550000Y-92075000D02*
X145550000Y-94200000D01*
D46*
X172459101Y-78440899D02*
X173290899Y-78440899D01*
D48*
X137550000Y-55075000D02*
X137550000Y-53900000D01*
X132350000Y-87050000D02*
X132350000Y-87025000D01*
X131150000Y-94250000D02*
X131150000Y-94200000D01*
X137150000Y-92075000D02*
X137150000Y-94250000D01*
X139550000Y-92075000D02*
X139550000Y-94250000D01*
X147950000Y-55075000D02*
X147950000Y-53950000D01*
X131150000Y-88995000D02*
X131150000Y-87050000D01*
X141950000Y-58155000D02*
X141950000Y-59800000D01*
D46*
X170700000Y-78450000D02*
X170709101Y-78440899D01*
D48*
X133550000Y-88995000D02*
X133550000Y-87050000D01*
X145550000Y-94200000D02*
X145550000Y-94175000D01*
X144350000Y-88995000D02*
X144350000Y-87100000D01*
X136350000Y-55075000D02*
X136350000Y-54000000D01*
D46*
X171609101Y-78440899D02*
X172440899Y-78440899D01*
D45*
X171550000Y-57325000D02*
X171550000Y-58975000D01*
D47*
X169409001Y-82890999D02*
X169400000Y-82900000D01*
D48*
X135150000Y-58155000D02*
X135150000Y-59800000D01*
D47*
X198125000Y-88860000D02*
X198125000Y-90060000D01*
D48*
X137550000Y-53900000D02*
X137550000Y-53950000D01*
X132350000Y-88995000D02*
X132350000Y-87050000D01*
X139550000Y-55075000D02*
X139550000Y-53950000D01*
D46*
X171590899Y-78440899D02*
X171600000Y-78450000D01*
D48*
X134750000Y-92075000D02*
X134750000Y-94250000D01*
D46*
X174950000Y-78450000D02*
X174959101Y-78440899D01*
D48*
X138350000Y-94250000D02*
X138350000Y-94200000D01*
X140750000Y-87100000D02*
X140750000Y-87075000D01*
X137150000Y-87050000D02*
X137150000Y-87025000D01*
D45*
X171695000Y-66295899D02*
X171700000Y-66275000D01*
D47*
X195170100Y-75029900D02*
X195170100Y-75625001D01*
D46*
X176550000Y-78450900D02*
X176545000Y-78445900D01*
D48*
X146750000Y-53950000D02*
X146750000Y-54000000D01*
X143175000Y-94175000D02*
X143150000Y-94175000D01*
D47*
X170633904Y-82890999D02*
X169409001Y-82890999D01*
D46*
X171600000Y-78450000D02*
X171609101Y-78440899D01*
X174959101Y-78440899D02*
X175790899Y-78440899D01*
D48*
X134750000Y-94250000D02*
X134750000Y-94200000D01*
X134750000Y-88995000D02*
X134750000Y-87050000D01*
D46*
X176549100Y-78450000D02*
X176550000Y-78450000D01*
D47*
X192125000Y-90060000D02*
X192025000Y-90160000D01*
D48*
X129950000Y-92075000D02*
X129950000Y-94200000D01*
X141950000Y-94200000D02*
X141950000Y-92075000D01*
D49*
X170633904Y-82890999D02*
X172740999Y-82890999D01*
D48*
X146750000Y-87100000D02*
X146750000Y-87075000D01*
X143150000Y-87100000D02*
X143150000Y-87075000D01*
X143950000Y-58155000D02*
X143950000Y-59800000D01*
X128750000Y-88995000D02*
X128750000Y-87000000D01*
D45*
X184900000Y-80892900D02*
X184900000Y-80900000D01*
D48*
X137150000Y-94250000D02*
X137150000Y-94200000D01*
D46*
X169900000Y-78450000D02*
X169979100Y-78440899D01*
X207925000Y-55150000D02*
X207925000Y-95500000D01*
D48*
X141550000Y-53950000D02*
X141550000Y-54000000D01*
D46*
X169979100Y-78440899D02*
X170690899Y-78440899D01*
D47*
X192125000Y-88860000D02*
X192125000Y-90060000D01*
D45*
X175948300Y-67889700D02*
X175313300Y-67254700D01*
D48*
X143550000Y-94550000D02*
X143175000Y-94175000D01*
X134750000Y-87050000D02*
X134750000Y-87025000D01*
X145550000Y-53950000D02*
X145550000Y-54000000D01*
X146750000Y-88995000D02*
X146750000Y-87100000D01*
X141550000Y-55075000D02*
X141550000Y-53950000D01*
D46*
X169960898Y-78440899D02*
X169900000Y-78450000D01*
X174090899Y-78440899D02*
X174100000Y-78450000D01*
D45*
X180198300Y-80866199D02*
X184873299Y-80866199D01*
D48*
X146750000Y-92075000D02*
X146750000Y-94200000D01*
X144350000Y-87100000D02*
X144350000Y-87075000D01*
X133550000Y-87050000D02*
X133550000Y-87025000D01*
D45*
X184900000Y-80900000D02*
X184907100Y-80900000D01*
D46*
X174100000Y-78450000D02*
X174109101Y-78440899D01*
D48*
X141600000Y-94550000D02*
X141925000Y-94225000D01*
X128750000Y-58155000D02*
X128750000Y-59800000D01*
D45*
X174354499Y-66295899D02*
X175313300Y-67254700D01*
D48*
X145550000Y-88995000D02*
X145550000Y-87050000D01*
X135950000Y-94250000D02*
X135950000Y-94200000D01*
X135950000Y-87050000D02*
X135950000Y-87025000D01*
D47*
X195200000Y-75000000D02*
X195170100Y-75029900D01*
X195170100Y-74325001D02*
X195170100Y-74970100D01*
D46*
X174940899Y-78440899D02*
X174950000Y-78450000D01*
D48*
X131150000Y-92075000D02*
X131150000Y-94250000D01*
D46*
X175800000Y-78450000D02*
X175809101Y-78440899D01*
D48*
X143550000Y-55075000D02*
X143550000Y-53950000D01*
D45*
X175948300Y-69934400D02*
X175948300Y-71574199D01*
D48*
X139550000Y-94250000D02*
X139550000Y-94200000D01*
X147950000Y-53950000D02*
X147950000Y-54000000D01*
%TO.N,/SD_DAT2*%
X157669904Y-57150000D02*
X162219904Y-61700000D01*
X170025000Y-62750000D02*
X170450000Y-62750000D01*
X135325000Y-57150000D02*
X157669904Y-57150000D01*
X187145000Y-60900000D02*
X187145000Y-55400000D01*
X134350000Y-56175000D02*
X135325000Y-57150000D01*
X162219904Y-61700000D02*
X168975000Y-61700000D01*
X168975000Y-61700000D02*
X170025000Y-62750000D01*
X134350000Y-55075000D02*
X134350000Y-56175000D01*
%TO.N,/SD_DAT3*%
X187687500Y-60787500D02*
X187687500Y-61212500D01*
X136500000Y-56175000D02*
X158075000Y-56175000D01*
X187465000Y-60565000D02*
X187687500Y-60787500D01*
X162625000Y-60725000D02*
X170025000Y-60725000D01*
X170350000Y-61050000D02*
X170525000Y-61025000D01*
X187450000Y-61450000D02*
X186600000Y-61450000D01*
X186600000Y-61450000D02*
X186175000Y-61025000D01*
X188245000Y-55400000D02*
X188245000Y-56520000D01*
X188245000Y-56520000D02*
X187465000Y-57300000D01*
X135950000Y-55075000D02*
X135950000Y-55625000D01*
X170025000Y-60725000D02*
X170350000Y-61050000D01*
X170525000Y-61025000D02*
X170500000Y-61050000D01*
X135950000Y-55625000D02*
X136500000Y-56175000D01*
X158075000Y-56175000D02*
X162625000Y-60725000D01*
X187465000Y-57300000D02*
X187465000Y-60565000D01*
X187687500Y-61212500D02*
X187450000Y-61450000D01*
%TO.N,/SD_CMD*%
X189345000Y-55930000D02*
X187785000Y-57490000D01*
X187275000Y-62050000D02*
X187300000Y-62025000D01*
X187785000Y-60432452D02*
X188025000Y-60672452D01*
X188025000Y-61750000D02*
X187750000Y-62025000D01*
X162092356Y-62025000D02*
X168375000Y-62025000D01*
X187750000Y-62025000D02*
X187275000Y-62050000D01*
X188025000Y-60672452D02*
X188025000Y-61750000D01*
X170450000Y-63350000D02*
X170475000Y-63350000D01*
X157550000Y-57500000D02*
X161628822Y-61578822D01*
X135950000Y-57600000D02*
X136050000Y-57500000D01*
X189345000Y-55400000D02*
X189345000Y-55930000D01*
X169700000Y-63350000D02*
X170450000Y-63350000D01*
X168375000Y-62025000D02*
X169700000Y-63350000D01*
X161646178Y-61578822D02*
X162092356Y-62025000D01*
X161628822Y-61578822D02*
X161646178Y-61578822D01*
X187785000Y-57490000D02*
X187785000Y-60432452D01*
X136050000Y-57500000D02*
X157550000Y-57500000D01*
X135950000Y-58155000D02*
X135950000Y-57600000D01*
%TO.N,/SD_CLK*%
X162775000Y-60400000D02*
X170525000Y-60400000D01*
X189325000Y-56425000D02*
X188105000Y-57645000D01*
X191320000Y-56425000D02*
X189325000Y-56425000D01*
X188105000Y-59680000D02*
X188550000Y-60125000D01*
X136750000Y-55625000D02*
X136975000Y-55850000D01*
X158202548Y-55850000D02*
X161351274Y-58998726D01*
X161373726Y-58998726D02*
X162775000Y-60400000D01*
X161351274Y-58998726D02*
X161373726Y-58998726D01*
X191545000Y-55400000D02*
X191545000Y-56200000D01*
X191545000Y-56200000D02*
X191320000Y-56425000D01*
X170525000Y-60400000D02*
X170550000Y-60400000D01*
X188105000Y-57645000D02*
X188105000Y-59680000D01*
X136750000Y-55075000D02*
X136750000Y-55625000D01*
X188550000Y-60125000D02*
X188550000Y-60875000D01*
X136975000Y-55850000D02*
X158202548Y-55850000D01*
%TO.N,/SD_DAT0*%
X193745000Y-59380000D02*
X193745000Y-59430000D01*
X193745000Y-59370000D02*
X193750000Y-59375000D01*
X170525000Y-61675000D02*
X170500000Y-61675000D01*
X169700000Y-61050000D02*
X170325000Y-61675000D01*
X193750000Y-59375000D02*
X193745000Y-59380000D01*
X136350000Y-56500000D02*
X157925000Y-56500000D01*
X170325000Y-61675000D02*
X170525000Y-61675000D01*
X162475000Y-61050000D02*
X169700000Y-61050000D01*
X135550000Y-55700000D02*
X136350000Y-56500000D01*
X135550000Y-55075000D02*
X135550000Y-55700000D01*
X157925000Y-56500000D02*
X162475000Y-61050000D01*
X193745000Y-55400000D02*
X193745000Y-59370000D01*
D49*
%TO.N,/USB_N*%
X195350000Y-85831800D02*
X194443200Y-84925000D01*
X148200000Y-86150000D02*
X148200000Y-87518200D01*
X178006800Y-79975000D02*
X157043200Y-79975000D01*
X195625000Y-88860000D02*
X195625000Y-88334999D01*
X185543200Y-79075000D02*
X178906800Y-79075000D01*
X194443200Y-84925000D02*
X187493200Y-84925000D01*
X178906800Y-79075000D02*
X178006800Y-79975000D01*
X148400000Y-85950000D02*
X148400000Y-85850000D01*
X147575001Y-88969999D02*
X147550000Y-88995000D01*
X148200000Y-86150000D02*
X148400000Y-85950000D01*
X147575001Y-88143199D02*
X147575001Y-88969999D01*
X186525000Y-83956800D02*
X186525000Y-80056800D01*
X157043200Y-79975000D02*
X155543200Y-78475000D01*
X195625000Y-88334999D02*
X195350000Y-88059999D01*
X147825000Y-80656800D02*
X147825000Y-81775000D01*
X195350000Y-88059999D02*
X195350000Y-85831800D01*
X187493200Y-84925000D02*
X186525000Y-83956800D01*
X147825000Y-81775000D02*
X147550000Y-82050000D01*
X148200000Y-87518200D02*
X147575001Y-88143199D01*
X150006800Y-78475000D02*
X147825000Y-80656800D01*
X155543200Y-78475000D02*
X150006800Y-78475000D01*
X186525000Y-80056800D02*
X185543200Y-79075000D01*
%TO.N,/USB_P*%
X194256800Y-85375000D02*
X187306800Y-85375000D01*
X150193200Y-78925000D02*
X148275000Y-80843200D01*
X147750000Y-87331800D02*
X147124999Y-87956801D01*
X147750000Y-86156800D02*
X147750000Y-87331800D01*
X148400000Y-81625000D02*
X148275000Y-81500000D01*
X147124999Y-87956801D02*
X147124999Y-88969999D01*
X194900000Y-88059999D02*
X194900000Y-86018200D01*
X186075000Y-84143200D02*
X186075000Y-80243200D01*
X148400000Y-82050000D02*
X148400000Y-81625000D01*
X179093200Y-79525000D02*
X178193200Y-80425000D01*
X147750000Y-86156800D02*
X147750000Y-84950000D01*
X185356800Y-79525000D02*
X179093200Y-79525000D01*
X155356800Y-78925000D02*
X150193200Y-78925000D01*
X186075000Y-80243200D02*
X185356800Y-79525000D01*
X148275000Y-80843200D02*
X148275000Y-81500000D01*
D48*
X195375000Y-89525000D02*
X195375000Y-90160000D01*
D49*
X156856800Y-80425000D02*
X155356800Y-78925000D01*
X194900000Y-86018200D02*
X194256800Y-85375000D01*
D48*
X194625000Y-88860000D02*
X194710000Y-88860000D01*
D49*
X194625000Y-88334999D02*
X194900000Y-88059999D01*
D48*
X194710000Y-88860000D02*
X195375000Y-89525000D01*
D49*
X147124999Y-88969999D02*
X147150000Y-88995000D01*
X187306800Y-85375000D02*
X186075000Y-84143200D01*
X194625000Y-88860000D02*
X194625000Y-88334999D01*
X178193200Y-80425000D02*
X156856800Y-80425000D01*
D48*
%TO.N,/SD_DAT1*%
X134750000Y-55075000D02*
X134750000Y-55625000D01*
X162347452Y-61375000D02*
X169425000Y-61375000D01*
X170500000Y-62200000D02*
X170475000Y-62200000D01*
X157797452Y-56825000D02*
X162347452Y-61375000D01*
X170250000Y-62200000D02*
X170500000Y-62200000D01*
X135950000Y-56825000D02*
X157797452Y-56825000D01*
X194845000Y-55400000D02*
X194845000Y-60355000D01*
X194845000Y-60355000D02*
X193025000Y-62175000D01*
X134750000Y-55625000D02*
X135950000Y-56825000D01*
X169425000Y-61375000D02*
X170250000Y-62200000D01*
X193025000Y-62175000D02*
X191000000Y-62175000D01*
D45*
%TO.N,Net-(C6-Pad1)*%
X176217001Y-73698900D02*
X176295001Y-73620900D01*
X174520000Y-73698900D02*
X176217001Y-73698900D01*
%TO.N,/A1*%
X181373301Y-81983799D02*
X181400000Y-82650000D01*
X181400000Y-82650000D02*
X181373301Y-82626699D01*
D47*
X189201499Y-73000000D02*
X189226500Y-73025001D01*
D45*
X181373301Y-82773301D02*
X181373301Y-83316198D01*
D47*
X187300000Y-73000000D02*
X189201499Y-73000000D01*
D45*
X181373301Y-83316198D02*
X181373300Y-83316199D01*
%TO.N,/A2*%
X182548300Y-83316198D02*
X182548301Y-83316199D01*
D47*
X187250000Y-73650000D02*
X189201500Y-73650000D01*
D45*
X182548300Y-82701700D02*
X182548300Y-83316198D01*
X182548300Y-82698300D02*
X182550000Y-82700000D01*
X182548300Y-81983799D02*
X182548300Y-82698300D01*
X182550000Y-82700000D02*
X182548300Y-82701700D01*
D47*
X189201500Y-73650000D02*
X189226500Y-73675000D01*
D45*
%TO.N,/A0*%
X180198300Y-82701700D02*
X180198300Y-83316199D01*
D47*
X189201500Y-72350000D02*
X189226500Y-72375000D01*
D45*
X180198300Y-82698300D02*
X180200000Y-82700000D01*
X180198300Y-81983799D02*
X180198300Y-82698300D01*
D47*
X187350000Y-72350000D02*
X189201500Y-72350000D01*
D45*
X180200000Y-82700000D02*
X180198300Y-82701700D01*
%TO.N,Net-(U5-COMP)*%
X174678300Y-71584600D02*
X174520000Y-71742900D01*
X174678300Y-69934400D02*
X174678300Y-71584600D01*
%TO.N,/FB*%
X173408300Y-69934400D02*
X172429001Y-69934400D01*
X172222301Y-69727699D02*
X172429001Y-69934400D01*
X171745000Y-68420900D02*
X171745000Y-70000000D01*
X171745000Y-70000000D02*
X171745000Y-70618401D01*
X171745000Y-70618401D02*
X171595000Y-70768401D01*
X172429001Y-69934400D02*
X171595000Y-70768401D01*
X172222301Y-69727699D02*
X172017301Y-69727699D01*
X171745000Y-69250399D02*
X172222301Y-69727699D01*
X172017301Y-69727699D02*
X171745000Y-70000000D01*
X171745000Y-68420900D02*
X171745000Y-69250399D01*
D47*
%TO.N,/A3*%
X189201499Y-74300000D02*
X189226500Y-74325001D01*
D45*
X183750000Y-82700000D02*
X183723301Y-82726699D01*
X183723301Y-82726699D02*
X183723301Y-83316198D01*
D47*
X187250000Y-74300000D02*
X189201499Y-74300000D01*
D45*
X183723301Y-81999999D02*
X183723301Y-82673301D01*
X183723301Y-83316198D02*
X183723300Y-83316199D01*
X183723301Y-82673301D02*
X183750000Y-82700000D01*
D49*
%TO.N,/CAM1_D0_N*%
X173124999Y-90365227D02*
X173124999Y-88784076D01*
X173400000Y-90640228D02*
X173124999Y-90365227D01*
X145150000Y-88995000D02*
X145150000Y-89731800D01*
X145393200Y-89975000D02*
X159293200Y-89975000D01*
X159293200Y-89975000D02*
X162993200Y-93675000D01*
X173400000Y-92931800D02*
X173400000Y-90640228D01*
X172656800Y-93675000D02*
X173400000Y-92931800D01*
X162993200Y-93675000D02*
X172656800Y-93675000D01*
X145150000Y-89731800D02*
X145393200Y-89975000D01*
%TO.N,/CAM1_D0_P*%
X162806800Y-94125000D02*
X172843200Y-94125000D01*
X173849999Y-93118201D02*
X173849999Y-90640228D01*
X174125000Y-90365227D02*
X174125000Y-88784076D01*
X173849999Y-90640228D02*
X174125000Y-90365227D01*
X159106800Y-90425000D02*
X162806800Y-94125000D01*
X172843200Y-94125000D02*
X173849999Y-93118201D01*
X144750000Y-88995000D02*
X144750000Y-89968200D01*
X145206800Y-90425000D02*
X159106800Y-90425000D01*
X144750000Y-89968200D02*
X145206800Y-90425000D01*
%TO.N,/CAM1_D1_N*%
X176125001Y-88784076D02*
X176125001Y-90365227D01*
X143950000Y-90181800D02*
X143950000Y-88995000D01*
X158543200Y-90825000D02*
X144593200Y-90825000D01*
X144593200Y-90825000D02*
X143950000Y-90181800D01*
X176400000Y-91331800D02*
X173106800Y-94625000D01*
X162343200Y-94625000D02*
X158543200Y-90825000D01*
X176125001Y-90365227D02*
X176400000Y-90640226D01*
X173106800Y-94625000D02*
X162343200Y-94625000D01*
X176400000Y-90640226D02*
X176400000Y-91331800D01*
%TO.N,/CAM1_D1_P*%
X173293200Y-95075000D02*
X162156800Y-95075000D01*
X162156800Y-95075000D02*
X158356800Y-91275000D01*
X177124999Y-90365227D02*
X176850000Y-90640226D01*
X176850000Y-91518200D02*
X173293200Y-95075000D01*
X176850000Y-90640226D02*
X176850000Y-91518200D01*
X158356800Y-91275000D02*
X144406800Y-91275000D01*
X143550000Y-90418200D02*
X143550000Y-88995000D01*
X144406800Y-91275000D02*
X143550000Y-90418200D01*
X177124999Y-88784076D02*
X177124999Y-90365227D01*
%TO.N,/CAM1_C_N*%
X144350000Y-95400000D02*
X144450000Y-95500000D01*
X179400001Y-90640228D02*
X179125000Y-90365227D01*
X179400001Y-91731799D02*
X179400001Y-90640228D01*
X144350000Y-95400000D02*
X144525000Y-95575000D01*
D48*
X142750000Y-90250000D02*
X142900000Y-90400000D01*
D49*
X144525000Y-95575000D02*
X175556800Y-95575000D01*
D48*
X142750000Y-88995000D02*
X142750000Y-90250000D01*
D49*
X175556800Y-95575000D02*
X179400001Y-91731799D01*
X179125000Y-90365227D02*
X179125000Y-88784076D01*
%TO.N,/CAM1_C_P*%
X179850000Y-91918200D02*
X179850000Y-90640228D01*
X144350000Y-96200000D02*
X144525000Y-96025000D01*
X175743200Y-96025000D02*
X179850000Y-91918200D01*
X179850000Y-90640228D02*
X180125001Y-90365227D01*
X144350000Y-96200000D02*
X144450000Y-96100000D01*
D48*
X142350000Y-88995000D02*
X142350000Y-90200000D01*
D49*
X144525000Y-96025000D02*
X175743200Y-96025000D01*
X180125001Y-90365227D02*
X180125001Y-88784076D01*
D48*
X142350000Y-90200000D02*
X142150000Y-90400000D01*
%TO.N,/CAM_GPIO*%
X182100000Y-87600000D02*
X182100000Y-88759077D01*
X124350000Y-55000000D02*
X124350000Y-78850000D01*
X181750000Y-87250000D02*
X182100000Y-87600000D01*
X128500000Y-54200000D02*
X125150000Y-54200000D01*
X128750000Y-55075000D02*
X128750000Y-54450000D01*
X163650000Y-83900000D02*
X167000000Y-87250000D01*
X124350000Y-78850000D02*
X129400000Y-83900000D01*
X129400000Y-83900000D02*
X163650000Y-83900000D01*
X125150000Y-54200000D02*
X124350000Y-55000000D01*
X167000000Y-87250000D02*
X181750000Y-87250000D01*
X128750000Y-54450000D02*
X128500000Y-54200000D01*
X182100000Y-88759077D02*
X182124999Y-88784076D01*
%TO.N,/SCL0*%
X128700000Y-61550000D02*
X127800000Y-61550000D01*
X132350000Y-60100000D02*
X131100000Y-61350000D01*
X127800000Y-61550000D02*
X127550000Y-61300000D01*
X127550000Y-61300000D02*
X127550000Y-60400000D01*
X124670000Y-78717452D02*
X124670000Y-60180000D01*
X131100000Y-61350000D02*
X128900000Y-61350000D01*
X129502548Y-83550000D02*
X124670000Y-78717452D01*
X167102548Y-86900000D02*
X163752548Y-83550000D01*
X183250000Y-86900000D02*
X167102548Y-86900000D01*
X184125000Y-87775000D02*
X183250000Y-86900000D01*
X128900000Y-61350000D02*
X128700000Y-61550000D01*
X163752548Y-83550000D02*
X129502548Y-83550000D01*
X124670000Y-60180000D02*
X124900000Y-59950000D01*
X184125000Y-88784076D02*
X184125000Y-87775000D01*
X132350000Y-58155000D02*
X132350000Y-60100000D01*
%TO.N,/SDA0*%
X129605096Y-83200000D02*
X125000000Y-78594904D01*
X167205096Y-86550000D02*
X163855096Y-83200000D01*
X125000000Y-61350000D02*
X125300000Y-61050000D01*
X131950000Y-59950000D02*
X130900000Y-61000000D01*
X131950000Y-58155000D02*
X131950000Y-59950000D01*
X130900000Y-61000000D02*
X128250000Y-61000000D01*
X163855096Y-83200000D02*
X129605096Y-83200000D01*
X184000000Y-86550000D02*
X167205096Y-86550000D01*
X185125001Y-87675001D02*
X184000000Y-86550000D01*
X185125001Y-88784076D02*
X185125001Y-87675001D01*
X125000000Y-78594904D02*
X125000000Y-61350000D01*
D47*
%TO.N,/S8*%
X195170100Y-80825000D02*
X197175000Y-80825000D01*
X201030000Y-73670000D02*
X202150000Y-73670000D01*
X200425000Y-74275000D02*
X201030000Y-73670000D01*
X197175000Y-80825000D02*
X200425000Y-77575000D01*
X200425000Y-77575000D02*
X200425000Y-74275000D01*
%TO.N,/S9*%
X195170100Y-80174999D02*
X197125001Y-80174999D01*
X200595000Y-71130000D02*
X202150000Y-71130000D01*
X200075000Y-71650000D02*
X200595000Y-71130000D01*
X197125001Y-80174999D02*
X200075000Y-77225000D01*
X200075000Y-77225000D02*
X200075000Y-71650000D01*
%TO.N,/S10*%
X199725000Y-69750000D02*
X200885000Y-68590000D01*
X200885000Y-68590000D02*
X202150000Y-68590000D01*
X199725000Y-76900000D02*
X199725000Y-69750000D01*
X195170100Y-79525000D02*
X197100000Y-79525000D01*
X197100000Y-79525000D02*
X199725000Y-76900000D01*
%TO.N,/S11*%
X197075001Y-78874999D02*
X199375000Y-76575000D01*
X195170100Y-78874999D02*
X197075001Y-78874999D01*
X199375000Y-67225000D02*
X200550000Y-66050000D01*
X200550000Y-66050000D02*
X202150000Y-66050000D01*
X199375000Y-76575000D02*
X199375000Y-67225000D01*
D45*
%TO.N,/A4*%
X184900000Y-82700000D02*
X184898300Y-82701700D01*
X184898300Y-82008800D02*
X184898300Y-82698300D01*
D47*
X187250000Y-75000000D02*
X189201499Y-75000000D01*
D45*
X184898300Y-82701700D02*
X184898300Y-83341199D01*
X184898300Y-82698300D02*
X184900000Y-82700000D01*
D47*
X189201499Y-75000000D02*
X189226500Y-74974999D01*
D48*
%TO.N,/PI_SCL*%
X138000000Y-64950000D02*
X170400000Y-64950000D01*
X188450000Y-65900000D02*
X187150000Y-65900000D01*
X170400000Y-64950000D02*
X170400000Y-65000000D01*
X191200000Y-72302548D02*
X191200000Y-66350000D01*
X195170100Y-73675000D02*
X192572452Y-73675000D01*
X192572452Y-73675000D02*
X191200000Y-72302548D01*
X137150000Y-58155000D02*
X137150000Y-64100000D01*
X186800000Y-65550000D02*
X186800000Y-64900000D01*
X190500000Y-65650000D02*
X188700000Y-65650000D01*
X188700000Y-65650000D02*
X188450000Y-65900000D01*
X137150000Y-64100000D02*
X138000000Y-64950000D01*
X187150000Y-65900000D02*
X186800000Y-65550000D01*
X186800000Y-64900000D02*
X186600000Y-64700000D01*
X191200000Y-66350000D02*
X190500000Y-65650000D01*
%TO.N,/PI_SDA*%
X136750000Y-58155000D02*
X136750000Y-58530000D01*
X195170100Y-73025001D02*
X192375001Y-73025001D01*
X136820000Y-58600000D02*
X136820000Y-64270000D01*
X136820000Y-64270000D02*
X137900000Y-65350000D01*
X137900000Y-65350000D02*
X170100000Y-65350000D01*
X192375001Y-73025001D02*
X191550000Y-72200000D01*
X191550000Y-72200000D02*
X191550000Y-66200000D01*
X170100000Y-65350000D02*
X170350000Y-65600000D01*
X190650000Y-65300000D02*
X187700000Y-65300000D01*
X191550000Y-66200000D02*
X190650000Y-65300000D01*
X136750000Y-58530000D02*
X136820000Y-58600000D01*
D49*
%TO.N,/3.3V*%
X179100000Y-82400000D02*
X179100000Y-83850000D01*
X171491200Y-85550000D02*
X171491200Y-85108800D01*
D47*
X132550000Y-57550000D02*
X132750000Y-57750000D01*
X195170100Y-72375000D02*
X196375000Y-72375000D01*
X193125000Y-72375000D02*
X193100000Y-72350000D01*
D49*
X171491200Y-85108800D02*
X171800000Y-84800000D01*
D47*
X131550000Y-58155000D02*
X131550000Y-57700000D01*
D49*
X168450000Y-85550000D02*
X171491200Y-85550000D01*
D47*
X128849489Y-74445899D02*
X166400000Y-74445899D01*
D49*
X173950000Y-83400000D02*
X174250000Y-83100000D01*
X173950000Y-84600000D02*
X173950000Y-83400000D01*
D47*
X131150000Y-58155000D02*
X131550000Y-58155000D01*
X132750000Y-58155000D02*
X132750000Y-60200000D01*
X127200000Y-64900000D02*
X127200000Y-72796410D01*
X196375000Y-72375000D02*
X196600000Y-72150000D01*
X131550000Y-57700000D02*
X131700000Y-57550000D01*
X132750000Y-60200000D02*
X131450000Y-61500000D01*
X180198300Y-84433799D02*
X184873300Y-84433799D01*
D49*
X175000000Y-83100000D02*
X175250000Y-82850000D01*
D47*
X179100000Y-84050000D02*
X179483799Y-84433799D01*
X184898300Y-84458799D02*
X186125001Y-85685500D01*
D49*
X175250000Y-82850000D02*
X175250000Y-81960000D01*
D47*
X166504101Y-74445899D02*
X166800000Y-74150000D01*
X127200000Y-63700000D02*
X127200000Y-64900000D01*
X179100000Y-83850000D02*
X179100000Y-84050000D01*
X132750000Y-57750000D02*
X132750000Y-58155000D01*
X131250000Y-61700000D02*
X129200000Y-61700000D01*
X128776795Y-74373205D02*
X128849489Y-74445899D01*
X196350000Y-70200000D02*
X195300900Y-70200000D01*
X184873300Y-84433799D02*
X184898300Y-84458799D01*
D49*
X167850000Y-83600000D02*
X167850000Y-84950000D01*
D47*
X195170100Y-70330800D02*
X195300900Y-70200000D01*
D49*
X173750000Y-84800000D02*
X173950000Y-84600000D01*
X178660000Y-81960000D02*
X179100000Y-82400000D01*
D47*
X179483799Y-84433799D02*
X180198300Y-84433799D01*
X127200000Y-72796410D02*
X128776795Y-74373205D01*
D49*
X174250000Y-83100000D02*
X175000000Y-83100000D01*
D47*
X131700000Y-57550000D02*
X132550000Y-57550000D01*
X195170100Y-72375000D02*
X193125000Y-72375000D01*
X166400000Y-74445899D02*
X166504101Y-74445899D01*
D49*
X167850000Y-84950000D02*
X168450000Y-85550000D01*
D47*
X196600000Y-70450000D02*
X196350000Y-70200000D01*
X131450000Y-61500000D02*
X131250000Y-61700000D01*
D49*
X175250000Y-81960000D02*
X178660000Y-81960000D01*
D47*
X196600000Y-72150000D02*
X196600000Y-70450000D01*
D49*
X171800000Y-84800000D02*
X173750000Y-84800000D01*
D47*
X186125001Y-85685500D02*
X186125001Y-88784076D01*
X129200000Y-61700000D02*
X127200000Y-63700000D01*
%TO.N,Net-(J7-VBUS_A4)*%
X199150000Y-86000000D02*
X199150000Y-87150000D01*
X193550000Y-88150000D02*
X193300000Y-87900000D01*
X196625000Y-89375000D02*
X196375000Y-89625000D01*
X193300000Y-87900000D02*
X192200000Y-87900000D01*
X196625000Y-88375000D02*
X196625000Y-88860000D01*
X192200000Y-87900000D02*
X191650000Y-87900000D01*
X196625000Y-88860000D02*
X196625000Y-89375000D01*
X198450000Y-87850000D02*
X197150000Y-87850000D01*
X193625000Y-88860000D02*
X193625000Y-89275000D01*
X193625000Y-89275000D02*
X193875000Y-89525000D01*
X191000000Y-87250000D02*
X191000000Y-86400000D01*
X196375000Y-89625000D02*
X196375000Y-90160000D01*
X197150000Y-87850000D02*
X196625000Y-88375000D01*
X193625000Y-88860000D02*
X193625000Y-88225000D01*
X193875000Y-89525000D02*
X193875000Y-90160000D01*
X193625000Y-88225000D02*
X193550000Y-88150000D01*
X199150000Y-87150000D02*
X198450000Y-87850000D01*
X191650000Y-87900000D02*
X191000000Y-87250000D01*
%TO.N,Net-(J7-CC1)*%
X194125000Y-87975000D02*
X194125000Y-88860000D01*
X193853200Y-87703200D02*
X194125000Y-87975000D01*
X193853200Y-86600000D02*
X193853200Y-87703200D01*
D48*
%TO.N,Net-(J7-CC2)*%
X196246800Y-86650000D02*
X196246800Y-87771800D01*
X196246800Y-87771800D02*
X196400000Y-87925000D01*
D47*
%TO.N,/S4*%
X201700000Y-87850000D02*
X202125000Y-87850000D01*
X201000000Y-84775000D02*
X201000000Y-87150000D01*
X192300000Y-79450000D02*
X192300000Y-81889948D01*
X192300000Y-81889948D02*
X193760052Y-83350000D01*
X191074998Y-78224998D02*
X192300000Y-79450000D01*
X193760052Y-83350000D02*
X199575000Y-83350000D01*
X201000000Y-87150000D02*
X201700000Y-87850000D01*
X189226500Y-78224998D02*
X191074998Y-78224998D01*
X199575000Y-83350000D02*
X201000000Y-84775000D01*
%TO.N,/S5*%
X200650000Y-84925000D02*
X200650000Y-87300000D01*
X201025000Y-89290000D02*
X202125000Y-90390000D01*
X200650000Y-87300000D02*
X201025000Y-87675000D01*
X193615078Y-83700000D02*
X199425000Y-83700000D01*
X189226500Y-78874999D02*
X190924999Y-78874999D01*
X190924999Y-78874999D02*
X191950000Y-79900000D01*
X199425000Y-83700000D02*
X200650000Y-84925000D01*
X201025000Y-87675000D02*
X201025000Y-89290000D01*
X191950000Y-79900000D02*
X191950000Y-82034922D01*
X191950000Y-82034922D02*
X193615078Y-83700000D01*
%TO.N,/S6*%
X200300000Y-87450000D02*
X200675000Y-87825000D01*
X189226500Y-79524998D02*
X190774998Y-79524998D01*
X190774998Y-79524998D02*
X191600000Y-80350000D01*
X200300000Y-85069974D02*
X200300000Y-87450000D01*
X201130000Y-92930000D02*
X202125000Y-92930000D01*
X191600000Y-82179896D02*
X193470104Y-84050000D01*
X191600000Y-80350000D02*
X191600000Y-82179896D01*
X200675000Y-92475000D02*
X201130000Y-92930000D01*
X199280026Y-84050000D02*
X200300000Y-85069974D01*
X200675000Y-87825000D02*
X200675000Y-92475000D01*
X193470104Y-84050000D02*
X199280026Y-84050000D01*
%TO.N,/S7*%
X200950000Y-95000000D02*
X201420000Y-95470000D01*
X189226500Y-80174999D02*
X190774999Y-80174999D01*
X199135052Y-84400000D02*
X199950000Y-85214948D01*
X200950000Y-93800000D02*
X200950000Y-95000000D01*
X199950000Y-85214948D02*
X199950000Y-87600000D01*
X191250000Y-82325000D02*
X193325000Y-84400000D01*
X191250000Y-80650000D02*
X191250000Y-82325000D01*
X200275000Y-87925000D02*
X200275000Y-93125000D01*
X199950000Y-87600000D02*
X200275000Y-87925000D01*
X200275000Y-93125000D02*
X200950000Y-93800000D01*
X190774999Y-80174999D02*
X191250000Y-80650000D01*
X201420000Y-95470000D02*
X202125000Y-95470000D01*
X193325000Y-84400000D02*
X199135052Y-84400000D01*
%TO.N,/S0*%
X193775000Y-77375000D02*
X193775000Y-81375000D01*
D49*
X199619168Y-81950000D02*
X199987500Y-81581668D01*
D47*
X192025001Y-75625001D02*
X193775000Y-77375000D01*
X201050000Y-76950000D02*
X202125000Y-76950000D01*
X193775000Y-81375000D02*
X194350000Y-81950000D01*
X194350000Y-81950000D02*
X196800000Y-81950000D01*
X200775000Y-77225000D02*
X201050000Y-76950000D01*
D49*
X196800000Y-81950000D02*
X199619168Y-81950000D01*
X199987500Y-81581668D02*
X199987500Y-79337500D01*
D47*
X199987500Y-79337500D02*
X200775000Y-78550000D01*
X189226500Y-75625001D02*
X192025001Y-75625001D01*
X200775000Y-78550000D02*
X200775000Y-77225000D01*
D49*
%TO.N,/S1*%
X200350000Y-80000000D02*
X200350000Y-81700000D01*
D47*
X194200000Y-82300000D02*
X197300000Y-82300000D01*
D49*
X199750000Y-82300000D02*
X197300000Y-82300000D01*
D47*
X201000000Y-79490000D02*
X202125000Y-79490000D01*
X193375000Y-77875000D02*
X193375000Y-81475000D01*
D49*
X201000000Y-79490000D02*
X200860000Y-79490000D01*
D47*
X189226500Y-76274999D02*
X191774999Y-76274999D01*
X193375000Y-81475000D02*
X194200000Y-82300000D01*
D49*
X200860000Y-79490000D02*
X200350000Y-80000000D01*
D47*
X191774999Y-76274999D02*
X193375000Y-77875000D01*
D49*
X200350000Y-81700000D02*
X199750000Y-82300000D01*
D47*
%TO.N,/S2*%
X201170000Y-82030000D02*
X202125000Y-82030000D01*
X193000000Y-78400000D02*
X193000000Y-81600000D01*
X194050000Y-82650000D02*
X200550000Y-82650000D01*
X200550000Y-82650000D02*
X201170000Y-82030000D01*
X193000000Y-81600000D02*
X194050000Y-82650000D01*
X189226500Y-76924998D02*
X191524998Y-76924998D01*
X191524998Y-76924998D02*
X193000000Y-78400000D01*
%TO.N,/S3*%
X191224999Y-77574999D02*
X192650000Y-79000000D01*
X189226500Y-77574999D02*
X191224999Y-77574999D01*
X192650000Y-81744974D02*
X193905026Y-83000000D01*
X193905026Y-83000000D02*
X200555000Y-83000000D01*
X192650000Y-79000000D02*
X192650000Y-81744974D01*
X200555000Y-83000000D02*
X202125000Y-84570000D01*
%TO.N,/S12*%
X199025000Y-76175000D02*
X199025000Y-63000000D01*
X199250000Y-62775000D02*
X202145000Y-62775000D01*
X195170100Y-78225001D02*
X196974999Y-78225001D01*
X202145000Y-62775000D02*
X202150000Y-62770000D01*
X196974999Y-78225001D02*
X199025000Y-76175000D01*
X199025000Y-63000000D02*
X199250000Y-62775000D01*
%TO.N,/S13*%
X196925001Y-77574999D02*
X198675000Y-75825000D01*
X199420000Y-60230000D02*
X202150000Y-60230000D01*
X198675000Y-75825000D02*
X198675000Y-60975000D01*
X195170100Y-77574999D02*
X196925001Y-77574999D01*
X198675000Y-60975000D02*
X199420000Y-60230000D01*
%TO.N,/S14*%
X199010000Y-57690000D02*
X202150000Y-57690000D01*
X196874999Y-76925001D02*
X198325000Y-75475000D01*
X195170100Y-76925001D02*
X196874999Y-76925001D01*
X198325000Y-58375000D02*
X199010000Y-57690000D01*
X198325000Y-75475000D02*
X198325000Y-58375000D01*
%TO.N,/S15*%
X196850001Y-76274999D02*
X197975000Y-75150000D01*
X197975000Y-56150000D02*
X199025000Y-55100000D01*
X199025000Y-55100000D02*
X202100000Y-55100000D01*
X202100000Y-55100000D02*
X202150000Y-55150000D01*
X197975000Y-75150000D02*
X197975000Y-56150000D01*
X195170100Y-76274999D02*
X196850001Y-76274999D01*
%TO.N,/SD_PWR*%
X185450000Y-54350000D02*
X190150000Y-54350000D01*
X181900000Y-59803400D02*
X181450000Y-59353400D01*
X181450000Y-59353400D02*
X183696600Y-59353400D01*
X190150000Y-54350000D02*
X190445000Y-54645000D01*
X184800000Y-55000000D02*
X185450000Y-54350000D01*
X181450000Y-59353400D02*
X181450000Y-68600000D01*
D49*
X178675000Y-80725000D02*
X178300000Y-81100000D01*
X173300000Y-81100000D02*
X172750000Y-81650000D01*
X172750000Y-81650000D02*
X172750000Y-81960000D01*
D47*
X190445000Y-54645000D02*
X190445000Y-55400000D01*
D49*
X178300000Y-81100000D02*
X173300000Y-81100000D01*
D47*
X183696600Y-59353400D02*
X184800000Y-58250000D01*
X184800000Y-58250000D02*
X184800000Y-55000000D01*
%TO.N,/SD_PWR_ON*%
X125335000Y-61965000D02*
X125700000Y-61600000D01*
X172608800Y-85550000D02*
X172608800Y-85891200D01*
D49*
X175250000Y-85050000D02*
X175250000Y-83840000D01*
X174750000Y-85550000D02*
X175250000Y-85050000D01*
D47*
X125700000Y-56100000D02*
X126200000Y-55600000D01*
X133150000Y-54400000D02*
X133150000Y-55075000D01*
X172608800Y-85891200D02*
X172350000Y-86150000D01*
D49*
X172608800Y-85550000D02*
X174750000Y-85550000D01*
D47*
X129800000Y-82850000D02*
X125335000Y-78385000D01*
X172350000Y-86150000D02*
X167300000Y-86150000D01*
X125335000Y-78385000D02*
X125335000Y-61965000D01*
X167300000Y-86150000D02*
X164000000Y-82850000D01*
X125700000Y-61600000D02*
X125700000Y-56100000D01*
X126200000Y-55600000D02*
X127100000Y-55600000D01*
X132800000Y-54050000D02*
X133150000Y-54400000D01*
X164000000Y-82850000D02*
X129800000Y-82850000D01*
%TD*%
%TA.AperFunction,Conductor*%
%TO.N,/12V*%
G36*
X180543039Y-53419685D02*
G01*
X180588794Y-53472489D01*
X180600000Y-53524000D01*
X180600000Y-62226000D01*
X180580315Y-62293039D01*
X180527511Y-62338794D01*
X180476000Y-62350000D01*
X176400000Y-62350000D01*
X176400000Y-65226000D01*
X176380315Y-65293039D01*
X176327511Y-65338794D01*
X176276000Y-65350000D01*
X174474000Y-65350000D01*
X174406961Y-65330315D01*
X174361206Y-65277511D01*
X174350000Y-65226000D01*
X174350000Y-63044100D01*
X174369685Y-62977061D01*
X174422489Y-62931306D01*
X174474000Y-62920100D01*
X175091402Y-62920100D01*
X175091402Y-61421700D01*
X174474000Y-61421700D01*
X174406961Y-61402015D01*
X174361206Y-61349211D01*
X174350000Y-61297700D01*
X174350000Y-59674000D01*
X174369685Y-59606961D01*
X174422489Y-59561206D01*
X174474000Y-59550000D01*
X175400000Y-59550000D01*
X175400000Y-53524000D01*
X175419685Y-53456961D01*
X175472489Y-53411206D01*
X175524000Y-53400000D01*
X180476000Y-53400000D01*
X180543039Y-53419685D01*
G37*
%TD.AperFunction*%
%TD*%
%TA.AperFunction,Conductor*%
%TO.N,Net-(U5-BST)*%
G36*
X180541554Y-62769685D02*
G01*
X180587309Y-62822489D01*
X180598506Y-62875476D01*
X180551477Y-66826000D01*
X180551459Y-66827476D01*
X180530978Y-66894276D01*
X180477633Y-66939400D01*
X180427468Y-66950000D01*
X179810764Y-66950000D01*
X179755250Y-66933699D01*
X179743101Y-66933699D01*
X178396899Y-66933699D01*
X178380257Y-66933699D01*
X178355594Y-66947166D01*
X178329236Y-66950000D01*
X178324000Y-66950000D01*
X178256961Y-66930315D01*
X178211206Y-66877511D01*
X178200000Y-66826000D01*
X178200000Y-65300000D01*
X177024000Y-65300000D01*
X176956961Y-65280315D01*
X176911206Y-65227511D01*
X176900000Y-65176000D01*
X176900000Y-62874000D01*
X176919685Y-62806961D01*
X176972489Y-62761206D01*
X177024000Y-62750000D01*
X180474515Y-62750000D01*
X180541554Y-62769685D01*
G37*
%TD.AperFunction*%
%TD*%
%TA.AperFunction,Conductor*%
%TO.N,Net-(U5-SW)*%
G36*
X178354477Y-67469685D02*
G01*
X178375119Y-67486319D01*
X178396899Y-67508099D01*
X179743101Y-67508099D01*
X179764881Y-67486319D01*
X179826204Y-67452834D01*
X179852562Y-67450000D01*
X180626000Y-67450000D01*
X180693039Y-67469685D01*
X180738794Y-67522489D01*
X180750000Y-67574000D01*
X180750000Y-68100000D01*
X180750000Y-69700000D01*
X186226000Y-69700000D01*
X186293039Y-69719685D01*
X186338794Y-69772489D01*
X186350000Y-69824000D01*
X186350000Y-71376000D01*
X186330315Y-71443039D01*
X186277511Y-71488794D01*
X186226000Y-71500000D01*
X177674000Y-71500000D01*
X177606961Y-71480315D01*
X177561206Y-71427511D01*
X177550000Y-71376000D01*
X177550000Y-70700000D01*
X177024000Y-70700000D01*
X176956961Y-70680315D01*
X176911206Y-70627511D01*
X176900000Y-70576000D01*
X176900000Y-69274000D01*
X176919685Y-69206961D01*
X176972489Y-69161206D01*
X177024000Y-69150000D01*
X177750000Y-69150000D01*
X177750000Y-67574000D01*
X177769685Y-67506961D01*
X177822489Y-67461206D01*
X177874000Y-67450000D01*
X178287438Y-67450000D01*
X178354477Y-67469685D01*
G37*
%TD.AperFunction*%
%TD*%
%TA.AperFunction,Conductor*%
%TO.N,/5V*%
G36*
X172243039Y-72069685D02*
G01*
X172288794Y-72122489D01*
X172300000Y-72174000D01*
X172300000Y-74700000D01*
X178398000Y-74700000D01*
X178465039Y-74719685D01*
X178510794Y-74772489D01*
X178522000Y-74824000D01*
X178522000Y-75279200D01*
X186626000Y-75279200D01*
X186693039Y-75298885D01*
X186738794Y-75351689D01*
X186750000Y-75403200D01*
X186750000Y-77026000D01*
X186730315Y-77093039D01*
X186677511Y-77138794D01*
X186626000Y-77150000D01*
X168724000Y-77150000D01*
X168656961Y-77130315D01*
X168611206Y-77077511D01*
X168600000Y-77026000D01*
X168600000Y-74824000D01*
X168619685Y-74756961D01*
X168672489Y-74711206D01*
X168724000Y-74700000D01*
X170900000Y-74700000D01*
X170900000Y-72174000D01*
X170919685Y-72106961D01*
X170972489Y-72061206D01*
X171024000Y-72050000D01*
X172176000Y-72050000D01*
X172243039Y-72069685D01*
G37*
%TD.AperFunction*%
%TD*%
%TA.AperFunction,Conductor*%
%TO.N,/5V*%
G36*
X132693039Y-54769685D02*
G01*
X132738794Y-54822489D01*
X132750000Y-54874000D01*
X132750000Y-55276000D01*
X132730315Y-55343039D01*
X132677511Y-55388794D01*
X132626000Y-55400000D01*
X130774000Y-55400000D01*
X130706961Y-55380315D01*
X130661206Y-55327511D01*
X130650000Y-55276000D01*
X130650000Y-54874000D01*
X130669685Y-54806961D01*
X130722489Y-54761206D01*
X130774000Y-54750000D01*
X132626000Y-54750000D01*
X132693039Y-54769685D01*
G37*
%TD.AperFunction*%
%TD*%
M02*
