%TF.GenerationSoftware,KiCad,Pcbnew,8.0.2*%
%TF.CreationDate,2024-10-21T09:55:01-04:00*%
%TF.ProjectId,Pi_Board,50695f42-6f61-4726-942e-6b696361645f,rev?*%
%TF.SameCoordinates,Original*%
%TF.FileFunction,Soldermask,Top*%
%TF.FilePolarity,Negative*%
%FSLAX46Y46*%
G04 Gerber Fmt 4.6, Leading zero omitted, Abs format (unit mm)*
G04 Created by KiCad (PCBNEW 8.0.2) date 2024-10-21 09:55:01*
%MOMM*%
%LPD*%
G01*
G04 APERTURE LIST*
G04 Aperture macros list*
%AMRoundRect*
0 Rectangle with rounded corners*
0 $1 Rounding radius*
0 $2 $3 $4 $5 $6 $7 $8 $9 X,Y pos of 4 corners*
0 Add a 4 corners polygon primitive as box body*
4,1,4,$2,$3,$4,$5,$6,$7,$8,$9,$2,$3,0*
0 Add four circle primitives for the rounded corners*
1,1,$1+$1,$2,$3*
1,1,$1+$1,$4,$5*
1,1,$1+$1,$6,$7*
1,1,$1+$1,$8,$9*
0 Add four rect primitives between the rounded corners*
20,1,$1+$1,$2,$3,$4,$5,0*
20,1,$1+$1,$4,$5,$6,$7,0*
20,1,$1+$1,$6,$7,$8,$9,0*
20,1,$1+$1,$8,$9,$2,$3,0*%
G04 Aperture macros list end*
%ADD10C,0.010000*%
%ADD11R,1.651000X1.651000*%
%ADD12C,1.651000*%
%ADD13R,7.493000X1.790700*%
%ADD14R,0.508000X0.660400*%
%ADD15R,1.016000X1.193800*%
%ADD16R,1.778000X0.355600*%
%ADD17R,0.558800X1.447800*%
%ADD18R,3.352800X2.717800*%
%ADD19R,0.553200X1.000000*%
%ADD20R,1.397000X0.914400*%
%ADD21R,0.914400X1.549400*%
%ADD22R,1.250000X0.650000*%
%ADD23RoundRect,0.102000X1.360000X-0.480000X1.360000X0.480000X-1.360000X0.480000X-1.360000X-0.480000X0*%
%ADD24R,1.244600X1.219200*%
%ADD25RoundRect,0.102000X0.690000X-0.480000X0.690000X0.480000X-0.690000X0.480000X-0.690000X-0.480000X0*%
%ADD26R,0.855600X1.600000*%
%ADD27O,1.188400X2.252400*%
%ADD28O,1.252400X2.752400*%
%ADD29RoundRect,0.102000X-0.500000X0.550000X-0.500000X-0.550000X0.500000X-0.550000X0.500000X0.550000X0*%
%ADD30R,1.397000X1.066800*%
%ADD31C,6.100000*%
%ADD32R,0.200000X0.700000*%
%ADD33RoundRect,0.102000X-0.754000X-0.754000X0.754000X-0.754000X0.754000X0.754000X-0.754000X0.754000X0*%
%ADD34C,1.712000*%
%ADD35R,0.660400X0.508000*%
%ADD36R,0.660400X2.108200*%
%ADD37R,0.762000X4.292600*%
%ADD38R,0.700000X1.100000*%
%ADD39R,0.900000X0.930000*%
%ADD40R,1.050000X0.780000*%
%ADD41R,0.700000X3.330000*%
%ADD42R,1.140000X1.830000*%
%ADD43R,0.860000X2.800000*%
%ADD44RoundRect,0.102000X0.500000X-0.550000X0.500000X0.550000X-0.500000X0.550000X-0.500000X-0.550000X0*%
G04 APERTURE END LIST*
D10*
%TO.C,J7*%
X192587500Y-90573500D02*
X191462500Y-90573500D01*
X191462500Y-89746500D01*
X192587500Y-89746500D01*
X192587500Y-90573500D01*
G36*
X192587500Y-90573500D02*
G01*
X191462500Y-90573500D01*
X191462500Y-89746500D01*
X192587500Y-89746500D01*
X192587500Y-90573500D01*
G37*
X192337500Y-89273500D02*
X191912500Y-89273500D01*
X191912500Y-88446500D01*
X192337500Y-88446500D01*
X192337500Y-89273500D01*
G36*
X192337500Y-89273500D02*
G01*
X191912500Y-89273500D01*
X191912500Y-88446500D01*
X192337500Y-88446500D01*
X192337500Y-89273500D01*
G37*
X192837500Y-89273500D02*
X192412500Y-89273500D01*
X192412500Y-88446500D01*
X192837500Y-88446500D01*
X192837500Y-89273500D01*
G36*
X192837500Y-89273500D02*
G01*
X192412500Y-89273500D01*
X192412500Y-88446500D01*
X192837500Y-88446500D01*
X192837500Y-89273500D01*
G37*
X193087500Y-90573500D02*
X192662500Y-90573500D01*
X192662500Y-89746500D01*
X193087500Y-89746500D01*
X193087500Y-90573500D01*
G36*
X193087500Y-90573500D02*
G01*
X192662500Y-90573500D01*
X192662500Y-89746500D01*
X193087500Y-89746500D01*
X193087500Y-90573500D01*
G37*
X193337500Y-89273500D02*
X192912500Y-89273500D01*
X192912500Y-88446500D01*
X193337500Y-88446500D01*
X193337500Y-89273500D01*
G36*
X193337500Y-89273500D02*
G01*
X192912500Y-89273500D01*
X192912500Y-88446500D01*
X193337500Y-88446500D01*
X193337500Y-89273500D01*
G37*
X193587500Y-90573500D02*
X193162500Y-90573500D01*
X193162500Y-89746500D01*
X193587500Y-89746500D01*
X193587500Y-90573500D01*
G36*
X193587500Y-90573500D02*
G01*
X193162500Y-90573500D01*
X193162500Y-89746500D01*
X193587500Y-89746500D01*
X193587500Y-90573500D01*
G37*
X193837500Y-89273500D02*
X193412500Y-89273500D01*
X193412500Y-88446500D01*
X193837500Y-88446500D01*
X193837500Y-89273500D01*
G36*
X193837500Y-89273500D02*
G01*
X193412500Y-89273500D01*
X193412500Y-88446500D01*
X193837500Y-88446500D01*
X193837500Y-89273500D01*
G37*
X194087500Y-90573500D02*
X193662500Y-90573500D01*
X193662500Y-89746500D01*
X194087500Y-89746500D01*
X194087500Y-90573500D01*
G36*
X194087500Y-90573500D02*
G01*
X193662500Y-90573500D01*
X193662500Y-89746500D01*
X194087500Y-89746500D01*
X194087500Y-90573500D01*
G37*
X194337500Y-89273500D02*
X193912500Y-89273500D01*
X193912500Y-88446500D01*
X194337500Y-88446500D01*
X194337500Y-89273500D01*
G36*
X194337500Y-89273500D02*
G01*
X193912500Y-89273500D01*
X193912500Y-88446500D01*
X194337500Y-88446500D01*
X194337500Y-89273500D01*
G37*
X194587500Y-90573500D02*
X194162500Y-90573500D01*
X194162500Y-89746500D01*
X194587500Y-89746500D01*
X194587500Y-90573500D01*
G36*
X194587500Y-90573500D02*
G01*
X194162500Y-90573500D01*
X194162500Y-89746500D01*
X194587500Y-89746500D01*
X194587500Y-90573500D01*
G37*
X194837500Y-89273500D02*
X194412500Y-89273500D01*
X194412500Y-88446500D01*
X194837500Y-88446500D01*
X194837500Y-89273500D01*
G36*
X194837500Y-89273500D02*
G01*
X194412500Y-89273500D01*
X194412500Y-88446500D01*
X194837500Y-88446500D01*
X194837500Y-89273500D01*
G37*
X195087500Y-90573500D02*
X194662500Y-90573500D01*
X194662500Y-89746500D01*
X195087500Y-89746500D01*
X195087500Y-90573500D01*
G36*
X195087500Y-90573500D02*
G01*
X194662500Y-90573500D01*
X194662500Y-89746500D01*
X195087500Y-89746500D01*
X195087500Y-90573500D01*
G37*
X195587500Y-90573500D02*
X195162500Y-90573500D01*
X195162500Y-89746500D01*
X195587500Y-89746500D01*
X195587500Y-90573500D01*
G36*
X195587500Y-90573500D02*
G01*
X195162500Y-90573500D01*
X195162500Y-89746500D01*
X195587500Y-89746500D01*
X195587500Y-90573500D01*
G37*
X195837500Y-89273500D02*
X195412500Y-89273500D01*
X195412500Y-88446500D01*
X195837500Y-88446500D01*
X195837500Y-89273500D01*
G36*
X195837500Y-89273500D02*
G01*
X195412500Y-89273500D01*
X195412500Y-88446500D01*
X195837500Y-88446500D01*
X195837500Y-89273500D01*
G37*
X196087500Y-90573500D02*
X195662500Y-90573500D01*
X195662500Y-89746500D01*
X196087500Y-89746500D01*
X196087500Y-90573500D01*
G36*
X196087500Y-90573500D02*
G01*
X195662500Y-90573500D01*
X195662500Y-89746500D01*
X196087500Y-89746500D01*
X196087500Y-90573500D01*
G37*
X196337500Y-89273500D02*
X195912500Y-89273500D01*
X195912500Y-88446500D01*
X196337500Y-88446500D01*
X196337500Y-89273500D01*
G36*
X196337500Y-89273500D02*
G01*
X195912500Y-89273500D01*
X195912500Y-88446500D01*
X196337500Y-88446500D01*
X196337500Y-89273500D01*
G37*
X196587500Y-90573500D02*
X196162500Y-90573500D01*
X196162500Y-89746500D01*
X196587500Y-89746500D01*
X196587500Y-90573500D01*
G36*
X196587500Y-90573500D02*
G01*
X196162500Y-90573500D01*
X196162500Y-89746500D01*
X196587500Y-89746500D01*
X196587500Y-90573500D01*
G37*
X196837500Y-89273500D02*
X196412500Y-89273500D01*
X196412500Y-88446500D01*
X196837500Y-88446500D01*
X196837500Y-89273500D01*
G36*
X196837500Y-89273500D02*
G01*
X196412500Y-89273500D01*
X196412500Y-88446500D01*
X196837500Y-88446500D01*
X196837500Y-89273500D01*
G37*
X197087500Y-90573500D02*
X196662500Y-90573500D01*
X196662500Y-89746500D01*
X197087500Y-89746500D01*
X197087500Y-90573500D01*
G36*
X197087500Y-90573500D02*
G01*
X196662500Y-90573500D01*
X196662500Y-89746500D01*
X197087500Y-89746500D01*
X197087500Y-90573500D01*
G37*
X197337500Y-89273500D02*
X196912500Y-89273500D01*
X196912500Y-88446500D01*
X197337500Y-88446500D01*
X197337500Y-89273500D01*
G36*
X197337500Y-89273500D02*
G01*
X196912500Y-89273500D01*
X196912500Y-88446500D01*
X197337500Y-88446500D01*
X197337500Y-89273500D01*
G37*
X197587500Y-90573500D02*
X197162500Y-90573500D01*
X197162500Y-89746500D01*
X197587500Y-89746500D01*
X197587500Y-90573500D01*
G36*
X197587500Y-90573500D02*
G01*
X197162500Y-90573500D01*
X197162500Y-89746500D01*
X197587500Y-89746500D01*
X197587500Y-90573500D01*
G37*
X197837500Y-89273500D02*
X197412500Y-89273500D01*
X197412500Y-88446500D01*
X197837500Y-88446500D01*
X197837500Y-89273500D01*
G36*
X197837500Y-89273500D02*
G01*
X197412500Y-89273500D01*
X197412500Y-88446500D01*
X197837500Y-88446500D01*
X197837500Y-89273500D01*
G37*
X198787500Y-90573500D02*
X197662500Y-90573500D01*
X197662500Y-89746500D01*
X198787500Y-89746500D01*
X198787500Y-90573500D01*
G36*
X198787500Y-90573500D02*
G01*
X197662500Y-90573500D01*
X197662500Y-89746500D01*
X198787500Y-89746500D01*
X198787500Y-90573500D01*
G37*
X198337500Y-89273500D02*
X197912500Y-89273500D01*
X197912500Y-88446500D01*
X198337500Y-88446500D01*
X198337500Y-89273500D01*
G36*
X198337500Y-89273500D02*
G01*
X197912500Y-89273500D01*
X197912500Y-88446500D01*
X198337500Y-88446500D01*
X198337500Y-89273500D01*
G37*
%TD*%
D11*
%TO.C,J12*%
X202150000Y-62770000D03*
D12*
X202150000Y-60230000D03*
X202150000Y-57690000D03*
X202150000Y-55150000D03*
%TD*%
D13*
%TO.C,L2*%
X182573300Y-76225350D03*
X182573300Y-70624650D03*
%TD*%
D14*
%TO.C,R15*%
X184898300Y-80891200D03*
X184898300Y-82008800D03*
%TD*%
D15*
%TO.C,C12*%
X195300900Y-70200000D03*
X193599100Y-70200000D03*
%TD*%
D14*
%TO.C,R21*%
X183723301Y-80882399D03*
X183723301Y-81999999D03*
%TD*%
D16*
%TO.C,U2*%
X189226500Y-72375000D03*
X189226500Y-73025001D03*
X189226500Y-73675000D03*
X189226500Y-74325001D03*
X189226500Y-74974999D03*
X189226500Y-75625001D03*
X189226500Y-76274999D03*
X189226500Y-76924998D03*
X189226500Y-77574999D03*
X189226500Y-78224998D03*
X189226500Y-78874999D03*
X189226500Y-79524998D03*
X189226500Y-80174999D03*
X189226500Y-80824998D03*
X195170100Y-80825000D03*
X195170100Y-80174999D03*
X195170100Y-79525000D03*
X195170100Y-78874999D03*
X195170100Y-78225001D03*
X195170100Y-77574999D03*
X195170100Y-76925001D03*
X195170100Y-76274999D03*
X195170100Y-75625001D03*
X195170100Y-74974999D03*
X195170100Y-74325001D03*
X195170100Y-73675000D03*
X195170100Y-73025001D03*
X195170100Y-72375000D03*
%TD*%
D14*
%TO.C,R13*%
X181373300Y-83316199D03*
X181373300Y-84433799D03*
%TD*%
D17*
%TO.C,U5*%
X177218300Y-64575000D03*
X175948300Y-64575000D03*
X174678300Y-64575000D03*
X173408300Y-64575000D03*
X173408300Y-69934400D03*
X174678300Y-69934400D03*
X175948300Y-69934400D03*
X177218300Y-69934400D03*
D18*
X175313300Y-67254700D03*
%TD*%
D19*
%TO.C,R6*%
X197900000Y-86650000D03*
X196246800Y-86650000D03*
%TD*%
D14*
%TO.C,R17*%
X182548301Y-83316199D03*
X182548301Y-84433799D03*
%TD*%
D20*
%TO.C,C5*%
X179070000Y-66425699D03*
X179070000Y-68016099D03*
%TD*%
D11*
%TO.C,J8*%
X205385000Y-76995000D03*
D12*
X207925000Y-76995000D03*
X205385000Y-79535000D03*
X207925000Y-79535000D03*
X205385000Y-82075000D03*
X207925000Y-82075000D03*
X205385000Y-84615000D03*
X207925000Y-84615000D03*
%TD*%
D14*
%TO.C,R16*%
X181373301Y-80866199D03*
X181373301Y-81983799D03*
%TD*%
%TO.C,R18*%
X183723300Y-83316199D03*
X183723300Y-84433799D03*
%TD*%
D21*
%TO.C,R12*%
X171745000Y-68420900D03*
X169154200Y-68420900D03*
%TD*%
D19*
%TO.C,R2*%
X193853200Y-86600000D03*
X192200000Y-86600000D03*
%TD*%
D11*
%TO.C,J10*%
X202125000Y-87850000D03*
D12*
X202125000Y-90390000D03*
X202125000Y-92930000D03*
X202125000Y-95470000D03*
%TD*%
D14*
%TO.C,R14*%
X180198300Y-83316199D03*
X180198300Y-84433799D03*
%TD*%
D22*
%TO.C,IC1*%
X172750000Y-81960000D03*
X172750000Y-82900000D03*
X172750000Y-83840000D03*
X175250000Y-83840000D03*
X175250000Y-81960000D03*
%TD*%
D23*
%TO.C,C11*%
X176545000Y-78445900D03*
X176545000Y-75195900D03*
%TD*%
D24*
%TO.C,R4*%
X171595000Y-72673401D03*
X171595000Y-70768401D03*
%TD*%
D11*
%TO.C,J3*%
X205385000Y-55150000D03*
D12*
X207925000Y-55150000D03*
X205385000Y-57690000D03*
X207925000Y-57690000D03*
X205385000Y-60230000D03*
X207925000Y-60230000D03*
X205385000Y-62770000D03*
X207925000Y-62770000D03*
%TD*%
D25*
%TO.C,R3*%
X174520000Y-73698900D03*
X174520000Y-71742900D03*
%TD*%
D26*
%TO.C,C3*%
X175570001Y-62170900D03*
X172514399Y-62170900D03*
%TD*%
D27*
%TO.C,J7*%
X190805000Y-89270000D03*
X199445000Y-89270000D03*
D28*
X190805000Y-94630000D03*
X199445000Y-94630000D03*
%TD*%
D29*
%TO.C,C4*%
X171695000Y-64595899D03*
X171695000Y-66295899D03*
%TD*%
D14*
%TO.C,R22*%
X180198300Y-80866199D03*
X180198300Y-81983799D03*
%TD*%
D11*
%TO.C,J5*%
X205385000Y-66120000D03*
D12*
X207925000Y-66120000D03*
X205385000Y-68660000D03*
X207925000Y-68660000D03*
X205385000Y-71200000D03*
X207925000Y-71200000D03*
X205385000Y-73740000D03*
X207925000Y-73740000D03*
%TD*%
D14*
%TO.C,R19*%
X184898300Y-83341199D03*
X184898300Y-84458799D03*
%TD*%
D11*
%TO.C,J11*%
X202125000Y-76950000D03*
D12*
X202125000Y-79490000D03*
X202125000Y-82030000D03*
X202125000Y-84570000D03*
%TD*%
D30*
%TO.C,C21*%
X181450000Y-59353400D03*
X181450000Y-57550000D03*
%TD*%
D23*
%TO.C,C8*%
X169969999Y-78440899D03*
X169969999Y-75190899D03*
%TD*%
D11*
%TO.C,J4*%
X202150000Y-73670000D03*
D12*
X202150000Y-71130000D03*
X202150000Y-68590000D03*
X202150000Y-66050000D03*
%TD*%
D31*
%TO.C,Module1*%
X164650000Y-57075000D03*
X116650000Y-57075000D03*
X164650000Y-90075000D03*
X116650000Y-90075000D03*
D32*
X147950000Y-55075000D03*
X147950000Y-58155000D03*
X147550000Y-55075000D03*
X147550000Y-58155000D03*
X147150000Y-55075000D03*
X147150000Y-58155000D03*
X146750000Y-55075000D03*
X146750000Y-58155000D03*
X146350000Y-55075000D03*
X146350000Y-58155000D03*
X145950000Y-55075000D03*
X145950000Y-58155000D03*
X145550000Y-55075000D03*
X145550000Y-58155000D03*
X145150000Y-55075000D03*
X145150000Y-58155000D03*
X144750000Y-55075000D03*
X144750000Y-58155000D03*
X144350000Y-55075000D03*
X144350000Y-58155000D03*
X143950000Y-55075000D03*
X143950000Y-58155000D03*
X143550000Y-55075000D03*
X143550000Y-58155000D03*
X143150000Y-55075000D03*
X143150000Y-58155000D03*
X142750000Y-55075000D03*
X142750000Y-58155000D03*
X142350000Y-55075000D03*
X142350000Y-58155000D03*
X141950000Y-55075000D03*
X141950000Y-58155000D03*
X141550000Y-55075000D03*
X141550000Y-58155000D03*
X141150000Y-55075000D03*
X141150000Y-58155000D03*
X140750000Y-55075000D03*
X140750000Y-58155000D03*
X140350000Y-55075000D03*
X140350000Y-58155000D03*
X139950000Y-55075000D03*
X139950000Y-58155000D03*
X139550000Y-55075000D03*
X139550000Y-58155000D03*
X139150000Y-55075000D03*
X139150000Y-58155000D03*
X138750000Y-55075000D03*
X138750000Y-58155000D03*
X138350000Y-55075000D03*
X138350000Y-58155000D03*
X137950000Y-55075000D03*
X137950000Y-58155000D03*
X137550000Y-55075000D03*
X137550000Y-58155000D03*
X137150000Y-55075000D03*
X137150000Y-58155000D03*
X136750000Y-55075000D03*
X136750000Y-58155000D03*
X136350000Y-55075000D03*
X136350000Y-58155000D03*
X135950000Y-55075000D03*
X135950000Y-58155000D03*
X135550000Y-55075000D03*
X135550000Y-58155000D03*
X135150000Y-55075000D03*
X135150000Y-58155000D03*
X134750000Y-55075000D03*
X134750000Y-58155000D03*
X134350000Y-55075000D03*
X134350000Y-58155000D03*
X133950000Y-55075000D03*
X133950000Y-58155000D03*
X133550000Y-55075000D03*
X133550000Y-58155000D03*
X133150000Y-55075000D03*
X133150000Y-58155000D03*
X132750000Y-55075000D03*
X132750000Y-58155000D03*
X132350000Y-55075000D03*
X132350000Y-58155000D03*
X131950000Y-55075000D03*
X131950000Y-58155000D03*
X131550000Y-55075000D03*
X131550000Y-58155000D03*
X131150000Y-55075000D03*
X131150000Y-58155000D03*
X130750000Y-55075000D03*
X130750000Y-58155000D03*
X130350000Y-55075000D03*
X130350000Y-58155000D03*
X129950000Y-55075000D03*
X129950000Y-58155000D03*
X129550000Y-55075000D03*
X129550000Y-58155000D03*
X129150000Y-55075000D03*
X129150000Y-58155000D03*
X128750000Y-55075000D03*
X128750000Y-58155000D03*
X128350000Y-55075000D03*
X128350000Y-58155000D03*
X147950000Y-88995000D03*
X147950000Y-92075000D03*
X147550000Y-88995000D03*
X147550000Y-92075000D03*
X147150000Y-88995000D03*
X147150000Y-92075000D03*
X146750000Y-88995000D03*
X146750000Y-92075000D03*
X146350000Y-88995000D03*
X146350000Y-92075000D03*
X145950000Y-88995000D03*
X145950000Y-92075000D03*
X145550000Y-88995000D03*
X145550000Y-92075000D03*
X145150000Y-88995000D03*
X145150000Y-92075000D03*
X144750000Y-88995000D03*
X144750000Y-92075000D03*
X144350000Y-88995000D03*
X144350000Y-92075000D03*
X143950000Y-88995000D03*
X143950000Y-92075000D03*
X143550000Y-88995000D03*
X143550000Y-92075000D03*
X143150000Y-88995000D03*
X143150000Y-92075000D03*
X142750000Y-88995000D03*
X142750000Y-92075000D03*
X142350000Y-88995000D03*
X142350000Y-92075000D03*
X141950000Y-88995000D03*
X141950000Y-92075000D03*
X141550000Y-88995000D03*
X141550000Y-92075000D03*
X141150000Y-88995000D03*
X141150000Y-92075000D03*
X140750000Y-88995000D03*
X140750000Y-92075000D03*
X140350000Y-88995000D03*
X140350000Y-92075000D03*
X139950000Y-88995000D03*
X139950000Y-92075000D03*
X139550000Y-88995000D03*
X139550000Y-92075000D03*
X139150000Y-88995000D03*
X139150000Y-92075000D03*
X138750000Y-88995000D03*
X138750000Y-92075000D03*
X138350000Y-88995000D03*
X138350000Y-92075000D03*
X137950000Y-88995000D03*
X137950000Y-92075000D03*
X137550000Y-88995000D03*
X137550000Y-92075000D03*
X137150000Y-88995000D03*
X137150000Y-92075000D03*
X136750000Y-88995000D03*
X136750000Y-92075000D03*
X136350000Y-88995000D03*
X136350000Y-92075000D03*
X135950000Y-88995000D03*
X135950000Y-92075000D03*
X135550000Y-88995000D03*
X135550000Y-92075000D03*
X135150000Y-88995000D03*
X135150000Y-92075000D03*
X134750000Y-88995000D03*
X134750000Y-92075000D03*
X134350000Y-88995000D03*
X134350000Y-92075000D03*
X133950000Y-88995000D03*
X133950000Y-92075000D03*
X133550000Y-88995000D03*
X133550000Y-92075000D03*
X133150000Y-88995000D03*
X133150000Y-92075000D03*
X132750000Y-88995000D03*
X132750000Y-92075000D03*
X132350000Y-88995000D03*
X132350000Y-92075000D03*
X131950000Y-88995000D03*
X131950000Y-92075000D03*
X131550000Y-88995000D03*
X131550000Y-92075000D03*
X131150000Y-88995000D03*
X131150000Y-92075000D03*
X130750000Y-88995000D03*
X130750000Y-92075000D03*
X130350000Y-88995000D03*
X130350000Y-92075000D03*
X129950000Y-88995000D03*
X129950000Y-92075000D03*
X129550000Y-88995000D03*
X129550000Y-92075000D03*
X129150000Y-88995000D03*
X129150000Y-92075000D03*
X128750000Y-88995000D03*
X128750000Y-92075000D03*
X128350000Y-88995000D03*
X128350000Y-92075000D03*
%TD*%
D33*
%TO.C,J2*%
X176550000Y-57325000D03*
D34*
X174050000Y-57325000D03*
X171550000Y-57325000D03*
%TD*%
D35*
%TO.C,R1*%
X171491200Y-85550000D03*
X172608800Y-85550000D03*
%TD*%
D36*
%TO.C,J1*%
X172125001Y-88784076D03*
X173124999Y-88784076D03*
X174125000Y-88784076D03*
X175125000Y-88784076D03*
X176125001Y-88784076D03*
X177124999Y-88784076D03*
X178124999Y-88784076D03*
X179125000Y-88784076D03*
X180125001Y-88784076D03*
X181125001Y-88784076D03*
X182124999Y-88784076D03*
X183125000Y-88784076D03*
X184125000Y-88784076D03*
X185125001Y-88784076D03*
X186125001Y-88784076D03*
D37*
X171124998Y-90884148D03*
X187125002Y-90884148D03*
%TD*%
D38*
%TO.C,J6*%
X187145000Y-55400000D03*
X188245000Y-55400000D03*
X189345000Y-55400000D03*
X190445000Y-55400000D03*
X191545000Y-55400000D03*
X192645000Y-55400000D03*
X193745000Y-55400000D03*
X194845000Y-55400000D03*
D39*
X185355000Y-67865000D03*
D40*
X189620000Y-67940000D03*
D41*
X183045000Y-66665000D03*
D42*
X183265000Y-55415000D03*
D43*
X195925000Y-55900000D03*
D41*
X196005000Y-66665000D03*
%TD*%
D23*
%TO.C,C9*%
X173270000Y-78440899D03*
X173270000Y-75190899D03*
%TD*%
D14*
%TO.C,R23*%
X182548300Y-80866199D03*
X182548300Y-81983799D03*
%TD*%
D11*
%TO.C,J9*%
X205385000Y-87880000D03*
D12*
X207925000Y-87880000D03*
X205385000Y-90420000D03*
X207925000Y-90420000D03*
X205385000Y-92960000D03*
X207925000Y-92960000D03*
X205385000Y-95500000D03*
X207925000Y-95500000D03*
%TD*%
D44*
%TO.C,C6*%
X176295001Y-73620900D03*
X176295001Y-71920900D03*
%TD*%
M02*
