%TF.GenerationSoftware,KiCad,Pcbnew,8.0.2*%
%TF.CreationDate,2024-10-21T09:55:00-04:00*%
%TF.ProjectId,Pi_Board,50695f42-6f61-4726-942e-6b696361645f,rev?*%
%TF.SameCoordinates,Original*%
%TF.FileFunction,Copper,L2,Bot*%
%TF.FilePolarity,Positive*%
%FSLAX46Y46*%
G04 Gerber Fmt 4.6, Leading zero omitted, Abs format (unit mm)*
G04 Created by KiCad (PCBNEW 8.0.2) date 2024-10-21 09:55:00*
%MOMM*%
%LPD*%
G01*
G04 APERTURE LIST*
%TA.AperFunction,ComponentPad*%
%ADD10R,1.651000X1.651000*%
%TD*%
%TA.AperFunction,ComponentPad*%
%ADD11C,1.651000*%
%TD*%
%TA.AperFunction,ComponentPad*%
%ADD12O,1.036000X2.100000*%
%TD*%
%TA.AperFunction,ComponentPad*%
%ADD13O,1.100000X2.600000*%
%TD*%
%TA.AperFunction,ComponentPad*%
%ADD14R,1.508000X1.508000*%
%TD*%
%TA.AperFunction,ComponentPad*%
%ADD15C,1.508000*%
%TD*%
%TA.AperFunction,ViaPad*%
%ADD16C,0.300000*%
%TD*%
%TA.AperFunction,Conductor*%
%ADD17C,0.500000*%
%TD*%
%TA.AperFunction,Conductor*%
%ADD18C,0.180000*%
%TD*%
%TA.AperFunction,Conductor*%
%ADD19C,0.200000*%
%TD*%
%TA.AperFunction,Conductor*%
%ADD20C,0.210000*%
%TD*%
G04 APERTURE END LIST*
D10*
%TO.P,J12,1,1*%
%TO.N,/S12*%
X202150000Y-62770000D03*
D11*
%TO.P,J12,2,2*%
%TO.N,/S13*%
X202150000Y-60230000D03*
%TO.P,J12,3,3*%
%TO.N,/S14*%
X202150000Y-57690000D03*
%TO.P,J12,4,4*%
%TO.N,/S15*%
X202150000Y-55150000D03*
%TD*%
D10*
%TO.P,J8,1,1*%
%TO.N,/5V*%
X205385000Y-76995000D03*
D11*
%TO.P,J8,2,2*%
%TO.N,/GND*%
X207925000Y-76995000D03*
%TO.P,J8,3,3*%
%TO.N,/5V*%
X205385000Y-79535000D03*
%TO.P,J8,4,4*%
%TO.N,/GND*%
X207925000Y-79535000D03*
%TO.P,J8,5,5*%
%TO.N,/5V*%
X205385000Y-82075000D03*
%TO.P,J8,6,6*%
%TO.N,/GND*%
X207925000Y-82075000D03*
%TO.P,J8,7,7*%
%TO.N,/5V*%
X205385000Y-84615000D03*
%TO.P,J8,8,8*%
%TO.N,/GND*%
X207925000Y-84615000D03*
%TD*%
D10*
%TO.P,J10,1,1*%
%TO.N,/S4*%
X202125000Y-87850000D03*
D11*
%TO.P,J10,2,2*%
%TO.N,/S5*%
X202125000Y-90390000D03*
%TO.P,J10,3,3*%
%TO.N,/S6*%
X202125000Y-92930000D03*
%TO.P,J10,4,4*%
%TO.N,/S7*%
X202125000Y-95470000D03*
%TD*%
D10*
%TO.P,J3,1,1*%
%TO.N,/5V*%
X205385000Y-55150000D03*
D11*
%TO.P,J3,2,2*%
%TO.N,/GND*%
X207925000Y-55150000D03*
%TO.P,J3,3,3*%
%TO.N,/5V*%
X205385000Y-57690000D03*
%TO.P,J3,4,4*%
%TO.N,/GND*%
X207925000Y-57690000D03*
%TO.P,J3,5,5*%
%TO.N,/5V*%
X205385000Y-60230000D03*
%TO.P,J3,6,6*%
%TO.N,/GND*%
X207925000Y-60230000D03*
%TO.P,J3,7,7*%
%TO.N,/5V*%
X205385000Y-62770000D03*
%TO.P,J3,8,8*%
%TO.N,/GND*%
X207925000Y-62770000D03*
%TD*%
D12*
%TO.P,J7,SH1,SHIELD3*%
%TO.N,/GND*%
X190805000Y-89270000D03*
%TO.P,J7,SH2,SHIELD4*%
X199445000Y-89270000D03*
D13*
%TO.P,J7,SH3,SHIELD1*%
X190805000Y-94630000D03*
%TO.P,J7,SH4,SHIELD2*%
X199445000Y-94630000D03*
%TD*%
D10*
%TO.P,J5,1,1*%
%TO.N,/5V*%
X205385000Y-66120000D03*
D11*
%TO.P,J5,2,2*%
%TO.N,/GND*%
X207925000Y-66120000D03*
%TO.P,J5,3,3*%
%TO.N,/5V*%
X205385000Y-68660000D03*
%TO.P,J5,4,4*%
%TO.N,/GND*%
X207925000Y-68660000D03*
%TO.P,J5,5,5*%
%TO.N,/5V*%
X205385000Y-71200000D03*
%TO.P,J5,6,6*%
%TO.N,/GND*%
X207925000Y-71200000D03*
%TO.P,J5,7,7*%
%TO.N,/5V*%
X205385000Y-73740000D03*
%TO.P,J5,8,8*%
%TO.N,/GND*%
X207925000Y-73740000D03*
%TD*%
D10*
%TO.P,J11,1,1*%
%TO.N,/S0*%
X202125000Y-76950000D03*
D11*
%TO.P,J11,2,2*%
%TO.N,/S1*%
X202125000Y-79490000D03*
%TO.P,J11,3,3*%
%TO.N,/S2*%
X202125000Y-82030000D03*
%TO.P,J11,4,4*%
%TO.N,/S3*%
X202125000Y-84570000D03*
%TD*%
D10*
%TO.P,J4,1,1*%
%TO.N,/S8*%
X202150000Y-73670000D03*
D11*
%TO.P,J4,2,2*%
%TO.N,/S9*%
X202150000Y-71130000D03*
%TO.P,J4,3,3*%
%TO.N,/S10*%
X202150000Y-68590000D03*
%TO.P,J4,4,4*%
%TO.N,/S11*%
X202150000Y-66050000D03*
%TD*%
D14*
%TO.P,J2,1,1*%
%TO.N,/12V*%
X176550000Y-57325000D03*
D15*
%TO.P,J2,2,2*%
%TO.N,unconnected-(J2-Pad2)*%
X174050000Y-57325000D03*
%TO.P,J2,3,3*%
%TO.N,/GND*%
X171550000Y-57325000D03*
%TD*%
D10*
%TO.P,J9,1,1*%
%TO.N,/5V*%
X205385000Y-87880000D03*
D11*
%TO.P,J9,2,2*%
%TO.N,/GND*%
X207925000Y-87880000D03*
%TO.P,J9,3,3*%
%TO.N,/5V*%
X205385000Y-90420000D03*
%TO.P,J9,4,4*%
%TO.N,/GND*%
X207925000Y-90420000D03*
%TO.P,J9,5,5*%
%TO.N,/5V*%
X205385000Y-92960000D03*
%TO.P,J9,6,6*%
%TO.N,/GND*%
X207925000Y-92960000D03*
%TO.P,J9,7,7*%
%TO.N,/5V*%
X205385000Y-95500000D03*
%TO.P,J9,8,8*%
%TO.N,/GND*%
X207925000Y-95500000D03*
%TD*%
D16*
%TO.N,/5V*%
X186200000Y-77000000D03*
X186200000Y-76550000D03*
X186200000Y-76100000D03*
%TO.N,/GND*%
X176550000Y-78450000D03*
X128750000Y-94200000D03*
X171350000Y-65900000D03*
X140750000Y-94200000D03*
X171700000Y-66275000D03*
X174500000Y-66850000D03*
X173950000Y-66900000D03*
X170700000Y-78450000D03*
X175000000Y-66850000D03*
X174500000Y-68150000D03*
X133950000Y-53900000D03*
X181000000Y-57550000D03*
X181150000Y-88800000D03*
X141550000Y-53950000D03*
X129950000Y-94200000D03*
X193600000Y-70200000D03*
X174100000Y-78450000D03*
X141950000Y-59800000D03*
X172450000Y-78450000D03*
X175550000Y-68150000D03*
X137150000Y-94250000D03*
X173950000Y-66300000D03*
X197900000Y-86700000D03*
X146750000Y-53950000D03*
X144350000Y-94200000D03*
X169150000Y-68850000D03*
X192650000Y-55400000D03*
X128750000Y-87000000D03*
X176600000Y-66300000D03*
X169150000Y-68050000D03*
X173300000Y-78450000D03*
X143550000Y-94550000D03*
X140750000Y-87100000D03*
X141950000Y-87100000D03*
X174550000Y-67500000D03*
X189600000Y-67950000D03*
X137950000Y-59800000D03*
X135950000Y-87050000D03*
X187100000Y-90900000D03*
X181850000Y-57550000D03*
X143150000Y-87100000D03*
X145550000Y-59800000D03*
X171325000Y-66700000D03*
X132350000Y-87050000D03*
X175150000Y-88750000D03*
X176550000Y-68150000D03*
X139550000Y-53950000D03*
X135150000Y-59800000D03*
X175550000Y-67450000D03*
X174500000Y-66300000D03*
X178150000Y-88800000D03*
X137550000Y-53900000D03*
X138350000Y-94250000D03*
X176050000Y-66850000D03*
X175550000Y-66850000D03*
X131150000Y-94250000D03*
X184900000Y-80900000D03*
X175550000Y-66300000D03*
X145550000Y-53950000D03*
X143950000Y-59800000D03*
X131150000Y-87050000D03*
X141600000Y-94550000D03*
X146750000Y-94200000D03*
X139950000Y-59800000D03*
X132350000Y-94250000D03*
X133550000Y-94250000D03*
X195200000Y-75000000D03*
X147950000Y-53950000D03*
X176050000Y-68150000D03*
X137150000Y-87050000D03*
X144350000Y-87100000D03*
X169900000Y-78450000D03*
X189200000Y-80850000D03*
X176550000Y-67450000D03*
X146750000Y-59800000D03*
X176550000Y-66850000D03*
X175000000Y-66300000D03*
X145550000Y-87050000D03*
X133550000Y-59800000D03*
X198200000Y-90150000D03*
X171100000Y-90925000D03*
X136350000Y-59800000D03*
X176050000Y-66300000D03*
X171600000Y-78450000D03*
X174950000Y-78450000D03*
X176050000Y-67450000D03*
X172150000Y-88900000D03*
X146750000Y-87100000D03*
X173950000Y-68150000D03*
X192200000Y-86600000D03*
X169400000Y-82900000D03*
X143550000Y-53950000D03*
X136350000Y-54000000D03*
X133550000Y-87050000D03*
X175800000Y-78450000D03*
X192050000Y-90200000D03*
X145550000Y-94200000D03*
X135950000Y-94250000D03*
X134750000Y-94250000D03*
X139550000Y-94250000D03*
X134750000Y-87050000D03*
X147950000Y-59800000D03*
X128750000Y-59800000D03*
X175000000Y-67450000D03*
X173950000Y-67500000D03*
X175050000Y-68150000D03*
%TO.N,/SD_DAT2*%
X187145000Y-60900000D03*
X170450000Y-62750000D03*
%TO.N,/SD_DAT3*%
X186175000Y-61025000D03*
X170525000Y-61025000D03*
%TO.N,/SD_CMD*%
X170450000Y-63350000D03*
X187275000Y-62050000D03*
%TO.N,/SD_CLK*%
X170525000Y-60400000D03*
X188525000Y-60900000D03*
%TO.N,/SD_DAT0*%
X170525000Y-61675000D03*
X193750000Y-59375000D03*
%TO.N,/USB_N*%
X194875000Y-90175000D03*
X148400000Y-85850000D03*
X147550000Y-82050000D03*
X195600000Y-88900000D03*
%TO.N,/USB_P*%
X148400000Y-82050000D03*
X147750000Y-84950000D03*
%TO.N,/SD_DAT1*%
X191000000Y-62175000D03*
X170500000Y-62200000D03*
%TO.N,/A1*%
X181400000Y-82650000D03*
X187300000Y-73000000D03*
%TO.N,/A2*%
X187250000Y-73650000D03*
X182550000Y-82700000D03*
%TO.N,/A0*%
X187350000Y-72350000D03*
X180200000Y-82700000D03*
%TO.N,/A3*%
X187250000Y-74300000D03*
X183750000Y-82700000D03*
%TO.N,/CAM1_C_N*%
X142900000Y-90400000D03*
X144350000Y-95400000D03*
%TO.N,/CAM1_C_P*%
X142150000Y-90400000D03*
X144350000Y-96200000D03*
%TO.N,/SCL0*%
X124900000Y-59950000D03*
X127550000Y-60400000D03*
%TO.N,/SDA0*%
X128250000Y-61000000D03*
X125300000Y-61050000D03*
%TO.N,/A4*%
X187250000Y-75000000D03*
X184900000Y-82700000D03*
%TO.N,/PI_SCL*%
X170400000Y-64950000D03*
X186600000Y-64700000D03*
%TO.N,/PI_SDA*%
X170350000Y-65600000D03*
X187700000Y-65300000D03*
%TO.N,/3.3V*%
X166800000Y-74150000D03*
X193100000Y-72350000D03*
X179100000Y-83850000D03*
X167850000Y-83600000D03*
%TO.N,Net-(J7-VBUS_A4)*%
X191000000Y-86400000D03*
X199150000Y-86000000D03*
%TO.N,Net-(J7-CC2)*%
X196400000Y-87925000D03*
X195875000Y-90175000D03*
%TO.N,/SD_PWR*%
X178675000Y-80725000D03*
X181450000Y-68600000D03*
%TO.N,/SD_PWR_ON*%
X127100000Y-55600000D03*
X132800000Y-54050000D03*
%TD*%
D17*
%TO.N,/5V*%
X197675000Y-78175000D02*
X200500000Y-75350000D01*
X200500000Y-75350000D02*
X203775000Y-75350000D01*
X203775000Y-75350000D02*
X205385000Y-73740000D01*
X199500000Y-71050000D02*
X200700000Y-69850000D01*
X186200000Y-76100000D02*
X187325000Y-77225000D01*
X199500000Y-74400000D02*
X199500000Y-71050000D01*
X186200000Y-77000000D02*
X187375000Y-78175000D01*
X197125000Y-77725000D02*
X200200000Y-74650000D01*
X186200000Y-76550000D02*
X187375000Y-77725000D01*
X196675000Y-77225000D02*
X199500000Y-74400000D01*
X204185000Y-72400000D02*
X205385000Y-71200000D01*
X187375000Y-77725000D02*
X197125000Y-77725000D01*
X187375000Y-78175000D02*
X197675000Y-78175000D01*
X200200000Y-73050000D02*
X200850000Y-72400000D01*
X200850000Y-72400000D02*
X204185000Y-72400000D01*
X204195000Y-69850000D02*
X205385000Y-68660000D01*
X187325000Y-77225000D02*
X196675000Y-77225000D01*
X200200000Y-74650000D02*
X200200000Y-73050000D01*
X200700000Y-69850000D02*
X204195000Y-69850000D01*
D18*
%TO.N,/SD_DAT2*%
X172850000Y-63050000D02*
X172100000Y-63050000D01*
X185870000Y-62175000D02*
X173725000Y-62175000D01*
X173725000Y-62175000D02*
X172850000Y-63050000D01*
X187145000Y-60900000D02*
X185870000Y-62175000D01*
X172100000Y-63050000D02*
X171800000Y-62750000D01*
X171800000Y-62750000D02*
X170450000Y-62750000D01*
%TO.N,/SD_DAT3*%
X170525000Y-61025000D02*
X173275000Y-61025000D01*
X174105000Y-61855000D02*
X184920000Y-61855000D01*
X184920000Y-61855000D02*
X185750000Y-61025000D01*
X185750000Y-61025000D02*
X186175000Y-61025000D01*
X173275000Y-61025000D02*
X174105000Y-61855000D01*
%TO.N,/SD_CMD*%
X173025000Y-63525000D02*
X174050000Y-62500000D01*
X171825000Y-63525000D02*
X173025000Y-63525000D01*
X186825000Y-62500000D02*
X187275000Y-62050000D01*
X174050000Y-62500000D02*
X186825000Y-62500000D01*
X171650000Y-63350000D02*
X171825000Y-63525000D01*
X170450000Y-63350000D02*
X171650000Y-63350000D01*
%TO.N,/SD_CLK*%
X170525000Y-60400000D02*
X170800000Y-60675000D01*
X187925000Y-60300000D02*
X188525000Y-60900000D01*
X186000000Y-60300000D02*
X187925000Y-60300000D01*
X184765000Y-61535000D02*
X186000000Y-60300000D01*
X170800000Y-60675000D02*
X173400000Y-60675000D01*
X173400000Y-60675000D02*
X174260000Y-61535000D01*
X174260000Y-61535000D02*
X184765000Y-61535000D01*
%TO.N,/SD_DAT0*%
X187515000Y-63175000D02*
X187550000Y-63140000D01*
X192125000Y-63150000D02*
X193750000Y-61525000D01*
X173325000Y-64200000D02*
X174350000Y-63175000D01*
X170275000Y-61675000D02*
X169500000Y-62450000D01*
X170525000Y-61675000D02*
X170275000Y-61675000D01*
X170100000Y-64200000D02*
X173325000Y-64200000D01*
X193750000Y-61525000D02*
X193750000Y-59400000D01*
X187550000Y-63140000D02*
X187560000Y-63150000D01*
X169525000Y-62475000D02*
X169525000Y-63625000D01*
X174350000Y-63175000D02*
X187515000Y-63175000D01*
X169525000Y-63625000D02*
X170100000Y-64200000D01*
X169500000Y-62450000D02*
X169525000Y-62475000D01*
X187560000Y-63150000D02*
X192125000Y-63150000D01*
D19*
%TO.N,/USB_N*%
X147250000Y-83700000D02*
X147550000Y-83400000D01*
X147550000Y-83400000D02*
X147550000Y-82050000D01*
X147250000Y-85200000D02*
X147250000Y-83700000D01*
D18*
X194875000Y-89625000D02*
X194875000Y-90175000D01*
D19*
X148400000Y-85850000D02*
X148400000Y-85550000D01*
X148400000Y-85550000D02*
X148250000Y-85400000D01*
D18*
X195600000Y-88900000D02*
X194875000Y-89625000D01*
D19*
X148250000Y-85400000D02*
X147450000Y-85400000D01*
X147450000Y-85400000D02*
X147250000Y-85200000D01*
%TO.N,/USB_P*%
X147750000Y-83950000D02*
X148400000Y-83300000D01*
X147750000Y-84950000D02*
X147750000Y-83950000D01*
X148400000Y-83300000D02*
X148400000Y-82050000D01*
D18*
%TO.N,/SD_DAT1*%
X169875000Y-62550000D02*
X169875000Y-63475000D01*
X170500000Y-62200000D02*
X170225000Y-62200000D01*
X170225000Y-62200000D02*
X169875000Y-62550000D01*
X170275000Y-63875000D02*
X173175000Y-63875000D01*
X190355000Y-62820000D02*
X191000000Y-62175000D01*
X169875000Y-63475000D02*
X170275000Y-63875000D01*
X173175000Y-63875000D02*
X174230000Y-62820000D01*
X174230000Y-62820000D02*
X190355000Y-62820000D01*
D20*
%TO.N,/A1*%
X184044974Y-73000000D02*
X187300000Y-73000000D01*
X180550000Y-81800000D02*
X180550000Y-76494974D01*
X180550000Y-76494974D02*
X184044974Y-73000000D01*
X181400000Y-82650000D02*
X180550000Y-81800000D01*
%TO.N,/A2*%
X182000000Y-82150000D02*
X181400000Y-82150000D01*
X180900000Y-76650000D02*
X183900000Y-73650000D01*
X182550000Y-82700000D02*
X182000000Y-82150000D01*
X187250000Y-73650000D02*
X187300000Y-73650000D01*
X183900000Y-73650000D02*
X187250000Y-73650000D01*
X181400000Y-82150000D02*
X180900000Y-81650000D01*
X180900000Y-81650000D02*
X180900000Y-76650000D01*
%TO.N,/A0*%
X180200000Y-76350000D02*
X184200000Y-72350000D01*
X184200000Y-72350000D02*
X187350000Y-72350000D01*
X180200000Y-82700000D02*
X180200000Y-76350000D01*
%TO.N,/A3*%
X183750000Y-82700000D02*
X182850000Y-81800000D01*
X181544974Y-81800000D02*
X181250000Y-81505026D01*
X181250000Y-81505026D02*
X181250000Y-76800000D01*
X183750000Y-74300000D02*
X187250000Y-74300000D01*
X182850000Y-81800000D02*
X181544974Y-81800000D01*
X181250000Y-76800000D02*
X183750000Y-74300000D01*
D19*
%TO.N,/CAM1_C_N*%
X144175001Y-95574999D02*
X144350000Y-95400000D01*
X143443199Y-95574999D02*
X144175001Y-95574999D01*
X142775000Y-90525000D02*
X142775000Y-94906800D01*
X142775000Y-94906800D02*
X143443199Y-95574999D01*
X142900000Y-90400000D02*
X142775000Y-90525000D01*
%TO.N,/CAM1_C_P*%
X142325000Y-90575000D02*
X142325000Y-95093200D01*
X144175001Y-96025001D02*
X144350000Y-96200000D01*
X142150000Y-90400000D02*
X142325000Y-90575000D01*
X142325000Y-95093200D02*
X143256801Y-96025001D01*
X143256801Y-96025001D02*
X144175001Y-96025001D01*
D18*
%TO.N,/SCL0*%
X124900000Y-59950000D02*
X127100000Y-59950000D01*
X127100000Y-59950000D02*
X127550000Y-60400000D01*
%TO.N,/SDA0*%
X125350000Y-61000000D02*
X125300000Y-61050000D01*
X128250000Y-61000000D02*
X125350000Y-61000000D01*
D20*
%TO.N,/A4*%
X183550000Y-75000000D02*
X187250000Y-75000000D01*
X181600000Y-81050000D02*
X181600000Y-76950000D01*
X182000000Y-81450000D02*
X181600000Y-81050000D01*
X183650000Y-81450000D02*
X182000000Y-81450000D01*
X184900000Y-82700000D02*
X183650000Y-81450000D01*
X181600000Y-76950000D02*
X183550000Y-75000000D01*
D18*
%TO.N,/PI_SCL*%
X170400000Y-64950000D02*
X184850000Y-64950000D01*
X185100000Y-64700000D02*
X186600000Y-64700000D01*
X184850000Y-64950000D02*
X185100000Y-64700000D01*
%TO.N,/PI_SDA*%
X187670000Y-65270000D02*
X187700000Y-65300000D01*
X170570000Y-65600000D02*
X170900000Y-65270000D01*
X170350000Y-65600000D02*
X170570000Y-65600000D01*
X170900000Y-65270000D02*
X187670000Y-65270000D01*
D20*
%TO.N,/3.3V*%
X183650000Y-71400000D02*
X179700000Y-75350000D01*
X193100000Y-72350000D02*
X191750000Y-72350000D01*
X167850000Y-83600000D02*
X167850000Y-74800000D01*
X184200000Y-71400000D02*
X183650000Y-71400000D01*
X191750000Y-72350000D02*
X191250000Y-71850000D01*
X179700000Y-75350000D02*
X179700000Y-82050000D01*
X191250000Y-71850000D02*
X190800000Y-71400000D01*
X167200000Y-74150000D02*
X166800000Y-74150000D01*
X179100000Y-82650000D02*
X179100000Y-83850000D01*
X167850000Y-74800000D02*
X167200000Y-74150000D01*
X179700000Y-82050000D02*
X179100000Y-82650000D01*
X190800000Y-71400000D02*
X184200000Y-71400000D01*
%TO.N,Net-(J7-VBUS_A4)*%
X197700000Y-85200000D02*
X198350000Y-85200000D01*
X192200000Y-85200000D02*
X197700000Y-85200000D01*
X198350000Y-85200000D02*
X199150000Y-86000000D01*
X191000000Y-86400000D02*
X192200000Y-85200000D01*
D18*
%TO.N,Net-(J7-CC2)*%
X196400000Y-89650000D02*
X196400000Y-87925000D01*
X195875000Y-90175000D02*
X196400000Y-89650000D01*
D20*
%TO.N,/SD_PWR*%
X181450000Y-71950000D02*
X181450000Y-68600000D01*
X179000000Y-74400000D02*
X181450000Y-71950000D01*
X178675000Y-80725000D02*
X179000000Y-80400000D01*
X179000000Y-80400000D02*
X179000000Y-74400000D01*
%TO.N,/SD_PWR_ON*%
X129400000Y-54450000D02*
X129800000Y-54050000D01*
X127100000Y-55600000D02*
X128250000Y-55600000D01*
X129800000Y-54050000D02*
X132800000Y-54050000D01*
X128250000Y-55600000D02*
X129400000Y-54450000D01*
%TD*%
%TA.AperFunction,Conductor*%
%TO.N,/GND*%
G36*
X209493039Y-53419685D02*
G01*
X209538794Y-53472489D01*
X209550000Y-53524000D01*
X209550000Y-97076000D01*
X209530315Y-97143039D01*
X209477511Y-97188794D01*
X209426000Y-97200000D01*
X113074000Y-97200000D01*
X113006961Y-97180315D01*
X112961206Y-97127511D01*
X112950000Y-97076000D01*
X112950000Y-89903681D01*
X113599500Y-89903681D01*
X113599500Y-90246318D01*
X113637858Y-90586768D01*
X113637860Y-90586780D01*
X113637861Y-90586783D01*
X113653537Y-90655462D01*
X113714102Y-90920816D01*
X113714103Y-90920818D01*
X113827264Y-91244216D01*
X113975922Y-91552907D01*
X113988108Y-91572301D01*
X114158211Y-91843018D01*
X114371834Y-92110893D01*
X114614107Y-92353166D01*
X114881982Y-92566789D01*
X115172090Y-92749076D01*
X115480785Y-92897736D01*
X115804183Y-93010897D01*
X116138217Y-93087139D01*
X116138226Y-93087140D01*
X116138231Y-93087141D01*
X116365197Y-93112713D01*
X116478682Y-93125499D01*
X116478685Y-93125500D01*
X116478688Y-93125500D01*
X116821315Y-93125500D01*
X116821316Y-93125499D01*
X116995311Y-93105895D01*
X117161768Y-93087141D01*
X117161771Y-93087140D01*
X117161783Y-93087139D01*
X117495817Y-93010897D01*
X117819215Y-92897736D01*
X118127910Y-92749076D01*
X118418018Y-92566789D01*
X118685893Y-92353166D01*
X118928166Y-92110893D01*
X119141789Y-91843018D01*
X119324076Y-91552910D01*
X119472736Y-91244215D01*
X119585897Y-90920817D01*
X119662139Y-90586783D01*
X119662975Y-90579369D01*
X119683184Y-90399999D01*
X141855019Y-90399999D01*
X141855019Y-90400000D01*
X141872809Y-90500890D01*
X141924030Y-90589609D01*
X141924031Y-90589610D01*
X142002509Y-90655461D01*
X142002510Y-90655461D01*
X142002511Y-90655462D01*
X142002904Y-90655605D01*
X142003431Y-90655993D01*
X142011907Y-90660887D01*
X142011361Y-90661831D01*
X142059171Y-90697028D01*
X142084109Y-90762296D01*
X142084500Y-90772129D01*
X142084500Y-95141040D01*
X142121114Y-95229433D01*
X143052915Y-96161233D01*
X143120569Y-96228887D01*
X143208963Y-96265501D01*
X143980786Y-96265501D01*
X144047825Y-96285186D01*
X144088173Y-96327501D01*
X144110852Y-96366784D01*
X144124031Y-96389610D01*
X144202509Y-96455461D01*
X144298777Y-96490500D01*
X144298779Y-96490500D01*
X144401221Y-96490500D01*
X144401223Y-96490500D01*
X144497491Y-96455461D01*
X144575969Y-96389610D01*
X144627191Y-96300889D01*
X144644981Y-96200000D01*
X144627191Y-96099111D01*
X144575969Y-96010390D01*
X144497491Y-95944539D01*
X144424531Y-95917983D01*
X144379262Y-95889143D01*
X144377800Y-95887681D01*
X144344315Y-95826358D01*
X144349299Y-95756666D01*
X144377770Y-95712349D01*
X144379234Y-95710884D01*
X144424530Y-95682016D01*
X144497491Y-95655461D01*
X144575969Y-95589610D01*
X144627191Y-95500889D01*
X144644981Y-95400000D01*
X144627191Y-95299111D01*
X144626653Y-95298180D01*
X144575969Y-95210390D01*
X144497491Y-95144539D01*
X144401223Y-95109500D01*
X144298777Y-95109500D01*
X144202510Y-95144539D01*
X144202509Y-95144539D01*
X144202508Y-95144540D01*
X144124032Y-95210388D01*
X144124031Y-95210390D01*
X144090224Y-95268948D01*
X144088174Y-95272498D01*
X144037607Y-95320714D01*
X143980786Y-95334499D01*
X143594180Y-95334499D01*
X143527141Y-95314814D01*
X143506499Y-95298180D01*
X143051819Y-94843500D01*
X143018334Y-94782177D01*
X143015500Y-94755819D01*
X143015500Y-93776579D01*
X189755000Y-93776579D01*
X189755000Y-94380000D01*
X190505000Y-94380000D01*
X190505000Y-94880000D01*
X189755000Y-94880000D01*
X189755000Y-95483420D01*
X189795348Y-95686266D01*
X189795350Y-95686274D01*
X189874500Y-95877358D01*
X189874505Y-95877368D01*
X189989410Y-96049335D01*
X189989413Y-96049339D01*
X190135660Y-96195586D01*
X190135664Y-96195589D01*
X190307631Y-96310494D01*
X190307641Y-96310499D01*
X190498723Y-96389648D01*
X190498725Y-96389649D01*
X190555000Y-96400842D01*
X190555000Y-95546988D01*
X190564940Y-95564205D01*
X190620795Y-95620060D01*
X190689204Y-95659556D01*
X190765504Y-95680000D01*
X190844496Y-95680000D01*
X190920796Y-95659556D01*
X190989205Y-95620060D01*
X191045060Y-95564205D01*
X191055000Y-95546988D01*
X191055000Y-96400842D01*
X191111274Y-96389649D01*
X191111276Y-96389648D01*
X191302358Y-96310499D01*
X191302368Y-96310494D01*
X191474335Y-96195589D01*
X191474339Y-96195586D01*
X191620586Y-96049339D01*
X191620589Y-96049335D01*
X191735494Y-95877368D01*
X191735499Y-95877358D01*
X191814649Y-95686274D01*
X191814651Y-95686266D01*
X191854999Y-95483420D01*
X191855000Y-95483417D01*
X191855000Y-94880000D01*
X191105000Y-94880000D01*
X191105000Y-94380000D01*
X191855000Y-94380000D01*
X191855000Y-93776583D01*
X191854999Y-93776579D01*
X198395000Y-93776579D01*
X198395000Y-94380000D01*
X199145000Y-94380000D01*
X199145000Y-94880000D01*
X198395000Y-94880000D01*
X198395000Y-95483420D01*
X198435348Y-95686266D01*
X198435350Y-95686274D01*
X198514500Y-95877358D01*
X198514505Y-95877368D01*
X198629410Y-96049335D01*
X198629413Y-96049339D01*
X198775660Y-96195586D01*
X198775664Y-96195589D01*
X198947631Y-96310494D01*
X198947641Y-96310499D01*
X199138723Y-96389648D01*
X199138725Y-96389649D01*
X199195000Y-96400842D01*
X199195000Y-95546988D01*
X199204940Y-95564205D01*
X199260795Y-95620060D01*
X199329204Y-95659556D01*
X199405504Y-95680000D01*
X199484496Y-95680000D01*
X199560796Y-95659556D01*
X199629205Y-95620060D01*
X199685060Y-95564205D01*
X199695000Y-95546988D01*
X199695000Y-96400842D01*
X199751274Y-96389649D01*
X199751276Y-96389648D01*
X199942358Y-96310499D01*
X199942368Y-96310494D01*
X200114335Y-96195589D01*
X200114339Y-96195586D01*
X200260586Y-96049339D01*
X200260589Y-96049335D01*
X200375494Y-95877368D01*
X200375499Y-95877358D01*
X200454649Y-95686274D01*
X200454651Y-95686266D01*
X200494999Y-95483420D01*
X200495000Y-95483417D01*
X200495000Y-95470000D01*
X201154326Y-95470000D01*
X201172976Y-95659367D01*
X201228215Y-95841465D01*
X201317910Y-96009272D01*
X201317914Y-96009279D01*
X201438629Y-96156370D01*
X201585720Y-96277085D01*
X201585727Y-96277089D01*
X201753534Y-96366784D01*
X201753536Y-96366784D01*
X201753539Y-96366786D01*
X201935631Y-96422023D01*
X202125000Y-96440674D01*
X202314369Y-96422023D01*
X202496461Y-96366786D01*
X202664278Y-96277086D01*
X202811370Y-96156370D01*
X202932086Y-96009278D01*
X203021786Y-95841461D01*
X203077023Y-95659369D01*
X203092719Y-95500000D01*
X204414326Y-95500000D01*
X204432976Y-95689367D01*
X204488215Y-95871465D01*
X204577910Y-96039272D01*
X204577914Y-96039279D01*
X204698629Y-96186370D01*
X204845720Y-96307085D01*
X204845727Y-96307089D01*
X205013534Y-96396784D01*
X205013536Y-96396784D01*
X205013539Y-96396786D01*
X205195631Y-96452023D01*
X205385000Y-96470674D01*
X205574369Y-96452023D01*
X205756461Y-96396786D01*
X205769814Y-96389649D01*
X205886084Y-96327501D01*
X205924278Y-96307086D01*
X206071370Y-96186370D01*
X206192086Y-96039278D01*
X206281786Y-95871461D01*
X206337023Y-95689369D01*
X206351410Y-95543284D01*
X206369172Y-95499296D01*
X206353244Y-95468991D01*
X206351411Y-95456722D01*
X206337023Y-95310631D01*
X206281786Y-95128539D01*
X206281784Y-95128536D01*
X206281784Y-95128534D01*
X206192089Y-94960727D01*
X206192085Y-94960720D01*
X206071370Y-94813629D01*
X205924279Y-94692914D01*
X205924272Y-94692910D01*
X205756465Y-94603215D01*
X205574367Y-94547976D01*
X205385000Y-94529326D01*
X205195632Y-94547976D01*
X205013534Y-94603215D01*
X204845727Y-94692910D01*
X204845720Y-94692914D01*
X204698629Y-94813629D01*
X204577914Y-94960720D01*
X204577910Y-94960727D01*
X204488215Y-95128534D01*
X204432976Y-95310632D01*
X204414326Y-95500000D01*
X203092719Y-95500000D01*
X203095674Y-95470000D01*
X203077023Y-95280631D01*
X203021786Y-95098539D01*
X203021784Y-95098536D01*
X203021784Y-95098534D01*
X202932089Y-94930727D01*
X202932085Y-94930720D01*
X202811370Y-94783629D01*
X202664279Y-94662914D01*
X202664272Y-94662910D01*
X202496465Y-94573215D01*
X202314367Y-94517976D01*
X202125000Y-94499326D01*
X201935632Y-94517976D01*
X201753534Y-94573215D01*
X201585727Y-94662910D01*
X201585720Y-94662914D01*
X201438629Y-94783629D01*
X201317914Y-94930720D01*
X201317910Y-94930727D01*
X201228215Y-95098534D01*
X201172976Y-95280632D01*
X201154326Y-95470000D01*
X200495000Y-95470000D01*
X200495000Y-94880000D01*
X199745000Y-94880000D01*
X199745000Y-94380000D01*
X200495000Y-94380000D01*
X200495000Y-93776583D01*
X200494999Y-93776579D01*
X200454651Y-93573733D01*
X200454649Y-93573725D01*
X200375499Y-93382641D01*
X200375494Y-93382631D01*
X200260589Y-93210664D01*
X200260586Y-93210660D01*
X200114339Y-93064413D01*
X200114335Y-93064410D01*
X199942368Y-92949505D01*
X199942358Y-92949500D01*
X199895281Y-92930000D01*
X201154326Y-92930000D01*
X201172976Y-93119367D01*
X201228215Y-93301465D01*
X201317910Y-93469272D01*
X201317914Y-93469279D01*
X201438629Y-93616370D01*
X201585720Y-93737085D01*
X201585727Y-93737089D01*
X201753534Y-93826784D01*
X201753536Y-93826784D01*
X201753539Y-93826786D01*
X201935631Y-93882023D01*
X202125000Y-93900674D01*
X202314369Y-93882023D01*
X202496461Y-93826786D01*
X202664278Y-93737086D01*
X202811370Y-93616370D01*
X202932086Y-93469278D01*
X203021786Y-93301461D01*
X203077023Y-93119369D01*
X203092719Y-92960000D01*
X204414326Y-92960000D01*
X204432976Y-93149367D01*
X204488215Y-93331465D01*
X204577910Y-93499272D01*
X204577914Y-93499279D01*
X204698629Y-93646370D01*
X204845720Y-93767085D01*
X204845727Y-93767089D01*
X205013534Y-93856784D01*
X205013536Y-93856784D01*
X205013539Y-93856786D01*
X205195631Y-93912023D01*
X205385000Y-93930674D01*
X205574369Y-93912023D01*
X205756461Y-93856786D01*
X205786923Y-93840504D01*
X205924272Y-93767089D01*
X205924278Y-93767086D01*
X206071370Y-93646370D01*
X206192086Y-93499278D01*
X206281786Y-93331461D01*
X206337023Y-93149369D01*
X206351410Y-93003284D01*
X206369172Y-92959296D01*
X206353244Y-92928991D01*
X206351411Y-92916722D01*
X206337023Y-92770631D01*
X206281786Y-92588539D01*
X206281784Y-92588536D01*
X206281784Y-92588534D01*
X206192089Y-92420727D01*
X206192085Y-92420720D01*
X206071370Y-92273629D01*
X205924279Y-92152914D01*
X205924272Y-92152910D01*
X205756465Y-92063215D01*
X205574367Y-92007976D01*
X205385000Y-91989326D01*
X205195632Y-92007976D01*
X205013534Y-92063215D01*
X204845727Y-92152910D01*
X204845720Y-92152914D01*
X204698629Y-92273629D01*
X204577914Y-92420720D01*
X204577910Y-92420727D01*
X204488215Y-92588534D01*
X204432976Y-92770632D01*
X204414326Y-92960000D01*
X203092719Y-92960000D01*
X203095674Y-92930000D01*
X203077023Y-92740631D01*
X203021786Y-92558539D01*
X203021784Y-92558536D01*
X203021784Y-92558534D01*
X202932089Y-92390727D01*
X202932085Y-92390720D01*
X202811370Y-92243629D01*
X202664279Y-92122914D01*
X202664272Y-92122910D01*
X202496465Y-92033215D01*
X202314367Y-91977976D01*
X202125000Y-91959326D01*
X201935632Y-91977976D01*
X201753534Y-92033215D01*
X201585727Y-92122910D01*
X201585720Y-92122914D01*
X201438629Y-92243629D01*
X201317914Y-92390720D01*
X201317910Y-92390727D01*
X201228215Y-92558534D01*
X201172976Y-92740632D01*
X201154326Y-92930000D01*
X199895281Y-92930000D01*
X199751272Y-92870349D01*
X199751267Y-92870347D01*
X199695000Y-92859155D01*
X199695000Y-93713011D01*
X199685060Y-93695795D01*
X199629205Y-93639940D01*
X199560796Y-93600444D01*
X199484496Y-93580000D01*
X199405504Y-93580000D01*
X199329204Y-93600444D01*
X199260795Y-93639940D01*
X199204940Y-93695795D01*
X199195000Y-93713011D01*
X199195000Y-92859156D01*
X199194999Y-92859155D01*
X199138732Y-92870347D01*
X199138727Y-92870349D01*
X198947641Y-92949500D01*
X198947631Y-92949505D01*
X198775664Y-93064410D01*
X198775660Y-93064413D01*
X198629413Y-93210660D01*
X198629410Y-93210664D01*
X198514505Y-93382631D01*
X198514500Y-93382641D01*
X198435350Y-93573725D01*
X198435348Y-93573733D01*
X198395000Y-93776579D01*
X191854999Y-93776579D01*
X191814651Y-93573733D01*
X191814649Y-93573725D01*
X191735499Y-93382641D01*
X191735494Y-93382631D01*
X191620589Y-93210664D01*
X191620586Y-93210660D01*
X191474339Y-93064413D01*
X191474335Y-93064410D01*
X191302368Y-92949505D01*
X191302358Y-92949500D01*
X191111272Y-92870349D01*
X191111267Y-92870347D01*
X191055000Y-92859155D01*
X191055000Y-93713011D01*
X191045060Y-93695795D01*
X190989205Y-93639940D01*
X190920796Y-93600444D01*
X190844496Y-93580000D01*
X190765504Y-93580000D01*
X190689204Y-93600444D01*
X190620795Y-93639940D01*
X190564940Y-93695795D01*
X190555000Y-93713011D01*
X190555000Y-92859156D01*
X190554999Y-92859155D01*
X190498732Y-92870347D01*
X190498727Y-92870349D01*
X190307641Y-92949500D01*
X190307631Y-92949505D01*
X190135664Y-93064410D01*
X190135660Y-93064413D01*
X189989413Y-93210660D01*
X189989410Y-93210664D01*
X189874505Y-93382631D01*
X189874500Y-93382641D01*
X189795350Y-93573725D01*
X189795348Y-93573733D01*
X189755000Y-93776579D01*
X143015500Y-93776579D01*
X143015500Y-90740126D01*
X143035185Y-90673087D01*
X143059792Y-90645138D01*
X143125969Y-90589610D01*
X143177191Y-90500889D01*
X143194981Y-90400000D01*
X143177191Y-90299111D01*
X143137655Y-90230632D01*
X143125969Y-90210390D01*
X143047491Y-90144539D01*
X142951223Y-90109500D01*
X142848777Y-90109500D01*
X142752510Y-90144539D01*
X142752509Y-90144539D01*
X142752508Y-90144540D01*
X142674032Y-90210388D01*
X142674030Y-90210391D01*
X142632386Y-90282521D01*
X142581819Y-90330736D01*
X142513211Y-90343958D01*
X142448347Y-90317990D01*
X142417613Y-90282521D01*
X142375969Y-90210390D01*
X142297491Y-90144539D01*
X142201223Y-90109500D01*
X142098777Y-90109500D01*
X142002510Y-90144539D01*
X142002509Y-90144539D01*
X142002508Y-90144540D01*
X141924032Y-90210388D01*
X141924030Y-90210391D01*
X141872809Y-90299110D01*
X141855019Y-90399999D01*
X119683184Y-90399999D01*
X119684424Y-90388991D01*
X119700500Y-90246312D01*
X119700500Y-89903688D01*
X119700499Y-89903681D01*
X161599500Y-89903681D01*
X161599500Y-90246318D01*
X161637858Y-90586768D01*
X161637860Y-90586780D01*
X161637861Y-90586783D01*
X161653537Y-90655462D01*
X161714102Y-90920816D01*
X161714103Y-90920818D01*
X161827264Y-91244216D01*
X161975922Y-91552907D01*
X161988108Y-91572301D01*
X162158211Y-91843018D01*
X162371834Y-92110893D01*
X162614107Y-92353166D01*
X162881982Y-92566789D01*
X163172090Y-92749076D01*
X163480785Y-92897736D01*
X163804183Y-93010897D01*
X164138217Y-93087139D01*
X164138226Y-93087140D01*
X164138231Y-93087141D01*
X164365197Y-93112713D01*
X164478682Y-93125499D01*
X164478685Y-93125500D01*
X164478688Y-93125500D01*
X164821315Y-93125500D01*
X164821316Y-93125499D01*
X164995311Y-93105895D01*
X165161768Y-93087141D01*
X165161771Y-93087140D01*
X165161783Y-93087139D01*
X165495817Y-93010897D01*
X165819215Y-92897736D01*
X166127910Y-92749076D01*
X166418018Y-92566789D01*
X166685893Y-92353166D01*
X166928166Y-92110893D01*
X167141789Y-91843018D01*
X167324076Y-91552910D01*
X167472736Y-91244215D01*
X167585897Y-90920817D01*
X167662139Y-90586783D01*
X167662975Y-90579369D01*
X167684424Y-90388991D01*
X167700500Y-90246312D01*
X167700500Y-89903688D01*
X167683715Y-89754715D01*
X167662141Y-89563231D01*
X167662140Y-89563226D01*
X167662139Y-89563217D01*
X167585897Y-89229183D01*
X167472736Y-88905785D01*
X167343648Y-88637731D01*
X189787000Y-88637731D01*
X189787000Y-89020000D01*
X190505000Y-89020000D01*
X190505000Y-89520000D01*
X189787000Y-89520000D01*
X189787000Y-89902268D01*
X189826119Y-90098932D01*
X189826121Y-90098940D01*
X189902858Y-90284201D01*
X190014267Y-90450936D01*
X190014270Y-90450940D01*
X190156059Y-90592729D01*
X190156063Y-90592732D01*
X190322798Y-90704141D01*
X190322800Y-90704142D01*
X190508054Y-90780876D01*
X190508061Y-90780878D01*
X190555000Y-90790214D01*
X190555000Y-89936988D01*
X190564940Y-89954205D01*
X190620795Y-90010060D01*
X190689204Y-90049556D01*
X190765504Y-90070000D01*
X190844496Y-90070000D01*
X190920796Y-90049556D01*
X190989205Y-90010060D01*
X191045060Y-89954205D01*
X191055000Y-89936988D01*
X191055000Y-90790213D01*
X191101938Y-90780878D01*
X191101945Y-90780876D01*
X191287199Y-90704142D01*
X191287201Y-90704141D01*
X191453936Y-90592732D01*
X191453940Y-90592729D01*
X191595729Y-90450940D01*
X191595732Y-90450936D01*
X191707141Y-90284201D01*
X191752374Y-90174999D01*
X194580019Y-90174999D01*
X194580019Y-90175000D01*
X194597809Y-90275890D01*
X194637571Y-90344761D01*
X194649031Y-90364610D01*
X194727509Y-90430461D01*
X194823777Y-90465500D01*
X194823779Y-90465500D01*
X194926221Y-90465500D01*
X194926223Y-90465500D01*
X195022491Y-90430461D01*
X195100969Y-90364610D01*
X195152191Y-90275889D01*
X195169981Y-90175000D01*
X195169981Y-90174999D01*
X195580019Y-90174999D01*
X195580019Y-90175000D01*
X195597809Y-90275890D01*
X195637571Y-90344761D01*
X195649031Y-90364610D01*
X195727509Y-90430461D01*
X195823777Y-90465500D01*
X195823779Y-90465500D01*
X195926221Y-90465500D01*
X195926223Y-90465500D01*
X196022491Y-90430461D01*
X196100969Y-90364610D01*
X196152191Y-90275889D01*
X196156556Y-90251131D01*
X196187579Y-90188532D01*
X196190965Y-90185009D01*
X196513126Y-89862849D01*
X196513129Y-89862847D01*
X196530567Y-89845409D01*
X196530568Y-89845409D01*
X196595409Y-89780568D01*
X196630500Y-89695849D01*
X196630500Y-88637731D01*
X198427000Y-88637731D01*
X198427000Y-89020000D01*
X199145000Y-89020000D01*
X199145000Y-89520000D01*
X198427000Y-89520000D01*
X198427000Y-89902268D01*
X198466119Y-90098932D01*
X198466121Y-90098940D01*
X198542858Y-90284201D01*
X198654267Y-90450936D01*
X198654270Y-90450940D01*
X198796059Y-90592729D01*
X198796063Y-90592732D01*
X198962798Y-90704141D01*
X198962800Y-90704142D01*
X199148054Y-90780876D01*
X199148061Y-90780878D01*
X199195000Y-90790214D01*
X199195000Y-89936988D01*
X199204940Y-89954205D01*
X199260795Y-90010060D01*
X199329204Y-90049556D01*
X199405504Y-90070000D01*
X199484496Y-90070000D01*
X199560796Y-90049556D01*
X199629205Y-90010060D01*
X199685060Y-89954205D01*
X199695000Y-89936988D01*
X199695000Y-90790213D01*
X199741938Y-90780878D01*
X199741945Y-90780876D01*
X199927199Y-90704142D01*
X199927201Y-90704141D01*
X200093936Y-90592732D01*
X200093940Y-90592729D01*
X200235729Y-90450940D01*
X200235732Y-90450936D01*
X200276448Y-90390000D01*
X201154326Y-90390000D01*
X201172976Y-90579367D01*
X201228215Y-90761465D01*
X201317910Y-90929272D01*
X201317914Y-90929279D01*
X201438629Y-91076370D01*
X201585720Y-91197085D01*
X201585727Y-91197089D01*
X201753534Y-91286784D01*
X201753536Y-91286784D01*
X201753539Y-91286786D01*
X201935631Y-91342023D01*
X202125000Y-91360674D01*
X202314369Y-91342023D01*
X202496461Y-91286786D01*
X202664278Y-91197086D01*
X202811370Y-91076370D01*
X202932086Y-90929278D01*
X203006418Y-90790213D01*
X203021784Y-90761465D01*
X203021784Y-90761464D01*
X203021786Y-90761461D01*
X203077023Y-90579369D01*
X203092719Y-90420000D01*
X204414326Y-90420000D01*
X204432976Y-90609367D01*
X204488215Y-90791465D01*
X204577910Y-90959272D01*
X204577914Y-90959279D01*
X204698629Y-91106370D01*
X204845720Y-91227085D01*
X204845727Y-91227089D01*
X205013534Y-91316784D01*
X205013536Y-91316784D01*
X205013539Y-91316786D01*
X205195631Y-91372023D01*
X205385000Y-91390674D01*
X205574369Y-91372023D01*
X205756461Y-91316786D01*
X205924278Y-91227086D01*
X206071370Y-91106370D01*
X206192086Y-90959278D01*
X206281786Y-90791461D01*
X206337023Y-90609369D01*
X206351410Y-90463284D01*
X206369172Y-90419296D01*
X206353244Y-90388991D01*
X206351411Y-90376722D01*
X206337023Y-90230631D01*
X206281786Y-90048539D01*
X206281784Y-90048536D01*
X206281784Y-90048534D01*
X206192089Y-89880727D01*
X206192085Y-89880720D01*
X206071370Y-89733629D01*
X205924279Y-89612914D01*
X205924272Y-89612910D01*
X205756465Y-89523215D01*
X205574367Y-89467976D01*
X205385000Y-89449326D01*
X205195632Y-89467976D01*
X205013534Y-89523215D01*
X204845727Y-89612910D01*
X204845720Y-89612914D01*
X204698629Y-89733629D01*
X204577914Y-89880720D01*
X204577910Y-89880727D01*
X204488215Y-90048534D01*
X204432976Y-90230632D01*
X204414326Y-90420000D01*
X203092719Y-90420000D01*
X203095674Y-90390000D01*
X203077023Y-90200631D01*
X203021786Y-90018539D01*
X203021784Y-90018536D01*
X203021784Y-90018534D01*
X202932089Y-89850727D01*
X202932085Y-89850720D01*
X202811370Y-89703629D01*
X202664279Y-89582914D01*
X202664272Y-89582910D01*
X202496465Y-89493215D01*
X202314367Y-89437976D01*
X202125000Y-89419326D01*
X201935632Y-89437976D01*
X201753534Y-89493215D01*
X201585727Y-89582910D01*
X201585720Y-89582914D01*
X201438629Y-89703629D01*
X201317914Y-89850720D01*
X201317910Y-89850727D01*
X201228215Y-90018534D01*
X201172976Y-90200632D01*
X201154326Y-90390000D01*
X200276448Y-90390000D01*
X200347141Y-90284201D01*
X200423878Y-90098940D01*
X200423880Y-90098932D01*
X200462999Y-89902268D01*
X200463000Y-89902265D01*
X200463000Y-89520000D01*
X199745000Y-89520000D01*
X199745000Y-89020000D01*
X200463000Y-89020000D01*
X200463000Y-88637735D01*
X200462999Y-88637731D01*
X200423880Y-88441067D01*
X200423878Y-88441059D01*
X200347141Y-88255798D01*
X200235732Y-88089063D01*
X200235729Y-88089059D01*
X200093940Y-87947270D01*
X200093936Y-87947267D01*
X199927201Y-87835858D01*
X199741940Y-87759121D01*
X199741932Y-87759119D01*
X199695000Y-87749783D01*
X199695000Y-88603011D01*
X199685060Y-88585795D01*
X199629205Y-88529940D01*
X199560796Y-88490444D01*
X199484496Y-88470000D01*
X199405504Y-88470000D01*
X199329204Y-88490444D01*
X199260795Y-88529940D01*
X199204940Y-88585795D01*
X199195000Y-88603011D01*
X199195000Y-87749784D01*
X199194999Y-87749783D01*
X199148067Y-87759119D01*
X199148059Y-87759121D01*
X198962798Y-87835858D01*
X198796063Y-87947267D01*
X198796059Y-87947270D01*
X198654270Y-88089059D01*
X198654267Y-88089063D01*
X198542858Y-88255798D01*
X198466121Y-88441059D01*
X198466119Y-88441067D01*
X198427000Y-88637731D01*
X196630500Y-88637731D01*
X196630500Y-88139986D01*
X196647112Y-88077987D01*
X196677191Y-88025889D01*
X196694981Y-87925000D01*
X196677191Y-87824111D01*
X196625969Y-87735390D01*
X196547491Y-87669539D01*
X196451223Y-87634500D01*
X196348777Y-87634500D01*
X196252510Y-87669539D01*
X196252509Y-87669539D01*
X196252508Y-87669540D01*
X196174032Y-87735388D01*
X196174030Y-87735391D01*
X196122809Y-87824110D01*
X196120738Y-87835858D01*
X196105019Y-87925000D01*
X196122809Y-88025889D01*
X196152887Y-88077987D01*
X196169500Y-88139986D01*
X196169500Y-89503162D01*
X196149815Y-89570201D01*
X196133181Y-89590843D01*
X195867974Y-89856049D01*
X195822705Y-89884889D01*
X195727510Y-89919538D01*
X195649032Y-89985388D01*
X195649030Y-89985391D01*
X195597809Y-90074110D01*
X195580019Y-90174999D01*
X195169981Y-90174999D01*
X195152191Y-90074111D01*
X195152190Y-90074109D01*
X195152190Y-90074108D01*
X195122112Y-90022010D01*
X195105500Y-89960012D01*
X195105500Y-89771838D01*
X195125185Y-89704799D01*
X195141819Y-89684157D01*
X195358000Y-89467976D01*
X195607028Y-89218947D01*
X195652292Y-89190110D01*
X195747491Y-89155461D01*
X195825969Y-89089610D01*
X195877191Y-89000889D01*
X195894981Y-88900000D01*
X195877191Y-88799111D01*
X195854795Y-88760320D01*
X195825969Y-88710390D01*
X195747491Y-88644539D01*
X195651223Y-88609500D01*
X195548777Y-88609500D01*
X195452510Y-88644539D01*
X195452509Y-88644539D01*
X195452508Y-88644540D01*
X195374032Y-88710388D01*
X195374030Y-88710391D01*
X195322807Y-88799113D01*
X195318442Y-88823869D01*
X195287414Y-88886471D01*
X195284008Y-88890014D01*
X194983915Y-89190108D01*
X194744433Y-89429590D01*
X194744432Y-89429591D01*
X194724697Y-89449326D01*
X194679590Y-89494432D01*
X194665053Y-89529526D01*
X194644500Y-89579146D01*
X194644499Y-89579151D01*
X194644499Y-89685283D01*
X194644500Y-89685292D01*
X194644500Y-89960012D01*
X194627888Y-90022010D01*
X194597809Y-90074108D01*
X194597809Y-90074109D01*
X194580019Y-90174999D01*
X191752374Y-90174999D01*
X191783878Y-90098940D01*
X191783880Y-90098932D01*
X191822999Y-89902268D01*
X191823000Y-89902265D01*
X191823000Y-89520000D01*
X191105000Y-89520000D01*
X191105000Y-89020000D01*
X191823000Y-89020000D01*
X191823000Y-88637735D01*
X191822999Y-88637731D01*
X191783880Y-88441067D01*
X191783878Y-88441059D01*
X191707141Y-88255798D01*
X191595732Y-88089063D01*
X191595729Y-88089059D01*
X191453940Y-87947270D01*
X191453936Y-87947267D01*
X191287201Y-87835858D01*
X191101940Y-87759121D01*
X191101932Y-87759119D01*
X191055000Y-87749783D01*
X191055000Y-88603011D01*
X191045060Y-88585795D01*
X190989205Y-88529940D01*
X190920796Y-88490444D01*
X190844496Y-88470000D01*
X190765504Y-88470000D01*
X190689204Y-88490444D01*
X190620795Y-88529940D01*
X190564940Y-88585795D01*
X190555000Y-88603011D01*
X190555000Y-87749784D01*
X190554999Y-87749783D01*
X190508067Y-87759119D01*
X190508059Y-87759121D01*
X190322798Y-87835858D01*
X190156063Y-87947267D01*
X190156059Y-87947270D01*
X190014270Y-88089059D01*
X190014267Y-88089063D01*
X189902858Y-88255798D01*
X189826121Y-88441059D01*
X189826119Y-88441067D01*
X189787000Y-88637731D01*
X167343648Y-88637731D01*
X167324076Y-88597090D01*
X167141789Y-88306982D01*
X166928166Y-88039107D01*
X166685893Y-87796834D01*
X166418018Y-87583211D01*
X166127910Y-87400924D01*
X166127907Y-87400922D01*
X165819216Y-87252264D01*
X165495818Y-87139103D01*
X165495816Y-87139102D01*
X165238024Y-87080262D01*
X165161783Y-87062861D01*
X165161780Y-87062860D01*
X165161768Y-87062858D01*
X164821318Y-87024500D01*
X164821312Y-87024500D01*
X164478688Y-87024500D01*
X164478681Y-87024500D01*
X164138231Y-87062858D01*
X164138217Y-87062861D01*
X163804183Y-87139102D01*
X163804181Y-87139103D01*
X163480783Y-87252264D01*
X163172092Y-87400922D01*
X162881983Y-87583210D01*
X162614107Y-87796833D01*
X162371833Y-88039107D01*
X162158210Y-88306983D01*
X161975922Y-88597092D01*
X161827264Y-88905783D01*
X161714103Y-89229181D01*
X161714102Y-89229183D01*
X161637861Y-89563217D01*
X161637858Y-89563231D01*
X161599500Y-89903681D01*
X119700499Y-89903681D01*
X119683715Y-89754715D01*
X119662141Y-89563231D01*
X119662140Y-89563226D01*
X119662139Y-89563217D01*
X119585897Y-89229183D01*
X119472736Y-88905785D01*
X119324076Y-88597090D01*
X119141789Y-88306982D01*
X118928166Y-88039107D01*
X118685893Y-87796834D01*
X118418018Y-87583211D01*
X118127910Y-87400924D01*
X118127907Y-87400922D01*
X117819216Y-87252264D01*
X117495818Y-87139103D01*
X117495816Y-87139102D01*
X117238024Y-87080262D01*
X117161783Y-87062861D01*
X117161780Y-87062860D01*
X117161768Y-87062858D01*
X116821318Y-87024500D01*
X116821312Y-87024500D01*
X116478688Y-87024500D01*
X116478681Y-87024500D01*
X116138231Y-87062858D01*
X116138217Y-87062861D01*
X115804183Y-87139102D01*
X115804181Y-87139103D01*
X115480783Y-87252264D01*
X115172092Y-87400922D01*
X114881983Y-87583210D01*
X114614107Y-87796833D01*
X114371833Y-88039107D01*
X114158210Y-88306983D01*
X113975922Y-88597092D01*
X113827264Y-88905783D01*
X113714103Y-89229181D01*
X113714102Y-89229183D01*
X113637861Y-89563217D01*
X113637858Y-89563231D01*
X113599500Y-89903681D01*
X112950000Y-89903681D01*
X112950000Y-87010660D01*
X201159000Y-87010660D01*
X201159000Y-88689336D01*
X201159001Y-88689339D01*
X201159001Y-88689340D01*
X201167151Y-88730321D01*
X201198205Y-88776795D01*
X201244679Y-88807849D01*
X201285659Y-88816000D01*
X202964340Y-88815999D01*
X203005321Y-88807849D01*
X203051795Y-88776795D01*
X203082849Y-88730321D01*
X203091000Y-88689341D01*
X203090999Y-87040660D01*
X204419000Y-87040660D01*
X204419000Y-88719336D01*
X204419001Y-88719339D01*
X204419001Y-88719340D01*
X204427151Y-88760321D01*
X204458205Y-88806795D01*
X204504679Y-88837849D01*
X204545659Y-88846000D01*
X206224340Y-88845999D01*
X206265321Y-88837849D01*
X206311795Y-88806795D01*
X206342849Y-88760321D01*
X206351000Y-88719341D01*
X206350999Y-87937561D01*
X206367672Y-87880776D01*
X206579933Y-87880776D01*
X206593976Y-87902628D01*
X206598527Y-87926755D01*
X206614650Y-88111045D01*
X206614651Y-88111051D01*
X206674678Y-88335074D01*
X206674681Y-88335080D01*
X206772699Y-88545281D01*
X206827665Y-88623781D01*
X207383657Y-88067789D01*
X207392447Y-88100591D01*
X207467687Y-88230909D01*
X207574091Y-88337313D01*
X207704409Y-88412553D01*
X207737210Y-88421342D01*
X207181218Y-88977333D01*
X207259718Y-89032301D01*
X207271121Y-89037618D01*
X207323560Y-89083790D01*
X207342712Y-89150984D01*
X207322496Y-89217865D01*
X207271123Y-89262381D01*
X207259716Y-89267700D01*
X207181218Y-89322664D01*
X207181217Y-89322665D01*
X207737210Y-89878657D01*
X207704409Y-89887447D01*
X207574091Y-89962687D01*
X207467687Y-90069091D01*
X207392447Y-90199409D01*
X207383657Y-90232209D01*
X206827665Y-89676217D01*
X206827664Y-89676218D01*
X206772701Y-89754715D01*
X206674681Y-89964917D01*
X206614651Y-90188948D01*
X206614650Y-90188954D01*
X206598341Y-90375367D01*
X206580540Y-90420873D01*
X206596641Y-90452334D01*
X206598341Y-90464632D01*
X206614650Y-90651045D01*
X206614651Y-90651051D01*
X206674678Y-90875074D01*
X206674681Y-90875080D01*
X206772699Y-91085281D01*
X206827665Y-91163781D01*
X207383657Y-90607789D01*
X207392447Y-90640591D01*
X207467687Y-90770909D01*
X207574091Y-90877313D01*
X207704409Y-90952553D01*
X207737210Y-90961342D01*
X207181218Y-91517333D01*
X207259718Y-91572301D01*
X207271121Y-91577618D01*
X207323560Y-91623790D01*
X207342712Y-91690984D01*
X207322496Y-91757865D01*
X207271123Y-91802381D01*
X207259716Y-91807700D01*
X207181218Y-91862664D01*
X207181217Y-91862665D01*
X207737210Y-92418657D01*
X207704409Y-92427447D01*
X207574091Y-92502687D01*
X207467687Y-92609091D01*
X207392447Y-92739409D01*
X207383657Y-92772209D01*
X206827665Y-92216217D01*
X206827664Y-92216218D01*
X206772701Y-92294715D01*
X206674681Y-92504917D01*
X206614651Y-92728948D01*
X206614650Y-92728954D01*
X206598341Y-92915367D01*
X206580540Y-92960873D01*
X206596641Y-92992334D01*
X206598341Y-93004632D01*
X206614650Y-93191045D01*
X206614651Y-93191051D01*
X206674678Y-93415074D01*
X206674681Y-93415080D01*
X206772699Y-93625281D01*
X206827665Y-93703781D01*
X207383657Y-93147789D01*
X207392447Y-93180591D01*
X207467687Y-93310909D01*
X207574091Y-93417313D01*
X207704409Y-93492553D01*
X207737210Y-93501342D01*
X207181218Y-94057333D01*
X207259718Y-94112301D01*
X207271121Y-94117618D01*
X207323560Y-94163790D01*
X207342712Y-94230984D01*
X207322496Y-94297865D01*
X207271123Y-94342381D01*
X207259716Y-94347700D01*
X207181218Y-94402664D01*
X207181217Y-94402665D01*
X207737210Y-94958657D01*
X207704409Y-94967447D01*
X207574091Y-95042687D01*
X207467687Y-95149091D01*
X207392447Y-95279409D01*
X207383657Y-95312209D01*
X206827665Y-94756217D01*
X206827664Y-94756218D01*
X206772701Y-94834715D01*
X206674681Y-95044917D01*
X206614651Y-95268948D01*
X206614650Y-95268954D01*
X206598341Y-95455367D01*
X206580540Y-95500873D01*
X206596641Y-95532334D01*
X206598341Y-95544632D01*
X206614650Y-95731045D01*
X206614651Y-95731051D01*
X206674678Y-95955074D01*
X206674681Y-95955080D01*
X206772699Y-96165281D01*
X206827665Y-96243781D01*
X207383657Y-95687789D01*
X207392447Y-95720591D01*
X207467687Y-95850909D01*
X207574091Y-95957313D01*
X207704409Y-96032553D01*
X207737210Y-96041342D01*
X207181218Y-96597333D01*
X207259718Y-96652301D01*
X207469919Y-96750318D01*
X207469925Y-96750321D01*
X207693948Y-96810348D01*
X207693955Y-96810349D01*
X207924998Y-96830563D01*
X207925002Y-96830563D01*
X208156044Y-96810349D01*
X208156051Y-96810348D01*
X208380074Y-96750321D01*
X208380085Y-96750317D01*
X208590279Y-96652302D01*
X208590283Y-96652300D01*
X208668780Y-96597333D01*
X208112789Y-96041342D01*
X208145591Y-96032553D01*
X208275909Y-95957313D01*
X208382313Y-95850909D01*
X208457553Y-95720591D01*
X208466342Y-95687789D01*
X209022333Y-96243780D01*
X209077300Y-96165283D01*
X209077302Y-96165279D01*
X209175317Y-95955085D01*
X209175321Y-95955074D01*
X209235348Y-95731051D01*
X209235349Y-95731044D01*
X209255563Y-95500001D01*
X209255563Y-95499998D01*
X209235349Y-95268955D01*
X209235348Y-95268948D01*
X209175318Y-95044917D01*
X209077300Y-94834719D01*
X209022333Y-94756217D01*
X208466341Y-95312209D01*
X208457553Y-95279409D01*
X208382313Y-95149091D01*
X208275909Y-95042687D01*
X208145591Y-94967447D01*
X208112789Y-94958657D01*
X208668781Y-94402665D01*
X208590281Y-94347699D01*
X208578879Y-94342382D01*
X208526440Y-94296210D01*
X208507288Y-94229016D01*
X208527504Y-94162135D01*
X208578882Y-94117617D01*
X208590280Y-94112301D01*
X208590283Y-94112300D01*
X208668780Y-94057333D01*
X208112789Y-93501342D01*
X208145591Y-93492553D01*
X208275909Y-93417313D01*
X208382313Y-93310909D01*
X208457553Y-93180591D01*
X208466342Y-93147789D01*
X209022333Y-93703780D01*
X209077300Y-93625283D01*
X209077302Y-93625279D01*
X209175317Y-93415085D01*
X209175321Y-93415074D01*
X209235348Y-93191051D01*
X209235349Y-93191044D01*
X209255563Y-92960001D01*
X209255563Y-92959998D01*
X209235349Y-92728955D01*
X209235348Y-92728948D01*
X209175318Y-92504917D01*
X209077300Y-92294719D01*
X209022333Y-92216217D01*
X208466341Y-92772209D01*
X208457553Y-92739409D01*
X208382313Y-92609091D01*
X208275909Y-92502687D01*
X208145591Y-92427447D01*
X208112789Y-92418657D01*
X208668781Y-91862665D01*
X208590281Y-91807699D01*
X208578879Y-91802382D01*
X208526440Y-91756210D01*
X208507288Y-91689016D01*
X208527504Y-91622135D01*
X208578882Y-91577617D01*
X208590280Y-91572301D01*
X208590283Y-91572300D01*
X208668780Y-91517333D01*
X208112789Y-90961342D01*
X208145591Y-90952553D01*
X208275909Y-90877313D01*
X208382313Y-90770909D01*
X208457553Y-90640591D01*
X208466342Y-90607789D01*
X209022333Y-91163780D01*
X209077300Y-91085283D01*
X209077302Y-91085279D01*
X209175317Y-90875085D01*
X209175321Y-90875074D01*
X209235348Y-90651051D01*
X209235349Y-90651044D01*
X209255563Y-90420001D01*
X209255563Y-90419998D01*
X209235349Y-90188955D01*
X209235348Y-90188948D01*
X209175318Y-89964917D01*
X209077300Y-89754719D01*
X209022333Y-89676217D01*
X208466341Y-90232209D01*
X208457553Y-90199409D01*
X208382313Y-90069091D01*
X208275909Y-89962687D01*
X208145591Y-89887447D01*
X208112789Y-89878657D01*
X208668781Y-89322665D01*
X208590281Y-89267699D01*
X208578879Y-89262382D01*
X208526440Y-89216210D01*
X208507288Y-89149016D01*
X208527504Y-89082135D01*
X208578882Y-89037617D01*
X208590280Y-89032301D01*
X208590283Y-89032300D01*
X208668780Y-88977333D01*
X208112789Y-88421342D01*
X208145591Y-88412553D01*
X208275909Y-88337313D01*
X208382313Y-88230909D01*
X208457553Y-88100591D01*
X208466342Y-88067789D01*
X209022333Y-88623780D01*
X209077300Y-88545283D01*
X209077302Y-88545279D01*
X209175317Y-88335085D01*
X209175321Y-88335074D01*
X209235348Y-88111051D01*
X209235349Y-88111044D01*
X209255563Y-87880001D01*
X209255563Y-87879998D01*
X209235349Y-87648955D01*
X209235348Y-87648948D01*
X209175318Y-87424917D01*
X209077300Y-87214719D01*
X209022333Y-87136217D01*
X208466341Y-87692209D01*
X208457553Y-87659409D01*
X208382313Y-87529091D01*
X208275909Y-87422687D01*
X208145591Y-87347447D01*
X208112789Y-87338657D01*
X208668781Y-86782665D01*
X208590281Y-86727699D01*
X208380080Y-86629681D01*
X208380074Y-86629678D01*
X208156051Y-86569651D01*
X208156044Y-86569650D01*
X207925002Y-86549437D01*
X207924998Y-86549437D01*
X207693955Y-86569650D01*
X207693948Y-86569651D01*
X207469917Y-86629681D01*
X207259715Y-86727701D01*
X207181218Y-86782664D01*
X207181217Y-86782665D01*
X207737210Y-87338657D01*
X207704409Y-87347447D01*
X207574091Y-87422687D01*
X207467687Y-87529091D01*
X207392447Y-87659409D01*
X207383657Y-87692209D01*
X206827665Y-87136217D01*
X206827664Y-87136218D01*
X206772701Y-87214715D01*
X206674681Y-87424917D01*
X206614651Y-87648948D01*
X206614650Y-87648954D01*
X206598527Y-87833244D01*
X206579933Y-87880776D01*
X206367672Y-87880776D01*
X206368955Y-87876406D01*
X206353430Y-87846868D01*
X206350999Y-87822436D01*
X206350999Y-87040663D01*
X206350999Y-87040660D01*
X206342849Y-86999679D01*
X206311795Y-86953205D01*
X206265321Y-86922151D01*
X206224341Y-86914000D01*
X206224339Y-86914000D01*
X204545663Y-86914000D01*
X204504679Y-86922151D01*
X204458205Y-86953205D01*
X204447901Y-86968624D01*
X204427151Y-86999678D01*
X204419000Y-87040660D01*
X203090999Y-87040660D01*
X203090999Y-87010660D01*
X203082849Y-86969679D01*
X203051795Y-86923205D01*
X203005321Y-86892151D01*
X202964341Y-86884000D01*
X202964339Y-86884000D01*
X201285663Y-86884000D01*
X201244679Y-86892151D01*
X201211981Y-86914000D01*
X201198205Y-86923205D01*
X201187901Y-86938624D01*
X201167151Y-86969678D01*
X201159000Y-87010660D01*
X112950000Y-87010660D01*
X112950000Y-86399999D01*
X190705019Y-86399999D01*
X190705019Y-86400000D01*
X190722809Y-86500890D01*
X190774030Y-86589609D01*
X190774031Y-86589610D01*
X190852509Y-86655461D01*
X190948777Y-86690500D01*
X190948779Y-86690500D01*
X191051221Y-86690500D01*
X191051223Y-86690500D01*
X191147491Y-86655461D01*
X191225969Y-86589610D01*
X191277191Y-86500889D01*
X191277191Y-86500885D01*
X191280902Y-86490692D01*
X191282310Y-86491204D01*
X191308037Y-86439289D01*
X191311424Y-86435764D01*
X192265371Y-85481819D01*
X192326694Y-85448334D01*
X192353052Y-85445500D01*
X197651167Y-85445500D01*
X198196948Y-85445500D01*
X198263987Y-85465185D01*
X198284629Y-85481819D01*
X198838549Y-86035738D01*
X198868646Y-86090857D01*
X198869098Y-86090693D01*
X198870180Y-86093666D01*
X198872034Y-86097061D01*
X198872763Y-86100761D01*
X198872808Y-86100887D01*
X198872809Y-86100889D01*
X198924031Y-86189610D01*
X199002509Y-86255461D01*
X199098777Y-86290500D01*
X199098779Y-86290500D01*
X199201221Y-86290500D01*
X199201223Y-86290500D01*
X199297491Y-86255461D01*
X199375969Y-86189610D01*
X199427191Y-86100889D01*
X199444981Y-86000000D01*
X199427191Y-85899111D01*
X199407680Y-85865317D01*
X199375969Y-85810390D01*
X199346943Y-85786034D01*
X199297491Y-85744538D01*
X199235646Y-85722028D01*
X199190377Y-85693188D01*
X198489064Y-84991874D01*
X198489062Y-84991872D01*
X198398836Y-84954501D01*
X198398834Y-84954500D01*
X198398833Y-84954500D01*
X197748833Y-84954500D01*
X192248833Y-84954500D01*
X192151167Y-84954500D01*
X192151165Y-84954500D01*
X192151163Y-84954501D01*
X192060937Y-84991872D01*
X192060935Y-84991874D01*
X190959619Y-86093189D01*
X190914351Y-86122029D01*
X190852512Y-86144537D01*
X190852508Y-86144540D01*
X190774032Y-86210388D01*
X190774030Y-86210391D01*
X190722809Y-86299110D01*
X190705019Y-86399999D01*
X112950000Y-86399999D01*
X112950000Y-83652162D01*
X147009500Y-83652162D01*
X147009500Y-85247840D01*
X147031673Y-85301370D01*
X147046114Y-85336233D01*
X147313768Y-85603886D01*
X147402162Y-85640500D01*
X147497839Y-85640500D01*
X147994183Y-85640500D01*
X148061222Y-85660185D01*
X148106977Y-85712989D01*
X148116921Y-85782147D01*
X148116306Y-85785989D01*
X148112004Y-85810388D01*
X148105019Y-85850000D01*
X148122809Y-85950890D01*
X148174030Y-86039609D01*
X148174031Y-86039610D01*
X148252509Y-86105461D01*
X148348777Y-86140500D01*
X148348779Y-86140500D01*
X148451221Y-86140500D01*
X148451223Y-86140500D01*
X148547491Y-86105461D01*
X148625969Y-86039610D01*
X148677191Y-85950889D01*
X148694981Y-85850000D01*
X148677191Y-85749111D01*
X148677190Y-85749109D01*
X148677190Y-85749108D01*
X148657112Y-85714331D01*
X148640500Y-85652333D01*
X148640500Y-85502162D01*
X148617998Y-85447836D01*
X148617998Y-85447835D01*
X148607332Y-85422086D01*
X148603886Y-85413767D01*
X148603885Y-85413766D01*
X148603885Y-85413765D01*
X148386234Y-85196115D01*
X148386233Y-85196114D01*
X148297840Y-85159500D01*
X148297839Y-85159500D01*
X148297838Y-85159500D01*
X148155817Y-85159500D01*
X148088778Y-85139815D01*
X148043023Y-85087011D01*
X148033079Y-85017853D01*
X148033693Y-85014010D01*
X148044981Y-84950000D01*
X148027191Y-84849111D01*
X148027190Y-84849109D01*
X148027190Y-84849108D01*
X148007112Y-84814331D01*
X147990500Y-84752333D01*
X147990500Y-84570000D01*
X201154326Y-84570000D01*
X201172976Y-84759367D01*
X201228215Y-84941465D01*
X201317910Y-85109272D01*
X201317914Y-85109279D01*
X201438629Y-85256370D01*
X201585720Y-85377085D01*
X201585727Y-85377089D01*
X201753534Y-85466784D01*
X201753536Y-85466784D01*
X201753539Y-85466786D01*
X201935631Y-85522023D01*
X202125000Y-85540674D01*
X202314369Y-85522023D01*
X202496461Y-85466786D01*
X202499457Y-85465185D01*
X202664272Y-85377089D01*
X202664278Y-85377086D01*
X202811370Y-85256370D01*
X202932086Y-85109278D01*
X203021786Y-84941461D01*
X203077023Y-84759369D01*
X203091242Y-84615000D01*
X204414326Y-84615000D01*
X204432976Y-84804367D01*
X204488215Y-84986465D01*
X204577910Y-85154272D01*
X204577914Y-85154279D01*
X204698629Y-85301370D01*
X204845720Y-85422085D01*
X204845727Y-85422089D01*
X205013534Y-85511784D01*
X205013536Y-85511784D01*
X205013539Y-85511786D01*
X205195631Y-85567023D01*
X205385000Y-85585674D01*
X205574369Y-85567023D01*
X205756461Y-85511786D01*
X205924278Y-85422086D01*
X206071370Y-85301370D01*
X206192086Y-85154278D01*
X206281786Y-84986461D01*
X206337023Y-84804369D01*
X206351410Y-84658284D01*
X206369172Y-84614296D01*
X206353244Y-84583991D01*
X206351411Y-84571722D01*
X206337023Y-84425631D01*
X206281786Y-84243539D01*
X206281784Y-84243536D01*
X206281784Y-84243534D01*
X206192089Y-84075727D01*
X206192085Y-84075720D01*
X206071370Y-83928629D01*
X205924279Y-83807914D01*
X205924272Y-83807910D01*
X205756465Y-83718215D01*
X205574367Y-83662976D01*
X205385000Y-83644326D01*
X205195632Y-83662976D01*
X205013534Y-83718215D01*
X204845727Y-83807910D01*
X204845720Y-83807914D01*
X204698629Y-83928629D01*
X204577914Y-84075720D01*
X204577910Y-84075727D01*
X204488215Y-84243534D01*
X204432976Y-84425632D01*
X204414326Y-84615000D01*
X203091242Y-84615000D01*
X203095674Y-84570000D01*
X203077023Y-84380631D01*
X203021786Y-84198539D01*
X203021784Y-84198536D01*
X203021784Y-84198534D01*
X202932089Y-84030727D01*
X202932085Y-84030720D01*
X202811370Y-83883629D01*
X202664279Y-83762914D01*
X202664272Y-83762910D01*
X202496465Y-83673215D01*
X202314367Y-83617976D01*
X202125000Y-83599326D01*
X201935632Y-83617976D01*
X201753534Y-83673215D01*
X201585727Y-83762910D01*
X201585720Y-83762914D01*
X201438629Y-83883629D01*
X201317914Y-84030720D01*
X201317910Y-84030727D01*
X201228215Y-84198534D01*
X201172976Y-84380632D01*
X201154326Y-84570000D01*
X147990500Y-84570000D01*
X147990500Y-84100980D01*
X148010185Y-84033941D01*
X148026819Y-84013299D01*
X148291010Y-83749108D01*
X148603886Y-83436232D01*
X148640500Y-83347838D01*
X148640500Y-83252161D01*
X148640500Y-82247666D01*
X148657113Y-82185667D01*
X148677189Y-82150892D01*
X148677190Y-82150890D01*
X148677191Y-82150889D01*
X148694981Y-82050000D01*
X148693921Y-82043991D01*
X148679814Y-81963987D01*
X148677191Y-81949111D01*
X148625969Y-81860390D01*
X148547491Y-81794539D01*
X148451223Y-81759500D01*
X148348777Y-81759500D01*
X148252510Y-81794539D01*
X148252509Y-81794539D01*
X148252508Y-81794540D01*
X148174032Y-81860388D01*
X148174030Y-81860391D01*
X148122809Y-81949110D01*
X148105019Y-82049999D01*
X148105019Y-82050000D01*
X148122809Y-82150890D01*
X148122810Y-82150892D01*
X148142887Y-82185667D01*
X148159500Y-82247666D01*
X148159500Y-83149019D01*
X148139815Y-83216058D01*
X148123181Y-83236700D01*
X148002181Y-83357700D01*
X147940858Y-83391185D01*
X147871166Y-83386201D01*
X147815233Y-83344329D01*
X147790816Y-83278865D01*
X147790500Y-83270019D01*
X147790500Y-82247666D01*
X147807113Y-82185667D01*
X147827189Y-82150892D01*
X147827190Y-82150890D01*
X147827191Y-82150889D01*
X147844981Y-82050000D01*
X147843921Y-82043991D01*
X147829814Y-81963987D01*
X147827191Y-81949111D01*
X147775969Y-81860390D01*
X147697491Y-81794539D01*
X147601223Y-81759500D01*
X147498777Y-81759500D01*
X147402510Y-81794539D01*
X147402509Y-81794539D01*
X147402508Y-81794540D01*
X147324032Y-81860388D01*
X147324030Y-81860391D01*
X147272809Y-81949110D01*
X147255019Y-82049999D01*
X147255019Y-82050000D01*
X147272809Y-82150890D01*
X147272810Y-82150892D01*
X147292887Y-82185667D01*
X147309500Y-82247666D01*
X147309500Y-83249019D01*
X147289815Y-83316058D01*
X147273181Y-83336700D01*
X147046116Y-83563764D01*
X147046111Y-83563772D01*
X147012747Y-83644322D01*
X147012747Y-83644324D01*
X147009500Y-83652162D01*
X112950000Y-83652162D01*
X112950000Y-74149999D01*
X166505019Y-74149999D01*
X166505019Y-74150000D01*
X166522809Y-74250890D01*
X166557802Y-74311500D01*
X166574031Y-74339610D01*
X166652509Y-74405461D01*
X166748777Y-74440500D01*
X166748779Y-74440500D01*
X166851221Y-74440500D01*
X166851223Y-74440500D01*
X166947491Y-74405461D01*
X166947492Y-74405459D01*
X166954311Y-74402978D01*
X166996722Y-74395500D01*
X167046948Y-74395500D01*
X167113987Y-74415185D01*
X167134629Y-74431819D01*
X167568181Y-74865370D01*
X167601666Y-74926693D01*
X167604500Y-74953051D01*
X167604500Y-83410993D01*
X167587888Y-83472991D01*
X167572809Y-83499108D01*
X167572809Y-83499109D01*
X167555019Y-83599999D01*
X167555019Y-83600000D01*
X167572809Y-83700890D01*
X167600648Y-83749109D01*
X167624031Y-83789610D01*
X167702509Y-83855461D01*
X167798777Y-83890500D01*
X167798779Y-83890500D01*
X167901221Y-83890500D01*
X167901223Y-83890500D01*
X167997491Y-83855461D01*
X168075969Y-83789610D01*
X168127191Y-83700889D01*
X168144981Y-83600000D01*
X168127191Y-83499111D01*
X168127190Y-83499109D01*
X168127190Y-83499108D01*
X168112112Y-83472991D01*
X168095500Y-83410993D01*
X168095500Y-80724999D01*
X178380019Y-80724999D01*
X178380019Y-80725000D01*
X178397809Y-80825890D01*
X178424930Y-80872865D01*
X178449031Y-80914610D01*
X178527509Y-80980461D01*
X178623777Y-81015500D01*
X178623779Y-81015500D01*
X178726221Y-81015500D01*
X178726223Y-81015500D01*
X178822491Y-80980461D01*
X178900969Y-80914610D01*
X178952191Y-80825889D01*
X178952191Y-80825885D01*
X178955902Y-80815692D01*
X178957310Y-80816204D01*
X178983037Y-80764289D01*
X178986398Y-80760790D01*
X179208125Y-80539065D01*
X179215939Y-80520199D01*
X179259780Y-80465796D01*
X179326074Y-80443731D01*
X179393773Y-80461010D01*
X179441384Y-80512147D01*
X179454500Y-80567652D01*
X179454500Y-81896948D01*
X179434815Y-81963987D01*
X179418181Y-81984629D01*
X178891874Y-82510935D01*
X178891872Y-82510937D01*
X178854501Y-82601163D01*
X178854500Y-82601168D01*
X178854500Y-83660993D01*
X178837888Y-83722991D01*
X178822809Y-83749108D01*
X178822809Y-83749109D01*
X178805019Y-83849999D01*
X178805019Y-83850000D01*
X178822809Y-83950890D01*
X178870758Y-84033941D01*
X178874031Y-84039610D01*
X178952509Y-84105461D01*
X179048777Y-84140500D01*
X179048779Y-84140500D01*
X179151221Y-84140500D01*
X179151223Y-84140500D01*
X179247491Y-84105461D01*
X179325969Y-84039610D01*
X179377191Y-83950889D01*
X179394981Y-83850000D01*
X179377191Y-83749111D01*
X179377190Y-83749109D01*
X179377190Y-83749108D01*
X179362112Y-83722991D01*
X179345500Y-83660993D01*
X179345500Y-82803052D01*
X179365185Y-82736013D01*
X179381819Y-82715371D01*
X179742819Y-82354371D01*
X179804142Y-82320886D01*
X179873834Y-82325870D01*
X179929767Y-82367742D01*
X179954184Y-82433206D01*
X179954500Y-82442052D01*
X179954500Y-82510993D01*
X179937888Y-82572991D01*
X179922809Y-82599108D01*
X179922809Y-82599109D01*
X179905019Y-82699999D01*
X179905019Y-82700000D01*
X179922809Y-82800890D01*
X179974030Y-82889609D01*
X179974031Y-82889610D01*
X180052509Y-82955461D01*
X180148777Y-82990500D01*
X180148779Y-82990500D01*
X180251221Y-82990500D01*
X180251223Y-82990500D01*
X180347491Y-82955461D01*
X180425969Y-82889610D01*
X180477191Y-82800889D01*
X180494981Y-82700000D01*
X180477191Y-82599111D01*
X180477190Y-82599109D01*
X180477190Y-82599108D01*
X180462112Y-82572991D01*
X180445500Y-82510993D01*
X180445500Y-82342051D01*
X180465185Y-82275012D01*
X180517989Y-82229257D01*
X180587147Y-82219313D01*
X180650703Y-82248338D01*
X180657181Y-82254370D01*
X181088549Y-82685738D01*
X181118646Y-82740857D01*
X181119098Y-82740693D01*
X181120180Y-82743666D01*
X181122034Y-82747061D01*
X181122763Y-82750761D01*
X181122808Y-82750887D01*
X181122809Y-82750889D01*
X181174031Y-82839610D01*
X181252509Y-82905461D01*
X181348777Y-82940500D01*
X181348779Y-82940500D01*
X181451221Y-82940500D01*
X181451223Y-82940500D01*
X181547491Y-82905461D01*
X181625969Y-82839610D01*
X181677191Y-82750889D01*
X181694981Y-82650000D01*
X181677191Y-82549111D01*
X181677189Y-82549109D01*
X181675766Y-82541034D01*
X181683510Y-82471594D01*
X181727566Y-82417365D01*
X181793946Y-82395562D01*
X181797882Y-82395500D01*
X181846948Y-82395500D01*
X181913987Y-82415185D01*
X181934629Y-82431819D01*
X182238550Y-82735740D01*
X182268649Y-82790862D01*
X182269100Y-82790698D01*
X182270180Y-82793666D01*
X182272035Y-82797063D01*
X182272763Y-82800765D01*
X182272809Y-82800889D01*
X182319688Y-82882089D01*
X182324031Y-82889610D01*
X182402509Y-82955461D01*
X182498777Y-82990500D01*
X182498779Y-82990500D01*
X182601221Y-82990500D01*
X182601223Y-82990500D01*
X182697491Y-82955461D01*
X182775969Y-82889610D01*
X182827191Y-82800889D01*
X182844981Y-82700000D01*
X182827191Y-82599111D01*
X182775969Y-82510390D01*
X182729734Y-82471594D01*
X182697491Y-82444538D01*
X182635648Y-82422029D01*
X182590379Y-82393189D01*
X182454371Y-82257181D01*
X182420886Y-82195858D01*
X182425870Y-82126166D01*
X182467742Y-82070233D01*
X182533206Y-82045816D01*
X182542052Y-82045500D01*
X182696948Y-82045500D01*
X182763987Y-82065185D01*
X182784629Y-82081819D01*
X183438550Y-82735740D01*
X183468649Y-82790862D01*
X183469100Y-82790698D01*
X183470180Y-82793666D01*
X183472035Y-82797063D01*
X183472763Y-82800765D01*
X183472809Y-82800889D01*
X183519688Y-82882089D01*
X183524031Y-82889610D01*
X183602509Y-82955461D01*
X183698777Y-82990500D01*
X183698779Y-82990500D01*
X183801221Y-82990500D01*
X183801223Y-82990500D01*
X183897491Y-82955461D01*
X183975969Y-82889610D01*
X184027191Y-82800889D01*
X184044981Y-82700000D01*
X184027191Y-82599111D01*
X183975969Y-82510390D01*
X183929734Y-82471594D01*
X183897491Y-82444538D01*
X183835648Y-82422029D01*
X183790379Y-82393189D01*
X183304371Y-81907181D01*
X183270886Y-81845858D01*
X183275870Y-81776166D01*
X183317742Y-81720233D01*
X183383206Y-81695816D01*
X183392052Y-81695500D01*
X183496948Y-81695500D01*
X183563987Y-81715185D01*
X183584629Y-81731819D01*
X184588550Y-82735740D01*
X184618649Y-82790862D01*
X184619100Y-82790698D01*
X184620180Y-82793666D01*
X184622035Y-82797063D01*
X184622763Y-82800765D01*
X184622809Y-82800889D01*
X184669688Y-82882089D01*
X184674031Y-82889610D01*
X184752509Y-82955461D01*
X184848777Y-82990500D01*
X184848779Y-82990500D01*
X184951221Y-82990500D01*
X184951223Y-82990500D01*
X185047491Y-82955461D01*
X185125969Y-82889610D01*
X185177191Y-82800889D01*
X185194981Y-82700000D01*
X185177191Y-82599111D01*
X185125969Y-82510390D01*
X185079734Y-82471594D01*
X185047491Y-82444538D01*
X184985648Y-82422029D01*
X184940379Y-82393189D01*
X184577190Y-82030000D01*
X201154326Y-82030000D01*
X201172976Y-82219367D01*
X201228215Y-82401465D01*
X201317910Y-82569272D01*
X201317914Y-82569279D01*
X201438629Y-82716370D01*
X201585720Y-82837085D01*
X201585727Y-82837089D01*
X201753534Y-82926784D01*
X201753536Y-82926784D01*
X201753539Y-82926786D01*
X201935631Y-82982023D01*
X202125000Y-83000674D01*
X202314369Y-82982023D01*
X202496461Y-82926786D01*
X202664278Y-82837086D01*
X202811370Y-82716370D01*
X202932086Y-82569278D01*
X203021786Y-82401461D01*
X203077023Y-82219369D01*
X203091242Y-82075000D01*
X204414326Y-82075000D01*
X204432976Y-82264367D01*
X204488215Y-82446465D01*
X204577910Y-82614272D01*
X204577914Y-82614279D01*
X204698629Y-82761370D01*
X204845720Y-82882085D01*
X204845727Y-82882089D01*
X205013534Y-82971784D01*
X205013536Y-82971784D01*
X205013539Y-82971786D01*
X205195631Y-83027023D01*
X205385000Y-83045674D01*
X205574369Y-83027023D01*
X205756461Y-82971786D01*
X205924278Y-82882086D01*
X206071370Y-82761370D01*
X206192086Y-82614278D01*
X206281786Y-82446461D01*
X206337023Y-82264369D01*
X206351410Y-82118284D01*
X206369172Y-82074296D01*
X206353244Y-82043991D01*
X206351411Y-82031722D01*
X206337023Y-81885631D01*
X206281786Y-81703539D01*
X206281784Y-81703536D01*
X206281784Y-81703534D01*
X206192089Y-81535727D01*
X206192085Y-81535720D01*
X206071370Y-81388629D01*
X205924279Y-81267914D01*
X205924272Y-81267910D01*
X205756465Y-81178215D01*
X205574367Y-81122976D01*
X205385000Y-81104326D01*
X205195632Y-81122976D01*
X205013534Y-81178215D01*
X204845727Y-81267910D01*
X204845720Y-81267914D01*
X204698629Y-81388629D01*
X204577914Y-81535720D01*
X204577910Y-81535727D01*
X204488215Y-81703534D01*
X204432976Y-81885632D01*
X204414326Y-82075000D01*
X203091242Y-82075000D01*
X203095674Y-82030000D01*
X203077023Y-81840631D01*
X203021786Y-81658539D01*
X203021784Y-81658536D01*
X203021784Y-81658534D01*
X202932089Y-81490727D01*
X202932085Y-81490720D01*
X202811370Y-81343629D01*
X202664279Y-81222914D01*
X202664272Y-81222910D01*
X202496465Y-81133215D01*
X202314367Y-81077976D01*
X202125000Y-81059326D01*
X201935632Y-81077976D01*
X201753534Y-81133215D01*
X201585727Y-81222910D01*
X201585720Y-81222914D01*
X201438629Y-81343629D01*
X201317914Y-81490720D01*
X201317910Y-81490727D01*
X201228215Y-81658534D01*
X201172976Y-81840632D01*
X201154326Y-82030000D01*
X184577190Y-82030000D01*
X183789062Y-81241872D01*
X183698836Y-81204501D01*
X183698834Y-81204500D01*
X183698833Y-81204500D01*
X183698831Y-81204500D01*
X182153052Y-81204500D01*
X182086013Y-81184815D01*
X182065371Y-81168181D01*
X181881819Y-80984629D01*
X181848334Y-80923306D01*
X181845500Y-80896948D01*
X181845500Y-79490000D01*
X201154326Y-79490000D01*
X201172976Y-79679367D01*
X201228215Y-79861465D01*
X201317910Y-80029272D01*
X201317914Y-80029279D01*
X201438629Y-80176370D01*
X201585720Y-80297085D01*
X201585727Y-80297089D01*
X201753534Y-80386784D01*
X201753536Y-80386784D01*
X201753539Y-80386786D01*
X201935631Y-80442023D01*
X202125000Y-80460674D01*
X202314369Y-80442023D01*
X202496461Y-80386786D01*
X202664278Y-80297086D01*
X202811370Y-80176370D01*
X202932086Y-80029278D01*
X203021786Y-79861461D01*
X203077023Y-79679369D01*
X203091242Y-79535000D01*
X204414326Y-79535000D01*
X204432976Y-79724367D01*
X204488215Y-79906465D01*
X204577910Y-80074272D01*
X204577914Y-80074279D01*
X204698629Y-80221370D01*
X204845720Y-80342085D01*
X204845727Y-80342089D01*
X205013534Y-80431784D01*
X205013536Y-80431784D01*
X205013539Y-80431786D01*
X205195631Y-80487023D01*
X205385000Y-80505674D01*
X205574369Y-80487023D01*
X205756461Y-80431786D01*
X205781896Y-80418191D01*
X205840654Y-80386784D01*
X205924278Y-80342086D01*
X206071370Y-80221370D01*
X206192086Y-80074278D01*
X206281786Y-79906461D01*
X206337023Y-79724369D01*
X206351410Y-79578284D01*
X206369172Y-79534296D01*
X206353244Y-79503991D01*
X206351411Y-79491722D01*
X206337023Y-79345631D01*
X206281786Y-79163539D01*
X206281784Y-79163536D01*
X206281784Y-79163534D01*
X206192089Y-78995727D01*
X206192085Y-78995720D01*
X206071370Y-78848629D01*
X205924279Y-78727914D01*
X205924272Y-78727910D01*
X205756465Y-78638215D01*
X205574367Y-78582976D01*
X205385000Y-78564326D01*
X205195632Y-78582976D01*
X205013534Y-78638215D01*
X204845727Y-78727910D01*
X204845720Y-78727914D01*
X204698629Y-78848629D01*
X204577914Y-78995720D01*
X204577910Y-78995727D01*
X204488215Y-79163534D01*
X204432976Y-79345632D01*
X204414326Y-79535000D01*
X203091242Y-79535000D01*
X203095674Y-79490000D01*
X203077023Y-79300631D01*
X203021786Y-79118539D01*
X203021784Y-79118536D01*
X203021784Y-79118534D01*
X202932089Y-78950727D01*
X202932085Y-78950720D01*
X202811370Y-78803629D01*
X202664279Y-78682914D01*
X202664272Y-78682910D01*
X202496465Y-78593215D01*
X202314367Y-78537976D01*
X202125000Y-78519326D01*
X201935632Y-78537976D01*
X201753534Y-78593215D01*
X201585727Y-78682910D01*
X201585720Y-78682914D01*
X201438629Y-78803629D01*
X201317914Y-78950720D01*
X201317910Y-78950727D01*
X201228215Y-79118534D01*
X201172976Y-79300632D01*
X201154326Y-79490000D01*
X181845500Y-79490000D01*
X181845500Y-77103052D01*
X181865185Y-77036013D01*
X181881819Y-77015371D01*
X182848600Y-76048590D01*
X185809500Y-76048590D01*
X185809500Y-76151410D01*
X185836112Y-76250727D01*
X185836113Y-76250729D01*
X185836115Y-76250734D01*
X185843200Y-76263006D01*
X185859669Y-76330907D01*
X185843200Y-76386994D01*
X185836115Y-76399265D01*
X185836112Y-76399271D01*
X185836112Y-76399273D01*
X185809500Y-76498590D01*
X185809500Y-76601410D01*
X185836112Y-76700727D01*
X185836113Y-76700729D01*
X185836115Y-76700734D01*
X185843200Y-76713006D01*
X185859669Y-76780907D01*
X185843200Y-76836994D01*
X185836115Y-76849265D01*
X185836112Y-76849271D01*
X185836112Y-76849273D01*
X185809500Y-76948590D01*
X185809500Y-77051410D01*
X185836112Y-77150727D01*
X185887522Y-77239773D01*
X187135227Y-78487478D01*
X187224273Y-78538889D01*
X187224274Y-78538889D01*
X187224274Y-78538890D01*
X187285053Y-78555174D01*
X187323590Y-78565500D01*
X187323593Y-78565500D01*
X197726408Y-78565500D01*
X197726410Y-78565500D01*
X197825728Y-78538888D01*
X197914773Y-78487478D01*
X197987478Y-78414773D01*
X197987478Y-78414772D01*
X200625431Y-75776819D01*
X200686754Y-75743334D01*
X200713112Y-75740500D01*
X201250828Y-75740500D01*
X201317867Y-75760185D01*
X201363622Y-75812989D01*
X201373566Y-75882147D01*
X201344541Y-75945703D01*
X201285763Y-75983477D01*
X201275025Y-75986115D01*
X201252202Y-75990654D01*
X201244678Y-75992151D01*
X201198206Y-76023204D01*
X201198205Y-76023205D01*
X201194333Y-76029000D01*
X201167151Y-76069678D01*
X201159000Y-76110660D01*
X201159000Y-77789336D01*
X201159001Y-77789339D01*
X201159001Y-77789340D01*
X201167151Y-77830321D01*
X201198205Y-77876795D01*
X201244679Y-77907849D01*
X201285659Y-77916000D01*
X202964340Y-77915999D01*
X203005321Y-77907849D01*
X203051795Y-77876795D01*
X203082849Y-77830321D01*
X203091000Y-77789341D01*
X203090999Y-76155660D01*
X204419000Y-76155660D01*
X204419000Y-77834336D01*
X204419001Y-77834339D01*
X204419001Y-77834340D01*
X204427151Y-77875321D01*
X204458205Y-77921795D01*
X204504679Y-77952849D01*
X204545659Y-77961000D01*
X206224340Y-77960999D01*
X206265321Y-77952849D01*
X206311795Y-77921795D01*
X206342849Y-77875321D01*
X206351000Y-77834341D01*
X206350999Y-77052561D01*
X206367672Y-76995776D01*
X206579933Y-76995776D01*
X206593976Y-77017628D01*
X206598527Y-77041755D01*
X206614650Y-77226045D01*
X206614651Y-77226051D01*
X206674678Y-77450074D01*
X206674681Y-77450080D01*
X206772699Y-77660281D01*
X206827665Y-77738781D01*
X207383657Y-77182789D01*
X207392447Y-77215591D01*
X207467687Y-77345909D01*
X207574091Y-77452313D01*
X207704409Y-77527553D01*
X207737210Y-77536342D01*
X207181218Y-78092333D01*
X207259718Y-78147301D01*
X207271121Y-78152618D01*
X207323560Y-78198790D01*
X207342712Y-78265984D01*
X207322496Y-78332865D01*
X207271123Y-78377381D01*
X207259716Y-78382700D01*
X207181218Y-78437664D01*
X207181217Y-78437665D01*
X207737210Y-78993657D01*
X207704409Y-79002447D01*
X207574091Y-79077687D01*
X207467687Y-79184091D01*
X207392447Y-79314409D01*
X207383657Y-79347209D01*
X206827665Y-78791217D01*
X206827664Y-78791218D01*
X206772701Y-78869715D01*
X206674681Y-79079917D01*
X206614651Y-79303948D01*
X206614650Y-79303954D01*
X206598341Y-79490367D01*
X206580540Y-79535873D01*
X206596641Y-79567334D01*
X206598341Y-79579632D01*
X206614650Y-79766045D01*
X206614651Y-79766051D01*
X206674678Y-79990074D01*
X206674681Y-79990080D01*
X206772699Y-80200281D01*
X206827665Y-80278781D01*
X207383657Y-79722789D01*
X207392447Y-79755591D01*
X207467687Y-79885909D01*
X207574091Y-79992313D01*
X207704409Y-80067553D01*
X207737210Y-80076342D01*
X207181218Y-80632333D01*
X207259718Y-80687301D01*
X207271121Y-80692618D01*
X207323560Y-80738790D01*
X207342712Y-80805984D01*
X207322496Y-80872865D01*
X207271123Y-80917381D01*
X207259716Y-80922700D01*
X207181218Y-80977664D01*
X207181217Y-80977665D01*
X207737210Y-81533657D01*
X207704409Y-81542447D01*
X207574091Y-81617687D01*
X207467687Y-81724091D01*
X207392447Y-81854409D01*
X207383657Y-81887209D01*
X206827665Y-81331217D01*
X206827664Y-81331218D01*
X206772701Y-81409715D01*
X206674681Y-81619917D01*
X206614651Y-81843948D01*
X206614650Y-81843954D01*
X206598341Y-82030367D01*
X206580540Y-82075873D01*
X206596641Y-82107334D01*
X206598341Y-82119632D01*
X206614650Y-82306045D01*
X206614651Y-82306051D01*
X206674678Y-82530074D01*
X206674681Y-82530080D01*
X206772699Y-82740281D01*
X206827665Y-82818781D01*
X207383657Y-82262789D01*
X207392447Y-82295591D01*
X207467687Y-82425909D01*
X207574091Y-82532313D01*
X207704409Y-82607553D01*
X207737210Y-82616342D01*
X207181218Y-83172333D01*
X207259718Y-83227301D01*
X207271121Y-83232618D01*
X207323560Y-83278790D01*
X207342712Y-83345984D01*
X207322496Y-83412865D01*
X207271123Y-83457381D01*
X207259716Y-83462700D01*
X207181218Y-83517664D01*
X207181217Y-83517665D01*
X207737210Y-84073657D01*
X207704409Y-84082447D01*
X207574091Y-84157687D01*
X207467687Y-84264091D01*
X207392447Y-84394409D01*
X207383657Y-84427209D01*
X206827665Y-83871217D01*
X206827664Y-83871218D01*
X206772701Y-83949715D01*
X206674681Y-84159917D01*
X206614651Y-84383948D01*
X206614650Y-84383954D01*
X206598341Y-84570367D01*
X206580540Y-84615873D01*
X206596641Y-84647334D01*
X206598341Y-84659632D01*
X206614650Y-84846045D01*
X206614651Y-84846051D01*
X206674678Y-85070074D01*
X206674681Y-85070080D01*
X206772699Y-85280281D01*
X206827665Y-85358781D01*
X207383657Y-84802789D01*
X207392447Y-84835591D01*
X207467687Y-84965909D01*
X207574091Y-85072313D01*
X207704409Y-85147553D01*
X207737210Y-85156342D01*
X207181218Y-85712333D01*
X207259718Y-85767301D01*
X207469919Y-85865318D01*
X207469925Y-85865321D01*
X207693948Y-85925348D01*
X207693955Y-85925349D01*
X207924998Y-85945563D01*
X207925002Y-85945563D01*
X208156044Y-85925349D01*
X208156051Y-85925348D01*
X208380074Y-85865321D01*
X208380085Y-85865317D01*
X208590279Y-85767302D01*
X208590283Y-85767300D01*
X208668780Y-85712333D01*
X208112789Y-85156342D01*
X208145591Y-85147553D01*
X208275909Y-85072313D01*
X208382313Y-84965909D01*
X208457553Y-84835591D01*
X208466342Y-84802789D01*
X209022333Y-85358780D01*
X209077300Y-85280283D01*
X209077302Y-85280279D01*
X209175317Y-85070085D01*
X209175321Y-85070074D01*
X209235348Y-84846051D01*
X209235349Y-84846044D01*
X209255563Y-84615001D01*
X209255563Y-84614998D01*
X209235349Y-84383955D01*
X209235348Y-84383948D01*
X209175318Y-84159917D01*
X209077300Y-83949719D01*
X209022333Y-83871217D01*
X208466341Y-84427209D01*
X208457553Y-84394409D01*
X208382313Y-84264091D01*
X208275909Y-84157687D01*
X208145591Y-84082447D01*
X208112789Y-84073657D01*
X208668781Y-83517665D01*
X208590281Y-83462699D01*
X208578879Y-83457382D01*
X208526440Y-83411210D01*
X208507288Y-83344016D01*
X208527504Y-83277135D01*
X208578882Y-83232617D01*
X208590280Y-83227301D01*
X208590283Y-83227300D01*
X208668780Y-83172333D01*
X208112789Y-82616342D01*
X208145591Y-82607553D01*
X208275909Y-82532313D01*
X208382313Y-82425909D01*
X208457553Y-82295591D01*
X208466342Y-82262789D01*
X209022333Y-82818780D01*
X209077300Y-82740283D01*
X209077302Y-82740279D01*
X209175317Y-82530085D01*
X209175321Y-82530074D01*
X209235348Y-82306051D01*
X209235349Y-82306044D01*
X209255563Y-82075001D01*
X209255563Y-82074998D01*
X209235349Y-81843955D01*
X209235348Y-81843948D01*
X209175318Y-81619917D01*
X209077300Y-81409719D01*
X209022333Y-81331217D01*
X208466341Y-81887209D01*
X208457553Y-81854409D01*
X208382313Y-81724091D01*
X208275909Y-81617687D01*
X208145591Y-81542447D01*
X208112789Y-81533657D01*
X208668781Y-80977665D01*
X208590281Y-80922699D01*
X208578879Y-80917382D01*
X208526440Y-80871210D01*
X208507288Y-80804016D01*
X208527504Y-80737135D01*
X208578882Y-80692617D01*
X208590280Y-80687301D01*
X208590283Y-80687300D01*
X208668780Y-80632333D01*
X208112789Y-80076342D01*
X208145591Y-80067553D01*
X208275909Y-79992313D01*
X208382313Y-79885909D01*
X208457553Y-79755591D01*
X208466342Y-79722789D01*
X209022333Y-80278780D01*
X209077300Y-80200283D01*
X209077302Y-80200279D01*
X209175317Y-79990085D01*
X209175321Y-79990074D01*
X209235348Y-79766051D01*
X209235349Y-79766044D01*
X209255563Y-79535001D01*
X209255563Y-79534998D01*
X209235349Y-79303955D01*
X209235348Y-79303948D01*
X209175318Y-79079917D01*
X209077300Y-78869719D01*
X209022333Y-78791217D01*
X208466341Y-79347209D01*
X208457553Y-79314409D01*
X208382313Y-79184091D01*
X208275909Y-79077687D01*
X208145591Y-79002447D01*
X208112789Y-78993657D01*
X208668781Y-78437665D01*
X208590281Y-78382699D01*
X208578879Y-78377382D01*
X208526440Y-78331210D01*
X208507288Y-78264016D01*
X208527504Y-78197135D01*
X208578882Y-78152617D01*
X208590280Y-78147301D01*
X208590283Y-78147300D01*
X208668780Y-78092333D01*
X208112789Y-77536342D01*
X208145591Y-77527553D01*
X208275909Y-77452313D01*
X208382313Y-77345909D01*
X208457553Y-77215591D01*
X208466342Y-77182789D01*
X209022333Y-77738780D01*
X209077300Y-77660283D01*
X209077302Y-77660279D01*
X209175317Y-77450085D01*
X209175321Y-77450074D01*
X209235348Y-77226051D01*
X209235349Y-77226044D01*
X209255563Y-76995001D01*
X209255563Y-76994998D01*
X209235349Y-76763955D01*
X209235348Y-76763948D01*
X209175318Y-76539917D01*
X209077300Y-76329719D01*
X209022333Y-76251217D01*
X208466341Y-76807209D01*
X208457553Y-76774409D01*
X208382313Y-76644091D01*
X208275909Y-76537687D01*
X208145591Y-76462447D01*
X208112789Y-76453657D01*
X208668781Y-75897665D01*
X208590281Y-75842699D01*
X208380080Y-75744681D01*
X208380074Y-75744678D01*
X208156051Y-75684651D01*
X208156044Y-75684650D01*
X207925002Y-75664437D01*
X207924998Y-75664437D01*
X207693955Y-75684650D01*
X207693948Y-75684651D01*
X207469917Y-75744681D01*
X207259715Y-75842701D01*
X207181218Y-75897664D01*
X207181217Y-75897665D01*
X207737210Y-76453657D01*
X207704409Y-76462447D01*
X207574091Y-76537687D01*
X207467687Y-76644091D01*
X207392447Y-76774409D01*
X207383657Y-76807209D01*
X206827665Y-76251217D01*
X206827664Y-76251218D01*
X206772701Y-76329715D01*
X206674681Y-76539917D01*
X206614651Y-76763948D01*
X206614650Y-76763954D01*
X206598527Y-76948244D01*
X206579933Y-76995776D01*
X206367672Y-76995776D01*
X206368955Y-76991406D01*
X206353430Y-76961868D01*
X206350999Y-76937436D01*
X206350999Y-76155663D01*
X206350999Y-76155660D01*
X206342849Y-76114679D01*
X206311795Y-76068205D01*
X206265321Y-76037151D01*
X206224341Y-76029000D01*
X206224339Y-76029000D01*
X204545663Y-76029000D01*
X204504679Y-76037151D01*
X204458205Y-76068205D01*
X204457221Y-76069678D01*
X204427151Y-76114678D01*
X204419000Y-76155660D01*
X203090999Y-76155660D01*
X203090999Y-76110660D01*
X203082849Y-76069679D01*
X203051795Y-76023205D01*
X203005321Y-75992151D01*
X202974987Y-75986117D01*
X202913077Y-75953733D01*
X202878502Y-75893018D01*
X202882241Y-75823248D01*
X202923107Y-75766576D01*
X202988125Y-75740994D01*
X202999178Y-75740500D01*
X203826408Y-75740500D01*
X203826410Y-75740500D01*
X203925728Y-75713888D01*
X204014773Y-75662478D01*
X204087478Y-75589773D01*
X204981645Y-74695604D01*
X205042966Y-74662121D01*
X205105320Y-74664627D01*
X205195628Y-74692022D01*
X205195630Y-74692023D01*
X205214281Y-74693859D01*
X205385000Y-74710674D01*
X205574369Y-74692023D01*
X205756461Y-74636786D01*
X205757934Y-74635999D01*
X205853701Y-74584810D01*
X205924278Y-74547086D01*
X206071370Y-74426370D01*
X206192086Y-74279278D01*
X206245906Y-74178587D01*
X206281784Y-74111465D01*
X206281784Y-74111464D01*
X206281786Y-74111461D01*
X206337023Y-73929369D01*
X206351410Y-73783284D01*
X206369172Y-73739296D01*
X206353244Y-73708991D01*
X206351411Y-73696722D01*
X206337023Y-73550631D01*
X206281786Y-73368539D01*
X206281784Y-73368536D01*
X206281784Y-73368534D01*
X206192089Y-73200727D01*
X206192085Y-73200720D01*
X206071370Y-73053629D01*
X205924279Y-72932914D01*
X205924272Y-72932910D01*
X205756465Y-72843215D01*
X205574367Y-72787976D01*
X205385000Y-72769326D01*
X205195632Y-72787976D01*
X205013534Y-72843215D01*
X204845727Y-72932910D01*
X204845720Y-72932914D01*
X204698629Y-73053629D01*
X204577914Y-73200720D01*
X204577910Y-73200727D01*
X204488215Y-73368534D01*
X204432976Y-73550632D01*
X204414326Y-73740000D01*
X204432976Y-73929367D01*
X204460372Y-74019679D01*
X204460995Y-74089546D01*
X204429392Y-74143355D01*
X203649568Y-74923181D01*
X203588245Y-74956666D01*
X203561887Y-74959500D01*
X200682946Y-74959500D01*
X200615907Y-74939815D01*
X200570152Y-74887011D01*
X200560208Y-74817853D01*
X200563171Y-74803407D01*
X200565284Y-74795519D01*
X200590501Y-74701410D01*
X200590501Y-74598590D01*
X200590501Y-74590995D01*
X200590500Y-74590977D01*
X200590500Y-73263113D01*
X200610185Y-73196074D01*
X200626819Y-73175432D01*
X200748622Y-73053629D01*
X200972321Y-72829929D01*
X201033642Y-72796446D01*
X201103333Y-72801430D01*
X201159267Y-72843301D01*
X201183684Y-72908766D01*
X201184000Y-72917612D01*
X201184000Y-74509336D01*
X201184001Y-74509339D01*
X201184001Y-74509340D01*
X201192151Y-74550321D01*
X201223205Y-74596795D01*
X201269679Y-74627849D01*
X201310659Y-74636000D01*
X202989340Y-74635999D01*
X203030321Y-74627849D01*
X203076795Y-74596795D01*
X203107849Y-74550321D01*
X203116000Y-74509341D01*
X203115999Y-72914499D01*
X203135684Y-72847461D01*
X203188487Y-72801706D01*
X203239999Y-72790500D01*
X204236408Y-72790500D01*
X204236410Y-72790500D01*
X204335728Y-72763888D01*
X204424773Y-72712478D01*
X204497478Y-72639773D01*
X204497478Y-72639772D01*
X204981644Y-72155604D01*
X205042965Y-72122121D01*
X205105319Y-72124627D01*
X205195628Y-72152022D01*
X205195630Y-72152023D01*
X205214281Y-72153859D01*
X205385000Y-72170674D01*
X205574369Y-72152023D01*
X205756461Y-72096786D01*
X205924278Y-72007086D01*
X206071370Y-71886370D01*
X206192086Y-71739278D01*
X206281786Y-71571461D01*
X206337023Y-71389369D01*
X206351410Y-71243284D01*
X206369172Y-71199296D01*
X206353244Y-71168991D01*
X206351411Y-71156722D01*
X206337023Y-71010631D01*
X206281786Y-70828539D01*
X206281784Y-70828536D01*
X206281784Y-70828534D01*
X206192089Y-70660727D01*
X206192085Y-70660720D01*
X206071370Y-70513629D01*
X205924279Y-70392914D01*
X205924272Y-70392910D01*
X205756465Y-70303215D01*
X205574367Y-70247976D01*
X205385000Y-70229326D01*
X205195632Y-70247976D01*
X205013534Y-70303215D01*
X204845727Y-70392910D01*
X204845720Y-70392914D01*
X204698629Y-70513629D01*
X204577914Y-70660720D01*
X204577910Y-70660727D01*
X204488215Y-70828534D01*
X204432976Y-71010632D01*
X204414326Y-71200000D01*
X204432977Y-71389369D01*
X204460372Y-71479681D01*
X204460995Y-71549547D01*
X204429392Y-71603356D01*
X204059568Y-71973181D01*
X203998245Y-72006666D01*
X203971887Y-72009500D01*
X202940049Y-72009500D01*
X202873010Y-71989815D01*
X202827255Y-71937011D01*
X202817311Y-71867853D01*
X202844196Y-71806835D01*
X202957085Y-71669279D01*
X202957089Y-71669272D01*
X202969796Y-71645500D01*
X203046786Y-71501461D01*
X203102023Y-71319369D01*
X203120674Y-71130000D01*
X203102023Y-70940631D01*
X203046786Y-70758539D01*
X203046784Y-70758536D01*
X203046784Y-70758534D01*
X202957089Y-70590727D01*
X202957085Y-70590720D01*
X202835989Y-70443165D01*
X202808676Y-70378855D01*
X202820467Y-70309988D01*
X202867619Y-70258427D01*
X202931842Y-70240500D01*
X204246408Y-70240500D01*
X204246410Y-70240500D01*
X204345728Y-70213888D01*
X204434773Y-70162478D01*
X204507478Y-70089773D01*
X204507478Y-70089772D01*
X204981644Y-69615604D01*
X205042965Y-69582121D01*
X205105319Y-69584627D01*
X205189710Y-69610227D01*
X205195628Y-69612022D01*
X205195630Y-69612023D01*
X205214281Y-69613859D01*
X205385000Y-69630674D01*
X205574369Y-69612023D01*
X205756461Y-69556786D01*
X205792502Y-69537522D01*
X205924272Y-69467089D01*
X205924278Y-69467086D01*
X206071370Y-69346370D01*
X206192086Y-69199278D01*
X206281786Y-69031461D01*
X206337023Y-68849369D01*
X206351410Y-68703284D01*
X206369172Y-68659296D01*
X206353244Y-68628991D01*
X206351411Y-68616722D01*
X206337023Y-68470631D01*
X206281786Y-68288539D01*
X206281784Y-68288536D01*
X206281784Y-68288534D01*
X206192089Y-68120727D01*
X206192085Y-68120720D01*
X206071370Y-67973629D01*
X205924279Y-67852914D01*
X205924272Y-67852910D01*
X205756465Y-67763215D01*
X205574367Y-67707976D01*
X205385000Y-67689326D01*
X205195632Y-67707976D01*
X205013534Y-67763215D01*
X204845727Y-67852910D01*
X204845720Y-67852914D01*
X204698629Y-67973629D01*
X204577914Y-68120720D01*
X204577910Y-68120727D01*
X204488215Y-68288534D01*
X204432976Y-68470632D01*
X204414326Y-68660000D01*
X204432977Y-68849369D01*
X204460372Y-68939681D01*
X204460995Y-69009547D01*
X204429392Y-69063356D01*
X204069568Y-69423181D01*
X204008245Y-69456666D01*
X203981887Y-69459500D01*
X202948256Y-69459500D01*
X202881217Y-69439815D01*
X202835462Y-69387011D01*
X202825518Y-69317853D01*
X202852403Y-69256835D01*
X202957085Y-69129279D01*
X202957089Y-69129272D01*
X203046784Y-68961465D01*
X203046784Y-68961464D01*
X203046786Y-68961461D01*
X203102023Y-68779369D01*
X203120674Y-68590000D01*
X203102023Y-68400631D01*
X203046786Y-68218539D01*
X203046784Y-68218536D01*
X203046784Y-68218534D01*
X202957089Y-68050727D01*
X202957085Y-68050720D01*
X202836370Y-67903629D01*
X202689279Y-67782914D01*
X202689272Y-67782910D01*
X202521465Y-67693215D01*
X202339367Y-67637976D01*
X202150000Y-67619326D01*
X201960632Y-67637976D01*
X201778534Y-67693215D01*
X201610727Y-67782910D01*
X201610720Y-67782914D01*
X201463629Y-67903629D01*
X201342914Y-68050720D01*
X201342910Y-68050727D01*
X201253215Y-68218534D01*
X201197976Y-68400632D01*
X201179326Y-68590000D01*
X201197976Y-68779367D01*
X201253215Y-68961465D01*
X201342910Y-69129272D01*
X201342914Y-69129279D01*
X201447597Y-69256835D01*
X201474910Y-69321145D01*
X201463119Y-69390013D01*
X201415967Y-69441573D01*
X201351744Y-69459500D01*
X200648590Y-69459500D01*
X200549272Y-69486112D01*
X200549269Y-69486113D01*
X200460230Y-69537519D01*
X200460225Y-69537523D01*
X200387520Y-69610229D01*
X199242786Y-70754962D01*
X199242785Y-70754962D01*
X199242786Y-70754963D01*
X199187519Y-70810230D01*
X199136113Y-70899269D01*
X199136112Y-70899272D01*
X199109500Y-70998590D01*
X199109500Y-74186887D01*
X199089815Y-74253926D01*
X199073181Y-74274568D01*
X196549568Y-76798181D01*
X196488245Y-76831666D01*
X196461887Y-76834500D01*
X187538112Y-76834500D01*
X187471073Y-76814815D01*
X187450431Y-76798181D01*
X186953417Y-76301167D01*
X186439773Y-75787522D01*
X186350727Y-75736112D01*
X186350728Y-75736112D01*
X186325897Y-75729459D01*
X186251410Y-75709500D01*
X186148590Y-75709500D01*
X186074102Y-75729459D01*
X186049272Y-75736112D01*
X185960228Y-75787521D01*
X185960225Y-75787523D01*
X185887523Y-75860225D01*
X185887521Y-75860228D01*
X185836112Y-75949272D01*
X185831417Y-75966794D01*
X185809500Y-76048590D01*
X182848600Y-76048590D01*
X183615371Y-75281819D01*
X183676694Y-75248334D01*
X183703052Y-75245500D01*
X187053278Y-75245500D01*
X187095689Y-75252978D01*
X187102507Y-75255459D01*
X187102509Y-75255461D01*
X187198777Y-75290500D01*
X187198779Y-75290500D01*
X187301221Y-75290500D01*
X187301223Y-75290500D01*
X187397491Y-75255461D01*
X187475969Y-75189610D01*
X187527191Y-75100889D01*
X187544981Y-75000000D01*
X187527191Y-74899111D01*
X187475969Y-74810390D01*
X187398025Y-74744987D01*
X187359325Y-74686818D01*
X187358217Y-74616957D01*
X187395054Y-74557587D01*
X187397982Y-74555048D01*
X187475969Y-74489610D01*
X187527191Y-74400889D01*
X187544981Y-74300000D01*
X187527191Y-74199111D01*
X187523013Y-74191875D01*
X187475969Y-74110390D01*
X187427820Y-74069988D01*
X187389119Y-74011818D01*
X187388011Y-73941957D01*
X187424848Y-73882587D01*
X187427822Y-73880010D01*
X187452265Y-73859500D01*
X187475969Y-73839610D01*
X187492924Y-73810239D01*
X187501365Y-73799242D01*
X187501337Y-73799224D01*
X187508123Y-73789067D01*
X187508123Y-73789066D01*
X187508125Y-73789065D01*
X187512569Y-73778333D01*
X187519740Y-73763793D01*
X187527191Y-73750889D01*
X187527243Y-73750590D01*
X187534796Y-73724673D01*
X187545500Y-73698833D01*
X187545500Y-73601167D01*
X187534798Y-73575330D01*
X187527244Y-73549412D01*
X187527191Y-73549111D01*
X187519738Y-73536202D01*
X187512567Y-73521660D01*
X187511635Y-73519409D01*
X187508125Y-73510935D01*
X187508120Y-73510930D01*
X187501340Y-73500782D01*
X187501368Y-73500762D01*
X187492925Y-73489759D01*
X187475969Y-73460390D01*
X187475968Y-73460389D01*
X187452822Y-73440967D01*
X187414119Y-73382796D01*
X187413010Y-73312935D01*
X187449847Y-73253565D01*
X187452794Y-73251010D01*
X187525969Y-73189610D01*
X187577191Y-73100889D01*
X187594981Y-73000000D01*
X187577191Y-72899111D01*
X187547371Y-72847461D01*
X187525969Y-72810390D01*
X187502820Y-72790966D01*
X187464119Y-72732794D01*
X187463011Y-72662933D01*
X187499849Y-72603563D01*
X187502794Y-72601010D01*
X187575969Y-72539610D01*
X187627191Y-72450889D01*
X187644981Y-72350000D01*
X187627191Y-72249111D01*
X187575969Y-72160390D01*
X187497491Y-72094539D01*
X187401223Y-72059500D01*
X187298777Y-72059500D01*
X187202510Y-72094539D01*
X187202508Y-72094540D01*
X187195690Y-72097022D01*
X187153279Y-72104500D01*
X184248833Y-72104500D01*
X184151167Y-72104500D01*
X184151165Y-72104500D01*
X184151163Y-72104501D01*
X184060937Y-72141872D01*
X184060935Y-72141874D01*
X180157181Y-76045629D01*
X180095858Y-76079114D01*
X180026166Y-76074130D01*
X179970233Y-76032258D01*
X179945816Y-75966794D01*
X179945500Y-75957948D01*
X179945500Y-75503051D01*
X179965185Y-75436012D01*
X179981819Y-75415370D01*
X183715370Y-71681819D01*
X183776693Y-71648334D01*
X183803051Y-71645500D01*
X184151167Y-71645500D01*
X190646948Y-71645500D01*
X190713987Y-71665185D01*
X190734629Y-71681819D01*
X191041875Y-71989065D01*
X191534804Y-72481993D01*
X191534807Y-72481997D01*
X191534808Y-72481997D01*
X191541874Y-72489063D01*
X191541875Y-72489065D01*
X191610935Y-72558125D01*
X191637363Y-72569072D01*
X191637364Y-72569073D01*
X191701164Y-72595500D01*
X191701165Y-72595500D01*
X191701167Y-72595501D01*
X191701168Y-72595501D01*
X191813267Y-72595501D01*
X191813275Y-72595500D01*
X192903278Y-72595500D01*
X192945689Y-72602978D01*
X192952507Y-72605459D01*
X192952509Y-72605461D01*
X193048777Y-72640500D01*
X193048779Y-72640500D01*
X193151221Y-72640500D01*
X193151223Y-72640500D01*
X193247491Y-72605461D01*
X193325969Y-72539610D01*
X193377191Y-72450889D01*
X193394981Y-72350000D01*
X193377191Y-72249111D01*
X193325969Y-72160390D01*
X193247491Y-72094539D01*
X193151223Y-72059500D01*
X193048777Y-72059500D01*
X192952510Y-72094539D01*
X192952508Y-72094540D01*
X192945690Y-72097022D01*
X192903279Y-72104500D01*
X191903051Y-72104500D01*
X191836012Y-72084815D01*
X191815370Y-72068181D01*
X191618334Y-71871145D01*
X191389065Y-71641875D01*
X190939065Y-71191875D01*
X190939062Y-71191872D01*
X190848836Y-71154501D01*
X190848834Y-71154500D01*
X190848833Y-71154500D01*
X190848831Y-71154500D01*
X183713275Y-71154500D01*
X183713267Y-71154499D01*
X183698833Y-71154499D01*
X183601168Y-71154499D01*
X183601166Y-71154499D01*
X183548311Y-71176393D01*
X183510935Y-71191874D01*
X183491060Y-71211750D01*
X183441875Y-71260935D01*
X183441874Y-71260936D01*
X181495363Y-73207447D01*
X179543494Y-75159315D01*
X179543493Y-75159315D01*
X179543494Y-75159316D01*
X179491873Y-75210937D01*
X179484061Y-75229798D01*
X179440220Y-75284201D01*
X179373925Y-75306266D01*
X179306226Y-75288987D01*
X179258616Y-75237849D01*
X179245500Y-75182345D01*
X179245500Y-74553052D01*
X179265185Y-74486013D01*
X179281819Y-74465371D01*
X180464503Y-73282687D01*
X181658125Y-72089065D01*
X181658125Y-72089063D01*
X181658127Y-72089062D01*
X181680059Y-72036111D01*
X181695500Y-71998833D01*
X181695500Y-71901167D01*
X181695500Y-68789005D01*
X181712114Y-68727003D01*
X181725030Y-68704632D01*
X181727191Y-68700889D01*
X181744981Y-68600000D01*
X181727191Y-68499111D01*
X181710748Y-68470631D01*
X181675969Y-68410390D01*
X181597491Y-68344539D01*
X181501223Y-68309500D01*
X181398777Y-68309500D01*
X181302510Y-68344539D01*
X181302509Y-68344539D01*
X181302508Y-68344540D01*
X181224032Y-68410388D01*
X181224030Y-68410391D01*
X181172809Y-68499110D01*
X181172809Y-68499111D01*
X181155019Y-68600000D01*
X181171300Y-68692334D01*
X181172809Y-68700888D01*
X181172810Y-68700892D01*
X181187886Y-68727003D01*
X181204500Y-68789005D01*
X181204500Y-71796948D01*
X181184815Y-71863987D01*
X181168181Y-71884629D01*
X178791874Y-74260935D01*
X178791872Y-74260937D01*
X178754501Y-74351163D01*
X178754500Y-74351168D01*
X178754500Y-80246946D01*
X178734815Y-80313985D01*
X178718181Y-80334628D01*
X178634617Y-80418191D01*
X178589349Y-80447030D01*
X178527512Y-80469538D01*
X178527508Y-80469540D01*
X178449032Y-80535388D01*
X178449030Y-80535391D01*
X178397809Y-80624110D01*
X178380019Y-80724999D01*
X168095500Y-80724999D01*
X168095500Y-74863275D01*
X168095501Y-74863266D01*
X168095501Y-74751169D01*
X168095501Y-74751167D01*
X168058125Y-74660936D01*
X168058125Y-74660935D01*
X167989065Y-74591875D01*
X167982000Y-74584810D01*
X167981993Y-74584804D01*
X167339064Y-73941874D01*
X167339062Y-73941872D01*
X167248836Y-73904501D01*
X167248834Y-73904500D01*
X167248833Y-73904500D01*
X167248831Y-73904500D01*
X166996722Y-73904500D01*
X166954311Y-73897022D01*
X166947492Y-73894540D01*
X166947491Y-73894539D01*
X166851223Y-73859500D01*
X166748777Y-73859500D01*
X166652510Y-73894539D01*
X166652509Y-73894539D01*
X166652508Y-73894540D01*
X166574032Y-73960388D01*
X166574030Y-73960391D01*
X166522809Y-74049110D01*
X166505019Y-74149999D01*
X112950000Y-74149999D01*
X112950000Y-66050000D01*
X201179326Y-66050000D01*
X201197976Y-66239367D01*
X201253215Y-66421465D01*
X201342910Y-66589272D01*
X201342914Y-66589279D01*
X201463629Y-66736370D01*
X201610720Y-66857085D01*
X201610727Y-66857089D01*
X201778534Y-66946784D01*
X201778536Y-66946784D01*
X201778539Y-66946786D01*
X201960631Y-67002023D01*
X202150000Y-67020674D01*
X202339369Y-67002023D01*
X202521461Y-66946786D01*
X202689278Y-66857086D01*
X202836370Y-66736370D01*
X202957086Y-66589278D01*
X203046786Y-66421461D01*
X203102023Y-66239369D01*
X203120674Y-66050000D01*
X203102023Y-65860631D01*
X203046786Y-65678539D01*
X203046784Y-65678536D01*
X203046784Y-65678534D01*
X202957089Y-65510727D01*
X202957085Y-65510720D01*
X202836370Y-65363629D01*
X202735272Y-65280660D01*
X204419000Y-65280660D01*
X204419000Y-66959336D01*
X204419001Y-66959339D01*
X204419001Y-66959340D01*
X204427151Y-67000321D01*
X204458205Y-67046795D01*
X204504679Y-67077849D01*
X204545659Y-67086000D01*
X206224340Y-67085999D01*
X206265321Y-67077849D01*
X206311795Y-67046795D01*
X206342849Y-67000321D01*
X206351000Y-66959341D01*
X206350999Y-66177561D01*
X206367672Y-66120776D01*
X206579933Y-66120776D01*
X206593976Y-66142628D01*
X206598527Y-66166755D01*
X206614650Y-66351045D01*
X206614651Y-66351051D01*
X206674678Y-66575074D01*
X206674681Y-66575080D01*
X206772699Y-66785281D01*
X206827665Y-66863781D01*
X207383657Y-66307789D01*
X207392447Y-66340591D01*
X207467687Y-66470909D01*
X207574091Y-66577313D01*
X207704409Y-66652553D01*
X207737210Y-66661342D01*
X207181218Y-67217333D01*
X207259718Y-67272301D01*
X207271121Y-67277618D01*
X207323560Y-67323790D01*
X207342712Y-67390984D01*
X207322496Y-67457865D01*
X207271123Y-67502381D01*
X207259716Y-67507700D01*
X207181218Y-67562664D01*
X207181217Y-67562665D01*
X207737210Y-68118657D01*
X207704409Y-68127447D01*
X207574091Y-68202687D01*
X207467687Y-68309091D01*
X207392447Y-68439409D01*
X207383657Y-68472209D01*
X206827665Y-67916217D01*
X206827664Y-67916218D01*
X206772701Y-67994715D01*
X206674681Y-68204917D01*
X206614651Y-68428948D01*
X206614650Y-68428954D01*
X206598341Y-68615367D01*
X206580540Y-68660873D01*
X206596641Y-68692334D01*
X206598341Y-68704632D01*
X206614650Y-68891045D01*
X206614651Y-68891051D01*
X206674678Y-69115074D01*
X206674681Y-69115080D01*
X206772699Y-69325281D01*
X206827665Y-69403781D01*
X207383657Y-68847789D01*
X207392447Y-68880591D01*
X207467687Y-69010909D01*
X207574091Y-69117313D01*
X207704409Y-69192553D01*
X207737210Y-69201342D01*
X207181218Y-69757333D01*
X207259718Y-69812301D01*
X207271121Y-69817618D01*
X207323560Y-69863790D01*
X207342712Y-69930984D01*
X207322496Y-69997865D01*
X207271123Y-70042381D01*
X207259716Y-70047700D01*
X207181218Y-70102664D01*
X207181217Y-70102665D01*
X207737210Y-70658657D01*
X207704409Y-70667447D01*
X207574091Y-70742687D01*
X207467687Y-70849091D01*
X207392447Y-70979409D01*
X207383657Y-71012209D01*
X206827665Y-70456217D01*
X206827664Y-70456218D01*
X206772701Y-70534715D01*
X206674681Y-70744917D01*
X206614651Y-70968948D01*
X206614650Y-70968954D01*
X206598341Y-71155367D01*
X206580540Y-71200873D01*
X206596641Y-71232334D01*
X206598341Y-71244632D01*
X206614650Y-71431045D01*
X206614651Y-71431051D01*
X206674678Y-71655074D01*
X206674681Y-71655080D01*
X206772699Y-71865281D01*
X206827665Y-71943781D01*
X207383657Y-71387789D01*
X207392447Y-71420591D01*
X207467687Y-71550909D01*
X207574091Y-71657313D01*
X207704409Y-71732553D01*
X207737210Y-71741342D01*
X207181218Y-72297333D01*
X207259718Y-72352301D01*
X207271121Y-72357618D01*
X207323560Y-72403790D01*
X207342712Y-72470984D01*
X207322496Y-72537865D01*
X207271123Y-72582381D01*
X207259716Y-72587700D01*
X207181218Y-72642664D01*
X207181217Y-72642665D01*
X207737210Y-73198657D01*
X207704409Y-73207447D01*
X207574091Y-73282687D01*
X207467687Y-73389091D01*
X207392447Y-73519409D01*
X207383657Y-73552209D01*
X206827665Y-72996217D01*
X206827664Y-72996218D01*
X206772701Y-73074715D01*
X206674681Y-73284917D01*
X206614651Y-73508948D01*
X206614650Y-73508954D01*
X206598341Y-73695367D01*
X206580540Y-73740873D01*
X206596641Y-73772334D01*
X206598341Y-73784632D01*
X206614650Y-73971045D01*
X206614651Y-73971051D01*
X206674678Y-74195074D01*
X206674681Y-74195080D01*
X206772699Y-74405281D01*
X206827665Y-74483781D01*
X207383657Y-73927789D01*
X207392447Y-73960591D01*
X207467687Y-74090909D01*
X207574091Y-74197313D01*
X207704409Y-74272553D01*
X207737210Y-74281342D01*
X207181218Y-74837333D01*
X207259718Y-74892301D01*
X207469919Y-74990318D01*
X207469925Y-74990321D01*
X207693948Y-75050348D01*
X207693955Y-75050349D01*
X207924998Y-75070563D01*
X207925002Y-75070563D01*
X208156044Y-75050349D01*
X208156051Y-75050348D01*
X208380074Y-74990321D01*
X208380085Y-74990317D01*
X208590279Y-74892302D01*
X208590283Y-74892300D01*
X208668780Y-74837333D01*
X208112789Y-74281342D01*
X208145591Y-74272553D01*
X208275909Y-74197313D01*
X208382313Y-74090909D01*
X208457553Y-73960591D01*
X208466342Y-73927789D01*
X209022333Y-74483780D01*
X209077300Y-74405283D01*
X209077302Y-74405279D01*
X209175317Y-74195085D01*
X209175321Y-74195074D01*
X209235348Y-73971051D01*
X209235349Y-73971044D01*
X209255563Y-73740001D01*
X209255563Y-73739998D01*
X209235349Y-73508955D01*
X209235348Y-73508948D01*
X209175318Y-73284917D01*
X209077300Y-73074719D01*
X209022333Y-72996217D01*
X208466341Y-73552209D01*
X208457553Y-73519409D01*
X208382313Y-73389091D01*
X208275909Y-73282687D01*
X208145591Y-73207447D01*
X208112789Y-73198657D01*
X208668781Y-72642665D01*
X208590281Y-72587699D01*
X208578879Y-72582382D01*
X208526440Y-72536210D01*
X208507288Y-72469016D01*
X208527504Y-72402135D01*
X208578882Y-72357617D01*
X208590280Y-72352301D01*
X208590283Y-72352300D01*
X208668780Y-72297333D01*
X208112789Y-71741342D01*
X208145591Y-71732553D01*
X208275909Y-71657313D01*
X208382313Y-71550909D01*
X208457553Y-71420591D01*
X208466342Y-71387789D01*
X209022333Y-71943780D01*
X209077300Y-71865283D01*
X209077302Y-71865279D01*
X209175317Y-71655085D01*
X209175321Y-71655074D01*
X209235348Y-71431051D01*
X209235349Y-71431044D01*
X209255563Y-71200001D01*
X209255563Y-71199998D01*
X209235349Y-70968955D01*
X209235348Y-70968948D01*
X209175318Y-70744917D01*
X209077300Y-70534719D01*
X209022333Y-70456217D01*
X208466341Y-71012209D01*
X208457553Y-70979409D01*
X208382313Y-70849091D01*
X208275909Y-70742687D01*
X208145591Y-70667447D01*
X208112789Y-70658657D01*
X208668781Y-70102665D01*
X208590281Y-70047699D01*
X208578879Y-70042382D01*
X208526440Y-69996210D01*
X208507288Y-69929016D01*
X208527504Y-69862135D01*
X208578882Y-69817617D01*
X208590280Y-69812301D01*
X208590283Y-69812300D01*
X208668780Y-69757333D01*
X208112789Y-69201342D01*
X208145591Y-69192553D01*
X208275909Y-69117313D01*
X208382313Y-69010909D01*
X208457553Y-68880591D01*
X208466342Y-68847789D01*
X209022333Y-69403780D01*
X209077300Y-69325283D01*
X209077302Y-69325279D01*
X209175317Y-69115085D01*
X209175321Y-69115074D01*
X209235348Y-68891051D01*
X209235349Y-68891044D01*
X209255563Y-68660001D01*
X209255563Y-68659998D01*
X209235349Y-68428955D01*
X209235348Y-68428948D01*
X209175318Y-68204917D01*
X209077300Y-67994719D01*
X209022333Y-67916217D01*
X208466341Y-68472209D01*
X208457553Y-68439409D01*
X208382313Y-68309091D01*
X208275909Y-68202687D01*
X208145591Y-68127447D01*
X208112789Y-68118657D01*
X208668781Y-67562665D01*
X208590281Y-67507699D01*
X208578879Y-67502382D01*
X208526440Y-67456210D01*
X208507288Y-67389016D01*
X208527504Y-67322135D01*
X208578882Y-67277617D01*
X208590280Y-67272301D01*
X208590283Y-67272300D01*
X208668780Y-67217333D01*
X208112789Y-66661342D01*
X208145591Y-66652553D01*
X208275909Y-66577313D01*
X208382313Y-66470909D01*
X208457553Y-66340591D01*
X208466342Y-66307789D01*
X209022333Y-66863780D01*
X209077300Y-66785283D01*
X209077302Y-66785279D01*
X209175317Y-66575085D01*
X209175321Y-66575074D01*
X209235348Y-66351051D01*
X209235349Y-66351044D01*
X209255563Y-66120001D01*
X209255563Y-66119998D01*
X209235349Y-65888955D01*
X209235348Y-65888948D01*
X209175318Y-65664917D01*
X209077300Y-65454719D01*
X209022333Y-65376217D01*
X208466341Y-65932209D01*
X208457553Y-65899409D01*
X208382313Y-65769091D01*
X208275909Y-65662687D01*
X208145591Y-65587447D01*
X208112789Y-65578657D01*
X208668781Y-65022665D01*
X208590281Y-64967699D01*
X208380080Y-64869681D01*
X208380074Y-64869678D01*
X208156051Y-64809651D01*
X208156044Y-64809650D01*
X207925002Y-64789437D01*
X207924998Y-64789437D01*
X207693955Y-64809650D01*
X207693948Y-64809651D01*
X207469917Y-64869681D01*
X207259715Y-64967701D01*
X207181218Y-65022664D01*
X207181217Y-65022665D01*
X207737210Y-65578657D01*
X207704409Y-65587447D01*
X207574091Y-65662687D01*
X207467687Y-65769091D01*
X207392447Y-65899409D01*
X207383657Y-65932209D01*
X206827665Y-65376217D01*
X206827664Y-65376218D01*
X206772701Y-65454715D01*
X206674681Y-65664917D01*
X206614651Y-65888948D01*
X206614650Y-65888954D01*
X206598527Y-66073244D01*
X206579933Y-66120776D01*
X206367672Y-66120776D01*
X206368955Y-66116406D01*
X206353430Y-66086868D01*
X206350999Y-66062436D01*
X206350999Y-65280663D01*
X206350999Y-65280660D01*
X206342849Y-65239679D01*
X206311795Y-65193205D01*
X206265321Y-65162151D01*
X206224341Y-65154000D01*
X206224339Y-65154000D01*
X204545663Y-65154000D01*
X204504679Y-65162151D01*
X204477219Y-65180500D01*
X204458205Y-65193205D01*
X204454260Y-65199109D01*
X204427151Y-65239678D01*
X204419000Y-65280660D01*
X202735272Y-65280660D01*
X202689279Y-65242914D01*
X202689272Y-65242910D01*
X202521465Y-65153215D01*
X202339367Y-65097976D01*
X202150000Y-65079326D01*
X201960632Y-65097976D01*
X201778534Y-65153215D01*
X201610727Y-65242910D01*
X201610720Y-65242914D01*
X201463629Y-65363629D01*
X201342914Y-65510720D01*
X201342910Y-65510727D01*
X201253215Y-65678534D01*
X201197976Y-65860632D01*
X201179326Y-66050000D01*
X112950000Y-66050000D01*
X112950000Y-62404147D01*
X169269499Y-62404147D01*
X169269499Y-62495850D01*
X169285060Y-62533415D01*
X169294500Y-62580870D01*
X169294500Y-63569147D01*
X169294499Y-63569161D01*
X169294499Y-63670850D01*
X169305246Y-63696795D01*
X169315028Y-63720408D01*
X169329591Y-63755568D01*
X169329593Y-63755570D01*
X169411868Y-63837845D01*
X169411874Y-63837850D01*
X169897520Y-64323496D01*
X169897523Y-64323500D01*
X169904591Y-64330568D01*
X169969432Y-64395409D01*
X170011791Y-64412954D01*
X170054151Y-64430501D01*
X170054153Y-64430501D01*
X170160284Y-64430501D01*
X170160292Y-64430500D01*
X170274711Y-64430500D01*
X170341750Y-64450185D01*
X170387505Y-64502989D01*
X170397449Y-64572147D01*
X170368424Y-64635703D01*
X170317123Y-64671021D01*
X170252509Y-64694538D01*
X170174032Y-64760388D01*
X170174030Y-64760391D01*
X170122809Y-64849110D01*
X170105019Y-64949999D01*
X170105019Y-64950000D01*
X170122809Y-65050890D01*
X170157160Y-65110388D01*
X170174031Y-65139610D01*
X170197179Y-65159033D01*
X170235881Y-65217203D01*
X170236990Y-65287064D01*
X170200153Y-65346434D01*
X170197179Y-65349011D01*
X170124033Y-65410387D01*
X170124030Y-65410391D01*
X170072809Y-65499110D01*
X170055019Y-65599999D01*
X170055019Y-65600000D01*
X170072809Y-65700890D01*
X170124030Y-65789609D01*
X170124031Y-65789610D01*
X170202509Y-65855461D01*
X170298777Y-65890500D01*
X170298779Y-65890500D01*
X170401221Y-65890500D01*
X170401223Y-65890500D01*
X170497491Y-65855461D01*
X170497495Y-65855456D01*
X170506888Y-65850036D01*
X170508386Y-65852631D01*
X170556663Y-65831500D01*
X170572369Y-65830501D01*
X170615847Y-65830501D01*
X170615850Y-65830501D01*
X170665476Y-65809944D01*
X170700568Y-65795409D01*
X170765409Y-65730568D01*
X170765409Y-65730567D01*
X170782845Y-65713131D01*
X170782846Y-65713128D01*
X170959158Y-65536816D01*
X171020481Y-65503334D01*
X171046838Y-65500500D01*
X187441876Y-65500500D01*
X187508915Y-65520185D01*
X187521581Y-65529510D01*
X187530291Y-65536818D01*
X187552509Y-65555461D01*
X187648777Y-65590500D01*
X187648779Y-65590500D01*
X187751221Y-65590500D01*
X187751223Y-65590500D01*
X187847491Y-65555461D01*
X187925969Y-65489610D01*
X187977191Y-65400889D01*
X187994981Y-65300000D01*
X187977191Y-65199111D01*
X187950693Y-65153215D01*
X187925969Y-65110390D01*
X187847491Y-65044539D01*
X187751223Y-65009500D01*
X187648777Y-65009500D01*
X187586898Y-65032022D01*
X187544489Y-65039500D01*
X186954204Y-65039500D01*
X186887165Y-65019815D01*
X186841410Y-64967011D01*
X186831466Y-64897853D01*
X186846816Y-64853501D01*
X186877191Y-64800889D01*
X186894981Y-64700000D01*
X186894948Y-64699815D01*
X186889871Y-64671021D01*
X186877191Y-64599111D01*
X186825969Y-64510390D01*
X186747491Y-64444539D01*
X186651223Y-64409500D01*
X186548777Y-64409500D01*
X186452510Y-64444539D01*
X186452507Y-64444540D01*
X186443117Y-64449963D01*
X186441619Y-64447368D01*
X186393323Y-64468503D01*
X186377631Y-64469500D01*
X185145849Y-64469500D01*
X185054150Y-64469500D01*
X185054149Y-64469500D01*
X185054145Y-64469501D01*
X185029338Y-64479777D01*
X185029336Y-64479778D01*
X184969437Y-64504588D01*
X184969429Y-64504593D01*
X184790842Y-64683181D01*
X184729519Y-64716666D01*
X184703161Y-64719500D01*
X170622370Y-64719500D01*
X170555331Y-64699815D01*
X170550616Y-64696343D01*
X170547493Y-64694540D01*
X170547491Y-64694539D01*
X170482874Y-64671020D01*
X170426613Y-64629595D01*
X170401678Y-64564327D01*
X170415988Y-64495938D01*
X170465000Y-64446143D01*
X170525288Y-64430500D01*
X173264708Y-64430500D01*
X173264716Y-64430501D01*
X173279150Y-64430501D01*
X173370849Y-64430501D01*
X173370850Y-64430501D01*
X173421549Y-64409500D01*
X173455568Y-64395409D01*
X173520409Y-64330568D01*
X173520409Y-64330567D01*
X173537847Y-64313129D01*
X173537848Y-64313126D01*
X174409157Y-63441819D01*
X174470480Y-63408334D01*
X174496838Y-63405500D01*
X187454708Y-63405500D01*
X187454716Y-63405501D01*
X187469150Y-63405501D01*
X187560848Y-63405501D01*
X187560850Y-63405501D01*
X187598415Y-63389939D01*
X187645870Y-63380500D01*
X192064708Y-63380500D01*
X192064716Y-63380501D01*
X192079150Y-63380501D01*
X192170847Y-63380501D01*
X192170850Y-63380501D01*
X192220476Y-63359944D01*
X192255568Y-63345409D01*
X192320409Y-63280568D01*
X192320409Y-63280567D01*
X192337847Y-63263129D01*
X192337849Y-63263126D01*
X193670315Y-61930660D01*
X201184000Y-61930660D01*
X201184000Y-63609336D01*
X201184001Y-63609339D01*
X201184001Y-63609340D01*
X201192151Y-63650321D01*
X201223205Y-63696795D01*
X201269679Y-63727849D01*
X201310659Y-63736000D01*
X202989340Y-63735999D01*
X203030321Y-63727849D01*
X203076795Y-63696795D01*
X203107849Y-63650321D01*
X203116000Y-63609341D01*
X203115999Y-62770000D01*
X204414326Y-62770000D01*
X204432976Y-62959367D01*
X204488215Y-63141465D01*
X204577910Y-63309272D01*
X204577914Y-63309279D01*
X204698629Y-63456370D01*
X204845720Y-63577085D01*
X204845727Y-63577089D01*
X205013534Y-63666784D01*
X205013536Y-63666784D01*
X205013539Y-63666786D01*
X205195631Y-63722023D01*
X205385000Y-63740674D01*
X205574369Y-63722023D01*
X205756461Y-63666786D01*
X205924278Y-63577086D01*
X206071370Y-63456370D01*
X206192086Y-63309278D01*
X206281786Y-63141461D01*
X206337023Y-62959369D01*
X206351410Y-62813284D01*
X206369172Y-62769296D01*
X206353244Y-62738991D01*
X206351411Y-62726722D01*
X206337023Y-62580631D01*
X206281786Y-62398539D01*
X206281784Y-62398536D01*
X206281784Y-62398534D01*
X206192089Y-62230727D01*
X206192085Y-62230720D01*
X206071370Y-62083629D01*
X205924279Y-61962914D01*
X205924272Y-61962910D01*
X205756465Y-61873215D01*
X205574367Y-61817976D01*
X205385000Y-61799326D01*
X205195632Y-61817976D01*
X205013534Y-61873215D01*
X204845727Y-61962910D01*
X204845720Y-61962914D01*
X204698629Y-62083629D01*
X204577914Y-62230720D01*
X204577910Y-62230727D01*
X204488215Y-62398534D01*
X204432976Y-62580632D01*
X204414326Y-62770000D01*
X203115999Y-62770000D01*
X203115999Y-61930660D01*
X203107849Y-61889679D01*
X203076795Y-61843205D01*
X203030321Y-61812151D01*
X202989341Y-61804000D01*
X202989339Y-61804000D01*
X201310663Y-61804000D01*
X201269679Y-61812151D01*
X201260962Y-61817976D01*
X201223205Y-61843205D01*
X201212901Y-61858624D01*
X201192151Y-61889678D01*
X201192151Y-61889679D01*
X201184040Y-61930461D01*
X201184000Y-61930660D01*
X193670315Y-61930660D01*
X193863126Y-61737849D01*
X193863129Y-61737847D01*
X193880567Y-61720409D01*
X193880568Y-61720409D01*
X193945409Y-61655568D01*
X193959944Y-61620476D01*
X193980501Y-61570850D01*
X193980501Y-61479151D01*
X193980501Y-61469162D01*
X193980500Y-61469148D01*
X193980500Y-60230000D01*
X201179326Y-60230000D01*
X201197976Y-60419367D01*
X201253215Y-60601465D01*
X201342910Y-60769272D01*
X201342914Y-60769279D01*
X201463629Y-60916370D01*
X201610720Y-61037085D01*
X201610727Y-61037089D01*
X201778534Y-61126784D01*
X201778536Y-61126784D01*
X201778539Y-61126786D01*
X201960631Y-61182023D01*
X202150000Y-61200674D01*
X202339369Y-61182023D01*
X202521461Y-61126786D01*
X202523138Y-61125890D01*
X202617362Y-61075526D01*
X202689278Y-61037086D01*
X202836370Y-60916370D01*
X202957086Y-60769278D01*
X203046786Y-60601461D01*
X203102023Y-60419369D01*
X203120674Y-60230000D01*
X204414326Y-60230000D01*
X204432976Y-60419367D01*
X204488215Y-60601465D01*
X204577910Y-60769272D01*
X204577914Y-60769279D01*
X204698629Y-60916370D01*
X204845720Y-61037085D01*
X204845727Y-61037089D01*
X205013534Y-61126784D01*
X205013536Y-61126784D01*
X205013539Y-61126786D01*
X205195631Y-61182023D01*
X205385000Y-61200674D01*
X205574369Y-61182023D01*
X205756461Y-61126786D01*
X205758138Y-61125890D01*
X205852362Y-61075526D01*
X205924278Y-61037086D01*
X206071370Y-60916370D01*
X206192086Y-60769278D01*
X206281786Y-60601461D01*
X206337023Y-60419369D01*
X206351410Y-60273284D01*
X206369172Y-60229296D01*
X206353244Y-60198991D01*
X206351411Y-60186722D01*
X206337023Y-60040631D01*
X206281786Y-59858539D01*
X206281784Y-59858536D01*
X206281784Y-59858534D01*
X206192089Y-59690727D01*
X206192085Y-59690720D01*
X206071370Y-59543629D01*
X205924279Y-59422914D01*
X205924272Y-59422910D01*
X205756465Y-59333215D01*
X205574367Y-59277976D01*
X205385000Y-59259326D01*
X205195632Y-59277976D01*
X205013534Y-59333215D01*
X204845727Y-59422910D01*
X204845720Y-59422914D01*
X204698629Y-59543629D01*
X204577914Y-59690720D01*
X204577910Y-59690727D01*
X204488215Y-59858534D01*
X204432976Y-60040632D01*
X204414326Y-60230000D01*
X203120674Y-60230000D01*
X203102023Y-60040631D01*
X203046786Y-59858539D01*
X203046784Y-59858536D01*
X203046784Y-59858534D01*
X202957089Y-59690727D01*
X202957085Y-59690720D01*
X202836370Y-59543629D01*
X202689279Y-59422914D01*
X202689272Y-59422910D01*
X202521465Y-59333215D01*
X202339367Y-59277976D01*
X202150000Y-59259326D01*
X201960632Y-59277976D01*
X201778534Y-59333215D01*
X201610727Y-59422910D01*
X201610720Y-59422914D01*
X201463629Y-59543629D01*
X201342914Y-59690720D01*
X201342910Y-59690727D01*
X201253215Y-59858534D01*
X201197976Y-60040632D01*
X201179326Y-60230000D01*
X193980500Y-60230000D01*
X193980500Y-59589986D01*
X193997112Y-59527987D01*
X194027191Y-59475889D01*
X194044981Y-59375000D01*
X194027191Y-59274111D01*
X193975969Y-59185390D01*
X193897491Y-59119539D01*
X193801223Y-59084500D01*
X193698777Y-59084500D01*
X193602510Y-59119539D01*
X193602509Y-59119539D01*
X193602508Y-59119540D01*
X193524032Y-59185388D01*
X193524030Y-59185391D01*
X193472809Y-59274110D01*
X193472809Y-59274111D01*
X193455019Y-59375000D01*
X193472809Y-59475889D01*
X193502887Y-59527987D01*
X193519500Y-59589986D01*
X193519500Y-61378162D01*
X193499815Y-61445201D01*
X193483181Y-61465843D01*
X192065843Y-62883181D01*
X192004520Y-62916666D01*
X191978162Y-62919500D01*
X190880838Y-62919500D01*
X190813799Y-62899815D01*
X190768044Y-62847011D01*
X190758100Y-62777853D01*
X190787125Y-62714297D01*
X190793157Y-62707819D01*
X190881544Y-62619432D01*
X191007028Y-62493947D01*
X191052292Y-62465110D01*
X191147491Y-62430461D01*
X191225969Y-62364610D01*
X191277191Y-62275889D01*
X191294981Y-62175000D01*
X191277191Y-62074111D01*
X191225969Y-61985390D01*
X191147491Y-61919539D01*
X191051223Y-61884500D01*
X190948777Y-61884500D01*
X190852510Y-61919539D01*
X190852509Y-61919539D01*
X190852508Y-61919540D01*
X190774032Y-61985388D01*
X190774030Y-61985391D01*
X190722807Y-62074113D01*
X190718442Y-62098869D01*
X190687414Y-62161471D01*
X190684008Y-62165014D01*
X190295843Y-62553181D01*
X190234520Y-62586666D01*
X190208162Y-62589500D01*
X187360838Y-62589500D01*
X187293799Y-62569815D01*
X187248044Y-62517011D01*
X187238100Y-62447853D01*
X187267125Y-62384297D01*
X187273152Y-62377824D01*
X187282023Y-62368952D01*
X187327293Y-62340110D01*
X187422491Y-62305461D01*
X187500969Y-62239610D01*
X187552191Y-62150889D01*
X187569981Y-62050000D01*
X187552191Y-61949111D01*
X187549551Y-61944539D01*
X187500969Y-61860390D01*
X187422491Y-61794539D01*
X187326223Y-61759500D01*
X187223777Y-61759500D01*
X187127510Y-61794539D01*
X187127509Y-61794539D01*
X187127508Y-61794540D01*
X187049032Y-61860388D01*
X187049030Y-61860391D01*
X186997807Y-61949113D01*
X186993442Y-61973869D01*
X186962414Y-62036471D01*
X186959009Y-62040014D01*
X186765841Y-62233182D01*
X186704521Y-62266666D01*
X186678162Y-62269500D01*
X186400838Y-62269500D01*
X186333799Y-62249815D01*
X186288044Y-62197011D01*
X186278100Y-62127853D01*
X186307125Y-62064297D01*
X186313157Y-62057819D01*
X186715410Y-61655566D01*
X187152028Y-61218947D01*
X187197292Y-61190110D01*
X187292491Y-61155461D01*
X187370969Y-61089610D01*
X187422191Y-61000889D01*
X187439981Y-60900000D01*
X187422191Y-60799111D01*
X187419551Y-60794539D01*
X187401085Y-60762553D01*
X187374495Y-60716498D01*
X187358023Y-60648600D01*
X187380876Y-60582573D01*
X187435797Y-60539382D01*
X187481883Y-60530500D01*
X187778162Y-60530500D01*
X187845201Y-60550185D01*
X187865843Y-60566819D01*
X188209008Y-60909984D01*
X188242493Y-60971307D01*
X188243443Y-60976130D01*
X188247809Y-61000890D01*
X188293777Y-61080510D01*
X188299031Y-61089610D01*
X188377509Y-61155461D01*
X188473777Y-61190500D01*
X188473779Y-61190500D01*
X188576221Y-61190500D01*
X188576223Y-61190500D01*
X188672491Y-61155461D01*
X188750969Y-61089610D01*
X188802191Y-61000889D01*
X188819981Y-60900000D01*
X188802191Y-60799111D01*
X188799551Y-60794539D01*
X188750969Y-60710390D01*
X188672491Y-60644539D01*
X188577294Y-60609889D01*
X188532026Y-60581050D01*
X188137849Y-60186873D01*
X188120409Y-60169432D01*
X188055568Y-60104591D01*
X188055567Y-60104590D01*
X188020477Y-60090055D01*
X187970852Y-60069499D01*
X187970850Y-60069499D01*
X187879150Y-60069499D01*
X187864716Y-60069499D01*
X187864708Y-60069500D01*
X186060292Y-60069500D01*
X186060284Y-60069499D01*
X186045850Y-60069499D01*
X185954151Y-60069499D01*
X185954149Y-60069499D01*
X185911791Y-60087045D01*
X185869432Y-60104590D01*
X185848524Y-60125499D01*
X185804591Y-60169432D01*
X185804590Y-60169433D01*
X185239524Y-60734500D01*
X184705843Y-61268181D01*
X184644520Y-61301666D01*
X184618162Y-61304500D01*
X174406838Y-61304500D01*
X174339799Y-61284815D01*
X174319157Y-61268181D01*
X173612849Y-60561873D01*
X173595409Y-60544432D01*
X173530568Y-60479591D01*
X173530567Y-60479590D01*
X173495477Y-60465055D01*
X173445852Y-60444499D01*
X173445850Y-60444499D01*
X173354150Y-60444499D01*
X173339716Y-60444499D01*
X173339708Y-60444500D01*
X170946838Y-60444500D01*
X170879799Y-60424815D01*
X170859157Y-60408181D01*
X170840990Y-60390014D01*
X170807505Y-60328691D01*
X170806567Y-60323931D01*
X170802191Y-60299111D01*
X170788058Y-60274632D01*
X170750969Y-60210390D01*
X170672491Y-60144539D01*
X170576223Y-60109500D01*
X170473777Y-60109500D01*
X170377510Y-60144539D01*
X170377509Y-60144539D01*
X170377508Y-60144540D01*
X170299032Y-60210388D01*
X170299030Y-60210391D01*
X170247809Y-60299110D01*
X170230019Y-60399999D01*
X170230019Y-60400000D01*
X170247809Y-60500890D01*
X170294089Y-60581050D01*
X170299031Y-60589610D01*
X170322735Y-60609500D01*
X170332282Y-60617511D01*
X170370984Y-60675682D01*
X170372092Y-60745543D01*
X170335255Y-60804913D01*
X170332282Y-60807489D01*
X170299033Y-60835388D01*
X170299030Y-60835391D01*
X170247809Y-60924110D01*
X170230019Y-61024999D01*
X170230019Y-61025000D01*
X170247809Y-61125890D01*
X170290985Y-61200674D01*
X170299031Y-61214610D01*
X170304202Y-61218949D01*
X170312021Y-61225510D01*
X170350723Y-61283681D01*
X170351831Y-61353542D01*
X170314994Y-61412912D01*
X170251907Y-61442942D01*
X170232315Y-61444499D01*
X170229150Y-61444499D01*
X170177622Y-61465843D01*
X170145495Y-61479151D01*
X170144430Y-61479592D01*
X169559727Y-62064297D01*
X169369432Y-62254592D01*
X169348135Y-62275889D01*
X169304590Y-62319433D01*
X169269499Y-62404147D01*
X112950000Y-62404147D01*
X112950000Y-56903681D01*
X113599500Y-56903681D01*
X113599500Y-57246318D01*
X113637858Y-57586768D01*
X113637861Y-57586782D01*
X113714102Y-57920816D01*
X113714103Y-57920818D01*
X113827264Y-58244216D01*
X113975922Y-58552907D01*
X113983311Y-58564666D01*
X114158211Y-58843018D01*
X114250716Y-58959016D01*
X114341122Y-59072382D01*
X114371834Y-59110893D01*
X114614107Y-59353166D01*
X114881982Y-59566789D01*
X115172090Y-59749076D01*
X115172092Y-59749077D01*
X115195584Y-59760390D01*
X115480785Y-59897736D01*
X115804183Y-60010897D01*
X116138217Y-60087139D01*
X116138226Y-60087140D01*
X116138231Y-60087141D01*
X116340151Y-60109891D01*
X116478682Y-60125499D01*
X116478685Y-60125500D01*
X116478688Y-60125500D01*
X116821315Y-60125500D01*
X116821316Y-60125499D01*
X117006898Y-60104590D01*
X117161768Y-60087141D01*
X117161771Y-60087140D01*
X117161783Y-60087139D01*
X117495817Y-60010897D01*
X117669855Y-59949999D01*
X124605019Y-59949999D01*
X124605019Y-59950000D01*
X124622809Y-60050890D01*
X124674030Y-60139609D01*
X124674031Y-60139610D01*
X124752509Y-60205461D01*
X124848777Y-60240500D01*
X124848779Y-60240500D01*
X124951221Y-60240500D01*
X124951223Y-60240500D01*
X125047491Y-60205461D01*
X125047494Y-60205458D01*
X125056887Y-60200036D01*
X125058385Y-60202631D01*
X125106664Y-60181499D01*
X125122370Y-60180500D01*
X126953162Y-60180500D01*
X127020201Y-60200185D01*
X127040843Y-60216819D01*
X127234008Y-60409984D01*
X127267493Y-60471307D01*
X127268443Y-60476130D01*
X127272809Y-60500890D01*
X127295032Y-60539382D01*
X127320504Y-60583501D01*
X127336977Y-60651400D01*
X127314124Y-60717427D01*
X127259203Y-60760618D01*
X127213117Y-60769500D01*
X125410292Y-60769500D01*
X125410284Y-60769499D01*
X125400559Y-60769499D01*
X125358150Y-60762021D01*
X125351226Y-60759500D01*
X125351223Y-60759500D01*
X125248777Y-60759500D01*
X125152510Y-60794539D01*
X125152509Y-60794539D01*
X125152508Y-60794540D01*
X125074032Y-60860388D01*
X125074030Y-60860391D01*
X125022809Y-60949110D01*
X125005019Y-61049999D01*
X125005019Y-61050000D01*
X125022809Y-61150890D01*
X125074030Y-61239609D01*
X125074031Y-61239610D01*
X125152509Y-61305461D01*
X125248777Y-61340500D01*
X125248779Y-61340500D01*
X125351221Y-61340500D01*
X125351223Y-61340500D01*
X125447491Y-61305461D01*
X125481468Y-61276950D01*
X125502254Y-61259510D01*
X125566262Y-61231498D01*
X125581959Y-61230500D01*
X128027630Y-61230500D01*
X128094669Y-61250185D01*
X128099383Y-61253656D01*
X128102506Y-61255459D01*
X128102507Y-61255459D01*
X128102509Y-61255461D01*
X128198777Y-61290500D01*
X128198779Y-61290500D01*
X128301221Y-61290500D01*
X128301223Y-61290500D01*
X128397491Y-61255461D01*
X128475969Y-61189610D01*
X128527191Y-61100889D01*
X128544981Y-61000000D01*
X128527191Y-60899111D01*
X128519893Y-60886471D01*
X128475969Y-60810390D01*
X128397491Y-60744539D01*
X128301223Y-60709500D01*
X128198777Y-60709500D01*
X128102510Y-60744539D01*
X128102507Y-60744540D01*
X128093117Y-60749963D01*
X128091619Y-60747368D01*
X128043323Y-60768503D01*
X128027631Y-60769500D01*
X127886883Y-60769500D01*
X127819844Y-60749815D01*
X127774089Y-60697011D01*
X127764145Y-60627853D01*
X127779495Y-60583502D01*
X127827191Y-60500889D01*
X127844981Y-60400000D01*
X127827191Y-60299111D01*
X127775969Y-60210390D01*
X127697491Y-60144539D01*
X127602294Y-60109889D01*
X127557026Y-60081050D01*
X127312849Y-59836873D01*
X127295409Y-59819432D01*
X127230568Y-59754591D01*
X127230567Y-59754590D01*
X127195477Y-59740055D01*
X127145852Y-59719499D01*
X127145850Y-59719499D01*
X127054150Y-59719499D01*
X127039716Y-59719499D01*
X127039708Y-59719500D01*
X125122370Y-59719500D01*
X125055331Y-59699815D01*
X125050616Y-59696343D01*
X125047493Y-59694540D01*
X125047491Y-59694539D01*
X124951223Y-59659500D01*
X124848777Y-59659500D01*
X124752510Y-59694539D01*
X124752509Y-59694539D01*
X124752508Y-59694540D01*
X124674032Y-59760388D01*
X124674030Y-59760391D01*
X124622809Y-59849110D01*
X124605019Y-59949999D01*
X117669855Y-59949999D01*
X117819215Y-59897736D01*
X118127910Y-59749076D01*
X118418018Y-59566789D01*
X118685893Y-59353166D01*
X118928166Y-59110893D01*
X119141789Y-58843018D01*
X119324076Y-58552910D01*
X119472736Y-58244215D01*
X119585897Y-57920817D01*
X119662139Y-57586783D01*
X119667006Y-57543592D01*
X119680895Y-57420311D01*
X119700500Y-57246312D01*
X119700500Y-56903688D01*
X119700499Y-56903681D01*
X161599500Y-56903681D01*
X161599500Y-57246318D01*
X161637858Y-57586768D01*
X161637861Y-57586782D01*
X161714102Y-57920816D01*
X161714103Y-57920818D01*
X161827264Y-58244216D01*
X161975922Y-58552907D01*
X161983311Y-58564666D01*
X162158211Y-58843018D01*
X162250716Y-58959016D01*
X162341122Y-59072382D01*
X162371834Y-59110893D01*
X162614107Y-59353166D01*
X162881982Y-59566789D01*
X163172090Y-59749076D01*
X163172092Y-59749077D01*
X163195584Y-59760390D01*
X163480785Y-59897736D01*
X163804183Y-60010897D01*
X164138217Y-60087139D01*
X164138226Y-60087140D01*
X164138231Y-60087141D01*
X164340151Y-60109891D01*
X164478682Y-60125499D01*
X164478685Y-60125500D01*
X164478688Y-60125500D01*
X164821315Y-60125500D01*
X164821316Y-60125499D01*
X165006898Y-60104590D01*
X165161768Y-60087141D01*
X165161771Y-60087140D01*
X165161783Y-60087139D01*
X165495817Y-60010897D01*
X165819215Y-59897736D01*
X166127910Y-59749076D01*
X166418018Y-59566789D01*
X166685893Y-59353166D01*
X166928166Y-59110893D01*
X167141789Y-58843018D01*
X167324076Y-58552910D01*
X167472736Y-58244215D01*
X167585897Y-57920817D01*
X167662139Y-57586783D01*
X167667006Y-57543592D01*
X167680895Y-57420311D01*
X167691634Y-57324999D01*
X170291210Y-57324999D01*
X170291210Y-57325000D01*
X170310333Y-57543582D01*
X170310335Y-57543592D01*
X170367121Y-57755524D01*
X170367125Y-57755533D01*
X170459854Y-57954392D01*
X170504003Y-58017443D01*
X171067037Y-57454409D01*
X171084075Y-57517993D01*
X171149901Y-57632007D01*
X171242993Y-57725099D01*
X171357007Y-57790925D01*
X171420590Y-57807962D01*
X170857555Y-58370996D01*
X170920601Y-58415142D01*
X170920605Y-58415144D01*
X171119466Y-58507874D01*
X171119475Y-58507878D01*
X171331407Y-58564664D01*
X171331417Y-58564666D01*
X171549999Y-58583790D01*
X171550001Y-58583790D01*
X171768582Y-58564666D01*
X171768592Y-58564664D01*
X171980524Y-58507878D01*
X171980533Y-58507874D01*
X172179392Y-58415145D01*
X172242443Y-58370995D01*
X171679410Y-57807962D01*
X171742993Y-57790925D01*
X171857007Y-57725099D01*
X171950099Y-57632007D01*
X172015925Y-57517993D01*
X172032962Y-57454409D01*
X172595995Y-58017442D01*
X172640145Y-57954392D01*
X172732874Y-57755533D01*
X172732878Y-57755524D01*
X172789664Y-57543592D01*
X172789666Y-57543582D01*
X172808790Y-57325000D01*
X173150573Y-57325000D01*
X173170228Y-57512003D01*
X173170229Y-57512005D01*
X173228333Y-57690831D01*
X173228334Y-57690833D01*
X173286122Y-57790925D01*
X173322348Y-57853670D01*
X173366175Y-57902345D01*
X173448160Y-57993400D01*
X173448163Y-57993402D01*
X173448166Y-57993405D01*
X173517189Y-58043553D01*
X173600287Y-58103928D01*
X173666226Y-58133285D01*
X173772062Y-58180406D01*
X173955984Y-58219500D01*
X174144016Y-58219500D01*
X174327938Y-58180406D01*
X174499714Y-58103927D01*
X174651834Y-57993405D01*
X174777652Y-57853670D01*
X174871667Y-57690830D01*
X174929772Y-57512001D01*
X174949427Y-57325000D01*
X174929772Y-57137999D01*
X174871667Y-56959170D01*
X174777652Y-56796330D01*
X174725110Y-56737976D01*
X174651839Y-56656599D01*
X174651836Y-56656597D01*
X174651835Y-56656596D01*
X174651834Y-56656595D01*
X174563841Y-56592664D01*
X174514975Y-56557160D01*
X175655500Y-56557160D01*
X175655500Y-58092836D01*
X175655501Y-58092839D01*
X175655501Y-58092840D01*
X175663651Y-58133821D01*
X175694705Y-58180295D01*
X175741179Y-58211349D01*
X175782159Y-58219500D01*
X177317840Y-58219499D01*
X177358821Y-58211349D01*
X177405295Y-58180295D01*
X177436349Y-58133821D01*
X177444500Y-58092841D01*
X177444500Y-57690000D01*
X201179326Y-57690000D01*
X201197976Y-57879367D01*
X201253215Y-58061465D01*
X201342910Y-58229272D01*
X201342914Y-58229279D01*
X201463629Y-58376370D01*
X201610720Y-58497085D01*
X201610727Y-58497089D01*
X201778534Y-58586784D01*
X201778536Y-58586784D01*
X201778539Y-58586786D01*
X201960631Y-58642023D01*
X202150000Y-58660674D01*
X202339369Y-58642023D01*
X202521461Y-58586786D01*
X202689278Y-58497086D01*
X202836370Y-58376370D01*
X202957086Y-58229278D01*
X203024087Y-58103928D01*
X203046784Y-58061465D01*
X203046784Y-58061464D01*
X203046786Y-58061461D01*
X203102023Y-57879369D01*
X203120674Y-57690000D01*
X204414326Y-57690000D01*
X204432976Y-57879367D01*
X204488215Y-58061465D01*
X204577910Y-58229272D01*
X204577914Y-58229279D01*
X204698629Y-58376370D01*
X204845720Y-58497085D01*
X204845727Y-58497089D01*
X205013534Y-58586784D01*
X205013536Y-58586784D01*
X205013539Y-58586786D01*
X205195631Y-58642023D01*
X205385000Y-58660674D01*
X205574369Y-58642023D01*
X205756461Y-58586786D01*
X205924278Y-58497086D01*
X206071370Y-58376370D01*
X206192086Y-58229278D01*
X206259087Y-58103928D01*
X206281784Y-58061465D01*
X206281784Y-58061464D01*
X206281786Y-58061461D01*
X206337023Y-57879369D01*
X206351410Y-57733284D01*
X206369172Y-57689296D01*
X206353244Y-57658991D01*
X206351411Y-57646722D01*
X206337023Y-57500631D01*
X206281786Y-57318539D01*
X206281784Y-57318536D01*
X206281784Y-57318534D01*
X206192089Y-57150727D01*
X206192085Y-57150720D01*
X206071370Y-57003629D01*
X205924279Y-56882914D01*
X205924272Y-56882910D01*
X205756465Y-56793215D01*
X205574367Y-56737976D01*
X205385000Y-56719326D01*
X205195632Y-56737976D01*
X205013534Y-56793215D01*
X204845727Y-56882910D01*
X204845720Y-56882914D01*
X204698629Y-57003629D01*
X204577914Y-57150720D01*
X204577910Y-57150727D01*
X204488215Y-57318534D01*
X204432976Y-57500632D01*
X204414326Y-57690000D01*
X203120674Y-57690000D01*
X203102023Y-57500631D01*
X203046786Y-57318539D01*
X203046784Y-57318536D01*
X203046784Y-57318534D01*
X202957089Y-57150727D01*
X202957085Y-57150720D01*
X202836370Y-57003629D01*
X202689279Y-56882914D01*
X202689272Y-56882910D01*
X202521465Y-56793215D01*
X202339367Y-56737976D01*
X202150000Y-56719326D01*
X201960632Y-56737976D01*
X201778534Y-56793215D01*
X201610727Y-56882910D01*
X201610720Y-56882914D01*
X201463629Y-57003629D01*
X201342914Y-57150720D01*
X201342910Y-57150727D01*
X201253215Y-57318534D01*
X201197976Y-57500632D01*
X201179326Y-57690000D01*
X177444500Y-57690000D01*
X177444499Y-56557160D01*
X177436349Y-56516179D01*
X177405295Y-56469705D01*
X177358821Y-56438651D01*
X177317841Y-56430500D01*
X177317839Y-56430500D01*
X175782163Y-56430500D01*
X175741179Y-56438651D01*
X175694870Y-56469595D01*
X175694705Y-56469705D01*
X175684401Y-56485124D01*
X175663651Y-56516178D01*
X175663651Y-56516179D01*
X175657706Y-56546071D01*
X175655500Y-56557160D01*
X174514975Y-56557160D01*
X174499712Y-56546071D01*
X174365258Y-56486210D01*
X174327938Y-56469594D01*
X174327936Y-56469593D01*
X174144016Y-56430500D01*
X173955984Y-56430500D01*
X173772062Y-56469593D01*
X173772057Y-56469595D01*
X173600287Y-56546073D01*
X173600282Y-56546075D01*
X173448167Y-56656593D01*
X173448160Y-56656599D01*
X173322347Y-56796331D01*
X173228334Y-56959166D01*
X173228333Y-56959168D01*
X173170229Y-57137994D01*
X173170228Y-57137996D01*
X173150573Y-57325000D01*
X172808790Y-57325000D01*
X172808790Y-57324999D01*
X172789666Y-57106417D01*
X172789664Y-57106407D01*
X172732878Y-56894475D01*
X172732874Y-56894466D01*
X172640144Y-56695605D01*
X172640142Y-56695601D01*
X172595996Y-56632555D01*
X172032962Y-57195589D01*
X172015925Y-57132007D01*
X171950099Y-57017993D01*
X171857007Y-56924901D01*
X171742993Y-56859075D01*
X171679409Y-56842037D01*
X172242443Y-56279003D01*
X172179392Y-56234854D01*
X171980533Y-56142125D01*
X171980524Y-56142121D01*
X171768592Y-56085335D01*
X171768582Y-56085333D01*
X171550001Y-56066210D01*
X171549999Y-56066210D01*
X171331417Y-56085333D01*
X171331407Y-56085335D01*
X171119475Y-56142121D01*
X171119466Y-56142124D01*
X170920606Y-56234855D01*
X170920604Y-56234856D01*
X170857556Y-56279003D01*
X170857555Y-56279003D01*
X171420590Y-56842037D01*
X171357007Y-56859075D01*
X171242993Y-56924901D01*
X171149901Y-57017993D01*
X171084075Y-57132007D01*
X171067037Y-57195589D01*
X170504003Y-56632555D01*
X170504003Y-56632556D01*
X170459856Y-56695604D01*
X170459855Y-56695606D01*
X170367124Y-56894466D01*
X170367121Y-56894475D01*
X170310335Y-57106407D01*
X170310333Y-57106417D01*
X170291210Y-57324999D01*
X167691634Y-57324999D01*
X167700500Y-57246312D01*
X167700500Y-56903688D01*
X167672660Y-56656593D01*
X167662140Y-56563224D01*
X167662139Y-56563222D01*
X167662139Y-56563217D01*
X167585897Y-56229183D01*
X167472736Y-55905785D01*
X167368472Y-55689279D01*
X167324077Y-55597092D01*
X167324076Y-55597090D01*
X167141789Y-55306982D01*
X167016600Y-55150000D01*
X201179326Y-55150000D01*
X201197976Y-55339367D01*
X201253215Y-55521465D01*
X201342910Y-55689272D01*
X201342914Y-55689279D01*
X201463629Y-55836370D01*
X201610720Y-55957085D01*
X201610727Y-55957089D01*
X201778534Y-56046784D01*
X201778536Y-56046784D01*
X201778539Y-56046786D01*
X201960631Y-56102023D01*
X202150000Y-56120674D01*
X202339369Y-56102023D01*
X202521461Y-56046786D01*
X202689278Y-55957086D01*
X202836370Y-55836370D01*
X202957086Y-55689278D01*
X203046786Y-55521461D01*
X203102023Y-55339369D01*
X203120674Y-55150000D01*
X203102023Y-54960631D01*
X203046786Y-54778539D01*
X203046784Y-54778536D01*
X203046784Y-54778534D01*
X202957089Y-54610727D01*
X202957085Y-54610720D01*
X202836370Y-54463629D01*
X202689279Y-54342914D01*
X202689272Y-54342910D01*
X202628937Y-54310660D01*
X204419000Y-54310660D01*
X204419000Y-55989336D01*
X204419001Y-55989339D01*
X204419001Y-55989340D01*
X204427151Y-56030321D01*
X204458205Y-56076795D01*
X204504679Y-56107849D01*
X204545659Y-56116000D01*
X206224340Y-56115999D01*
X206265321Y-56107849D01*
X206311795Y-56076795D01*
X206342849Y-56030321D01*
X206351000Y-55989341D01*
X206350999Y-55207561D01*
X206367672Y-55150776D01*
X206579933Y-55150776D01*
X206593976Y-55172628D01*
X206598527Y-55196755D01*
X206614650Y-55381045D01*
X206614651Y-55381051D01*
X206674678Y-55605074D01*
X206674681Y-55605080D01*
X206772699Y-55815281D01*
X206827665Y-55893781D01*
X207383657Y-55337789D01*
X207392447Y-55370591D01*
X207467687Y-55500909D01*
X207574091Y-55607313D01*
X207704409Y-55682553D01*
X207737210Y-55691342D01*
X207181218Y-56247333D01*
X207259718Y-56302301D01*
X207271121Y-56307618D01*
X207323560Y-56353790D01*
X207342712Y-56420984D01*
X207322496Y-56487865D01*
X207271123Y-56532381D01*
X207259716Y-56537700D01*
X207181218Y-56592664D01*
X207181217Y-56592665D01*
X207737210Y-57148657D01*
X207704409Y-57157447D01*
X207574091Y-57232687D01*
X207467687Y-57339091D01*
X207392447Y-57469409D01*
X207383657Y-57502209D01*
X206827665Y-56946217D01*
X206827664Y-56946218D01*
X206772701Y-57024715D01*
X206674681Y-57234917D01*
X206614651Y-57458948D01*
X206614650Y-57458954D01*
X206598341Y-57645367D01*
X206580540Y-57690873D01*
X206596641Y-57722334D01*
X206598341Y-57734632D01*
X206614650Y-57921045D01*
X206614651Y-57921051D01*
X206674678Y-58145074D01*
X206674681Y-58145080D01*
X206772699Y-58355281D01*
X206827665Y-58433781D01*
X207383657Y-57877789D01*
X207392447Y-57910591D01*
X207467687Y-58040909D01*
X207574091Y-58147313D01*
X207704409Y-58222553D01*
X207737210Y-58231342D01*
X207181218Y-58787333D01*
X207259718Y-58842301D01*
X207271121Y-58847618D01*
X207323560Y-58893790D01*
X207342712Y-58960984D01*
X207322496Y-59027865D01*
X207271123Y-59072381D01*
X207259716Y-59077700D01*
X207181218Y-59132664D01*
X207181217Y-59132665D01*
X207737210Y-59688657D01*
X207704409Y-59697447D01*
X207574091Y-59772687D01*
X207467687Y-59879091D01*
X207392447Y-60009409D01*
X207383657Y-60042209D01*
X206827665Y-59486217D01*
X206827664Y-59486218D01*
X206772701Y-59564715D01*
X206674681Y-59774917D01*
X206614651Y-59998948D01*
X206614650Y-59998954D01*
X206598341Y-60185367D01*
X206580540Y-60230873D01*
X206596641Y-60262334D01*
X206598341Y-60274632D01*
X206614650Y-60461045D01*
X206614651Y-60461051D01*
X206674678Y-60685074D01*
X206674681Y-60685080D01*
X206772699Y-60895281D01*
X206827665Y-60973781D01*
X207383657Y-60417789D01*
X207392447Y-60450591D01*
X207467687Y-60580909D01*
X207574091Y-60687313D01*
X207704409Y-60762553D01*
X207737210Y-60771342D01*
X207181218Y-61327333D01*
X207259718Y-61382301D01*
X207271121Y-61387618D01*
X207323560Y-61433790D01*
X207342712Y-61500984D01*
X207322496Y-61567865D01*
X207271123Y-61612381D01*
X207259716Y-61617700D01*
X207181218Y-61672664D01*
X207181217Y-61672665D01*
X207737210Y-62228657D01*
X207704409Y-62237447D01*
X207574091Y-62312687D01*
X207467687Y-62419091D01*
X207392447Y-62549409D01*
X207383657Y-62582209D01*
X206827665Y-62026217D01*
X206827664Y-62026218D01*
X206772701Y-62104715D01*
X206674681Y-62314917D01*
X206614651Y-62538948D01*
X206614650Y-62538954D01*
X206598341Y-62725367D01*
X206580540Y-62770873D01*
X206596641Y-62802334D01*
X206598341Y-62814632D01*
X206614650Y-63001045D01*
X206614651Y-63001051D01*
X206674678Y-63225074D01*
X206674681Y-63225080D01*
X206772699Y-63435281D01*
X206827665Y-63513781D01*
X207383657Y-62957789D01*
X207392447Y-62990591D01*
X207467687Y-63120909D01*
X207574091Y-63227313D01*
X207704409Y-63302553D01*
X207737210Y-63311342D01*
X207181218Y-63867333D01*
X207259718Y-63922301D01*
X207469919Y-64020318D01*
X207469925Y-64020321D01*
X207693948Y-64080348D01*
X207693955Y-64080349D01*
X207924998Y-64100563D01*
X207925002Y-64100563D01*
X208156044Y-64080349D01*
X208156051Y-64080348D01*
X208380074Y-64020321D01*
X208380085Y-64020317D01*
X208590279Y-63922302D01*
X208590283Y-63922300D01*
X208668780Y-63867333D01*
X208112789Y-63311342D01*
X208145591Y-63302553D01*
X208275909Y-63227313D01*
X208382313Y-63120909D01*
X208457553Y-62990591D01*
X208466342Y-62957789D01*
X209022333Y-63513780D01*
X209077300Y-63435283D01*
X209077302Y-63435279D01*
X209175317Y-63225085D01*
X209175321Y-63225074D01*
X209235348Y-63001051D01*
X209235349Y-63001044D01*
X209255563Y-62770001D01*
X209255563Y-62769998D01*
X209235349Y-62538955D01*
X209235348Y-62538948D01*
X209175318Y-62314917D01*
X209077300Y-62104719D01*
X209022333Y-62026217D01*
X208466341Y-62582209D01*
X208457553Y-62549409D01*
X208382313Y-62419091D01*
X208275909Y-62312687D01*
X208145591Y-62237447D01*
X208112789Y-62228657D01*
X208668781Y-61672665D01*
X208590281Y-61617699D01*
X208578879Y-61612382D01*
X208526440Y-61566210D01*
X208507288Y-61499016D01*
X208527504Y-61432135D01*
X208578882Y-61387617D01*
X208590280Y-61382301D01*
X208590283Y-61382300D01*
X208668780Y-61327333D01*
X208112789Y-60771342D01*
X208145591Y-60762553D01*
X208275909Y-60687313D01*
X208382313Y-60580909D01*
X208457553Y-60450591D01*
X208466342Y-60417789D01*
X209022333Y-60973780D01*
X209077300Y-60895283D01*
X209077302Y-60895279D01*
X209175317Y-60685085D01*
X209175321Y-60685074D01*
X209235348Y-60461051D01*
X209235349Y-60461044D01*
X209255563Y-60230001D01*
X209255563Y-60229998D01*
X209235349Y-59998955D01*
X209235348Y-59998948D01*
X209175318Y-59774917D01*
X209077300Y-59564719D01*
X209022333Y-59486217D01*
X208466341Y-60042209D01*
X208457553Y-60009409D01*
X208382313Y-59879091D01*
X208275909Y-59772687D01*
X208145591Y-59697447D01*
X208112789Y-59688657D01*
X208668781Y-59132665D01*
X208590281Y-59077699D01*
X208578879Y-59072382D01*
X208526440Y-59026210D01*
X208507288Y-58959016D01*
X208527504Y-58892135D01*
X208578882Y-58847617D01*
X208590280Y-58842301D01*
X208590283Y-58842300D01*
X208668780Y-58787333D01*
X208112789Y-58231342D01*
X208145591Y-58222553D01*
X208275909Y-58147313D01*
X208382313Y-58040909D01*
X208457553Y-57910591D01*
X208466342Y-57877789D01*
X209022333Y-58433780D01*
X209077300Y-58355283D01*
X209077302Y-58355279D01*
X209175317Y-58145085D01*
X209175321Y-58145074D01*
X209235348Y-57921051D01*
X209235349Y-57921044D01*
X209255563Y-57690001D01*
X209255563Y-57689998D01*
X209235349Y-57458955D01*
X209235348Y-57458948D01*
X209175318Y-57234917D01*
X209077300Y-57024719D01*
X209022333Y-56946217D01*
X208466341Y-57502209D01*
X208457553Y-57469409D01*
X208382313Y-57339091D01*
X208275909Y-57232687D01*
X208145591Y-57157447D01*
X208112789Y-57148657D01*
X208668781Y-56592665D01*
X208590281Y-56537699D01*
X208578879Y-56532382D01*
X208526440Y-56486210D01*
X208507288Y-56419016D01*
X208527504Y-56352135D01*
X208578882Y-56307617D01*
X208590280Y-56302301D01*
X208590283Y-56302300D01*
X208668780Y-56247333D01*
X208112789Y-55691342D01*
X208145591Y-55682553D01*
X208275909Y-55607313D01*
X208382313Y-55500909D01*
X208457553Y-55370591D01*
X208466342Y-55337789D01*
X209022333Y-55893780D01*
X209077300Y-55815283D01*
X209077302Y-55815279D01*
X209175317Y-55605085D01*
X209175321Y-55605074D01*
X209235348Y-55381051D01*
X209235349Y-55381044D01*
X209255563Y-55150001D01*
X209255563Y-55149998D01*
X209235349Y-54918955D01*
X209235348Y-54918948D01*
X209175318Y-54694917D01*
X209077300Y-54484719D01*
X209022333Y-54406217D01*
X208466341Y-54962209D01*
X208457553Y-54929409D01*
X208382313Y-54799091D01*
X208275909Y-54692687D01*
X208145591Y-54617447D01*
X208112789Y-54608657D01*
X208668781Y-54052665D01*
X208590281Y-53997699D01*
X208380080Y-53899681D01*
X208380074Y-53899678D01*
X208156051Y-53839651D01*
X208156044Y-53839650D01*
X207925002Y-53819437D01*
X207924998Y-53819437D01*
X207693955Y-53839650D01*
X207693948Y-53839651D01*
X207469917Y-53899681D01*
X207259715Y-53997701D01*
X207181218Y-54052664D01*
X207181217Y-54052665D01*
X207737210Y-54608657D01*
X207704409Y-54617447D01*
X207574091Y-54692687D01*
X207467687Y-54799091D01*
X207392447Y-54929409D01*
X207383657Y-54962209D01*
X206827665Y-54406217D01*
X206827664Y-54406218D01*
X206772701Y-54484715D01*
X206674681Y-54694917D01*
X206614651Y-54918948D01*
X206614650Y-54918954D01*
X206598527Y-55103244D01*
X206579933Y-55150776D01*
X206367672Y-55150776D01*
X206368955Y-55146406D01*
X206353430Y-55116868D01*
X206350999Y-55092436D01*
X206350999Y-54310663D01*
X206350999Y-54310660D01*
X206342849Y-54269679D01*
X206311795Y-54223205D01*
X206265321Y-54192151D01*
X206224341Y-54184000D01*
X206224339Y-54184000D01*
X204545663Y-54184000D01*
X204504679Y-54192151D01*
X204495962Y-54197976D01*
X204458205Y-54223205D01*
X204447901Y-54238624D01*
X204427151Y-54269678D01*
X204427151Y-54269679D01*
X204421452Y-54298334D01*
X204419000Y-54310660D01*
X202628937Y-54310660D01*
X202521465Y-54253215D01*
X202339367Y-54197976D01*
X202150000Y-54179326D01*
X201960632Y-54197976D01*
X201778534Y-54253215D01*
X201610727Y-54342910D01*
X201610720Y-54342914D01*
X201463629Y-54463629D01*
X201342914Y-54610720D01*
X201342910Y-54610727D01*
X201253215Y-54778534D01*
X201197976Y-54960632D01*
X201179326Y-55150000D01*
X167016600Y-55150000D01*
X166928166Y-55039107D01*
X166685893Y-54796834D01*
X166418018Y-54583211D01*
X166217653Y-54457313D01*
X166127907Y-54400922D01*
X165819216Y-54252264D01*
X165495818Y-54139103D01*
X165495816Y-54139102D01*
X165238024Y-54080262D01*
X165161783Y-54062861D01*
X165161780Y-54062860D01*
X165161768Y-54062858D01*
X164821318Y-54024500D01*
X164821312Y-54024500D01*
X164478688Y-54024500D01*
X164478681Y-54024500D01*
X164138231Y-54062858D01*
X164138217Y-54062861D01*
X163804183Y-54139102D01*
X163804181Y-54139103D01*
X163480783Y-54252264D01*
X163172092Y-54400922D01*
X162881983Y-54583210D01*
X162614107Y-54796833D01*
X162371833Y-55039107D01*
X162158210Y-55306983D01*
X161975922Y-55597092D01*
X161827264Y-55905783D01*
X161714103Y-56229181D01*
X161714102Y-56229183D01*
X161637861Y-56563217D01*
X161637860Y-56563224D01*
X161599500Y-56903681D01*
X119700499Y-56903681D01*
X119672660Y-56656593D01*
X119662140Y-56563224D01*
X119662139Y-56563222D01*
X119662139Y-56563217D01*
X119585897Y-56229183D01*
X119472736Y-55905785D01*
X119368472Y-55689279D01*
X119325477Y-55599999D01*
X126805019Y-55599999D01*
X126805019Y-55600000D01*
X126822809Y-55700890D01*
X126874030Y-55789609D01*
X126874031Y-55789610D01*
X126952509Y-55855461D01*
X127048777Y-55890500D01*
X127048779Y-55890500D01*
X127151221Y-55890500D01*
X127151223Y-55890500D01*
X127247491Y-55855461D01*
X127247492Y-55855459D01*
X127254311Y-55852978D01*
X127296722Y-55845500D01*
X128298831Y-55845500D01*
X128298833Y-55845500D01*
X128343949Y-55826812D01*
X128389062Y-55808127D01*
X128389063Y-55808125D01*
X128389065Y-55808125D01*
X129521623Y-54675564D01*
X129521626Y-54675563D01*
X129539064Y-54658125D01*
X129539065Y-54658125D01*
X129865371Y-54331819D01*
X129926694Y-54298334D01*
X129953052Y-54295500D01*
X132603278Y-54295500D01*
X132645689Y-54302978D01*
X132652507Y-54305459D01*
X132652509Y-54305461D01*
X132748777Y-54340500D01*
X132748779Y-54340500D01*
X132851221Y-54340500D01*
X132851223Y-54340500D01*
X132947491Y-54305461D01*
X133025969Y-54239610D01*
X133077191Y-54150889D01*
X133094981Y-54050000D01*
X133077191Y-53949111D01*
X133048651Y-53899678D01*
X133025969Y-53860390D01*
X132947491Y-53794539D01*
X132851223Y-53759500D01*
X132748777Y-53759500D01*
X132652510Y-53794539D01*
X132652508Y-53794540D01*
X132645690Y-53797022D01*
X132603279Y-53804500D01*
X129848832Y-53804500D01*
X129751167Y-53804500D01*
X129751165Y-53804500D01*
X129751163Y-53804501D01*
X129660937Y-53841872D01*
X129660935Y-53841874D01*
X128184629Y-55318181D01*
X128123306Y-55351666D01*
X128096948Y-55354500D01*
X127296722Y-55354500D01*
X127254311Y-55347022D01*
X127247492Y-55344540D01*
X127247491Y-55344539D01*
X127151223Y-55309500D01*
X127048777Y-55309500D01*
X126952510Y-55344539D01*
X126952509Y-55344539D01*
X126952508Y-55344540D01*
X126874032Y-55410388D01*
X126874030Y-55410391D01*
X126822809Y-55499110D01*
X126805019Y-55599999D01*
X119325477Y-55599999D01*
X119324077Y-55597092D01*
X119324076Y-55597090D01*
X119141789Y-55306982D01*
X118928166Y-55039107D01*
X118685893Y-54796834D01*
X118418018Y-54583211D01*
X118217653Y-54457313D01*
X118127907Y-54400922D01*
X117819216Y-54252264D01*
X117495818Y-54139103D01*
X117495816Y-54139102D01*
X117238024Y-54080262D01*
X117161783Y-54062861D01*
X117161780Y-54062860D01*
X117161768Y-54062858D01*
X116821318Y-54024500D01*
X116821312Y-54024500D01*
X116478688Y-54024500D01*
X116478681Y-54024500D01*
X116138231Y-54062858D01*
X116138217Y-54062861D01*
X115804183Y-54139102D01*
X115804181Y-54139103D01*
X115480783Y-54252264D01*
X115172092Y-54400922D01*
X114881983Y-54583210D01*
X114614107Y-54796833D01*
X114371833Y-55039107D01*
X114158210Y-55306983D01*
X113975922Y-55597092D01*
X113827264Y-55905783D01*
X113714103Y-56229181D01*
X113714102Y-56229183D01*
X113637861Y-56563217D01*
X113637860Y-56563224D01*
X113599500Y-56903681D01*
X112950000Y-56903681D01*
X112950000Y-53524000D01*
X112969685Y-53456961D01*
X113022489Y-53411206D01*
X113074000Y-53400000D01*
X209426000Y-53400000D01*
X209493039Y-53419685D01*
G37*
%TD.AperFunction*%
%TD*%
M02*
