%TF.GenerationSoftware,KiCad,Pcbnew,8.0.2*%
%TF.CreationDate,2024-10-21T09:55:00-04:00*%
%TF.ProjectId,Pi_Board,50695f42-6f61-4726-942e-6b696361645f,rev?*%
%TF.SameCoordinates,Original*%
%TF.FileFunction,Legend,Top*%
%TF.FilePolarity,Positive*%
%FSLAX46Y46*%
G04 Gerber Fmt 4.6, Leading zero omitted, Abs format (unit mm)*
G04 Created by KiCad (PCBNEW 8.0.2) date 2024-10-21 09:55:00*
%MOMM*%
%LPD*%
G01*
G04 APERTURE LIST*
%ADD10C,0.075000*%
%ADD11C,0.150000*%
%ADD12C,0.080000*%
%ADD13C,0.152400*%
%ADD14C,0.508000*%
%ADD15C,0.000000*%
%ADD16C,0.200000*%
%ADD17C,0.127000*%
%ADD18C,0.120000*%
G04 APERTURE END LIST*
D10*
X199827409Y-54654761D02*
X200184552Y-54654761D01*
X200184552Y-54654761D02*
X200255980Y-54678570D01*
X200255980Y-54678570D02*
X200303600Y-54726189D01*
X200303600Y-54726189D02*
X200327409Y-54797618D01*
X200327409Y-54797618D02*
X200327409Y-54845237D01*
X200327409Y-54154761D02*
X200327409Y-54440475D01*
X200327409Y-54297618D02*
X199827409Y-54297618D01*
X199827409Y-54297618D02*
X199898838Y-54345237D01*
X199898838Y-54345237D02*
X199946457Y-54392856D01*
X199946457Y-54392856D02*
X199970266Y-54440475D01*
X199875028Y-53964285D02*
X199851219Y-53940476D01*
X199851219Y-53940476D02*
X199827409Y-53892857D01*
X199827409Y-53892857D02*
X199827409Y-53773809D01*
X199827409Y-53773809D02*
X199851219Y-53726190D01*
X199851219Y-53726190D02*
X199875028Y-53702381D01*
X199875028Y-53702381D02*
X199922647Y-53678571D01*
X199922647Y-53678571D02*
X199970266Y-53678571D01*
X199970266Y-53678571D02*
X200041695Y-53702381D01*
X200041695Y-53702381D02*
X200327409Y-53988095D01*
X200327409Y-53988095D02*
X200327409Y-53678571D01*
X186516666Y-78477409D02*
X186278571Y-78477409D01*
X186278571Y-78477409D02*
X186278571Y-77977409D01*
X186659524Y-78025028D02*
X186683333Y-78001219D01*
X186683333Y-78001219D02*
X186730952Y-77977409D01*
X186730952Y-77977409D02*
X186850000Y-77977409D01*
X186850000Y-77977409D02*
X186897619Y-78001219D01*
X186897619Y-78001219D02*
X186921428Y-78025028D01*
X186921428Y-78025028D02*
X186945238Y-78072647D01*
X186945238Y-78072647D02*
X186945238Y-78120266D01*
X186945238Y-78120266D02*
X186921428Y-78191695D01*
X186921428Y-78191695D02*
X186635714Y-78477409D01*
X186635714Y-78477409D02*
X186945238Y-78477409D01*
X184622590Y-79078571D02*
X184860685Y-78911905D01*
X184622590Y-78792857D02*
X185122590Y-78792857D01*
X185122590Y-78792857D02*
X185122590Y-78983333D01*
X185122590Y-78983333D02*
X185098780Y-79030952D01*
X185098780Y-79030952D02*
X185074971Y-79054762D01*
X185074971Y-79054762D02*
X185027352Y-79078571D01*
X185027352Y-79078571D02*
X184955923Y-79078571D01*
X184955923Y-79078571D02*
X184908304Y-79054762D01*
X184908304Y-79054762D02*
X184884495Y-79030952D01*
X184884495Y-79030952D02*
X184860685Y-78983333D01*
X184860685Y-78983333D02*
X184860685Y-78792857D01*
X184622590Y-79554762D02*
X184622590Y-79269048D01*
X184622590Y-79411905D02*
X185122590Y-79411905D01*
X185122590Y-79411905D02*
X185051161Y-79364286D01*
X185051161Y-79364286D02*
X185003542Y-79316667D01*
X185003542Y-79316667D02*
X184979733Y-79269048D01*
X185122590Y-80007142D02*
X185122590Y-79769047D01*
X185122590Y-79769047D02*
X184884495Y-79745238D01*
X184884495Y-79745238D02*
X184908304Y-79769047D01*
X184908304Y-79769047D02*
X184932114Y-79816666D01*
X184932114Y-79816666D02*
X184932114Y-79935714D01*
X184932114Y-79935714D02*
X184908304Y-79983333D01*
X184908304Y-79983333D02*
X184884495Y-80007142D01*
X184884495Y-80007142D02*
X184836876Y-80030952D01*
X184836876Y-80030952D02*
X184717828Y-80030952D01*
X184717828Y-80030952D02*
X184670209Y-80007142D01*
X184670209Y-80007142D02*
X184646400Y-79983333D01*
X184646400Y-79983333D02*
X184622590Y-79935714D01*
X184622590Y-79935714D02*
X184622590Y-79816666D01*
X184622590Y-79816666D02*
X184646400Y-79769047D01*
X184646400Y-79769047D02*
X184670209Y-79745238D01*
X196628571Y-70379790D02*
X196604762Y-70403600D01*
X196604762Y-70403600D02*
X196533333Y-70427409D01*
X196533333Y-70427409D02*
X196485714Y-70427409D01*
X196485714Y-70427409D02*
X196414286Y-70403600D01*
X196414286Y-70403600D02*
X196366667Y-70355980D01*
X196366667Y-70355980D02*
X196342857Y-70308361D01*
X196342857Y-70308361D02*
X196319048Y-70213123D01*
X196319048Y-70213123D02*
X196319048Y-70141695D01*
X196319048Y-70141695D02*
X196342857Y-70046457D01*
X196342857Y-70046457D02*
X196366667Y-69998838D01*
X196366667Y-69998838D02*
X196414286Y-69951219D01*
X196414286Y-69951219D02*
X196485714Y-69927409D01*
X196485714Y-69927409D02*
X196533333Y-69927409D01*
X196533333Y-69927409D02*
X196604762Y-69951219D01*
X196604762Y-69951219D02*
X196628571Y-69975028D01*
X197104762Y-70427409D02*
X196819048Y-70427409D01*
X196961905Y-70427409D02*
X196961905Y-69927409D01*
X196961905Y-69927409D02*
X196914286Y-69998838D01*
X196914286Y-69998838D02*
X196866667Y-70046457D01*
X196866667Y-70046457D02*
X196819048Y-70070266D01*
X197295238Y-69975028D02*
X197319047Y-69951219D01*
X197319047Y-69951219D02*
X197366666Y-69927409D01*
X197366666Y-69927409D02*
X197485714Y-69927409D01*
X197485714Y-69927409D02*
X197533333Y-69951219D01*
X197533333Y-69951219D02*
X197557142Y-69975028D01*
X197557142Y-69975028D02*
X197580952Y-70022647D01*
X197580952Y-70022647D02*
X197580952Y-70070266D01*
X197580952Y-70070266D02*
X197557142Y-70141695D01*
X197557142Y-70141695D02*
X197271428Y-70427409D01*
X197271428Y-70427409D02*
X197580952Y-70427409D01*
X183422590Y-79078571D02*
X183660685Y-78911905D01*
X183422590Y-78792857D02*
X183922590Y-78792857D01*
X183922590Y-78792857D02*
X183922590Y-78983333D01*
X183922590Y-78983333D02*
X183898780Y-79030952D01*
X183898780Y-79030952D02*
X183874971Y-79054762D01*
X183874971Y-79054762D02*
X183827352Y-79078571D01*
X183827352Y-79078571D02*
X183755923Y-79078571D01*
X183755923Y-79078571D02*
X183708304Y-79054762D01*
X183708304Y-79054762D02*
X183684495Y-79030952D01*
X183684495Y-79030952D02*
X183660685Y-78983333D01*
X183660685Y-78983333D02*
X183660685Y-78792857D01*
X183874971Y-79269048D02*
X183898780Y-79292857D01*
X183898780Y-79292857D02*
X183922590Y-79340476D01*
X183922590Y-79340476D02*
X183922590Y-79459524D01*
X183922590Y-79459524D02*
X183898780Y-79507143D01*
X183898780Y-79507143D02*
X183874971Y-79530952D01*
X183874971Y-79530952D02*
X183827352Y-79554762D01*
X183827352Y-79554762D02*
X183779733Y-79554762D01*
X183779733Y-79554762D02*
X183708304Y-79530952D01*
X183708304Y-79530952D02*
X183422590Y-79245238D01*
X183422590Y-79245238D02*
X183422590Y-79554762D01*
X183422590Y-80030952D02*
X183422590Y-79745238D01*
X183422590Y-79888095D02*
X183922590Y-79888095D01*
X183922590Y-79888095D02*
X183851161Y-79840476D01*
X183851161Y-79840476D02*
X183803542Y-79792857D01*
X183803542Y-79792857D02*
X183779733Y-79745238D01*
X187819047Y-70977409D02*
X187819047Y-71382171D01*
X187819047Y-71382171D02*
X187842857Y-71429790D01*
X187842857Y-71429790D02*
X187866666Y-71453600D01*
X187866666Y-71453600D02*
X187914285Y-71477409D01*
X187914285Y-71477409D02*
X188009523Y-71477409D01*
X188009523Y-71477409D02*
X188057142Y-71453600D01*
X188057142Y-71453600D02*
X188080952Y-71429790D01*
X188080952Y-71429790D02*
X188104761Y-71382171D01*
X188104761Y-71382171D02*
X188104761Y-70977409D01*
X188319048Y-71025028D02*
X188342857Y-71001219D01*
X188342857Y-71001219D02*
X188390476Y-70977409D01*
X188390476Y-70977409D02*
X188509524Y-70977409D01*
X188509524Y-70977409D02*
X188557143Y-71001219D01*
X188557143Y-71001219D02*
X188580952Y-71025028D01*
X188580952Y-71025028D02*
X188604762Y-71072647D01*
X188604762Y-71072647D02*
X188604762Y-71120266D01*
X188604762Y-71120266D02*
X188580952Y-71191695D01*
X188580952Y-71191695D02*
X188295238Y-71477409D01*
X188295238Y-71477409D02*
X188604762Y-71477409D01*
D11*
X188972500Y-70331219D02*
X188972500Y-70569314D01*
X188734405Y-70474076D02*
X188972500Y-70569314D01*
X188972500Y-70569314D02*
X189210595Y-70474076D01*
X188829643Y-70759790D02*
X188972500Y-70569314D01*
X188972500Y-70569314D02*
X189115357Y-70759790D01*
X188972500Y-70331219D02*
X188972500Y-70569314D01*
X188734405Y-70474076D02*
X188972500Y-70569314D01*
X188972500Y-70569314D02*
X189210595Y-70474076D01*
X188829643Y-70759790D02*
X188972500Y-70569314D01*
X188972500Y-70569314D02*
X189115357Y-70759790D01*
D10*
X181145890Y-85478571D02*
X181383985Y-85311905D01*
X181145890Y-85192857D02*
X181645890Y-85192857D01*
X181645890Y-85192857D02*
X181645890Y-85383333D01*
X181645890Y-85383333D02*
X181622080Y-85430952D01*
X181622080Y-85430952D02*
X181598271Y-85454762D01*
X181598271Y-85454762D02*
X181550652Y-85478571D01*
X181550652Y-85478571D02*
X181479223Y-85478571D01*
X181479223Y-85478571D02*
X181431604Y-85454762D01*
X181431604Y-85454762D02*
X181407795Y-85430952D01*
X181407795Y-85430952D02*
X181383985Y-85383333D01*
X181383985Y-85383333D02*
X181383985Y-85192857D01*
X181145890Y-85954762D02*
X181145890Y-85669048D01*
X181145890Y-85811905D02*
X181645890Y-85811905D01*
X181645890Y-85811905D02*
X181574461Y-85764286D01*
X181574461Y-85764286D02*
X181526842Y-85716667D01*
X181526842Y-85716667D02*
X181503033Y-85669048D01*
X181645890Y-86121428D02*
X181645890Y-86430952D01*
X181645890Y-86430952D02*
X181455414Y-86264285D01*
X181455414Y-86264285D02*
X181455414Y-86335714D01*
X181455414Y-86335714D02*
X181431604Y-86383333D01*
X181431604Y-86383333D02*
X181407795Y-86407142D01*
X181407795Y-86407142D02*
X181360176Y-86430952D01*
X181360176Y-86430952D02*
X181241128Y-86430952D01*
X181241128Y-86430952D02*
X181193509Y-86407142D01*
X181193509Y-86407142D02*
X181169700Y-86383333D01*
X181169700Y-86383333D02*
X181145890Y-86335714D01*
X181145890Y-86335714D02*
X181145890Y-86192857D01*
X181145890Y-86192857D02*
X181169700Y-86145238D01*
X181169700Y-86145238D02*
X181193509Y-86121428D01*
X175585890Y-66873747D02*
X175181128Y-66873747D01*
X175181128Y-66873747D02*
X175133509Y-66897557D01*
X175133509Y-66897557D02*
X175109700Y-66921366D01*
X175109700Y-66921366D02*
X175085890Y-66968985D01*
X175085890Y-66968985D02*
X175085890Y-67064223D01*
X175085890Y-67064223D02*
X175109700Y-67111842D01*
X175109700Y-67111842D02*
X175133509Y-67135652D01*
X175133509Y-67135652D02*
X175181128Y-67159461D01*
X175181128Y-67159461D02*
X175585890Y-67159461D01*
X175585890Y-67635652D02*
X175585890Y-67397557D01*
X175585890Y-67397557D02*
X175347795Y-67373748D01*
X175347795Y-67373748D02*
X175371604Y-67397557D01*
X175371604Y-67397557D02*
X175395414Y-67445176D01*
X175395414Y-67445176D02*
X175395414Y-67564224D01*
X175395414Y-67564224D02*
X175371604Y-67611843D01*
X175371604Y-67611843D02*
X175347795Y-67635652D01*
X175347795Y-67635652D02*
X175300176Y-67659462D01*
X175300176Y-67659462D02*
X175181128Y-67659462D01*
X175181128Y-67659462D02*
X175133509Y-67635652D01*
X175133509Y-67635652D02*
X175109700Y-67611843D01*
X175109700Y-67611843D02*
X175085890Y-67564224D01*
X175085890Y-67564224D02*
X175085890Y-67445176D01*
X175085890Y-67445176D02*
X175109700Y-67397557D01*
X175109700Y-67397557D02*
X175133509Y-67373748D01*
D11*
X178374919Y-64320999D02*
X178613014Y-64320999D01*
X178517776Y-64559094D02*
X178613014Y-64320999D01*
X178613014Y-64320999D02*
X178517776Y-64082904D01*
X178803490Y-64463856D02*
X178613014Y-64320999D01*
X178613014Y-64320999D02*
X178803490Y-64178142D01*
X179465280Y-64321000D02*
X179227185Y-64321000D01*
X179322423Y-64082905D02*
X179227185Y-64321000D01*
X179227185Y-64321000D02*
X179322423Y-64559095D01*
X179036709Y-64178143D02*
X179227185Y-64321000D01*
X179227185Y-64321000D02*
X179036709Y-64463857D01*
D10*
X195966666Y-85727409D02*
X195800000Y-85489314D01*
X195680952Y-85727409D02*
X195680952Y-85227409D01*
X195680952Y-85227409D02*
X195871428Y-85227409D01*
X195871428Y-85227409D02*
X195919047Y-85251219D01*
X195919047Y-85251219D02*
X195942857Y-85275028D01*
X195942857Y-85275028D02*
X195966666Y-85322647D01*
X195966666Y-85322647D02*
X195966666Y-85394076D01*
X195966666Y-85394076D02*
X195942857Y-85441695D01*
X195942857Y-85441695D02*
X195919047Y-85465504D01*
X195919047Y-85465504D02*
X195871428Y-85489314D01*
X195871428Y-85489314D02*
X195680952Y-85489314D01*
X196395238Y-85227409D02*
X196300000Y-85227409D01*
X196300000Y-85227409D02*
X196252381Y-85251219D01*
X196252381Y-85251219D02*
X196228571Y-85275028D01*
X196228571Y-85275028D02*
X196180952Y-85346457D01*
X196180952Y-85346457D02*
X196157143Y-85441695D01*
X196157143Y-85441695D02*
X196157143Y-85632171D01*
X196157143Y-85632171D02*
X196180952Y-85679790D01*
X196180952Y-85679790D02*
X196204762Y-85703600D01*
X196204762Y-85703600D02*
X196252381Y-85727409D01*
X196252381Y-85727409D02*
X196347619Y-85727409D01*
X196347619Y-85727409D02*
X196395238Y-85703600D01*
X196395238Y-85703600D02*
X196419047Y-85679790D01*
X196419047Y-85679790D02*
X196442857Y-85632171D01*
X196442857Y-85632171D02*
X196442857Y-85513123D01*
X196442857Y-85513123D02*
X196419047Y-85465504D01*
X196419047Y-85465504D02*
X196395238Y-85441695D01*
X196395238Y-85441695D02*
X196347619Y-85417885D01*
X196347619Y-85417885D02*
X196252381Y-85417885D01*
X196252381Y-85417885D02*
X196204762Y-85441695D01*
X196204762Y-85441695D02*
X196180952Y-85465504D01*
X196180952Y-85465504D02*
X196157143Y-85513123D01*
X182320891Y-85528571D02*
X182558986Y-85361905D01*
X182320891Y-85242857D02*
X182820891Y-85242857D01*
X182820891Y-85242857D02*
X182820891Y-85433333D01*
X182820891Y-85433333D02*
X182797081Y-85480952D01*
X182797081Y-85480952D02*
X182773272Y-85504762D01*
X182773272Y-85504762D02*
X182725653Y-85528571D01*
X182725653Y-85528571D02*
X182654224Y-85528571D01*
X182654224Y-85528571D02*
X182606605Y-85504762D01*
X182606605Y-85504762D02*
X182582796Y-85480952D01*
X182582796Y-85480952D02*
X182558986Y-85433333D01*
X182558986Y-85433333D02*
X182558986Y-85242857D01*
X182320891Y-86004762D02*
X182320891Y-85719048D01*
X182320891Y-85861905D02*
X182820891Y-85861905D01*
X182820891Y-85861905D02*
X182749462Y-85814286D01*
X182749462Y-85814286D02*
X182701843Y-85766667D01*
X182701843Y-85766667D02*
X182678034Y-85719048D01*
X182820891Y-86171428D02*
X182820891Y-86504761D01*
X182820891Y-86504761D02*
X182320891Y-86290476D01*
X180120209Y-66166666D02*
X180096400Y-66142857D01*
X180096400Y-66142857D02*
X180072590Y-66071428D01*
X180072590Y-66071428D02*
X180072590Y-66023809D01*
X180072590Y-66023809D02*
X180096400Y-65952381D01*
X180096400Y-65952381D02*
X180144019Y-65904762D01*
X180144019Y-65904762D02*
X180191638Y-65880952D01*
X180191638Y-65880952D02*
X180286876Y-65857143D01*
X180286876Y-65857143D02*
X180358304Y-65857143D01*
X180358304Y-65857143D02*
X180453542Y-65880952D01*
X180453542Y-65880952D02*
X180501161Y-65904762D01*
X180501161Y-65904762D02*
X180548780Y-65952381D01*
X180548780Y-65952381D02*
X180572590Y-66023809D01*
X180572590Y-66023809D02*
X180572590Y-66071428D01*
X180572590Y-66071428D02*
X180548780Y-66142857D01*
X180548780Y-66142857D02*
X180524971Y-66166666D01*
X180572590Y-66619047D02*
X180572590Y-66380952D01*
X180572590Y-66380952D02*
X180334495Y-66357143D01*
X180334495Y-66357143D02*
X180358304Y-66380952D01*
X180358304Y-66380952D02*
X180382114Y-66428571D01*
X180382114Y-66428571D02*
X180382114Y-66547619D01*
X180382114Y-66547619D02*
X180358304Y-66595238D01*
X180358304Y-66595238D02*
X180334495Y-66619047D01*
X180334495Y-66619047D02*
X180286876Y-66642857D01*
X180286876Y-66642857D02*
X180167828Y-66642857D01*
X180167828Y-66642857D02*
X180120209Y-66619047D01*
X180120209Y-66619047D02*
X180096400Y-66595238D01*
X180096400Y-66595238D02*
X180072590Y-66547619D01*
X180072590Y-66547619D02*
X180072590Y-66428571D01*
X180072590Y-66428571D02*
X180096400Y-66380952D01*
X180096400Y-66380952D02*
X180120209Y-66357143D01*
X206927590Y-80638333D02*
X206570447Y-80638333D01*
X206570447Y-80638333D02*
X206499019Y-80614524D01*
X206499019Y-80614524D02*
X206451400Y-80566905D01*
X206451400Y-80566905D02*
X206427590Y-80495476D01*
X206427590Y-80495476D02*
X206427590Y-80447857D01*
X206713304Y-80947857D02*
X206737114Y-80900238D01*
X206737114Y-80900238D02*
X206760923Y-80876428D01*
X206760923Y-80876428D02*
X206808542Y-80852619D01*
X206808542Y-80852619D02*
X206832352Y-80852619D01*
X206832352Y-80852619D02*
X206879971Y-80876428D01*
X206879971Y-80876428D02*
X206903780Y-80900238D01*
X206903780Y-80900238D02*
X206927590Y-80947857D01*
X206927590Y-80947857D02*
X206927590Y-81043095D01*
X206927590Y-81043095D02*
X206903780Y-81090714D01*
X206903780Y-81090714D02*
X206879971Y-81114523D01*
X206879971Y-81114523D02*
X206832352Y-81138333D01*
X206832352Y-81138333D02*
X206808542Y-81138333D01*
X206808542Y-81138333D02*
X206760923Y-81114523D01*
X206760923Y-81114523D02*
X206737114Y-81090714D01*
X206737114Y-81090714D02*
X206713304Y-81043095D01*
X206713304Y-81043095D02*
X206713304Y-80947857D01*
X206713304Y-80947857D02*
X206689495Y-80900238D01*
X206689495Y-80900238D02*
X206665685Y-80876428D01*
X206665685Y-80876428D02*
X206618066Y-80852619D01*
X206618066Y-80852619D02*
X206522828Y-80852619D01*
X206522828Y-80852619D02*
X206475209Y-80876428D01*
X206475209Y-80876428D02*
X206451400Y-80900238D01*
X206451400Y-80900238D02*
X206427590Y-80947857D01*
X206427590Y-80947857D02*
X206427590Y-81043095D01*
X206427590Y-81043095D02*
X206451400Y-81090714D01*
X206451400Y-81090714D02*
X206475209Y-81114523D01*
X206475209Y-81114523D02*
X206522828Y-81138333D01*
X206522828Y-81138333D02*
X206618066Y-81138333D01*
X206618066Y-81138333D02*
X206665685Y-81114523D01*
X206665685Y-81114523D02*
X206689495Y-81090714D01*
X206689495Y-81090714D02*
X206713304Y-81043095D01*
X181072590Y-79078571D02*
X181310685Y-78911905D01*
X181072590Y-78792857D02*
X181572590Y-78792857D01*
X181572590Y-78792857D02*
X181572590Y-78983333D01*
X181572590Y-78983333D02*
X181548780Y-79030952D01*
X181548780Y-79030952D02*
X181524971Y-79054762D01*
X181524971Y-79054762D02*
X181477352Y-79078571D01*
X181477352Y-79078571D02*
X181405923Y-79078571D01*
X181405923Y-79078571D02*
X181358304Y-79054762D01*
X181358304Y-79054762D02*
X181334495Y-79030952D01*
X181334495Y-79030952D02*
X181310685Y-78983333D01*
X181310685Y-78983333D02*
X181310685Y-78792857D01*
X181072590Y-79554762D02*
X181072590Y-79269048D01*
X181072590Y-79411905D02*
X181572590Y-79411905D01*
X181572590Y-79411905D02*
X181501161Y-79364286D01*
X181501161Y-79364286D02*
X181453542Y-79316667D01*
X181453542Y-79316667D02*
X181429733Y-79269048D01*
X181572590Y-79983333D02*
X181572590Y-79888095D01*
X181572590Y-79888095D02*
X181548780Y-79840476D01*
X181548780Y-79840476D02*
X181524971Y-79816666D01*
X181524971Y-79816666D02*
X181453542Y-79769047D01*
X181453542Y-79769047D02*
X181358304Y-79745238D01*
X181358304Y-79745238D02*
X181167828Y-79745238D01*
X181167828Y-79745238D02*
X181120209Y-79769047D01*
X181120209Y-79769047D02*
X181096400Y-79792857D01*
X181096400Y-79792857D02*
X181072590Y-79840476D01*
X181072590Y-79840476D02*
X181072590Y-79935714D01*
X181072590Y-79935714D02*
X181096400Y-79983333D01*
X181096400Y-79983333D02*
X181120209Y-80007142D01*
X181120209Y-80007142D02*
X181167828Y-80030952D01*
X181167828Y-80030952D02*
X181286876Y-80030952D01*
X181286876Y-80030952D02*
X181334495Y-80007142D01*
X181334495Y-80007142D02*
X181358304Y-79983333D01*
X181358304Y-79983333D02*
X181382114Y-79935714D01*
X181382114Y-79935714D02*
X181382114Y-79840476D01*
X181382114Y-79840476D02*
X181358304Y-79792857D01*
X181358304Y-79792857D02*
X181334495Y-79769047D01*
X181334495Y-79769047D02*
X181286876Y-79745238D01*
X183472590Y-85528571D02*
X183710685Y-85361905D01*
X183472590Y-85242857D02*
X183972590Y-85242857D01*
X183972590Y-85242857D02*
X183972590Y-85433333D01*
X183972590Y-85433333D02*
X183948780Y-85480952D01*
X183948780Y-85480952D02*
X183924971Y-85504762D01*
X183924971Y-85504762D02*
X183877352Y-85528571D01*
X183877352Y-85528571D02*
X183805923Y-85528571D01*
X183805923Y-85528571D02*
X183758304Y-85504762D01*
X183758304Y-85504762D02*
X183734495Y-85480952D01*
X183734495Y-85480952D02*
X183710685Y-85433333D01*
X183710685Y-85433333D02*
X183710685Y-85242857D01*
X183472590Y-86004762D02*
X183472590Y-85719048D01*
X183472590Y-85861905D02*
X183972590Y-85861905D01*
X183972590Y-85861905D02*
X183901161Y-85814286D01*
X183901161Y-85814286D02*
X183853542Y-85766667D01*
X183853542Y-85766667D02*
X183829733Y-85719048D01*
X183758304Y-86290476D02*
X183782114Y-86242857D01*
X183782114Y-86242857D02*
X183805923Y-86219047D01*
X183805923Y-86219047D02*
X183853542Y-86195238D01*
X183853542Y-86195238D02*
X183877352Y-86195238D01*
X183877352Y-86195238D02*
X183924971Y-86219047D01*
X183924971Y-86219047D02*
X183948780Y-86242857D01*
X183948780Y-86242857D02*
X183972590Y-86290476D01*
X183972590Y-86290476D02*
X183972590Y-86385714D01*
X183972590Y-86385714D02*
X183948780Y-86433333D01*
X183948780Y-86433333D02*
X183924971Y-86457142D01*
X183924971Y-86457142D02*
X183877352Y-86480952D01*
X183877352Y-86480952D02*
X183853542Y-86480952D01*
X183853542Y-86480952D02*
X183805923Y-86457142D01*
X183805923Y-86457142D02*
X183782114Y-86433333D01*
X183782114Y-86433333D02*
X183758304Y-86385714D01*
X183758304Y-86385714D02*
X183758304Y-86290476D01*
X183758304Y-86290476D02*
X183734495Y-86242857D01*
X183734495Y-86242857D02*
X183710685Y-86219047D01*
X183710685Y-86219047D02*
X183663066Y-86195238D01*
X183663066Y-86195238D02*
X183567828Y-86195238D01*
X183567828Y-86195238D02*
X183520209Y-86219047D01*
X183520209Y-86219047D02*
X183496400Y-86242857D01*
X183496400Y-86242857D02*
X183472590Y-86290476D01*
X183472590Y-86290476D02*
X183472590Y-86385714D01*
X183472590Y-86385714D02*
X183496400Y-86433333D01*
X183496400Y-86433333D02*
X183520209Y-86457142D01*
X183520209Y-86457142D02*
X183567828Y-86480952D01*
X183567828Y-86480952D02*
X183663066Y-86480952D01*
X183663066Y-86480952D02*
X183710685Y-86457142D01*
X183710685Y-86457142D02*
X183734495Y-86433333D01*
X183734495Y-86433333D02*
X183758304Y-86385714D01*
D12*
X168878571Y-70027149D02*
X168711905Y-69789054D01*
X168592857Y-70027149D02*
X168592857Y-69527149D01*
X168592857Y-69527149D02*
X168783333Y-69527149D01*
X168783333Y-69527149D02*
X168830952Y-69550959D01*
X168830952Y-69550959D02*
X168854762Y-69574768D01*
X168854762Y-69574768D02*
X168878571Y-69622387D01*
X168878571Y-69622387D02*
X168878571Y-69693816D01*
X168878571Y-69693816D02*
X168854762Y-69741435D01*
X168854762Y-69741435D02*
X168830952Y-69765244D01*
X168830952Y-69765244D02*
X168783333Y-69789054D01*
X168783333Y-69789054D02*
X168592857Y-69789054D01*
X169354762Y-70027149D02*
X169069048Y-70027149D01*
X169211905Y-70027149D02*
X169211905Y-69527149D01*
X169211905Y-69527149D02*
X169164286Y-69598578D01*
X169164286Y-69598578D02*
X169116667Y-69646197D01*
X169116667Y-69646197D02*
X169069048Y-69670006D01*
X169545238Y-69574768D02*
X169569047Y-69550959D01*
X169569047Y-69550959D02*
X169616666Y-69527149D01*
X169616666Y-69527149D02*
X169735714Y-69527149D01*
X169735714Y-69527149D02*
X169783333Y-69550959D01*
X169783333Y-69550959D02*
X169807142Y-69574768D01*
X169807142Y-69574768D02*
X169830952Y-69622387D01*
X169830952Y-69622387D02*
X169830952Y-69670006D01*
X169830952Y-69670006D02*
X169807142Y-69741435D01*
X169807142Y-69741435D02*
X169521428Y-70027149D01*
X169521428Y-70027149D02*
X169830952Y-70027149D01*
D10*
X191966666Y-85627409D02*
X191800000Y-85389314D01*
X191680952Y-85627409D02*
X191680952Y-85127409D01*
X191680952Y-85127409D02*
X191871428Y-85127409D01*
X191871428Y-85127409D02*
X191919047Y-85151219D01*
X191919047Y-85151219D02*
X191942857Y-85175028D01*
X191942857Y-85175028D02*
X191966666Y-85222647D01*
X191966666Y-85222647D02*
X191966666Y-85294076D01*
X191966666Y-85294076D02*
X191942857Y-85341695D01*
X191942857Y-85341695D02*
X191919047Y-85365504D01*
X191919047Y-85365504D02*
X191871428Y-85389314D01*
X191871428Y-85389314D02*
X191680952Y-85389314D01*
X192157143Y-85175028D02*
X192180952Y-85151219D01*
X192180952Y-85151219D02*
X192228571Y-85127409D01*
X192228571Y-85127409D02*
X192347619Y-85127409D01*
X192347619Y-85127409D02*
X192395238Y-85151219D01*
X192395238Y-85151219D02*
X192419047Y-85175028D01*
X192419047Y-85175028D02*
X192442857Y-85222647D01*
X192442857Y-85222647D02*
X192442857Y-85270266D01*
X192442857Y-85270266D02*
X192419047Y-85341695D01*
X192419047Y-85341695D02*
X192133333Y-85627409D01*
X192133333Y-85627409D02*
X192442857Y-85627409D01*
X200522590Y-91145238D02*
X200165447Y-91145238D01*
X200165447Y-91145238D02*
X200094019Y-91121429D01*
X200094019Y-91121429D02*
X200046400Y-91073810D01*
X200046400Y-91073810D02*
X200022590Y-91002381D01*
X200022590Y-91002381D02*
X200022590Y-90954762D01*
X200022590Y-91645238D02*
X200022590Y-91359524D01*
X200022590Y-91502381D02*
X200522590Y-91502381D01*
X200522590Y-91502381D02*
X200451161Y-91454762D01*
X200451161Y-91454762D02*
X200403542Y-91407143D01*
X200403542Y-91407143D02*
X200379733Y-91359524D01*
X200522590Y-91954761D02*
X200522590Y-92002380D01*
X200522590Y-92002380D02*
X200498780Y-92049999D01*
X200498780Y-92049999D02*
X200474971Y-92073809D01*
X200474971Y-92073809D02*
X200427352Y-92097618D01*
X200427352Y-92097618D02*
X200332114Y-92121428D01*
X200332114Y-92121428D02*
X200213066Y-92121428D01*
X200213066Y-92121428D02*
X200117828Y-92097618D01*
X200117828Y-92097618D02*
X200070209Y-92073809D01*
X200070209Y-92073809D02*
X200046400Y-92049999D01*
X200046400Y-92049999D02*
X200022590Y-92002380D01*
X200022590Y-92002380D02*
X200022590Y-91954761D01*
X200022590Y-91954761D02*
X200046400Y-91907142D01*
X200046400Y-91907142D02*
X200070209Y-91883333D01*
X200070209Y-91883333D02*
X200117828Y-91859523D01*
X200117828Y-91859523D02*
X200213066Y-91835714D01*
X200213066Y-91835714D02*
X200332114Y-91835714D01*
X200332114Y-91835714D02*
X200427352Y-91859523D01*
X200427352Y-91859523D02*
X200474971Y-91883333D01*
X200474971Y-91883333D02*
X200498780Y-91907142D01*
X200498780Y-91907142D02*
X200522590Y-91954761D01*
X180022590Y-85528571D02*
X180260685Y-85361905D01*
X180022590Y-85242857D02*
X180522590Y-85242857D01*
X180522590Y-85242857D02*
X180522590Y-85433333D01*
X180522590Y-85433333D02*
X180498780Y-85480952D01*
X180498780Y-85480952D02*
X180474971Y-85504762D01*
X180474971Y-85504762D02*
X180427352Y-85528571D01*
X180427352Y-85528571D02*
X180355923Y-85528571D01*
X180355923Y-85528571D02*
X180308304Y-85504762D01*
X180308304Y-85504762D02*
X180284495Y-85480952D01*
X180284495Y-85480952D02*
X180260685Y-85433333D01*
X180260685Y-85433333D02*
X180260685Y-85242857D01*
X180022590Y-86004762D02*
X180022590Y-85719048D01*
X180022590Y-85861905D02*
X180522590Y-85861905D01*
X180522590Y-85861905D02*
X180451161Y-85814286D01*
X180451161Y-85814286D02*
X180403542Y-85766667D01*
X180403542Y-85766667D02*
X180379733Y-85719048D01*
X180355923Y-86433333D02*
X180022590Y-86433333D01*
X180546400Y-86314285D02*
X180189257Y-86195238D01*
X180189257Y-86195238D02*
X180189257Y-86504761D01*
X173561905Y-81127409D02*
X173561905Y-80627409D01*
X174085714Y-81079790D02*
X174061905Y-81103600D01*
X174061905Y-81103600D02*
X173990476Y-81127409D01*
X173990476Y-81127409D02*
X173942857Y-81127409D01*
X173942857Y-81127409D02*
X173871429Y-81103600D01*
X173871429Y-81103600D02*
X173823810Y-81055980D01*
X173823810Y-81055980D02*
X173800000Y-81008361D01*
X173800000Y-81008361D02*
X173776191Y-80913123D01*
X173776191Y-80913123D02*
X173776191Y-80841695D01*
X173776191Y-80841695D02*
X173800000Y-80746457D01*
X173800000Y-80746457D02*
X173823810Y-80698838D01*
X173823810Y-80698838D02*
X173871429Y-80651219D01*
X173871429Y-80651219D02*
X173942857Y-80627409D01*
X173942857Y-80627409D02*
X173990476Y-80627409D01*
X173990476Y-80627409D02*
X174061905Y-80651219D01*
X174061905Y-80651219D02*
X174085714Y-80675028D01*
X174561905Y-81127409D02*
X174276191Y-81127409D01*
X174419048Y-81127409D02*
X174419048Y-80627409D01*
X174419048Y-80627409D02*
X174371429Y-80698838D01*
X174371429Y-80698838D02*
X174323810Y-80746457D01*
X174323810Y-80746457D02*
X174276191Y-80770266D01*
X176729790Y-80271428D02*
X176753600Y-80295237D01*
X176753600Y-80295237D02*
X176777409Y-80366666D01*
X176777409Y-80366666D02*
X176777409Y-80414285D01*
X176777409Y-80414285D02*
X176753600Y-80485713D01*
X176753600Y-80485713D02*
X176705980Y-80533332D01*
X176705980Y-80533332D02*
X176658361Y-80557142D01*
X176658361Y-80557142D02*
X176563123Y-80580951D01*
X176563123Y-80580951D02*
X176491695Y-80580951D01*
X176491695Y-80580951D02*
X176396457Y-80557142D01*
X176396457Y-80557142D02*
X176348838Y-80533332D01*
X176348838Y-80533332D02*
X176301219Y-80485713D01*
X176301219Y-80485713D02*
X176277409Y-80414285D01*
X176277409Y-80414285D02*
X176277409Y-80366666D01*
X176277409Y-80366666D02*
X176301219Y-80295237D01*
X176301219Y-80295237D02*
X176325028Y-80271428D01*
X176777409Y-79795237D02*
X176777409Y-80080951D01*
X176777409Y-79938094D02*
X176277409Y-79938094D01*
X176277409Y-79938094D02*
X176348838Y-79985713D01*
X176348838Y-79985713D02*
X176396457Y-80033332D01*
X176396457Y-80033332D02*
X176420266Y-80080951D01*
X176777409Y-79319047D02*
X176777409Y-79604761D01*
X176777409Y-79461904D02*
X176277409Y-79461904D01*
X176277409Y-79461904D02*
X176348838Y-79509523D01*
X176348838Y-79509523D02*
X176396457Y-79557142D01*
X176396457Y-79557142D02*
X176420266Y-79604761D01*
D12*
X169816666Y-73777149D02*
X169650000Y-73539054D01*
X169530952Y-73777149D02*
X169530952Y-73277149D01*
X169530952Y-73277149D02*
X169721428Y-73277149D01*
X169721428Y-73277149D02*
X169769047Y-73300959D01*
X169769047Y-73300959D02*
X169792857Y-73324768D01*
X169792857Y-73324768D02*
X169816666Y-73372387D01*
X169816666Y-73372387D02*
X169816666Y-73443816D01*
X169816666Y-73443816D02*
X169792857Y-73491435D01*
X169792857Y-73491435D02*
X169769047Y-73515244D01*
X169769047Y-73515244D02*
X169721428Y-73539054D01*
X169721428Y-73539054D02*
X169530952Y-73539054D01*
X170245238Y-73443816D02*
X170245238Y-73777149D01*
X170126190Y-73253340D02*
X170007143Y-73610482D01*
X170007143Y-73610482D02*
X170316666Y-73610482D01*
D10*
X206927590Y-58793333D02*
X206570447Y-58793333D01*
X206570447Y-58793333D02*
X206499019Y-58769524D01*
X206499019Y-58769524D02*
X206451400Y-58721905D01*
X206451400Y-58721905D02*
X206427590Y-58650476D01*
X206427590Y-58650476D02*
X206427590Y-58602857D01*
X206927590Y-58983809D02*
X206927590Y-59293333D01*
X206927590Y-59293333D02*
X206737114Y-59126666D01*
X206737114Y-59126666D02*
X206737114Y-59198095D01*
X206737114Y-59198095D02*
X206713304Y-59245714D01*
X206713304Y-59245714D02*
X206689495Y-59269523D01*
X206689495Y-59269523D02*
X206641876Y-59293333D01*
X206641876Y-59293333D02*
X206522828Y-59293333D01*
X206522828Y-59293333D02*
X206475209Y-59269523D01*
X206475209Y-59269523D02*
X206451400Y-59245714D01*
X206451400Y-59245714D02*
X206427590Y-59198095D01*
X206427590Y-59198095D02*
X206427590Y-59055238D01*
X206427590Y-59055238D02*
X206451400Y-59007619D01*
X206451400Y-59007619D02*
X206475209Y-58983809D01*
X173477409Y-73264233D02*
X173239314Y-73430899D01*
X173477409Y-73549947D02*
X172977409Y-73549947D01*
X172977409Y-73549947D02*
X172977409Y-73359471D01*
X172977409Y-73359471D02*
X173001219Y-73311852D01*
X173001219Y-73311852D02*
X173025028Y-73288042D01*
X173025028Y-73288042D02*
X173072647Y-73264233D01*
X173072647Y-73264233D02*
X173144076Y-73264233D01*
X173144076Y-73264233D02*
X173191695Y-73288042D01*
X173191695Y-73288042D02*
X173215504Y-73311852D01*
X173215504Y-73311852D02*
X173239314Y-73359471D01*
X173239314Y-73359471D02*
X173239314Y-73549947D01*
X172977409Y-73097566D02*
X172977409Y-72788042D01*
X172977409Y-72788042D02*
X173167885Y-72954709D01*
X173167885Y-72954709D02*
X173167885Y-72883280D01*
X173167885Y-72883280D02*
X173191695Y-72835661D01*
X173191695Y-72835661D02*
X173215504Y-72811852D01*
X173215504Y-72811852D02*
X173263123Y-72788042D01*
X173263123Y-72788042D02*
X173382171Y-72788042D01*
X173382171Y-72788042D02*
X173429790Y-72811852D01*
X173429790Y-72811852D02*
X173453600Y-72835661D01*
X173453600Y-72835661D02*
X173477409Y-72883280D01*
X173477409Y-72883280D02*
X173477409Y-73026137D01*
X173477409Y-73026137D02*
X173453600Y-73073756D01*
X173453600Y-73073756D02*
X173429790Y-73097566D01*
D12*
X175766666Y-60879530D02*
X175742857Y-60903340D01*
X175742857Y-60903340D02*
X175671428Y-60927149D01*
X175671428Y-60927149D02*
X175623809Y-60927149D01*
X175623809Y-60927149D02*
X175552381Y-60903340D01*
X175552381Y-60903340D02*
X175504762Y-60855720D01*
X175504762Y-60855720D02*
X175480952Y-60808101D01*
X175480952Y-60808101D02*
X175457143Y-60712863D01*
X175457143Y-60712863D02*
X175457143Y-60641435D01*
X175457143Y-60641435D02*
X175480952Y-60546197D01*
X175480952Y-60546197D02*
X175504762Y-60498578D01*
X175504762Y-60498578D02*
X175552381Y-60450959D01*
X175552381Y-60450959D02*
X175623809Y-60427149D01*
X175623809Y-60427149D02*
X175671428Y-60427149D01*
X175671428Y-60427149D02*
X175742857Y-60450959D01*
X175742857Y-60450959D02*
X175766666Y-60474768D01*
X175933333Y-60427149D02*
X176242857Y-60427149D01*
X176242857Y-60427149D02*
X176076190Y-60617625D01*
X176076190Y-60617625D02*
X176147619Y-60617625D01*
X176147619Y-60617625D02*
X176195238Y-60641435D01*
X176195238Y-60641435D02*
X176219047Y-60665244D01*
X176219047Y-60665244D02*
X176242857Y-60712863D01*
X176242857Y-60712863D02*
X176242857Y-60831911D01*
X176242857Y-60831911D02*
X176219047Y-60879530D01*
X176219047Y-60879530D02*
X176195238Y-60903340D01*
X176195238Y-60903340D02*
X176147619Y-60927149D01*
X176147619Y-60927149D02*
X176004762Y-60927149D01*
X176004762Y-60927149D02*
X175957143Y-60903340D01*
X175957143Y-60903340D02*
X175933333Y-60879530D01*
D10*
X194983333Y-87227409D02*
X194983333Y-87584552D01*
X194983333Y-87584552D02*
X194959524Y-87655980D01*
X194959524Y-87655980D02*
X194911905Y-87703600D01*
X194911905Y-87703600D02*
X194840476Y-87727409D01*
X194840476Y-87727409D02*
X194792857Y-87727409D01*
X195173809Y-87227409D02*
X195507142Y-87227409D01*
X195507142Y-87227409D02*
X195292857Y-87727409D01*
D12*
X170729530Y-66783333D02*
X170753340Y-66807142D01*
X170753340Y-66807142D02*
X170777149Y-66878571D01*
X170777149Y-66878571D02*
X170777149Y-66926190D01*
X170777149Y-66926190D02*
X170753340Y-66997618D01*
X170753340Y-66997618D02*
X170705720Y-67045237D01*
X170705720Y-67045237D02*
X170658101Y-67069047D01*
X170658101Y-67069047D02*
X170562863Y-67092856D01*
X170562863Y-67092856D02*
X170491435Y-67092856D01*
X170491435Y-67092856D02*
X170396197Y-67069047D01*
X170396197Y-67069047D02*
X170348578Y-67045237D01*
X170348578Y-67045237D02*
X170300959Y-66997618D01*
X170300959Y-66997618D02*
X170277149Y-66926190D01*
X170277149Y-66926190D02*
X170277149Y-66878571D01*
X170277149Y-66878571D02*
X170300959Y-66807142D01*
X170300959Y-66807142D02*
X170324768Y-66783333D01*
X170443816Y-66354761D02*
X170777149Y-66354761D01*
X170253340Y-66473809D02*
X170610482Y-66592856D01*
X170610482Y-66592856D02*
X170610482Y-66283333D01*
D10*
X179970890Y-78978571D02*
X180208985Y-78811905D01*
X179970890Y-78692857D02*
X180470890Y-78692857D01*
X180470890Y-78692857D02*
X180470890Y-78883333D01*
X180470890Y-78883333D02*
X180447080Y-78930952D01*
X180447080Y-78930952D02*
X180423271Y-78954762D01*
X180423271Y-78954762D02*
X180375652Y-78978571D01*
X180375652Y-78978571D02*
X180304223Y-78978571D01*
X180304223Y-78978571D02*
X180256604Y-78954762D01*
X180256604Y-78954762D02*
X180232795Y-78930952D01*
X180232795Y-78930952D02*
X180208985Y-78883333D01*
X180208985Y-78883333D02*
X180208985Y-78692857D01*
X180423271Y-79169048D02*
X180447080Y-79192857D01*
X180447080Y-79192857D02*
X180470890Y-79240476D01*
X180470890Y-79240476D02*
X180470890Y-79359524D01*
X180470890Y-79359524D02*
X180447080Y-79407143D01*
X180447080Y-79407143D02*
X180423271Y-79430952D01*
X180423271Y-79430952D02*
X180375652Y-79454762D01*
X180375652Y-79454762D02*
X180328033Y-79454762D01*
X180328033Y-79454762D02*
X180256604Y-79430952D01*
X180256604Y-79430952D02*
X179970890Y-79145238D01*
X179970890Y-79145238D02*
X179970890Y-79454762D01*
X180423271Y-79645238D02*
X180447080Y-79669047D01*
X180447080Y-79669047D02*
X180470890Y-79716666D01*
X180470890Y-79716666D02*
X180470890Y-79835714D01*
X180470890Y-79835714D02*
X180447080Y-79883333D01*
X180447080Y-79883333D02*
X180423271Y-79907142D01*
X180423271Y-79907142D02*
X180375652Y-79930952D01*
X180375652Y-79930952D02*
X180328033Y-79930952D01*
X180328033Y-79930952D02*
X180256604Y-79907142D01*
X180256604Y-79907142D02*
X179970890Y-79621428D01*
X179970890Y-79621428D02*
X179970890Y-79930952D01*
X206927590Y-69763333D02*
X206570447Y-69763333D01*
X206570447Y-69763333D02*
X206499019Y-69739524D01*
X206499019Y-69739524D02*
X206451400Y-69691905D01*
X206451400Y-69691905D02*
X206427590Y-69620476D01*
X206427590Y-69620476D02*
X206427590Y-69572857D01*
X206927590Y-70239523D02*
X206927590Y-70001428D01*
X206927590Y-70001428D02*
X206689495Y-69977619D01*
X206689495Y-69977619D02*
X206713304Y-70001428D01*
X206713304Y-70001428D02*
X206737114Y-70049047D01*
X206737114Y-70049047D02*
X206737114Y-70168095D01*
X206737114Y-70168095D02*
X206713304Y-70215714D01*
X206713304Y-70215714D02*
X206689495Y-70239523D01*
X206689495Y-70239523D02*
X206641876Y-70263333D01*
X206641876Y-70263333D02*
X206522828Y-70263333D01*
X206522828Y-70263333D02*
X206475209Y-70239523D01*
X206475209Y-70239523D02*
X206451400Y-70215714D01*
X206451400Y-70215714D02*
X206427590Y-70168095D01*
X206427590Y-70168095D02*
X206427590Y-70049047D01*
X206427590Y-70049047D02*
X206451400Y-70001428D01*
X206451400Y-70001428D02*
X206475209Y-69977619D01*
X184672590Y-85628571D02*
X184910685Y-85461905D01*
X184672590Y-85342857D02*
X185172590Y-85342857D01*
X185172590Y-85342857D02*
X185172590Y-85533333D01*
X185172590Y-85533333D02*
X185148780Y-85580952D01*
X185148780Y-85580952D02*
X185124971Y-85604762D01*
X185124971Y-85604762D02*
X185077352Y-85628571D01*
X185077352Y-85628571D02*
X185005923Y-85628571D01*
X185005923Y-85628571D02*
X184958304Y-85604762D01*
X184958304Y-85604762D02*
X184934495Y-85580952D01*
X184934495Y-85580952D02*
X184910685Y-85533333D01*
X184910685Y-85533333D02*
X184910685Y-85342857D01*
X184672590Y-86104762D02*
X184672590Y-85819048D01*
X184672590Y-85961905D02*
X185172590Y-85961905D01*
X185172590Y-85961905D02*
X185101161Y-85914286D01*
X185101161Y-85914286D02*
X185053542Y-85866667D01*
X185053542Y-85866667D02*
X185029733Y-85819048D01*
X184672590Y-86342857D02*
X184672590Y-86438095D01*
X184672590Y-86438095D02*
X184696400Y-86485714D01*
X184696400Y-86485714D02*
X184720209Y-86509523D01*
X184720209Y-86509523D02*
X184791638Y-86557142D01*
X184791638Y-86557142D02*
X184886876Y-86580952D01*
X184886876Y-86580952D02*
X185077352Y-86580952D01*
X185077352Y-86580952D02*
X185124971Y-86557142D01*
X185124971Y-86557142D02*
X185148780Y-86533333D01*
X185148780Y-86533333D02*
X185172590Y-86485714D01*
X185172590Y-86485714D02*
X185172590Y-86390476D01*
X185172590Y-86390476D02*
X185148780Y-86342857D01*
X185148780Y-86342857D02*
X185124971Y-86319047D01*
X185124971Y-86319047D02*
X185077352Y-86295238D01*
X185077352Y-86295238D02*
X184958304Y-86295238D01*
X184958304Y-86295238D02*
X184910685Y-86319047D01*
X184910685Y-86319047D02*
X184886876Y-86342857D01*
X184886876Y-86342857D02*
X184863066Y-86390476D01*
X184863066Y-86390476D02*
X184863066Y-86485714D01*
X184863066Y-86485714D02*
X184886876Y-86533333D01*
X184886876Y-86533333D02*
X184910685Y-86557142D01*
X184910685Y-86557142D02*
X184958304Y-86580952D01*
X200372590Y-80345238D02*
X200015447Y-80345238D01*
X200015447Y-80345238D02*
X199944019Y-80321429D01*
X199944019Y-80321429D02*
X199896400Y-80273810D01*
X199896400Y-80273810D02*
X199872590Y-80202381D01*
X199872590Y-80202381D02*
X199872590Y-80154762D01*
X199872590Y-80845238D02*
X199872590Y-80559524D01*
X199872590Y-80702381D02*
X200372590Y-80702381D01*
X200372590Y-80702381D02*
X200301161Y-80654762D01*
X200301161Y-80654762D02*
X200253542Y-80607143D01*
X200253542Y-80607143D02*
X200229733Y-80559524D01*
X199872590Y-81321428D02*
X199872590Y-81035714D01*
X199872590Y-81178571D02*
X200372590Y-81178571D01*
X200372590Y-81178571D02*
X200301161Y-81130952D01*
X200301161Y-81130952D02*
X200253542Y-81083333D01*
X200253542Y-81083333D02*
X200229733Y-81035714D01*
D12*
X181579530Y-56071428D02*
X181603340Y-56095237D01*
X181603340Y-56095237D02*
X181627149Y-56166666D01*
X181627149Y-56166666D02*
X181627149Y-56214285D01*
X181627149Y-56214285D02*
X181603340Y-56285713D01*
X181603340Y-56285713D02*
X181555720Y-56333332D01*
X181555720Y-56333332D02*
X181508101Y-56357142D01*
X181508101Y-56357142D02*
X181412863Y-56380951D01*
X181412863Y-56380951D02*
X181341435Y-56380951D01*
X181341435Y-56380951D02*
X181246197Y-56357142D01*
X181246197Y-56357142D02*
X181198578Y-56333332D01*
X181198578Y-56333332D02*
X181150959Y-56285713D01*
X181150959Y-56285713D02*
X181127149Y-56214285D01*
X181127149Y-56214285D02*
X181127149Y-56166666D01*
X181127149Y-56166666D02*
X181150959Y-56095237D01*
X181150959Y-56095237D02*
X181174768Y-56071428D01*
X181174768Y-55880951D02*
X181150959Y-55857142D01*
X181150959Y-55857142D02*
X181127149Y-55809523D01*
X181127149Y-55809523D02*
X181127149Y-55690475D01*
X181127149Y-55690475D02*
X181150959Y-55642856D01*
X181150959Y-55642856D02*
X181174768Y-55619047D01*
X181174768Y-55619047D02*
X181222387Y-55595237D01*
X181222387Y-55595237D02*
X181270006Y-55595237D01*
X181270006Y-55595237D02*
X181341435Y-55619047D01*
X181341435Y-55619047D02*
X181627149Y-55904761D01*
X181627149Y-55904761D02*
X181627149Y-55595237D01*
X181627149Y-55119047D02*
X181627149Y-55404761D01*
X181627149Y-55261904D02*
X181127149Y-55261904D01*
X181127149Y-55261904D02*
X181198578Y-55309523D01*
X181198578Y-55309523D02*
X181246197Y-55357142D01*
X181246197Y-55357142D02*
X181270006Y-55404761D01*
D10*
X169429790Y-79783333D02*
X169453600Y-79807142D01*
X169453600Y-79807142D02*
X169477409Y-79878571D01*
X169477409Y-79878571D02*
X169477409Y-79926190D01*
X169477409Y-79926190D02*
X169453600Y-79997618D01*
X169453600Y-79997618D02*
X169405980Y-80045237D01*
X169405980Y-80045237D02*
X169358361Y-80069047D01*
X169358361Y-80069047D02*
X169263123Y-80092856D01*
X169263123Y-80092856D02*
X169191695Y-80092856D01*
X169191695Y-80092856D02*
X169096457Y-80069047D01*
X169096457Y-80069047D02*
X169048838Y-80045237D01*
X169048838Y-80045237D02*
X169001219Y-79997618D01*
X169001219Y-79997618D02*
X168977409Y-79926190D01*
X168977409Y-79926190D02*
X168977409Y-79878571D01*
X168977409Y-79878571D02*
X169001219Y-79807142D01*
X169001219Y-79807142D02*
X169025028Y-79783333D01*
X169191695Y-79497618D02*
X169167885Y-79545237D01*
X169167885Y-79545237D02*
X169144076Y-79569047D01*
X169144076Y-79569047D02*
X169096457Y-79592856D01*
X169096457Y-79592856D02*
X169072647Y-79592856D01*
X169072647Y-79592856D02*
X169025028Y-79569047D01*
X169025028Y-79569047D02*
X169001219Y-79545237D01*
X169001219Y-79545237D02*
X168977409Y-79497618D01*
X168977409Y-79497618D02*
X168977409Y-79402380D01*
X168977409Y-79402380D02*
X169001219Y-79354761D01*
X169001219Y-79354761D02*
X169025028Y-79330952D01*
X169025028Y-79330952D02*
X169072647Y-79307142D01*
X169072647Y-79307142D02*
X169096457Y-79307142D01*
X169096457Y-79307142D02*
X169144076Y-79330952D01*
X169144076Y-79330952D02*
X169167885Y-79354761D01*
X169167885Y-79354761D02*
X169191695Y-79402380D01*
X169191695Y-79402380D02*
X169191695Y-79497618D01*
X169191695Y-79497618D02*
X169215504Y-79545237D01*
X169215504Y-79545237D02*
X169239314Y-79569047D01*
X169239314Y-79569047D02*
X169286933Y-79592856D01*
X169286933Y-79592856D02*
X169382171Y-79592856D01*
X169382171Y-79592856D02*
X169429790Y-79569047D01*
X169429790Y-79569047D02*
X169453600Y-79545237D01*
X169453600Y-79545237D02*
X169477409Y-79497618D01*
X169477409Y-79497618D02*
X169477409Y-79402380D01*
X169477409Y-79402380D02*
X169453600Y-79354761D01*
X169453600Y-79354761D02*
X169429790Y-79330952D01*
X169429790Y-79330952D02*
X169382171Y-79307142D01*
X169382171Y-79307142D02*
X169286933Y-79307142D01*
X169286933Y-79307142D02*
X169239314Y-79330952D01*
X169239314Y-79330952D02*
X169215504Y-79354761D01*
X169215504Y-79354761D02*
X169191695Y-79402380D01*
X199877409Y-65016666D02*
X200234552Y-65016666D01*
X200234552Y-65016666D02*
X200305980Y-65040475D01*
X200305980Y-65040475D02*
X200353600Y-65088094D01*
X200353600Y-65088094D02*
X200377409Y-65159523D01*
X200377409Y-65159523D02*
X200377409Y-65207142D01*
X200044076Y-64564285D02*
X200377409Y-64564285D01*
X199853600Y-64683333D02*
X200210742Y-64802380D01*
X200210742Y-64802380D02*
X200210742Y-64492857D01*
D11*
X150552857Y-55809819D02*
X150552857Y-54809819D01*
X150552857Y-54809819D02*
X150886190Y-55524104D01*
X150886190Y-55524104D02*
X151219523Y-54809819D01*
X151219523Y-54809819D02*
X151219523Y-55809819D01*
X151838571Y-55809819D02*
X151743333Y-55762200D01*
X151743333Y-55762200D02*
X151695714Y-55714580D01*
X151695714Y-55714580D02*
X151648095Y-55619342D01*
X151648095Y-55619342D02*
X151648095Y-55333628D01*
X151648095Y-55333628D02*
X151695714Y-55238390D01*
X151695714Y-55238390D02*
X151743333Y-55190771D01*
X151743333Y-55190771D02*
X151838571Y-55143152D01*
X151838571Y-55143152D02*
X151981428Y-55143152D01*
X151981428Y-55143152D02*
X152076666Y-55190771D01*
X152076666Y-55190771D02*
X152124285Y-55238390D01*
X152124285Y-55238390D02*
X152171904Y-55333628D01*
X152171904Y-55333628D02*
X152171904Y-55619342D01*
X152171904Y-55619342D02*
X152124285Y-55714580D01*
X152124285Y-55714580D02*
X152076666Y-55762200D01*
X152076666Y-55762200D02*
X151981428Y-55809819D01*
X151981428Y-55809819D02*
X151838571Y-55809819D01*
X153029047Y-55809819D02*
X153029047Y-54809819D01*
X153029047Y-55762200D02*
X152933809Y-55809819D01*
X152933809Y-55809819D02*
X152743333Y-55809819D01*
X152743333Y-55809819D02*
X152648095Y-55762200D01*
X152648095Y-55762200D02*
X152600476Y-55714580D01*
X152600476Y-55714580D02*
X152552857Y-55619342D01*
X152552857Y-55619342D02*
X152552857Y-55333628D01*
X152552857Y-55333628D02*
X152600476Y-55238390D01*
X152600476Y-55238390D02*
X152648095Y-55190771D01*
X152648095Y-55190771D02*
X152743333Y-55143152D01*
X152743333Y-55143152D02*
X152933809Y-55143152D01*
X152933809Y-55143152D02*
X153029047Y-55190771D01*
X153933809Y-55143152D02*
X153933809Y-55809819D01*
X153505238Y-55143152D02*
X153505238Y-55666961D01*
X153505238Y-55666961D02*
X153552857Y-55762200D01*
X153552857Y-55762200D02*
X153648095Y-55809819D01*
X153648095Y-55809819D02*
X153790952Y-55809819D01*
X153790952Y-55809819D02*
X153886190Y-55762200D01*
X153886190Y-55762200D02*
X153933809Y-55714580D01*
X154552857Y-55809819D02*
X154457619Y-55762200D01*
X154457619Y-55762200D02*
X154410000Y-55666961D01*
X154410000Y-55666961D02*
X154410000Y-54809819D01*
X155314762Y-55762200D02*
X155219524Y-55809819D01*
X155219524Y-55809819D02*
X155029048Y-55809819D01*
X155029048Y-55809819D02*
X154933810Y-55762200D01*
X154933810Y-55762200D02*
X154886191Y-55666961D01*
X154886191Y-55666961D02*
X154886191Y-55286009D01*
X154886191Y-55286009D02*
X154933810Y-55190771D01*
X154933810Y-55190771D02*
X155029048Y-55143152D01*
X155029048Y-55143152D02*
X155219524Y-55143152D01*
X155219524Y-55143152D02*
X155314762Y-55190771D01*
X155314762Y-55190771D02*
X155362381Y-55286009D01*
X155362381Y-55286009D02*
X155362381Y-55381247D01*
X155362381Y-55381247D02*
X154886191Y-55476485D01*
X156314762Y-55809819D02*
X155743334Y-55809819D01*
X156029048Y-55809819D02*
X156029048Y-54809819D01*
X156029048Y-54809819D02*
X155933810Y-54952676D01*
X155933810Y-54952676D02*
X155838572Y-55047914D01*
X155838572Y-55047914D02*
X155743334Y-55095533D01*
D12*
X178533333Y-60077149D02*
X178533333Y-60434292D01*
X178533333Y-60434292D02*
X178509524Y-60505720D01*
X178509524Y-60505720D02*
X178461905Y-60553340D01*
X178461905Y-60553340D02*
X178390476Y-60577149D01*
X178390476Y-60577149D02*
X178342857Y-60577149D01*
X178747619Y-60124768D02*
X178771428Y-60100959D01*
X178771428Y-60100959D02*
X178819047Y-60077149D01*
X178819047Y-60077149D02*
X178938095Y-60077149D01*
X178938095Y-60077149D02*
X178985714Y-60100959D01*
X178985714Y-60100959D02*
X179009523Y-60124768D01*
X179009523Y-60124768D02*
X179033333Y-60172387D01*
X179033333Y-60172387D02*
X179033333Y-60220006D01*
X179033333Y-60220006D02*
X179009523Y-60291435D01*
X179009523Y-60291435D02*
X178723809Y-60577149D01*
X178723809Y-60577149D02*
X179033333Y-60577149D01*
D10*
X174216666Y-85827409D02*
X174050000Y-85589314D01*
X173930952Y-85827409D02*
X173930952Y-85327409D01*
X173930952Y-85327409D02*
X174121428Y-85327409D01*
X174121428Y-85327409D02*
X174169047Y-85351219D01*
X174169047Y-85351219D02*
X174192857Y-85375028D01*
X174192857Y-85375028D02*
X174216666Y-85422647D01*
X174216666Y-85422647D02*
X174216666Y-85494076D01*
X174216666Y-85494076D02*
X174192857Y-85541695D01*
X174192857Y-85541695D02*
X174169047Y-85565504D01*
X174169047Y-85565504D02*
X174121428Y-85589314D01*
X174121428Y-85589314D02*
X173930952Y-85589314D01*
X174692857Y-85827409D02*
X174407143Y-85827409D01*
X174550000Y-85827409D02*
X174550000Y-85327409D01*
X174550000Y-85327409D02*
X174502381Y-85398838D01*
X174502381Y-85398838D02*
X174454762Y-85446457D01*
X174454762Y-85446457D02*
X174407143Y-85470266D01*
X168533333Y-86777409D02*
X168533333Y-87134552D01*
X168533333Y-87134552D02*
X168509524Y-87205980D01*
X168509524Y-87205980D02*
X168461905Y-87253600D01*
X168461905Y-87253600D02*
X168390476Y-87277409D01*
X168390476Y-87277409D02*
X168342857Y-87277409D01*
X169033333Y-87277409D02*
X168747619Y-87277409D01*
X168890476Y-87277409D02*
X168890476Y-86777409D01*
X168890476Y-86777409D02*
X168842857Y-86848838D01*
X168842857Y-86848838D02*
X168795238Y-86896457D01*
X168795238Y-86896457D02*
X168747619Y-86920266D01*
X189383333Y-68727409D02*
X189383333Y-69084552D01*
X189383333Y-69084552D02*
X189359524Y-69155980D01*
X189359524Y-69155980D02*
X189311905Y-69203600D01*
X189311905Y-69203600D02*
X189240476Y-69227409D01*
X189240476Y-69227409D02*
X189192857Y-69227409D01*
X189835714Y-68727409D02*
X189740476Y-68727409D01*
X189740476Y-68727409D02*
X189692857Y-68751219D01*
X189692857Y-68751219D02*
X189669047Y-68775028D01*
X189669047Y-68775028D02*
X189621428Y-68846457D01*
X189621428Y-68846457D02*
X189597619Y-68941695D01*
X189597619Y-68941695D02*
X189597619Y-69132171D01*
X189597619Y-69132171D02*
X189621428Y-69179790D01*
X189621428Y-69179790D02*
X189645238Y-69203600D01*
X189645238Y-69203600D02*
X189692857Y-69227409D01*
X189692857Y-69227409D02*
X189788095Y-69227409D01*
X189788095Y-69227409D02*
X189835714Y-69203600D01*
X189835714Y-69203600D02*
X189859523Y-69179790D01*
X189859523Y-69179790D02*
X189883333Y-69132171D01*
X189883333Y-69132171D02*
X189883333Y-69013123D01*
X189883333Y-69013123D02*
X189859523Y-68965504D01*
X189859523Y-68965504D02*
X189835714Y-68941695D01*
X189835714Y-68941695D02*
X189788095Y-68917885D01*
X189788095Y-68917885D02*
X189692857Y-68917885D01*
X189692857Y-68917885D02*
X189645238Y-68941695D01*
X189645238Y-68941695D02*
X189621428Y-68965504D01*
X189621428Y-68965504D02*
X189597619Y-69013123D01*
X173429790Y-79883333D02*
X173453600Y-79907142D01*
X173453600Y-79907142D02*
X173477409Y-79978571D01*
X173477409Y-79978571D02*
X173477409Y-80026190D01*
X173477409Y-80026190D02*
X173453600Y-80097618D01*
X173453600Y-80097618D02*
X173405980Y-80145237D01*
X173405980Y-80145237D02*
X173358361Y-80169047D01*
X173358361Y-80169047D02*
X173263123Y-80192856D01*
X173263123Y-80192856D02*
X173191695Y-80192856D01*
X173191695Y-80192856D02*
X173096457Y-80169047D01*
X173096457Y-80169047D02*
X173048838Y-80145237D01*
X173048838Y-80145237D02*
X173001219Y-80097618D01*
X173001219Y-80097618D02*
X172977409Y-80026190D01*
X172977409Y-80026190D02*
X172977409Y-79978571D01*
X172977409Y-79978571D02*
X173001219Y-79907142D01*
X173001219Y-79907142D02*
X173025028Y-79883333D01*
X173477409Y-79645237D02*
X173477409Y-79549999D01*
X173477409Y-79549999D02*
X173453600Y-79502380D01*
X173453600Y-79502380D02*
X173429790Y-79478571D01*
X173429790Y-79478571D02*
X173358361Y-79430952D01*
X173358361Y-79430952D02*
X173263123Y-79407142D01*
X173263123Y-79407142D02*
X173072647Y-79407142D01*
X173072647Y-79407142D02*
X173025028Y-79430952D01*
X173025028Y-79430952D02*
X173001219Y-79454761D01*
X173001219Y-79454761D02*
X172977409Y-79502380D01*
X172977409Y-79502380D02*
X172977409Y-79597618D01*
X172977409Y-79597618D02*
X173001219Y-79645237D01*
X173001219Y-79645237D02*
X173025028Y-79669047D01*
X173025028Y-79669047D02*
X173072647Y-79692856D01*
X173072647Y-79692856D02*
X173191695Y-79692856D01*
X173191695Y-79692856D02*
X173239314Y-79669047D01*
X173239314Y-79669047D02*
X173263123Y-79645237D01*
X173263123Y-79645237D02*
X173286933Y-79597618D01*
X173286933Y-79597618D02*
X173286933Y-79502380D01*
X173286933Y-79502380D02*
X173263123Y-79454761D01*
X173263123Y-79454761D02*
X173239314Y-79430952D01*
X173239314Y-79430952D02*
X173191695Y-79407142D01*
X182222590Y-79128571D02*
X182460685Y-78961905D01*
X182222590Y-78842857D02*
X182722590Y-78842857D01*
X182722590Y-78842857D02*
X182722590Y-79033333D01*
X182722590Y-79033333D02*
X182698780Y-79080952D01*
X182698780Y-79080952D02*
X182674971Y-79104762D01*
X182674971Y-79104762D02*
X182627352Y-79128571D01*
X182627352Y-79128571D02*
X182555923Y-79128571D01*
X182555923Y-79128571D02*
X182508304Y-79104762D01*
X182508304Y-79104762D02*
X182484495Y-79080952D01*
X182484495Y-79080952D02*
X182460685Y-79033333D01*
X182460685Y-79033333D02*
X182460685Y-78842857D01*
X182674971Y-79319048D02*
X182698780Y-79342857D01*
X182698780Y-79342857D02*
X182722590Y-79390476D01*
X182722590Y-79390476D02*
X182722590Y-79509524D01*
X182722590Y-79509524D02*
X182698780Y-79557143D01*
X182698780Y-79557143D02*
X182674971Y-79580952D01*
X182674971Y-79580952D02*
X182627352Y-79604762D01*
X182627352Y-79604762D02*
X182579733Y-79604762D01*
X182579733Y-79604762D02*
X182508304Y-79580952D01*
X182508304Y-79580952D02*
X182222590Y-79295238D01*
X182222590Y-79295238D02*
X182222590Y-79604762D01*
X182722590Y-79771428D02*
X182722590Y-80080952D01*
X182722590Y-80080952D02*
X182532114Y-79914285D01*
X182532114Y-79914285D02*
X182532114Y-79985714D01*
X182532114Y-79985714D02*
X182508304Y-80033333D01*
X182508304Y-80033333D02*
X182484495Y-80057142D01*
X182484495Y-80057142D02*
X182436876Y-80080952D01*
X182436876Y-80080952D02*
X182317828Y-80080952D01*
X182317828Y-80080952D02*
X182270209Y-80057142D01*
X182270209Y-80057142D02*
X182246400Y-80033333D01*
X182246400Y-80033333D02*
X182222590Y-79985714D01*
X182222590Y-79985714D02*
X182222590Y-79842857D01*
X182222590Y-79842857D02*
X182246400Y-79795238D01*
X182246400Y-79795238D02*
X182270209Y-79771428D01*
X206927590Y-91523333D02*
X206570447Y-91523333D01*
X206570447Y-91523333D02*
X206499019Y-91499524D01*
X206499019Y-91499524D02*
X206451400Y-91451905D01*
X206451400Y-91451905D02*
X206427590Y-91380476D01*
X206427590Y-91380476D02*
X206427590Y-91332857D01*
X206427590Y-91785238D02*
X206427590Y-91880476D01*
X206427590Y-91880476D02*
X206451400Y-91928095D01*
X206451400Y-91928095D02*
X206475209Y-91951904D01*
X206475209Y-91951904D02*
X206546638Y-91999523D01*
X206546638Y-91999523D02*
X206641876Y-92023333D01*
X206641876Y-92023333D02*
X206832352Y-92023333D01*
X206832352Y-92023333D02*
X206879971Y-91999523D01*
X206879971Y-91999523D02*
X206903780Y-91975714D01*
X206903780Y-91975714D02*
X206927590Y-91928095D01*
X206927590Y-91928095D02*
X206927590Y-91832857D01*
X206927590Y-91832857D02*
X206903780Y-91785238D01*
X206903780Y-91785238D02*
X206879971Y-91761428D01*
X206879971Y-91761428D02*
X206832352Y-91737619D01*
X206832352Y-91737619D02*
X206713304Y-91737619D01*
X206713304Y-91737619D02*
X206665685Y-91761428D01*
X206665685Y-91761428D02*
X206641876Y-91785238D01*
X206641876Y-91785238D02*
X206618066Y-91832857D01*
X206618066Y-91832857D02*
X206618066Y-91928095D01*
X206618066Y-91928095D02*
X206641876Y-91975714D01*
X206641876Y-91975714D02*
X206665685Y-91999523D01*
X206665685Y-91999523D02*
X206713304Y-92023333D01*
X177679790Y-72933333D02*
X177703600Y-72957142D01*
X177703600Y-72957142D02*
X177727409Y-73028571D01*
X177727409Y-73028571D02*
X177727409Y-73076190D01*
X177727409Y-73076190D02*
X177703600Y-73147618D01*
X177703600Y-73147618D02*
X177655980Y-73195237D01*
X177655980Y-73195237D02*
X177608361Y-73219047D01*
X177608361Y-73219047D02*
X177513123Y-73242856D01*
X177513123Y-73242856D02*
X177441695Y-73242856D01*
X177441695Y-73242856D02*
X177346457Y-73219047D01*
X177346457Y-73219047D02*
X177298838Y-73195237D01*
X177298838Y-73195237D02*
X177251219Y-73147618D01*
X177251219Y-73147618D02*
X177227409Y-73076190D01*
X177227409Y-73076190D02*
X177227409Y-73028571D01*
X177227409Y-73028571D02*
X177251219Y-72957142D01*
X177251219Y-72957142D02*
X177275028Y-72933333D01*
X177227409Y-72504761D02*
X177227409Y-72599999D01*
X177227409Y-72599999D02*
X177251219Y-72647618D01*
X177251219Y-72647618D02*
X177275028Y-72671428D01*
X177275028Y-72671428D02*
X177346457Y-72719047D01*
X177346457Y-72719047D02*
X177441695Y-72742856D01*
X177441695Y-72742856D02*
X177632171Y-72742856D01*
X177632171Y-72742856D02*
X177679790Y-72719047D01*
X177679790Y-72719047D02*
X177703600Y-72695237D01*
X177703600Y-72695237D02*
X177727409Y-72647618D01*
X177727409Y-72647618D02*
X177727409Y-72552380D01*
X177727409Y-72552380D02*
X177703600Y-72504761D01*
X177703600Y-72504761D02*
X177679790Y-72480952D01*
X177679790Y-72480952D02*
X177632171Y-72457142D01*
X177632171Y-72457142D02*
X177513123Y-72457142D01*
X177513123Y-72457142D02*
X177465504Y-72480952D01*
X177465504Y-72480952D02*
X177441695Y-72504761D01*
X177441695Y-72504761D02*
X177417885Y-72552380D01*
X177417885Y-72552380D02*
X177417885Y-72647618D01*
X177417885Y-72647618D02*
X177441695Y-72695237D01*
X177441695Y-72695237D02*
X177465504Y-72719047D01*
X177465504Y-72719047D02*
X177513123Y-72742856D01*
D13*
%TO.C,J12*%
X200753000Y-53753000D02*
X200753000Y-64167000D01*
X200753000Y-64167000D02*
X203547000Y-64167000D01*
X203547000Y-53753000D02*
X200753000Y-53753000D01*
X203547000Y-64167000D02*
X203547000Y-53753000D01*
D14*
X204512200Y-62770000D02*
G75*
G02*
X204004200Y-62770000I-254000J0D01*
G01*
X204004200Y-62770000D02*
G75*
G02*
X204512200Y-62770000I254000J0D01*
G01*
D13*
%TO.C,L2*%
X178344200Y-69195900D02*
X178344200Y-77654100D01*
X178344200Y-77654100D02*
X186802400Y-77654100D01*
X186802400Y-69195900D02*
X178344200Y-69195900D01*
X186802400Y-77654100D02*
X186802400Y-69195900D01*
X182649500Y-77882700D02*
G75*
G02*
X182497100Y-77882700I-76200J0D01*
G01*
X182497100Y-77882700D02*
G75*
G02*
X182649500Y-77882700I76200J0D01*
G01*
%TO.C,U2*%
X189823400Y-71570800D02*
X189823400Y-71864460D01*
X189823400Y-81335538D02*
X189823400Y-81629200D01*
X189823400Y-81629200D02*
X194573200Y-81629200D01*
X194573200Y-71570800D02*
X189823400Y-71570800D01*
X194573200Y-71864460D02*
X194573200Y-71570800D01*
X194573200Y-81629200D02*
X194573200Y-81335540D01*
D15*
G36*
X188083500Y-78415498D02*
G01*
X187829500Y-78415498D01*
X187829500Y-78034498D01*
X188083500Y-78034498D01*
X188083500Y-78415498D01*
G37*
G36*
X196567100Y-77765499D02*
G01*
X196313100Y-77765499D01*
X196313100Y-77384499D01*
X196567100Y-77384499D01*
X196567100Y-77765499D01*
G37*
D13*
%TO.C,U5*%
X172709800Y-65171900D02*
X172709800Y-69337500D01*
X177916800Y-69337500D02*
X177916800Y-65171900D01*
%TO.C,R6*%
X196830950Y-87277000D02*
X197315850Y-87277000D01*
X197315850Y-86023000D02*
X196830950Y-86023000D01*
%TO.C,C5*%
X179146200Y-65130299D02*
G75*
G02*
X178993800Y-65130299I-76200J0D01*
G01*
X178993800Y-65130299D02*
G75*
G02*
X179146200Y-65130299I76200J0D01*
G01*
%TO.C,J8*%
X203988000Y-75598000D02*
X203988000Y-86012000D01*
X203988000Y-86012000D02*
X209322000Y-86012000D01*
X209322000Y-75598000D02*
X203988000Y-75598000D01*
X209322000Y-86012000D02*
X209322000Y-75598000D01*
D14*
X203530800Y-76995000D02*
G75*
G02*
X203022800Y-76995000I-254000J0D01*
G01*
X203022800Y-76995000D02*
G75*
G02*
X203530800Y-76995000I254000J0D01*
G01*
D13*
%TO.C,R12*%
X169907187Y-69348000D02*
X170992013Y-69348000D01*
X170992013Y-67493800D02*
X169907187Y-67493800D01*
%TO.C,R2*%
X192784150Y-87227000D02*
X193269050Y-87227000D01*
X193269050Y-85973000D02*
X192784150Y-85973000D01*
%TO.C,J10*%
X200728000Y-86453000D02*
X200728000Y-96867000D01*
X200728000Y-96867000D02*
X203522000Y-96867000D01*
X203522000Y-86453000D02*
X200728000Y-86453000D01*
X203522000Y-96867000D02*
X203522000Y-86453000D01*
D14*
X200270800Y-87850000D02*
G75*
G02*
X199762800Y-87850000I-254000J0D01*
G01*
X199762800Y-87850000D02*
G75*
G02*
X200270800Y-87850000I254000J0D01*
G01*
D16*
%TO.C,IC1*%
X172125000Y-81386000D02*
X173375000Y-81386000D01*
X173725000Y-81452000D02*
X174275000Y-81452000D01*
X173725000Y-84348000D02*
X173725000Y-81452000D01*
X174275000Y-81452000D02*
X174275000Y-84348000D01*
X174275000Y-84348000D02*
X173725000Y-84348000D01*
D17*
%TO.C,C11*%
X175195000Y-77640900D02*
X175195000Y-76000900D01*
X177895000Y-77640900D02*
X177895000Y-76000900D01*
D13*
%TO.C,J3*%
X203988000Y-53753000D02*
X203988000Y-64167000D01*
X203988000Y-64167000D02*
X209322000Y-64167000D01*
X209322000Y-53753000D02*
X203988000Y-53753000D01*
X209322000Y-64167000D02*
X209322000Y-53753000D01*
D14*
X203530800Y-55150000D02*
G75*
G02*
X203022800Y-55150000I-254000J0D01*
G01*
X203022800Y-55150000D02*
G75*
G02*
X203530800Y-55150000I254000J0D01*
G01*
D17*
%TO.C,R3*%
X173840000Y-72900900D02*
X173840000Y-72540900D01*
X175200000Y-72900900D02*
X175200000Y-72540900D01*
D13*
%TO.C,C3*%
X173249749Y-63097900D02*
X174834651Y-63097900D01*
X174834651Y-61243900D02*
X173249749Y-61243900D01*
D11*
%TO.C,J7*%
X190505000Y-92980000D02*
X190505000Y-90680000D01*
X191725000Y-87652000D02*
X192525000Y-87652000D01*
X192125000Y-86952000D02*
X191725000Y-87652000D01*
X192525000Y-87652000D02*
X192125000Y-86952000D01*
X199745000Y-92980000D02*
X199745000Y-90680000D01*
D17*
%TO.C,C4*%
X171245000Y-65295899D02*
X171245000Y-65595899D01*
X172145000Y-65295899D02*
X172145000Y-65595899D01*
D13*
%TO.C,J5*%
X203988000Y-64723000D02*
X203988000Y-75137000D01*
X203988000Y-75137000D02*
X209322000Y-75137000D01*
X209322000Y-64723000D02*
X203988000Y-64723000D01*
X209322000Y-75137000D02*
X209322000Y-64723000D01*
D14*
X203530800Y-66120000D02*
G75*
G02*
X203022800Y-66120000I-254000J0D01*
G01*
X203022800Y-66120000D02*
G75*
G02*
X203530800Y-66120000I254000J0D01*
G01*
D13*
%TO.C,J11*%
X200728000Y-75553000D02*
X200728000Y-85967000D01*
X200728000Y-85967000D02*
X203522000Y-85967000D01*
X203522000Y-75553000D02*
X200728000Y-75553000D01*
X203522000Y-85967000D02*
X203522000Y-75553000D01*
D14*
X200270800Y-76950000D02*
G75*
G02*
X199762800Y-76950000I-254000J0D01*
G01*
X199762800Y-76950000D02*
G75*
G02*
X200270800Y-76950000I254000J0D01*
G01*
D13*
%TO.C,C21*%
X181526200Y-60725000D02*
G75*
G02*
X181373800Y-60725000I-76200J0D01*
G01*
X181373800Y-60725000D02*
G75*
G02*
X181526200Y-60725000I76200J0D01*
G01*
D17*
%TO.C,C8*%
X168619999Y-77635899D02*
X168619999Y-75995899D01*
X171319999Y-77635899D02*
X171319999Y-75995899D01*
D13*
%TO.C,J4*%
X200753000Y-64653000D02*
X200753000Y-75067000D01*
X200753000Y-75067000D02*
X203547000Y-75067000D01*
X203547000Y-64653000D02*
X200753000Y-64653000D01*
X203547000Y-75067000D02*
X203547000Y-64653000D01*
D14*
X204512200Y-73670000D02*
G75*
G02*
X204004200Y-73670000I-254000J0D01*
G01*
X204004200Y-73670000D02*
G75*
G02*
X204512200Y-73670000I254000J0D01*
G01*
D18*
%TO.C,Module1*%
X113150000Y-57075000D02*
X113150000Y-90075000D01*
X116650000Y-93575000D02*
X164650000Y-93575000D01*
X126750000Y-54725000D02*
X126750000Y-58505000D01*
X126750000Y-54725000D02*
X127750000Y-54725000D01*
X126750000Y-58505000D02*
X127750000Y-58505000D01*
X126750000Y-88645000D02*
X126750000Y-92425000D01*
X126750000Y-88645000D02*
X127750000Y-88645000D01*
X126750000Y-92425000D02*
X127750000Y-92425000D01*
X149550000Y-54725000D02*
X149550000Y-58505000D01*
X149550000Y-88645000D02*
X148550000Y-88645000D01*
X149550000Y-88645000D02*
X149550000Y-92425000D01*
X149550000Y-92425000D02*
X148550000Y-92425000D01*
X164650000Y-53575000D02*
X116650000Y-53575000D01*
X168150000Y-90075000D02*
X168150000Y-57075000D01*
X113150000Y-57075000D02*
G75*
G02*
X116650000Y-53575000I3499999J1D01*
G01*
X116650000Y-93575000D02*
G75*
G02*
X113150000Y-90075000I0J3500000D01*
G01*
X164650000Y-53575000D02*
G75*
G02*
X168150000Y-57075000I1J-3499999D01*
G01*
X168150000Y-90075000D02*
G75*
G02*
X164650000Y-93575000I-3500000J0D01*
G01*
D17*
%TO.C,J2*%
X169100000Y-53925000D02*
X179000000Y-53925000D01*
X169100000Y-59675000D02*
X169100000Y-53925000D01*
X179000000Y-53925000D02*
X179000000Y-59675000D01*
X179000000Y-59675000D02*
X169100000Y-59675000D01*
D16*
X179900000Y-57325000D02*
G75*
G02*
X179700000Y-57325000I-100000J0D01*
G01*
X179700000Y-57325000D02*
G75*
G02*
X179900000Y-57325000I100000J0D01*
G01*
D13*
%TO.C,J1*%
X168495100Y-89103100D02*
X168495100Y-96646900D01*
X168495100Y-96646900D02*
X189754900Y-96646900D01*
X170411258Y-89103100D02*
X168495100Y-89103100D01*
X189754900Y-89103100D02*
X187838742Y-89103100D01*
X189754900Y-96646900D02*
X189754900Y-89103100D01*
D14*
X167098100Y-88784076D02*
G75*
G02*
X166336100Y-88784076I-381000J0D01*
G01*
X166336100Y-88784076D02*
G75*
G02*
X167098100Y-88784076I381000J0D01*
G01*
D17*
%TO.C,J6*%
X182975000Y-54000000D02*
X196075000Y-54000000D01*
X182975000Y-56700000D02*
X182975000Y-59600000D01*
X182975000Y-62600000D02*
X182975000Y-64700000D01*
X183649000Y-68050000D02*
X184651000Y-68050000D01*
X190399000Y-68050000D02*
X195401000Y-68050000D01*
D16*
X187245000Y-53550000D02*
G75*
G02*
X187045000Y-53550000I-100000J0D01*
G01*
X187045000Y-53550000D02*
G75*
G02*
X187245000Y-53550000I100000J0D01*
G01*
D17*
%TO.C,C9*%
X171920000Y-77635899D02*
X171920000Y-75995899D01*
X174620000Y-77635899D02*
X174620000Y-75995899D01*
D13*
%TO.C,J9*%
X203988000Y-86483000D02*
X203988000Y-96897000D01*
X203988000Y-96897000D02*
X209322000Y-96897000D01*
X209322000Y-86483000D02*
X203988000Y-86483000D01*
X209322000Y-96897000D02*
X209322000Y-86483000D01*
D14*
X203530800Y-87880000D02*
G75*
G02*
X203022800Y-87880000I-254000J0D01*
G01*
X203022800Y-87880000D02*
G75*
G02*
X203530800Y-87880000I254000J0D01*
G01*
D17*
%TO.C,C6*%
X175845001Y-72920900D02*
X175845001Y-72620900D01*
X176745001Y-72920900D02*
X176745001Y-72620900D01*
%TD*%
M02*
