M48
; DRILL file {KiCad 7.0.9} date Sun May 26 20:14:44 2024
; FORMAT={-:-/ absolute / inch / decimal}
; #@! TF.CreationDate,2024-05-26T20:14:44+05:00
; #@! TF.GenerationSoftware,Kicad,Pcbnew,7.0.9
; #@! TF.FileFunction,Plated,1,2,PTH
FMAT,2
INCH
; #@! TA.AperFunction,Plated,PTH,ViaDrill
T1C0.0079
; #@! TA.AperFunction,Plated,PTH,ComponentDrill
T2C0.0236
; #@! TA.AperFunction,Plated,PTH,ComponentDrill
T3C0.0394
; #@! TA.AperFunction,Plated,PTH,ComponentDrill
T4C0.0450
%
G90
G05
T1
X4.9173Y-2.3602
X4.9331Y-2.4035
X5.0217Y-2.378
X5.0492Y-2.4016
X5.0689Y-2.3543
X5.0689Y-3.4252
X5.0689Y-3.7087
X5.1161Y-3.7087
X5.1634Y-3.4272
X5.1634Y-3.7106
X5.2106Y-3.4272
X5.2106Y-3.7106
X5.2579Y-2.3543
X5.2579Y-3.4272
X5.2579Y-3.7106
X5.2736Y-2.122
X5.3051Y-3.4272
X5.3051Y-3.7106
X5.3209Y-2.3543
X5.3524Y-3.4272
X5.3524Y-3.7106
X5.3681Y-2.126
X5.3681Y-2.3543
X5.3996Y-3.4272
X5.3996Y-3.7106
X5.4154Y-2.122
X5.4311Y-2.3543
X5.4469Y-3.7106
X5.4941Y-2.124
X5.4941Y-3.7106
X5.5098Y-2.3543
X5.5413Y-3.4291
X5.5413Y-3.7087
X5.5728Y-2.124
X5.5748Y-3.7224
X5.5886Y-2.3543
X5.5886Y-3.4291
X5.5965Y-3.5591
X5.626Y-3.5591
X5.6358Y-3.4291
X5.6516Y-2.124
X5.6516Y-3.7224
X5.6673Y-2.3543
X5.6831Y-3.4291
X5.6831Y-3.7087
X5.6831Y-3.7559
X5.6831Y-3.7874
X5.7303Y-2.124
X5.7303Y-2.3543
X5.7303Y-3.4272
X5.7303Y-3.7087
X5.7776Y-2.124
X5.7776Y-2.3543
X5.7776Y-3.4291
X5.7776Y-3.7087
X5.8248Y-2.124
X5.8248Y-2.3543
X5.8799Y-1.878
X5.9035Y-3.3602
X5.9035Y-3.3878
X5.9291Y-3.3602
X5.9291Y-3.3888
X6.6594Y-2.6791
X6.6594Y-2.7106
X6.689Y-3.0886
X6.7067Y-2.5827
X6.7087Y-2.5571
X6.7106Y-2.4705
X6.7106Y-2.4941
X6.7126Y-2.4488
X6.7136Y-2.378
X6.7136Y-2.4026
X6.7136Y-2.4281
X6.7205Y-3.0886
X6.7362Y-3.5797
X6.7451Y-2.626
X6.7461Y-2.5945
X6.7559Y-3.0886
X6.7598Y-2.6093
X6.7776Y-3.5
X6.7894Y-3.0886
X6.8228Y-3.0886
X6.8484Y-2.6102
X6.8484Y-2.6339
X6.8484Y-2.6575
X6.8484Y-2.6831
X6.8543Y-3.0886
X6.8583Y-3.1575
X6.8583Y-3.1988
X6.8701Y-2.6102
X6.8701Y-2.6319
X6.8701Y-2.6831
X6.872Y-2.6575
X6.8878Y-3.0886
X6.8898Y-2.6102
X6.8898Y-2.6319
X6.8898Y-2.6555
X6.8917Y-2.6831
X6.8957Y-3.4941
X6.9114Y-2.6102
X6.9114Y-2.6319
X6.9114Y-2.6555
X6.9114Y-2.6831
X6.9213Y-3.0886
X6.9291Y-3.2953
X6.9311Y-2.6102
X6.9311Y-2.6319
X6.9311Y-2.6555
X6.9311Y-2.6831
X6.9508Y-2.6319
X6.9508Y-2.6555
X6.9508Y-2.6831
X6.9508Y-3.0886
X6.9528Y-2.6102
X7.0138Y-3.4961
X7.0945Y-3.2559
X7.126Y-2.2657
X7.1319Y-3.4961
X7.1417Y-3.2539
X7.1594Y-2.2657
X7.187Y-3.2559
X7.1978Y-3.7303
X7.1978Y-3.7589
X7.2343Y-3.2559
X7.2795Y-3.185
X7.2795Y-3.2559
X7.3297Y-2.4026
X7.3307Y-2.9961
X7.3307Y-3.0138
X7.3307Y-3.0315
X7.3465Y-2.5472
X7.3661Y-3.5787
X7.3679Y-2.3976
X7.372Y-2.8996
X7.372Y-2.9252
X7.372Y-2.9528
X7.373Y-2.4429
X7.374Y-2.874
X7.375Y-2.9862
X7.376Y-2.8484
X7.3898Y-2.5709
X7.3917Y-2.9862
X7.4222Y-2.3976
X7.4232Y-2.8081
X7.439Y-2.8081
X7.4488Y-3.1831
X7.4646Y-2.6752
X7.5197Y-2.4478
X7.561Y-3.5512
X7.5669Y-3.4094
X7.5846Y-2.1811
X7.622Y-2.7638
X7.628Y-2.3376
X7.6722Y-3.5502
X7.685Y-2.9528
X7.7008Y-3.5
X7.7116Y-3.5502
X7.7323Y-3.4616
X7.7913Y-3.4134
X7.8031Y-3.5492
T3
X6.7539Y-2.2569
X6.8524Y-2.2569
X6.9508Y-2.2569
T4
X7.9577Y-3.0295
X7.9577Y-3.1295
X7.9577Y-3.2295
X7.9577Y-3.3295
X7.9577Y-3.4587
X7.9577Y-3.5587
X7.9577Y-3.6587
X7.9577Y-3.7587
X7.9587Y-2.1713
X7.9587Y-2.2713
X7.9587Y-2.3713
X7.9587Y-2.4713
X7.9587Y-2.6004
X7.9587Y-2.7004
X7.9587Y-2.8004
X7.9587Y-2.9004
X8.086Y-2.1713
X8.086Y-2.2713
X8.086Y-2.3713
X8.086Y-2.4713
X8.086Y-2.6031
X8.086Y-2.7031
X8.086Y-2.8031
X8.086Y-2.9031
X8.086Y-3.0313
X8.086Y-3.1313
X8.086Y-3.2313
X8.086Y-3.3313
X8.086Y-3.4598
X8.086Y-3.5598
X8.086Y-3.6598
X8.086Y-3.7598
X8.186Y-2.1713
X8.186Y-2.2713
X8.186Y-2.3713
X8.186Y-2.4713
X8.186Y-2.6031
X8.186Y-2.7031
X8.186Y-2.8031
X8.186Y-2.9031
X8.186Y-3.0313
X8.186Y-3.1313
X8.186Y-3.2313
X8.186Y-3.3313
X8.186Y-3.4598
X8.186Y-3.5598
X8.186Y-3.6598
X8.186Y-3.7598
T2
G00X7.512Y-3.4949
M15
G01X7.512Y-3.5343
M16
G05
G00X7.512Y-3.6961
M15
G01X7.512Y-3.7551
M16
G05
G00X7.8522Y-3.4949
M15
G01X7.8522Y-3.5343
M16
G05
G00X7.8522Y-3.6961
M15
G01X7.8522Y-3.7551
M16
G05
T0
M30
